<?xml version="1.0" encoding="utf-8"?>
<!-- Generator: Adobe Illustrator 27.5.0, SVG Export Plug-In . SVG Version: 6.00 Build 0)  -->
<svg version="1.1" xmlns="http://www.w3.org/2000/svg" xmlns:xlink="http://www.w3.org/1999/xlink" x="0px" y="0px"
	 viewBox="0 0 500 500" style="enable-background:new 0 0 500 500;" xml:space="preserve">
<g id="Floor">
	<ellipse id="Floor_7_" style="fill:#F5F5F5;" cx="250" cy="345.799" rx="231.877" ry="133.874"/>
</g>
<g id="Shadows">
	<ellipse id="Shadow_16_" style="fill:#E0E0E0;" cx="320.692" cy="413.152" rx="75.429" ry="41.764"/>
	<ellipse id="Shadow_3_" style="fill:#E0E0E0;" cx="182.683" cy="402.995" rx="75.429" ry="41.764"/>
</g>
<g id="Ladder_1_">
	<g id="Ladder">
		<path style="fill:#37474F;" d="M336.917,327.75l-21.151,58.105c-0.951,1.884,2.219,2.922,3.617,2.111
			c0.524-0.299,0.986-1.073,0.986-1.073l20.796-56.91L336.917,327.75z"/>
		<g id="XMLID_686_">
			<polygon id="XMLID_687_" style="fill:#263238;" points="308.295,411.739 276.156,393.106 277.158,388.663 309.297,407.297 			"/>
		</g>
		<path style="fill:#37474F;" d="M285.437,360.449l-19.473,53.525c-0.951,1.884,2.219,2.922,3.617,2.111
			c0.524-0.299,0.849-0.661,0.973-1.048l0.012-0.025l18.974-51.952L285.437,360.449z"/>
		<g id="XMLID_682_">
			<polygon id="XMLID_684_" style="fill:#263238;" points="358.782,382.452 328.387,364.836 329.908,360.696 359.784,378.009 			"/>
		</g>
		<path style="fill:#455A64;" d="M368.35,412.338c-0.013-0.201-0.027-0.281-0.053-0.414l-16.489-77.204l-6.555-3.784l17.459,81.576
			c0.107,0.361,0.334,0.588,0.681,0.802c0.574,0.334,1.363,0.508,2.138,0.508c0.788,0,1.577-0.174,2.165-0.521
			c0.388-0.214,0.615-0.468,0.668-0.722C368.364,412.539,368.364,412.432,368.35,412.338z"/>
		<g id="XMLID_673_">
			<path id="XMLID_677_" style="fill:#27DEBF;" d="M312.694,403.232l-18.113-10.458c-0.597-0.345-1.081-1.183-1.081-1.872v-0.431
				c0-0.689,0.484-1.527,1.081-1.872l53.394-30.966c0.597-0.344,1.565-0.344,2.161,0l18.113,10.458
				c0.597,0.344,1.081,1.182,1.081,1.872v0.431c0,0.689-0.484,1.527-1.081,1.872l-53.394,30.966
				C314.259,403.577,313.292,403.577,312.694,403.232z"/>
			<path id="XMLID_676_" style="opacity:0.1;" d="M293.817,389.406c-0.196,0.339-0.317,0.72-0.317,1.065v0.431
				c0,0.689,0.484,1.527,1.081,1.872l18.113,10.458c0.299,0.172,0.69,0.259,1.081,0.259v-2.561L293.817,389.406z"/>
			<path id="XMLID_675_" style="opacity:0.15;" d="M313.775,400.93v2.561c0.391,0,0.782-0.086,1.081-0.258l21.729-12.545
				l31.666-18.421c0.597-0.345,1.081-1.183,1.081-1.872v-0.431c0-0.345-0.121-0.726-0.317-1.065L313.775,400.93z"/>
		</g>
		<g id="XMLID_505_">
			<path id="XMLID_509_" style="fill:#27DEBF;" d="M318.958,430.19l-18.113-10.458c-0.597-0.345-1.081-1.183-1.081-1.872v-0.431
				c0-0.689,0.484-1.527,1.081-1.872l53.394-30.966c0.597-0.344,1.565-0.344,2.161,0l18.113,10.458
				c0.597,0.345,1.081,1.183,1.081,1.872v0.431c0,0.689-0.484,1.527-1.081,1.872L321.12,430.19
				C320.523,430.535,319.555,430.535,318.958,430.19z"/>
			<path id="XMLID_508_" style="opacity:0.1;" d="M300.081,416.364c-0.195,0.339-0.316,0.721-0.316,1.065v0.431
				c0,0.689,0.484,1.527,1.081,1.872l18.113,10.458c0.298,0.172,0.689,0.258,1.081,0.258v-2.561L300.081,416.364z"/>
			<path id="XMLID_507_" style="opacity:0.15;" d="M320.039,427.887v2.561c0.391,0,0.782-0.086,1.081-0.258l21.729-12.545
				l31.666-18.421c0.597-0.345,1.081-1.183,1.081-1.872v-0.431c0-0.345-0.121-0.726-0.317-1.065L320.039,427.887z"/>
		</g>
		<g id="XMLID_661_">
			<path id="XMLID_664_" style="fill:#27DEBF;" d="M307.338,376.26l-30.101-17.375c-0.597-0.344-1.081-1.183-1.081-1.872v-0.431
				c0-0.689,0.484-1.527,1.081-1.872l53.394-30.966c0.597-0.345,1.565-0.345,2.161,0l30.101,17.375
				c0.597,0.345,1.081,1.183,1.081,1.872v0.431c0,0.689-0.484,1.527-1.081,1.872l-53.394,30.967
				C308.903,376.605,307.935,376.605,307.338,376.26z"/>
			<path id="XMLID_663_" style="opacity:0.15;" d="M308.419,373.957v2.561c0.391,0,0.782-0.086,1.081-0.258l21.729-12.545
				l31.665-18.421c0.597-0.345,1.081-1.182,1.081-1.872v-0.431c0-0.345-0.121-0.726-0.316-1.065L308.419,373.957z"/>
			<path id="XMLID_662_" style="opacity:0.1;" d="M276.473,355.517c-0.196,0.339-0.317,0.72-0.317,1.065v0.431
				c0,0.689,0.484,1.527,1.081,1.872l30.101,17.375c0.298,0.172,0.689,0.258,1.08,0.258v-2.561L276.473,355.517z"/>
		</g>
		<g>
			<path style="fill:#455A64;" d="M303.46,374.021l14.357,67.204c0.04,0.12,0.053,0.24,0.053,0.441c0.013,0.08,0.013,0.16,0.013,0.2
				c-0.04,0.227-0.294,0.495-0.668,0.722c-0.588,0.348-1.376,0.508-2.152,0.508c-0.788,0-1.577-0.16-2.151-0.508
				c-0.294-0.16-0.508-0.361-0.615-0.561l-0.067-0.214l-0.027-0.094l-15.303-71.485"/>
		</g>
	</g>
</g>
<g id="Character_2">
	<g id="Character_9_">
		<g>
			<g id="XMLID_585_">
				<g id="XMLID_628_">
					<path id="XMLID_629_" style="fill:#263238;" d="M321.299,327.986c-1.523,1.291-3.621,7.471-3.928,8.16
						c-1.32,2.953-2.53,5.979-4.192,8.763c-0.595,0.997-1.353,1.816-2.02,2.751c-0.538,0.754-1.186,1.31-2.096,1.606
						c-0.758,0.246-1.65,0.197-2.273-0.298c-0.494-0.393-0.763-1.022-0.817-1.652c-0.074-0.856,0.211-2.766,0.373-3.581
						c-0.883,1.469-2.501,3.059-4.007,4.214c-1.109,0.851-1.607,1.128-2.771,1.882c-0.885,0.573-1.923,1.273-2.702,1.984
						c-0.716,0.652-1.201,1.366-1.427,2.307c-0.322,1.34,0.429,2.765,1.535,3.586c1.106,0.821,2.502,1.142,3.868,1.319
						c4.891,0.635,10.825,0.129,14.409-3.603c1.149-1.197,2.026-2.651,2.557-4.222c0.723-2.14,1.396-4.401,2.433-6.412
						c1.004-1.948,2.37-3.681,3.786-5.343c0.565-0.664,1.152-1.338,1.456-2.154c0.454-1.216,0.218-2.589-0.254-3.798
						c-0.709-1.816-1.67-3.567-2.739-5.186c-0.132-0.2-0.275-0.41-0.491-0.514C321.788,327.692,321.552,327.772,321.299,327.986z"/>
				</g>
				<path style="fill:#FFA8A7;" d="M427.162,255.946c-0.63-0.534-1.346-0.956-2.05-1.387c-2.282-1.398-4.545-2.983-6.005-5.226
					c-1.809-2.778-2.268-6.389-4.567-8.777c-1.539-1.598-3.83-2.388-6.029-2.215c-2.716,0.214-3.701,2.132-5.813,3.476
					c-1.706,1.086-5.959,1.393-9.123,1.516c-3.164,0.124-6.552-0.007-9.672,0.109c-4.641,0.173-12.776-0.48-20.642,2.845
					c-5.732-20.425-11.983-61.107-26.757-73.079c-0.586-0.191-1.284-0.107-2.057,0.198l0.029-0.135l-37.507,12.253
					c-0.65,12.736,3.065,63.4,6,81.494c1.031,6.356,2.984,32.367,5.256,46.737c0.432,2.813,0.861,5.626,1.288,8.44
					c0.448,2.959,0.95,6.196,0.636,9.184c-0.093,0.998-0.199,2.001-0.359,2.991c-0.283,1.75-0.988,3.474-1.707,5.089
					c-1.004,2.255-2.266,4.396-3.753,6.366c-0.748,0.99-4.334,3.872-1.93,4.726c2.699,0.958,5.791,0.134,8.119-1.533
					c2.329-1.667,4.012-4.078,5.476-6.54c1.519-2.556,3.043-5.136,4.335-7.816c0.629-1.305,1.181-2.674,1.338-4.115
					c0.185-1.686-0.354-1.607-0.208-4.334c0.146-2.727,1.22-17.606,1.22-17.606c0.918-11.001,1.877-22.728,2.025-27.012
					c0.238-6.92-2.034-20.688-2.034-20.688l2.045-40.433c7.632,14.663,18.962,34.148,22.694,39.785
					c5.188,7.835,9.546,7.143,19.524,4.003c8.426-2.651,25.98-7.952,35.115-9.133c3.266,0.267,6.315,2.468,8.973,4.281
					c2.812,1.918,5.433,4.115,7.81,6.552c0.834,0.855,1.647,1.752,2.202,2.81c0.36,0.686,1.079,1.342,1.506,1.988
					c1.396,2.115,3.965,2.183,5.714,0.584c2.088-1.908,2.39-4.857,2.358-7.417C430.576,261.073,429.384,257.828,427.162,255.946z"/>
				<path d="M414.54,240.555c2.299,2.388,2.758,5.999,4.567,8.777c1.46,2.243,3.723,3.828,6.005,5.226
					c0.704,0.431,1.42,0.853,2.05,1.387c2.221,1.882,3.785,5.516,3.82,8.369c0.032,2.56-0.46,5.576-2.548,7.484
					c-1.749,1.599-4.703,1.525-6.098-0.59c-0.427-0.647-0.942-1.752-1.302-2.438c-0.555-1.057-1.368-1.955-2.202-2.81
					c1.027-0.174,3.036-1.221,2.79-3.466c-0.252-2.299-5.735-8.652-8.505-12.199c-2.771-3.548-8.053-8.991-10.417-8.481
					c2.112-1.345,3.097-3.263,5.813-3.476C410.711,238.166,413.002,238.956,414.54,240.555z"/>
			</g>
			<g>
				<path style="fill:#455A64;" d="M342.709,178.985c-1.214-1.543-9.21-9.498-9.21-9.498c-8.087,7.337-31.024,8.128-38.492,3.583
					c0.282,12.392,1.166,26.705,1.815,39.928c0.594,12.103,1.49,21.433,1.49,21.433c0.714,10.45,2.004,22.143,4.15,41.594
					c1.87,16.946,6.136,40.164,6.136,40.164s5.379,2.209,13.709-0.081c0,0,2.052-18.257,2.735-26.242
					c0.744-8.703,1.585-13.886-1.455-28.663l1.296-39.699c0,0,12.751,25.447,16.563,31.417c3.812,5.97,8.214,12.44,11.085,14.034
					c2.871,1.595,4.918,0.754,17.371-2.871c12.453-3.625,23.192-7.217,23.192-7.217s0.811-8.336-1.7-14.067
					c0,0-8.564,0.008-13.327,0.156c-4.763,0.148-11.338,0.829-14.459,2.674c0,0-4.811-21.862-7.86-33.051
					C352.7,201.391,349.297,187.356,342.709,178.985z"/>
			</g>
		</g>
		<g id="Character_4_">
			<g>
				<path id="XMLID_586_" style="fill:#FFA8A7;" d="M222.353,123.631c0,0,20.782,12.04,24.71,14.08
					c4.184,2.172,6.968,2.961,9.35,3.162c0,0,22.673,1.122,27.443,1.225c5.991,0.129,8.621,0.366,11.73-1.042
					c1.727-0.782,1.712-0.828,6.172-4.056c-0.296-1.549-0.748-3.32-1.475-4.724c-0.592-1.142-4.983-6.793-6.232-7.021
					c-5.302-0.965-18.86,0.165-22.759,0.368c-4.494,0.234-10.572,0.36-15.071,0.382c0,0-25.736-10.329-27.191-12.104
					c-1.455-1.775-2.023-5.369-3.608-7.823c-1.067-1.652-2.583-2.928-3.393-4.75c-0.2-0.45-0.58-1.016-1.033-0.825
					c-0.128,0.054-0.224,0.163-0.304,0.277c-0.739,1.048-0.645,2.239-0.276,3.467c0.312,1.036,0.851,2.655-0.197,4.084
					c-1.222-0.855-2.074-3.363-2.492-5.523c-0.293-1.516-0.633-2.841-1.286-3.68c-1.256-1.612-8.61-1.421-9.681,0.233
					c-1.077,1.664-1.161,4.618-0.083,7.965C210.042,117.777,222.353,123.631,222.353,123.631z"/>
				<g id="Light_2_">
					<g id="XMLID_298_">
						<g id="XMLID_324_">
							<g id="XMLID_500_">
								<path id="XMLID_501_" style="fill:#37474F;" d="M219.713,110.092c0.558,1.68-0.352,3.495-2.032,4.053
									c-1.68,0.558-3.495-0.352-4.053-2.032s0.352-3.494,2.032-4.052C217.34,107.503,219.155,108.412,219.713,110.092z"/>
							</g>
							<g id="XMLID_491_">
								<path id="XMLID_499_" style="fill:#455A64;" d="M213.09,112.514c-2.401-0.494-3.027-2.38-1.399-4.212
									c1.628-1.832,4.894-2.917,7.295-2.423c2.401,0.494,3.027,2.379,1.399,4.212C218.756,111.923,215.49,113.008,213.09,112.514z
									"/>
							</g>
							<g id="XMLID_481_">
								<path id="XMLID_484_" style="fill:#37474F;" d="M212.613,111.452c-2.474-0.509-3.12-2.453-1.442-4.341
									c1.678-1.888,5.044-3.006,7.519-2.497c2.474,0.509,3.12,2.453,1.442,4.341C218.454,110.843,215.087,111.961,212.613,111.452
									z"/>
							</g>
							<g id="XMLID_474_">
								<path id="XMLID_477_" style="fill:#455A64;" d="M212.121,110.359c-2.55-0.525-3.216-2.528-1.486-4.474
									c1.73-1.946,5.199-3.099,7.75-2.574c2.55,0.525,3.216,2.528,1.486,4.474C218.141,109.731,214.672,110.883,212.121,110.359z"
									/>
							</g>
							<g id="XMLID_470_">
								<path id="XMLID_471_" style="fill:#37474F;" d="M211.615,109.232c-2.629-0.541-3.314-2.606-1.532-4.612
									c1.783-2.006,5.359-3.194,7.988-2.653c2.629,0.541,3.315,2.606,1.532,4.612C217.82,108.585,214.244,109.773,211.615,109.232
									z"/>
							</g>
							<g id="XMLID_465_">
								<path id="XMLID_469_" style="fill:#455A64;" d="M211.127,108.034c-2.682-0.552-3.382-2.659-1.563-4.706
									c1.819-2.047,5.468-3.259,8.151-2.707c2.682,0.552,3.382,2.659,1.563,4.706
									C217.458,107.374,213.809,108.586,211.127,108.034z"/>
							</g>
							<g id="XMLID_449_">
								<path id="XMLID_464_" style="fill:#27DEBF;" d="M203.435,71.252c-8.003,2.658-12.335,11.3-9.677,19.303
									c3.821,11.503,13.946,10.261,15.486,14.897c0.245,0.739,0.979,1.315,2.142,1.554c2.327,0.479,5.492-0.572,7.07-2.348
									c0.789-0.888,1.032-1.788,0.786-2.527h0c-1.54-4.636,7.317-9.699,3.496-21.202C220.08,72.927,211.438,68.594,203.435,71.252
									z"/>
							</g>
							<g id="XMLID_408_" style="opacity:0.6;">
								<path id="XMLID_409_" style="fill:#FFFFFF;" d="M203.435,71.252c-8.003,2.658-12.335,11.3-9.677,19.303
									c3.821,11.503,13.946,10.261,15.486,14.897c0.245,0.739,0.979,1.315,2.142,1.554c2.327,0.479,5.492-0.572,7.07-2.348
									c0.789-0.888,1.032-1.788,0.786-2.527h0c-1.54-4.636,7.317-9.699,3.496-21.202C220.08,72.927,211.438,68.594,203.435,71.252
									z"/>
							</g>
							<g id="XMLID_395_">
								<path id="XMLID_402_" style="fill:#27DEBF;" d="M212.054,106.088c-1.75-0.36-2.206-1.734-1.02-3.069
									c1.187-1.335,3.567-2.126,5.316-1.766c1.75,0.36,2.206,1.734,1.02,3.07C216.184,105.658,213.803,106.448,212.054,106.088z"
									/>
							</g>
						</g>
					</g>
					<g id="XMLID_273_">
						<path id="XMLID_274_" style="fill:#FFFFFF;" d="M216.016,102.669c-0.267,0.089-0.557-0.052-0.651-0.318
							c-0.055-0.155-1.355-3.856-1.734-8.617c-0.074-0.923-0.087-1.776-0.043-2.542c-0.451-0.01-0.939-0.072-1.461-0.197
							c-0.932-0.221-1.759-0.567-2.458-0.979c-0.314,0.748-0.771,1.52-1.384,2.255c-0.344,0.413-0.698,0.754-1.054,1.032
							c0.494,0.588,0.993,1.279,1.487,2.063c2.545,4.042,3.717,7.785,3.766,7.942c0.085,0.274-0.064,0.535-0.342,0.648
							c-0.273,0.084-0.563-0.069-0.648-0.342c-0.011-0.037-1.184-3.774-3.652-7.697c-0.525-0.833-1.028-1.51-1.495-2.051
							c-1.145,0.57-2.239,0.529-3.008,0.106c-0.769-0.423-1.125-1.21-0.885-1.959c0.182-0.568,0.597-0.935,1.151-1.005
							c0.826-0.104,1.845,0.441,2.925,1.524c0.32-0.241,0.643-0.546,0.96-0.926c0.614-0.737,1.039-1.489,1.31-2.188
							c-1.014-0.809-1.601-1.749-1.635-2.524c-0.029-0.67,0.344-1.199,0.997-1.416c0.654-0.217,1.269-0.015,1.646,0.538
							c0.437,0.642,0.528,1.746,0.2,3.001c0.635,0.398,1.426,0.746,2.359,0.969c0.481,0.114,0.923,0.166,1.323,0.167
							c0.217-1.513,0.708-2.56,1.432-2.971c0.485-0.269,1.038-0.23,1.524,0.117c0.64,0.457,0.826,1.3,0.463,2.099
							c-0.363,0.8-1.217,1.486-2.474,1.715c-0.05,0.712-0.048,1.555,0.029,2.537c0.369,4.627,1.665,8.316,1.678,8.352
							c0.096,0.27-0.045,0.566-0.315,0.662C216.022,102.666,216.019,102.668,216.016,102.669z M203.66,92.053
							c-0.084,0.028-0.163,0.096-0.221,0.277c-0.13,0.408,0.271,0.665,0.397,0.735c0.429,0.236,1.058,0.275,1.746,0.002
							c-0.843-0.788-1.501-1.074-1.849-1.03C203.708,92.039,203.684,92.044,203.66,92.053z M214.766,90.016
							c0.71-0.192,1.195-0.6,1.398-1.047c0.059-0.132,0.227-0.577-0.122-0.826c-0.2-0.144-0.318-0.112-0.411-0.058
							C215.326,88.257,214.97,88.88,214.766,90.016z M208.487,86.462c-0.25,0.083-0.296,0.215-0.288,0.389
							c0.017,0.398,0.331,0.946,0.911,1.485c0.142-0.779,0.066-1.406-0.159-1.735C208.852,86.458,208.736,86.379,208.487,86.462z"/>
					</g>
				</g>
				<g>
					<g>
						<path style="fill:#E0E0E0;" d="M212.053,64.572c-0.547-0.105-0.906-0.632-0.802-1.179l0.973-5.181
							c0.103-0.549,0.632-0.911,1.18-0.807c0.002,0,0.004,0.001,0.005,0.001c0.547,0.105,0.906,0.632,0.803,1.179l-0.973,5.181
							c-0.103,0.549-0.632,0.911-1.18,0.807C212.055,64.572,212.054,64.572,212.053,64.572z"/>
					</g>
					<g>
						<path style="fill:#E0E0E0;" d="M200.443,65.458c-0.341-0.066-0.64-0.307-0.763-0.658l-1.747-4.973
							c-0.185-0.527,0.091-1.104,0.618-1.289c0.527-0.185,1.105,0.093,1.289,0.618l1.747,4.973c0.185,0.527-0.092,1.104-0.618,1.289
							C200.794,65.479,200.613,65.49,200.443,65.458z"/>
					</g>
					<g>
						<path style="fill:#E0E0E0;" d="M190.829,72.029c-0.167-0.032-0.328-0.107-0.467-0.226l-4.001-3.433
							c-0.423-0.364-0.472-1.002-0.108-1.426c0.363-0.423,1.002-0.472,1.426-0.108l4.001,3.433c0.423,0.364,0.473,1.002,0.108,1.426
							C191.543,71.98,191.174,72.096,190.829,72.029z"/>
					</g>
					<g>
						<path style="fill:#E0E0E0;" d="M180.61,81.552c-0.547-0.105-0.906-0.632-0.802-1.18c0.103-0.548,0.632-0.91,1.18-0.806
							l5.181,0.974c0.001,0,0.003,0.001,0.004,0.001c0.547,0.105,0.906,0.632,0.802,1.18c-0.102,0.548-0.632,0.91-1.18,0.806
							l-5.181-0.974C180.613,81.553,180.611,81.553,180.61,81.552z"/>
					</g>
					<g>
						<path style="fill:#E0E0E0;" d="M181.703,95.885c-0.341-0.066-0.64-0.307-0.763-0.658c-0.185-0.527,0.091-1.104,0.618-1.289
							l4.973-1.747c0.528-0.186,1.105,0.093,1.289,0.618c0.185,0.527-0.092,1.104-0.618,1.289l-4.973,1.747
							C182.054,95.907,181.873,95.918,181.703,95.885z"/>
					</g>
					<g>
						<path style="fill:#E0E0E0;" d="M230.007,90.833c-0.547-0.105-0.906-0.632-0.803-1.179c0.103-0.549,0.632-0.911,1.18-0.807
							l5.181,0.973c0.002,0,0.004,0.001,0.005,0.001c0.547,0.105,0.906,0.632,0.803,1.179c-0.103,0.549-0.632,0.911-1.18,0.807
							l-5.181-0.973C230.01,90.834,230.008,90.833,230.007,90.833z"/>
					</g>
					<g>
						<path style="fill:#E0E0E0;" d="M229.123,79.224c-0.341-0.066-0.64-0.307-0.763-0.658c-0.185-0.527,0.091-1.104,0.618-1.289
							l4.973-1.747c0.527-0.185,1.105,0.093,1.289,0.618c0.185,0.527-0.092,1.104-0.618,1.289l-4.973,1.747
							C229.474,79.245,229.293,79.256,229.123,79.224z"/>
					</g>
					<g>
						<path style="fill:#E0E0E0;" d="M222.549,69.611c-0.167-0.032-0.329-0.107-0.467-0.226c-0.423-0.364-0.473-1.002-0.108-1.426
							l3.433-4.001c0.363-0.423,1.002-0.472,1.426-0.109c0.423,0.364,0.473,1.002,0.109,1.426l-3.433,4.001
							C223.264,69.562,222.894,69.677,222.549,69.611z"/>
					</g>
				</g>
				<g id="XMLID_590_">
					<path style="fill:#263238;" d="M299.964,116.869c1.543,1.372,2.682,4.205,3.988,5.809c1.572,1.931,3.304,3.732,5.166,5.385
						c7.372,6.544,16.827,10.796,26.674,11.626c3.13,0.264,6.341,0.195,9.326-0.782c2.985-0.977,5.738-2.953,7.146-5.76
						c1.408-2.808,1.246-6.475-0.812-8.848c3.803-1.931,7.421-5.248,7.665-9.507c0.193-3.361-1.843-6.56-4.569-8.536
						c-2.726-1.976-6.06-2.913-9.362-3.573s-6.67-1.086-9.846-2.202c-5.093-1.789-8.912-4.279-11.136-9.213
						c-3.076-6.826-3.057-13.01-10.987-12.763c-1.533-4.21-4.114-5.86-7.619-7.119c-3.382-1.215-7.271-0.805-10.78-0.001
						c-5.661,1.297-10.595,5.172-16.372,5.775c-1.553,0.162-3.132,0.081-4.663,0.386c-1.531,0.305-3.076,1.089-3.781,2.481
						c-0.792,1.563-0.35,4.136,0.691,5.546c1.041,1.41,2.653,2.588,4.131,3.529c-1.619,1.013-2.53,6.484,2.229,8.709
						c2.334,1.091,4.817,2.011,7.382,1.764c-0.159,0.015,1.187,11.221,1.461,12.224c0.717,2.628,5.916,3.336,8.163,3.87
						c1.667,0.396,4.36-0.022,5.697,1.025C299.827,116.751,299.896,116.808,299.964,116.869z"/>
				</g>
				<path id="XMLID_591_" style="fill:#263238;" d="M313.156,79.323l5.227-2.512c-0.758-1.456-2.543-2.074-3.987-1.38
					C312.953,76.124,312.397,77.867,313.156,79.323z"/>
				<g>
					<path style="fill:#27DEBF;" d="M284.616,142.672c3.134-7.521,7.326-14.441,9.434-17.415l19.564-2.799
						c2.064-0.264,5.129-0.558,6.254-0.581c1.13-0.024,2.315,0.213,2.974,0.426c3.742,1.21,4.701,4.526,5.538,8.518
						c0.925,4.377,3.325,8.453,3.426,15.939l-0.986,8.849l-0.082,1.484c-0.015,0.255-0.023,0.509-0.038,0.771
						c-0.147,3.576,0.497,6.617,3.386,10.037c5.917,7.006,6.886,7.956,9.225,11.264c-4.71,8.843-36.072,20.774-48.187,10.691
						c0,0-0.717-16.138-1.04-20.256c-1.096-5.55-2.293-9.323-2.579-10.653C284.55,157.024,282.332,148.145,284.616,142.672z"/>
					<path style="opacity:0.1;" d="M298.096,156.759c0,0,6.236,3.799,12.504,0.729c6.267-3.07,6.564-8.905,6.564-8.905
						s1.552,7.408-6.396,10.904C303.096,162.861,298.096,156.759,298.096,156.759z"/>
				</g>
				<g id="XMLID_522_">
					<g id="XMLID_584_">
						<path style="fill:#FFA8A7;" d="M280.323,103.475c1.88,11.742,4.927,14.71,8.029,15.289c2.069,0.386,5.658-0.192,9.201-1.121
							l0.656,7.105c0,0-2.646,3.465-2.524,5.324c0.217,3.285,6.199,2.841,11.154,0.08c2.66-1.482,4.608-4.029,5.552-5.387
							c0.344-0.494,0.625-1.704,0.57-2.305l-1.443-15.622c0,0,2.227,2.133,4.959-1.123c2.702-3.22,2.981-7.233,0.248-9.284
							c-1.886-1.415-4.541-1.34-6.138,1.615c-0.851,2.139-0.804,4.204-2.049,3.463c-2.95-1.74-1.763-5.973-3.836-8.116
							c-2.292-2.37-5.926-3.406-9.069-3.956c-4.75-0.83-9.603-0.238-13.013-4.232C281.632,85.296,278.248,90.516,280.323,103.475z"
							/>
					</g>
					<g id="XMLID_582_">
						<path id="XMLID_583_" style="fill:#263238;" d="M293.401,99.864c0.038,0.918,0.784,1.63,1.665,1.591
							c0.881-0.039,1.564-0.815,1.526-1.733c-0.039-0.918-0.784-1.63-1.665-1.59C294.045,98.171,293.362,98.946,293.401,99.864z"/>
					</g>
					<g id="XMLID_548_">
						<path id="XMLID_581_" style="fill:#263238;" d="M282.174,100.412c0.036,0.865,0.739,1.536,1.57,1.499
							c0.913-0.041,1.477-0.682,1.438-1.633c-0.036-0.865-0.739-1.536-1.569-1.499C282.782,98.816,282.138,99.547,282.174,100.412z"
							/>
					</g>
					<g id="XMLID_546_">
						<polygon id="XMLID_547_" style="fill:#F28F8F;" points="289.401,98.64 290.058,108.623 284.68,107.482 						"/>
					</g>
					<g id="XMLID_528_">
						<path id="XMLID_545_" style="fill:#F28F8F;" d="M297.557,117.64c3.752-0.85,11.357-3.822,12.289-7.031
							c0,0-0.226,1.984-2.375,4.205c-2.149,2.221-9.695,5.196-9.695,5.196L297.557,117.64z"/>
					</g>
					<path id="XMLID_527_" style="fill:#263238;" d="M294.522,94.661l3.87,1.284c0.328-1.107-0.273-2.291-1.342-2.646
						C295.982,92.944,294.849,93.554,294.522,94.661z"/>
					<path id="XMLID_503_" style="fill:#263238;" d="M281.168,97.117l3.536-2.03c-0.607-0.982-1.89-1.323-2.867-0.763
						C280.861,94.885,280.561,96.135,281.168,97.117z"/>
					<path id="XMLID_526_" style="fill:#F28F8F;" d="M297.667,108.541l-4.829,2.201c0.662,1.35,1.945,1.986,3.464,1.397
						C297.667,111.608,298.329,109.891,297.667,108.541z"/>
				</g>
				<g id="XMLID_506_">
					<path id="XMLID_627_" style="fill:#FFA8A7;" d="M377.996,177.726c0,0-9.141-21.238-11.041-25.236
						c-2.267-4.772-3.883-6.366-5.784-7.814c0,0-18.288-15.16-22.257-17.807c-4.985-3.325-7.647-4.865-11.027-5.347
						c-1.877-0.267-2.757,0.05-8.254,0.378c-3.877,9.767,1.928,25.067,12.173,24.858l0.25-4.121l22.381,14.9
						c0,0,13.747,21.817,14.021,24.096c0.275,2.278-0.384,5.53-0.364,8.451c0.013,1.967,0.607,3.857,0.312,5.829
						c-0.073,0.486-0.057,1.169,0.429,1.251c0.137,0.023,0.277-0.017,0.405-0.07c1.186-0.487,1.747-1.543,2.094-2.777
						c0.293-1.041,0.165-1.758,0.458-2.799c0.572,1.377,0.773,3.272,1.038,5.457c0.144,1.194,0.391,2.564,0.492,3.622
						c0.194,2.034,3.153,1.9,4.852,0.9c1.857-1.093,2.621-2.386,3.293-4.346C383.864,190.159,377.996,177.726,377.996,177.726z"/>
					<path id="XMLID_624_" style="fill:#F28F8F;" d="M332.056,142.639c-3.411-1.537-8.498-5.666-8.498-5.666s4.11,7.014,8.368,7.797
						L332.056,142.639z"/>
				</g>
			</g>
		</g>
		<path style="fill:#37474F;" d="M324.884,221.505l-5.591-13.288c0,0-8.965-0.795-14.443-4.469c0,0,3.736,5.159,12.014,6.869
			l6.52,11.33l0.56,28.331L324.884,221.505z"/>
	</g>
</g>
<g id="Character_1">
	<g id="Character_8_">
		<g>
			<path style="fill:#FFBDA7;" d="M193.986,174.078c5.011-0.53,11.461,0.665,15.506,7.544c1.315,2.24,7.269,16.452,12.262,28.825
				c5.004-10.221,9.179-18.887,9.744-20.482c1.52-4.268,1.259-7.016,2.805-11.417c1.539-4.394,1.743-6.687,1.878-7.482
				c0.294-1.732,1.907-0.644,2.506,0.052c1.008,1.17,1.672,2.638,1.861,4.172c0.168,1.367,0.137,3.065,1.352,3.715
				c1.005,0.538,2.225-0.037,3.199-0.629c3.662-2.223,7.102-4.81,10.254-7.711c0.528-0.486,1.062-0.99,1.721-1.273
				s1.483-0.302,2.043,0.147c0.55,0.441,0.717,1.232,0.594,1.926c-0.123,0.694-0.487,1.319-0.846,1.926
				c1.131,0.497,1.803,1.724,1.973,2.947c0.121,0.872-0.053,1.714,0.083,2.576c0.153,0.974,0.25,1.979,0.005,2.947
				c-0.333,1.314-1.252,2.393-2.199,3.363c-2.011,2.059-4.171,3.86-6.564,5.428c-1.565,1.026-3.116,2.074-4.651,3.145
				c-1.409,0.983-3.033,1.873-4.058,3.269c-1.88,2.562-2.908,5.622-4.089,8.539c-1.833,4.499-4.518,16.955-10.204,26.228
				c-3.276,5.341-8.313,7.557-12.843,1.893c-2.356-2.945-4.896-6.953-6.583-10.333c-6.471-12.959-10.999-23.835-10.999-23.835
				S191.499,185.806,193.986,174.078z"/>
			<path style="fill:#37474F;" d="M192.933,173.87c3.718-0.258,7.556-0.269,10.852,1.266c4.123,1.922,6.163,6.682,8.096,11.002
				c1.934,4.32,8.036,18.58,8.036,18.58l-16.197,10.336l-8.336-17.034C195.383,198.022,191.543,186.968,192.933,173.87z"/>
			<path style="fill:#263238;" d="M221.755,210.447c0,0-0.442-0.081-0.967-0.001c-1.158,0.175-2.539,0.427-7.512,5.852
				c-4.756,5.187-3.352,7.468-3.352,7.468l0.52,0.967c0,0-0.948,0.954-2.118-0.619c-1.17-1.573-4.814-7.233-5.213-8.356
				c-0.399-1.123,0.53-7.855,5.9-12.268c5.032-4.135,9.347-3.144,10.238-2.437c0.89,0.706,3.287,7.794,3.287,7.794L221.755,210.447z
				"/>
		</g>
		<g id="XMLID_604_">
			<g id="Botom_1_">
				<g id="XMLID_645_">
					<g id="XMLID_648_">
						<path id="XMLID_671_" style="fill:#FFBDA7;" d="M151.979,406.798c3.353,1.799,7.063,1.654,11.051,0l2.032-21.74l-13.083,1.726
							L151.979,406.798z"/>
						<path id="XMLID_670_" style="fill:#FFBDA7;" d="M192.092,393.803c2.831,6.123,7.942,4.427,13.703,0.506l-1.011-21.846h-13.892
							L192.092,393.803z"/>
						<g>
							<path id="XMLID_669_" style="fill:#263238;" d="M176.46,427.371c0.369,0.346,0.258,2.719-0.149,3.358
								c-0.436,0.685-2.942,2.823-7.474,3.147c-4.33,0.31-8.197-0.274-10.739-1.888c-2.542-1.614-3.773-3.395-4.012-5.861
								s0.035-4.847-1.141-6.745c-1.086-1.753-2.816-3.729-3.193-4.68c-0.82-2.068-0.029-5.024-0.029-5.024L176.46,427.371z"/>
							<path id="XMLID_1011_" style="fill:#455A64;" d="M164.578,405.839c0.073,0.915,0.228,1.825,0.529,2.743
								c0.628,1.913,1.582,3.713,2.652,5.426c0.551,0.882,1.134,1.748,1.806,2.548c1.31,1.559,2.937,2.838,4.323,4.333
								c1.387,1.495,2.565,3.308,2.674,5.316c0.184,3.396-3.502,4.551-6.34,5.056c-3.031,0.539-6.265,0.377-9.223-0.463
								c-3.291-0.935-5.666-3.485-6.212-6.768c-0.157-0.943-0.099-1.907-0.21-2.856c-0.254-2.165-1.375-4.142-2.641-5.942
								c-0.734-1.044-1.533-2.064-2.026-3.234c-0.886-2.103-0.176-4.468,0.39-6.562c0.489-1.809,1.043-3.855,1.679-3.685
								c0.003,0.364-0.026,0.754,0.15,1.086c0.209,0.394,0.369,0.612,0.501,1.07c0.137,0.478,0.295,0.952,0.516,1.399
								c0.337,0.682,0.835,1.306,1.507,1.663c0.042-1.282,0.085-2.564,0.127-3.847c0.013-0.397,0.039-0.827,0.296-1.129
								c0.261-0.307,0.689-0.398,1.085-0.472c2.399-0.446,4.843-0.894,7.266-0.601c0.363,0.044,0.764,0.128,0.976,0.427
								c0.173,0.245,0.171,0.569,0.162,0.868C164.525,403.451,164.483,404.649,164.578,405.839z"/>
							<path id="XMLID_667_" style="fill:#F5F5F5;" d="M168.217,414.72c-1.265-0.947-4.099-0.96-5.648-0.794
								c-1.941,0.208-3.512,0.888-4.404,1.546c-0.395,0.292-0.949,0.241-1.297-0.102l0,0c-0.419-0.413-0.38-1.093,0.096-1.443
								c0.946-0.696,2.657-1.674,4.956-1.836c3.813-0.269,4.932,0.385,4.932,0.385S168.591,413.594,168.217,414.72z"/>
							<path id="XMLID_666_" style="fill:#F5F5F5;" d="M171.125,418.2c-1.591-0.94-4.707-0.805-6.257-0.638
								c-1.941,0.208-3.391,0.971-4.283,1.629c-0.396,0.292-0.949,0.241-1.297-0.103l0,0c-0.419-0.413-0.38-1.093,0.096-1.443
								c0.946-0.696,2.764-1.821,5.063-1.983c3.813-0.268,4.807,0.51,4.807,0.51S170.862,416.796,171.125,418.2z"/>
							<path id="XMLID_665_" style="fill:#F5F5F5;" d="M160.401,408.44c2.635-0.272,3.752,0.023,4.793,0.402
								c0.672,0.376,1.114,1.438,0.682,1.707c-0.849-0.471-2.377-0.667-4.249-0.583c-1.256,0.056-2.839,0.564-4.124,1.133
								c-0.326,0.145-0.712,0.348-1.05,0.535c-0.456,0.253-1.036,0.073-1.255-0.39l0,0c-0.186-0.393-0.048-0.861,0.33-1.09
								C156.451,409.596,158.272,408.66,160.401,408.44z"/>
						</g>
						<g>
							<path id="XMLID_660_" style="fill:#263238;" d="M228.553,407.779c0.356,0.744,0.253,2.139-0.169,3.023
								c-0.422,0.884-5.042,3.49-11.274,3.069c-6.232-0.42-10.511-2.931-12.887-4.504c-2.376-1.573-4.85-1.867-7.936-2.044
								c-3.086-0.177-7.138-1.715-7.815-3.159c-0.677-1.443,0.102-3.929,0.102-3.929L228.553,407.779z"/>
							<path id="XMLID_1006_" style="fill:#455A64;" d="M203.509,388.615c0.539-0.198,1.078-0.395,1.617-0.593
								c0.297-0.109,0.625-0.218,0.921-0.107c0.398,0.15,0.554,0.62,0.66,1.032c0.217,0.843,0.306,1.935,0.68,2.708
								c0.34,0.701,1.167,1.344,1.749,1.836c1.512,1.279,3.249,2.28,4.987,3.215c2.036,1.094,4.03,1.943,6.132,2.888
								c2.144,0.965,4.99,1.554,6.668,2.684c2.446,1.648,2.761,5.789-0.025,7.425c-2.404,1.411-8.728,2.94-15.361,1.061
								c-3.613-1.024-7.624-4.884-12.367-5.255c-3.016-0.236-8.719-1.083-10.661-3.373c-0.718-1.016,0.241-4.236,1.027-7.015
								c0.859-3.034,1.186-7.779,2.191-7.512c0.071,1.009,0.943,1.593,1.473,2.439c0.468,0.747,0.731,1.602,1.083,2.41
								c0.352,0.809,0.825,1.609,1.574,2.076c0.749,0.466,1.828,0.494,2.443-0.139c0.889-0.916,0.363-2.527,1.01-3.628
								c0.438-0.746,1.314-1.095,2.127-1.393C202.128,389.121,202.818,388.867,203.509,388.615z"/>
							<path id="XMLID_1005_" style="fill:#F5F5F5;" d="M211.307,395.066c0,0-0.433-1.157-2.227-1.491
								c-1.373-0.255-3.796,0.756-5.303,1.997c-0.617,0.508-0.536,1.473,0.163,1.859l0,0c0.416,0.23,0.926,0.17,1.285-0.142
								C206.212,396.43,208.427,394.868,211.307,395.066z"/>
							<path id="XMLID_1004_" style="fill:#F5F5F5;" d="M215.56,397.448c0,0-0.887-1.386-2.639-1.359c0,0-3.584,0.103-5.802,2.171
								c-0.566,0.527-0.527,1.425,0.151,1.797v0c0.403,0.221,0.895,0.163,1.238-0.144
								C209.508,399.021,211.511,397.146,215.56,397.448z"/>
							<path id="XMLID_650_" style="fill:#F5F5F5;" d="M220.256,399.595c0,0-0.988-1.255-2.741-1.228c0,0-3.339,0.125-5.557,2.192
								c-0.566,0.528-0.527,1.425,0.151,1.797l0,0c0.403,0.221,0.895,0.163,1.238-0.144
								C214.347,401.321,216.207,399.293,220.256,399.595z"/>
						</g>
						<path id="XMLID_649_" style="fill:#37474F;" d="M152.367,248.172c-0.784,23.788-1.637,76.241-1.637,76.241
							c-0.251,2.96-1.13,10.082-1.351,20.741c-0.321,15.458,1.915,49.492,1.915,49.492s6.444,3.469,13.207,0.651
							c0,0,7.334-48.851,9.692-64.091c2.071-13.39,6.136-38.617,6.136-38.617l3.216,32.383c0,0-0.494,9.3,1.106,19.593
							c1.09,7.011,6.241,37.45,6.241,37.45s7.538,2.161,14.903-0.327c0,0-0.125-49.92,0-56.413
							c0.142-7.403-0.575-83.449-0.575-83.449L152.367,248.172z"/>
						<path style="fill:#263238;" d="M180.329,292.588l3.518-19.492c0,0,9.752-0.852,15.138-6.29c0,0-0.959,5.33-13.22,8.529
							l-3.516,19.723l0.135,18.237L180.329,292.588z"/>
					</g>
				</g>
			</g>
			<g id="XMLID_631_">
				<path id="XMLID_644_" style="fill:#27DEBF;" d="M156.377,176.429c-4.669,0.829-4.976,3.143-5.998,7.773
					c-0.508,2.299-1.639,7.241-1.19,11.382l3.475,27.375l-1.193,31.529c7.514,8.175,37.56,10.796,53.968-1.187
					c0,0-0.178-51.796-0.935-60.108c-1.322-14.523-7.909-19.685-17.571-19.651l-16.531,1.407L156.377,176.429z"/>
				<g id="XMLID_632_">
					<path id="XMLID_643_" style="fill:#263238;" d="M171.976,140.072c0.43,8.092,7.34,14.304,15.432,13.873
						c8.092-0.43,14.304-7.34,13.874-15.432c-0.43-8.093-7.34-14.304-15.432-13.874C177.756,125.07,171.545,131.979,171.976,140.072
						z"/>
					<g id="XMLID_992_">
						<path style="fill:#263238;" d="M167.531,143.163l-3.548-8.245c0,0-2.581-0.302-4.466,1.842
							c-1.848,2.103-0.424,8.3,2.336,14.298c0,0,2.968,11.029,4.018,12.811c1.05,1.782,3.045,2.198,3.045,2.198L167.531,143.163z"/>
						<path id="XMLID_642_" style="fill:#FFBDA7;" d="M167.695,151.266c-0.868,0.583-2.239-1.071-3.407-2.17
							c-1.168-1.098-4.862-2.488-6.462,1.403c-1.63,3.965,2.068,8.893,4.957,9.634c4.98,1.277,5.549-1.904,5.549-1.904l1.314,17.65
							c0,0,3.625,7.677,12.373,8.393c8.748,0.715,6.579-6.35,3.54-9.708l-0.3-5.377c0,0,4.475,0.438,6.622-0.012
							c3.573-0.749,5.688-3.712,6.574-7.669c1.422-6.357,1.819-11.449-0.325-23.688c-2.35-13.415-18.062-12.72-26.258-6.931
							C163.676,136.675,167.695,151.266,167.695,151.266z"/>
						<path id="XMLID_641_" style="fill:#263238;" d="M167.775,152.775c-0.451,0.033-2.317-2.722-3.487-3.679
							c-1.622-1.325-0.305-14.178-0.305-14.178s-1.655-3.089,1.15-6.526c1.995-2.445,5.523-2.893,11.519-4.164
							c2.958-0.628,6.464-1.038,9.393-1.734c3.575-0.85,5.84-1.661,8.652-3.247c0.514-0.29,1.073-0.609,1.656-0.519
							c0.471,0.073,0.871,0.415,1.101,0.833c0.229,0.418,0.305,0.904,0.315,1.38c0.01,0.501-0.052,1.003-0.181,1.487
							c-0.076,0.287-0.616,1.176-0.481,1.417c0.337,0.599,2.61-0.551,3.068-0.713c0.11-0.039,0.233-0.078,0.341-0.034
							c0.09,0.036,0.15,0.123,0.199,0.207c0.823,1.421,0.651,3.469-0.024,4.914c-0.945,2.023-2.427,3.793-4.252,5.079
							c-1.905,1.342-4.155,2.147-6.452,2.535c-4.172,0.704-8.423,0.934-12.648,0.763c-1.055-0.043-2.11-0.111-3.161-0.205
							c-0.674-0.06-1.588-0.357-2.225-0.045c-0.802,0.392-1.017,1.551-1.19,2.327c-0.256,1.151-0.411,2.326-0.585,3.491
							C169.594,146.075,169.29,152.665,167.775,152.775z"/>
						<path id="XMLID_640_" style="fill:#263238;" d="M164.045,135.909l-5.577-2.622c0.687-1.595,2.492-2.3,4.033-1.576
							C164.04,132.434,164.732,134.314,164.045,135.909z"/>
						<path id="XMLID_639_" style="fill:#F0997A;" d="M185.26,169.187c0,0-8.128-1.193-11.019-2.537
							c-1.935-0.9-3.577-2.551-4.091-3.639c0,0,0.654,2.358,2.449,4.418c2.196,2.519,12.774,3.898,12.774,3.898L185.26,169.187z"/>
					</g>
					<g id="XMLID_633_">
						<path id="XMLID_638_" style="fill:#263238;" d="M183.016,148.477c0.049,0.925-0.633,1.711-1.523,1.756
							c-0.89,0.045-1.652-0.668-1.701-1.593c-0.049-0.925,0.633-1.711,1.523-1.756C182.205,146.839,182.967,147.552,183.016,148.477
							z"/>
						<path id="XMLID_637_" style="fill:#263238;" d="M180.007,142.57l-2.622,3.359c-0.927-0.77-1.091-2.146-0.367-3.073
							C177.742,141.929,179.081,141.801,180.007,142.57z"/>
						<path style="fill:#F0997A;" d="M184.805,160.645c0.062,1.172-0.837,2.173-2.009,2.235c-1.172,0.062-2.173-0.837-2.235-2.009
							c-0.062-1.172,0.837-2.173,2.009-2.235C183.742,158.574,184.743,159.473,184.805,160.645z"/>
						<path id="XMLID_635_" style="fill:#263238;" d="M196.279,142.63l-3.496-1.889c0.49-0.993,1.669-1.375,2.634-0.853
							C196.383,140.41,196.768,141.637,196.279,142.63z"/>
						<path id="XMLID_634_" style="fill:#263238;" d="M195.598,146.547c0.049,0.925-0.633,1.711-1.523,1.755
							c-0.89,0.045-1.651-0.668-1.701-1.593c-0.049-0.925,0.633-1.711,1.523-1.756C194.788,144.909,195.549,145.622,195.598,146.547
							z"/>
						<polygon id="XMLID_970_" style="fill:#F0997A;" points="187.414,146.467 189.301,156.689 194.44,154.165 						"/>
					</g>
				</g>
			</g>
			<path style="fill:#455A64;" d="M206.588,204.855c-0.457-10.81-1.298-20.354-5.322-25.427c-4.024-5.073-6.189-6.039-15.73-5.886
				v0.603c1.11,0.1,2.108,0.691,2.726,1.618c1.75,2.627,5.309,8.591,7.339,16.302c2.765,10.506,3.242,33.953,3.384,46.59
				c0.142,12.637,0,22.807,0,22.807s6.385-1.491,8.364-4.688C207.349,256.775,207.045,215.665,206.588,204.855z M174.979,187.072
				c-1.359-5.757-4.17-9.556-5.429-12.49l-14.995,1.96c-4.392,2.026-7.038,6.592-6.613,11.409l3.125,35.411l-0.869,33.524
				c6.815,10.592,27.141,8.638,27.141,8.638s0.578-15.084-0.077-44.22C176.895,204.973,176.712,194.414,174.979,187.072z"/>
			<path style="fill:#37474F;" d="M175.546,189.909c-0.786-3.7-1.212-10.575-1.857-11.957c-0.645-1.382-4.197-4.141-4.335-5.994
				l-0.308-4.136c0,0-1.805-0.279-2.358,1.103s-4.787,6.657-4.787,6.657s0.195,5.609,1.577,8.74c1.382,3.132,3.5,4.474,4.28,4.251
				c0.594-0.17,2.069-4.436,2.786-6.074c0.898-2.05,1.108-2.918,2.062-0.892C173.372,183.23,175.546,189.909,175.546,189.909z"/>
			<path style="fill:#37474F;" d="M194.275,187.798c0.968,3.115-1.399-12.754-3.049-15.201s-5.966-3.41-5.966-3.41l0.276,4.958
				c0,0,1.374,0.168,2.691,1.872C189.289,177.392,192.949,183.531,194.275,187.798z"/>
			<path style="fill:#37474F;" d="M159.325,200.757l14.212-1.199c0,0,0.432,9.027,0.432,11.387c0,1.481-2.364,3.932-4.126,5.554
				c-1.138,1.048-2.8,1.283-4.182,0.586c-2.109-1.064-4.944-2.797-5.21-4.531C160.021,209.765,159.325,200.757,159.325,200.757z"/>
			<path style="fill:#37474F;" d="M200.455,198.473h6.135c0,0,0.753,7.329,0.753,11.276c0,2.851-0.259,4.647-0.779,4.645
				c-1.086-0.005-4.717-2.47-5.075-5.298C201.195,206.767,200.455,198.473,200.455,198.473z"/>
			<g>
				<path style="fill:#E0E0E0;" d="M175.969,192.861c-8.052,0.754-17.16,2.179-27.218,4.257l0.089,1.002
					c10.077-2.085,19.194-3.512,27.243-4.265C176.046,193.519,176.008,193.186,175.969,192.861z"/>
				<path style="fill:#E0E0E0;" d="M205.74,193.215c-2.972-0.348-6.353-0.658-10.062-0.837c0.083,0.327,0.163,0.665,0.242,1.015
					c3.664,0.184,7.007,0.494,9.937,0.842C205.819,193.893,205.782,193.551,205.74,193.215z"/>
			</g>
		</g>
		<g>
			<path style="fill:#FFBDA7;" d="M154.986,176.476c-5.039-0.007-10.887-0.213-14.195,7.049c-1.075,2.364-5.52,17.118-9.201,29.943
				c-6.039-9.645-11.092-17.831-11.82-19.359c-1.956-4.087-1.982-6.847-3.977-11.064c-1.988-4.211-2.428-6.469-2.645-7.246
				c-0.472-1.692-1.963-0.443-2.487,0.312c-0.881,1.268-1.389,2.797-1.417,4.343c-0.025,1.378,0.182,3.062-0.958,3.835
				c-0.944,0.64-2.217,0.194-3.247-0.293c-3.873-1.83-7.564-4.046-11-6.604c-0.576-0.428-1.159-0.875-1.845-1.088
				c-0.685-0.213-1.506-0.146-2.017,0.358c-0.502,0.496-0.585,1.299-0.391,1.977c0.195,0.678,0.622,1.261,1.041,1.828
				c-1.073,0.612-1.614,1.902-1.656,3.136c-0.03,0.88,0.23,1.699,0.185,2.57c-0.051,0.984-0.043,1.995,0.302,2.932
				c0.468,1.272,1.494,2.25,2.537,3.117c2.214,1.839,4.55,3.405,7.092,4.716c1.664,0.857,3.315,1.739,4.952,2.645
				c1.503,0.831,3.212,1.548,4.376,2.83c2.136,2.353,3.476,5.29,4.954,8.068c2.29,4.284,6.255,16.394,12.875,25.025
				c3.813,4.972,9.667,7.04,13.584,0.936c2.037-3.174,4.438-7.632,5.765-11.168c5.089-13.561,8.777-24.74,8.777-24.74
				S158.679,187.882,154.986,176.476z"/>
			<path style="fill:#37474F;" d="M156.01,176.352c-3.424-0.207-7.831-0.162-10.929,1.741c-3.876,2.381-5.026,5.596-6.453,10.109
				c-1.427,4.512-5.858,19.378-5.858,19.378l17.273,8.416l6.333-17.876C156.377,198.12,158.889,189.206,156.01,176.352z"/>
			<path style="fill:#263238;" d="M131.59,213.468c0,0,0.44-0.119,0.97-0.1c1.171,0.042,2.634,0.063,8.132,4.955
				c5.535,4.925,4.635,8.086,4.635,8.086l-0.398,0.968c0,0,1.254,0.578,2.236-1.118c0.982-1.697,4.334-9.179,4.602-10.34
				c0.268-1.161-2.411-8.038-8.306-10.807c-5.894-2.769-9.645-2.054-10.449-1.25c-0.804,0.804-2.389,8.064-2.389,8.064
				L131.59,213.468z"/>
		</g>
		<g>
			<g>
				<path style="fill:#E0E0E0;" d="M210.034,148.644c-0.356,0-0.695-0.21-0.844-0.559c-0.197-0.466,0.02-1.004,0.485-1.202
					l6.705-2.85c0.467-0.197,1.005,0.02,1.202,0.485c0.197,0.466-0.02,1.004-0.485,1.202l-6.705,2.85
					C210.275,148.62,210.154,148.644,210.034,148.644z"/>
			</g>
			<g>
				<path style="fill:#E0E0E0;" d="M218.738,157.355c-0.041,0-0.083-0.003-0.125-0.009l-9.172-1.251
					c-0.501-0.068-0.853-0.53-0.784-1.032c0.067-0.501,0.531-0.858,1.032-0.784l9.172,1.251c0.501,0.068,0.853,0.53,0.784,1.032
					C219.583,157.021,219.189,157.355,218.738,157.355z"/>
			</g>
			<g>
				<path style="fill:#E0E0E0;" d="M214.034,167.319c-0.177,0-0.355-0.052-0.513-0.158l-5.965-4.037
					c-0.419-0.283-0.529-0.854-0.245-1.272c0.283-0.419,0.854-0.528,1.272-0.245l5.965,4.037c0.419,0.283,0.529,0.854,0.245,1.272
					C214.617,167.177,214.328,167.319,214.034,167.319z"/>
			</g>
		</g>
	</g>
</g>
<g id="Idea_1_">
	<g id="Idea">
		<g id="Light_1_">
			<g id="XMLID_589_">
				<g id="XMLID_605_">
					<g id="XMLID_623_">
						<path id="XMLID_630_" style="fill:#37474F;" d="M337.968,88.184c-0.574,1.522-2.273,2.291-3.795,1.718
							c-1.522-0.574-2.291-2.273-1.718-3.795c0.574-1.522,2.273-2.291,3.795-1.718C337.773,84.962,338.542,86.661,337.968,88.184z"
							/>
					</g>
					<g id="XMLID_621_">
						<path id="XMLID_622_" style="fill:#455A64;" d="M331.839,86.081c-1.428-1.742-0.784-3.45,1.438-3.816
							c2.222-0.366,5.182,0.749,6.61,2.491c1.428,1.741,0.784,3.45-1.438,3.816C336.226,88.937,333.267,87.822,331.839,86.081z"/>
					</g>
					<g id="XMLID_618_">
						<path id="XMLID_619_" style="fill:#37474F;" d="M332.112,85.047c-1.472-1.795-0.808-3.556,1.482-3.933
							c2.291-0.377,5.341,0.772,6.813,2.567c1.472,1.795,0.808,3.556-1.482,3.933C336.634,87.991,333.584,86.842,332.112,85.047z"/>
					</g>
					<g id="XMLID_616_">
						<path id="XMLID_617_" style="fill:#455A64;" d="M332.394,83.982c-1.517-1.85-0.833-3.665,1.528-4.054
							c2.361-0.389,5.505,0.796,7.022,2.646c1.517,1.85,0.833,3.665-1.528,4.054C337.055,87.017,333.911,85.832,332.394,83.982z"/>
					</g>
					<g id="XMLID_614_">
						<path id="XMLID_615_" style="fill:#37474F;" d="M332.684,82.884c-1.564-1.907-0.859-3.778,1.575-4.179
							c2.434-0.401,5.674,0.82,7.238,2.727c1.564,1.907,0.859,3.778-1.574,4.179C337.489,86.012,334.248,84.791,332.684,82.884z"/>
					</g>
					<g id="XMLID_612_">
						<path id="XMLID_613_" style="fill:#455A64;" d="M333.029,81.746c-1.596-1.946-0.876-3.855,1.607-4.264
							c2.483-0.409,5.79,0.837,7.385,2.783c1.596,1.946,0.876,3.855-1.607,4.264C337.931,84.938,334.625,83.693,333.029,81.746z"/>
					</g>
					<g id="XMLID_610_">
						<path id="XMLID_611_" style="fill:#27DEBF;" d="M348.818,51.037c-7.251-2.733-15.345,0.931-18.077,8.182
							c-3.928,10.423,4.02,15.394,2.437,19.595c-0.252,0.669-0.062,1.505,0.63,2.349c1.384,1.688,4.252,2.769,6.406,2.414
							c1.077-0.177,1.771-0.68,2.023-1.349h0c1.583-4.201,10.835-2.691,14.763-13.114C359.733,61.863,356.069,53.769,348.818,51.037
							z"/>
					</g>
					<g id="XMLID_608_" style="opacity:0.6;">
						<path id="XMLID_609_" style="fill:#FFFFFF;" d="M348.818,51.037c-7.251-2.733-15.345,0.931-18.077,8.182
							c-3.928,10.423,4.02,15.394,2.437,19.595c-0.252,0.669-0.062,1.505,0.63,2.349c1.384,1.688,4.252,2.769,6.406,2.414
							c1.077-0.177,1.771-0.68,2.023-1.349h0c1.583-4.201,10.835-2.691,14.763-13.114C359.733,61.863,356.069,53.769,348.818,51.037
							z"/>
					</g>
					<g id="XMLID_606_">
						<path id="XMLID_607_" style="fill:#27DEBF;" d="M334.816,80.894c-1.041-1.269-0.572-2.514,1.048-2.781
							c1.62-0.267,3.777,0.546,4.817,1.815c1.041,1.269,0.572,2.515-1.048,2.781C338.014,82.976,335.857,82.163,334.816,80.894z"/>
					</g>
				</g>
			</g>
			<g id="XMLID_514_">
				<path id="XMLID_515_" style="fill:#FFFFFF;" d="M339.624,80.745c-0.242-0.091-0.367-0.359-0.281-0.604
					c0.051-0.143,1.263-3.537,3.748-7.156c0.482-0.702,0.966-1.318,1.44-1.84c-0.316-0.268-0.629-0.595-0.929-0.986
					c-0.537-0.697-0.928-1.423-1.189-2.121c-0.657,0.353-1.43,0.64-2.293,0.809c-0.484,0.096-0.934,0.135-1.35,0.127
					c0.012,0.705-0.031,1.488-0.132,2.333c-0.521,4.358-1.85,7.708-1.907,7.849c-0.098,0.244-0.355,0.345-0.619,0.265
					c-0.244-0.098-0.362-0.375-0.265-0.619c0.013-0.033,1.339-3.38,1.845-7.608c0.107-0.899,0.14-1.673,0.119-2.329
					c-1.147-0.255-1.904-0.917-2.209-1.665c-0.305-0.747-0.103-1.514,0.501-1.91c0.459-0.3,0.967-0.322,1.404-0.051
					c0.65,0.404,1.062,1.383,1.206,2.78c0.368,0.013,0.775-0.018,1.221-0.105c0.865-0.171,1.604-0.462,2.201-0.804
					c-0.255-1.164-0.131-2.175,0.293-2.748c0.367-0.495,0.939-0.657,1.531-0.434c0.592,0.223,0.915,0.723,0.864,1.337
					c-0.059,0.711-0.633,1.552-1.593,2.258c0.223,0.651,0.586,1.358,1.123,2.057c0.277,0.36,0.563,0.652,0.848,0.885
					c1.03-0.954,1.987-1.418,2.741-1.293c0.502,0.089,0.874,0.437,1.021,0.965c0.193,0.696-0.162,1.406-0.884,1.766
					c-0.722,0.361-1.729,0.357-2.758-0.207c-0.448,0.479-0.935,1.083-1.447,1.828c-2.414,3.517-3.623,6.901-3.634,6.934
					c-0.087,0.248-0.36,0.378-0.608,0.291C339.63,80.747,339.627,80.746,339.624,80.745z M336.944,66.017
					c-0.076-0.029-0.172-0.026-0.318,0.07c-0.329,0.216-0.191,0.631-0.142,0.754c0.17,0.417,0.596,0.809,1.246,1.012
					c-0.146-1.051-0.45-1.635-0.724-1.805C336.987,66.036,336.966,66.025,336.944,66.017z M346.052,70.989
					c0.618,0.274,1.2,0.262,1.604,0.062c0.118-0.06,0.496-0.281,0.391-0.66c-0.06-0.218-0.163-0.264-0.26-0.28
					C347.469,70.057,346.855,70.296,346.052,70.989z M343.625,64.818c-0.226-0.085-0.336-0.017-0.431,0.111
					c-0.218,0.294-0.311,0.867-0.209,1.587c0.552-0.474,0.86-0.966,0.89-1.331C343.889,65.027,343.851,64.903,343.625,64.818z"/>
			</g>
		</g>
		<g>
			<g>
				<path style="fill:#E0E0E0;" d="M350.783,46.065c-0.081-0.007-0.16-0.025-0.239-0.054c-0.475-0.175-0.717-0.702-0.542-1.177
					l1.657-4.482c0.176-0.477,0.703-0.718,1.177-0.542c0.475,0.175,0.717,0.702,0.542,1.177l-1.657,4.482
					C351.574,45.865,351.184,46.099,350.783,46.065z"/>
			</g>
			<g>
				<path style="fill:#E0E0E0;" d="M340.272,45.093c-0.405-0.035-0.751-0.339-0.823-0.758l-0.807-4.709
					c-0.085-0.5,0.25-0.972,0.748-1.059c0.499-0.085,0.972,0.249,1.059,0.748l0.808,4.709c0.085,0.5-0.25,0.972-0.749,1.059
					C340.427,45.097,340.349,45.1,340.272,45.093z"/>
			</g>
			<g>
				<path style="fill:#E0E0E0;" d="M330.685,49.506c-0.235-0.02-0.463-0.131-0.625-0.327l-3.054-3.676
					c-0.324-0.39-0.27-0.967,0.119-1.291c0.39-0.324,0.968-0.269,1.29,0.119l3.054,3.676c0.324,0.39,0.27,0.967-0.119,1.29
					C331.157,49.459,330.917,49.526,330.685,49.506z"/>
			</g>
			<g>
				<path style="fill:#E0E0E0;" d="M324.59,58.124c-0.081-0.007-0.161-0.025-0.239-0.054l-4.482-1.657
					c-0.475-0.176-0.717-0.702-0.542-1.177c0.176-0.476,0.704-0.719,1.177-0.542l4.482,1.657c0.475,0.175,0.717,0.702,0.542,1.177
					C325.382,57.924,324.991,58.159,324.59,58.124z"/>
			</g>
			<g>
				<path style="fill:#E0E0E0;" d="M359.798,84.549c-0.236-0.02-0.463-0.131-0.626-0.327l-3.053-3.676
					c-0.324-0.39-0.27-0.967,0.119-1.291c0.39-0.324,0.968-0.269,1.29,0.119l3.054,3.676c0.324,0.39,0.27,0.967-0.119,1.29
					C360.27,84.501,360.03,84.569,359.798,84.549z"/>
			</g>
			<g>
				<path style="fill:#E0E0E0;" d="M367.324,73.914c-0.081-0.007-0.161-0.025-0.239-0.054l-4.482-1.656
					c-0.475-0.175-0.717-0.702-0.542-1.177c0.176-0.476,0.703-0.72,1.177-0.542l4.482,1.656c0.475,0.175,0.717,0.702,0.542,1.177
					C368.116,73.714,367.725,73.949,367.324,73.914z"/>
			</g>
			<g>
				<path style="fill:#E0E0E0;" d="M363.811,61.748c-0.405-0.035-0.752-0.34-0.823-0.758c-0.085-0.5,0.25-0.973,0.748-1.059
					l4.71-0.806c0.5-0.084,0.973,0.25,1.059,0.748c0.085,0.499-0.25,0.973-0.748,1.058l-4.71,0.806
					C363.967,61.752,363.888,61.755,363.811,61.748z"/>
			</g>
			<g>
				<path style="fill:#E0E0E0;" d="M359.398,52.16c-0.236-0.02-0.463-0.131-0.626-0.327c-0.324-0.39-0.27-0.967,0.119-1.291
					l3.676-3.054c0.39-0.324,0.968-0.269,1.29,0.119c0.324,0.39,0.27,0.967-0.119,1.291l-3.676,3.054
					C359.87,52.113,359.63,52.18,359.398,52.16z"/>
			</g>
		</g>
	</g>
</g>
<g id="Shines">
	<g id="Shine_2_">
		<g>
			<path style="fill:#27DEBF;" d="M366.246,102.83c-0.321,0-0.588-0.247-0.612-0.567l-0.046-0.595
				c-0.118-1.551-1.329-2.762-2.88-2.881l-0.594-0.045c-0.32-0.023-0.568-0.291-0.568-0.611c0-0.321,0.247-0.589,0.567-0.613
				l0.595-0.046l0,0c1.551-0.118,2.762-1.329,2.88-2.881l0.046-0.594c0.024-0.32,0.291-0.567,0.612-0.567c0,0,0,0,0.001,0
				c0.32,0,0.588,0.248,0.611,0.568l0.045,0.594c0.119,1.551,1.33,2.762,2.881,2.88l0.595,0.046c0.32,0.024,0.567,0.292,0.567,0.613
				c0,0.32-0.248,0.588-0.568,0.611l-0.595,0.045c-1.55,0.119-2.761,1.33-2.88,2.881l-0.045,0.594
				c-0.023,0.32-0.291,0.568-0.611,0.568C366.246,102.83,366.246,102.83,366.246,102.83z M364.655,98.13
				c0.662,0.381,1.211,0.93,1.592,1.592c0.381-0.662,0.93-1.211,1.592-1.592c-0.662-0.381-1.211-0.93-1.592-1.592
				C365.866,97.2,365.317,97.749,364.655,98.13z"/>
		</g>
		<g>
			<path style="fill:#27DEBF;" d="M380.588,93.264c-2.173,0-3.94-1.768-3.94-3.941c0-2.173,1.768-3.94,3.94-3.94
				c2.173,0,3.94,1.768,3.94,3.94C384.529,91.496,382.761,93.264,380.588,93.264z M380.588,86.61c-1.495,0-2.712,1.217-2.712,2.712
				c0,1.496,1.217,2.713,2.712,2.713c1.495,0,2.712-1.217,2.712-2.713C383.3,87.827,382.083,86.61,380.588,86.61z"/>
		</g>
		<g>
			<g>
				<path style="fill:#27DEBF;" d="M383.866,104.121c-0.34,0-0.614-0.274-0.614-0.614v-2.051c0-0.34,0.274-0.614,0.614-0.614
					c0.34,0,0.614,0.274,0.614,0.614v2.051C384.48,103.847,384.205,104.121,383.866,104.121z"/>
			</g>
			<g>
				<path style="fill:#27DEBF;" d="M382.64,105.348h-2.052c-0.339,0-0.614-0.274-0.614-0.614c0-0.34,0.275-0.614,0.614-0.614h2.052
					c0.34,0,0.614,0.274,0.614,0.614C383.254,105.073,382.98,105.348,382.64,105.348z"/>
			</g>
			<g>
				<path style="fill:#27DEBF;" d="M383.866,108.745c-0.34,0-0.614-0.275-0.614-0.614v-2.052c0-0.34,0.274-0.614,0.614-0.614
					c0.34,0,0.614,0.274,0.614,0.614v2.052C384.48,108.47,384.205,108.745,383.866,108.745z"/>
			</g>
			<g>
				<path style="fill:#27DEBF;" d="M387.263,105.348h-2.051c-0.34,0-0.614-0.274-0.614-0.614c0-0.34,0.274-0.614,0.614-0.614h2.051
					c0.34,0,0.614,0.274,0.614,0.614C387.877,105.073,387.603,105.348,387.263,105.348z"/>
			</g>
		</g>
	</g>
	<g id="Shine_1_">
		<g>
			<path style="fill:#27DEBF;" d="M311.883,46.46c-0.321,0-0.589-0.247-0.612-0.568l-0.045-0.595c-0.119-1.55-1.33-2.761-2.881-2.88
				l-0.594-0.045c-0.32-0.023-0.568-0.291-0.568-0.611c0-0.321,0.247-0.589,0.567-0.613l0.595-0.046l0,0
				c1.551-0.118,2.762-1.329,2.881-2.881l0.045-0.593c0.023-0.321,0.291-0.568,0.612-0.568c0.321,0,0.589,0.247,0.612,0.568
				l0.045,0.594c0.119,1.551,1.33,2.762,2.881,2.88l0.595,0.046c0.32,0.024,0.567,0.292,0.567,0.613c0,0.32-0.248,0.588-0.568,0.611
				l-0.595,0.045c-1.55,0.119-2.761,1.33-2.88,2.881l-0.045,0.594C312.472,46.213,312.204,46.46,311.883,46.46z M310.291,41.76
				c0.662,0.381,1.211,0.93,1.592,1.592c0.381-0.662,0.93-1.211,1.592-1.592c-0.662-0.381-1.211-0.93-1.592-1.592
				C311.502,40.83,310.953,41.379,310.291,41.76z"/>
		</g>
		<g>
			<path style="fill:#27DEBF;" d="M304.47,60.322c-2.173,0-3.94-1.768-3.94-3.94c0-2.174,1.768-3.941,3.94-3.941
				c2.174,0,3.941,1.768,3.941,3.941C308.411,58.555,306.644,60.322,304.47,60.322z M304.47,53.669
				c-1.495,0-2.712,1.217-2.712,2.713c0,1.495,1.217,2.712,2.712,2.712c1.496,0,2.713-1.217,2.713-2.712
				C307.183,54.886,305.966,53.669,304.47,53.669z"/>
		</g>
		<g>
			<g>
				<path style="fill:#27DEBF;" d="M292.224,43.33c-0.34,0-0.614-0.274-0.614-0.614v-2.051c0-0.34,0.274-0.614,0.614-0.614
					c0.34,0,0.614,0.274,0.614,0.614v2.051C292.838,43.056,292.564,43.33,292.224,43.33z"/>
			</g>
			<g>
				<path style="fill:#27DEBF;" d="M290.998,44.556h-2.052c-0.34,0-0.614-0.274-0.614-0.614c0-0.34,0.274-0.614,0.614-0.614h2.052
					c0.339,0,0.614,0.274,0.614,0.614C291.613,44.281,291.337,44.556,290.998,44.556z"/>
			</g>
			<g>
				<path style="fill:#27DEBF;" d="M292.224,47.953c-0.34,0-0.614-0.274-0.614-0.614v-2.051c0-0.34,0.274-0.614,0.614-0.614
					c0.34,0,0.614,0.274,0.614,0.614v2.051C292.838,47.679,292.564,47.953,292.224,47.953z"/>
			</g>
			<g>
				<path style="fill:#27DEBF;" d="M295.621,44.556h-2.051c-0.34,0-0.614-0.274-0.614-0.614c0-0.34,0.274-0.614,0.614-0.614h2.051
					c0.34,0,0.614,0.274,0.614,0.614C296.236,44.281,295.961,44.556,295.621,44.556z"/>
			</g>
		</g>
	</g>
	<g id="Shine">
		<g>
			<path style="fill:#27DEBF;" d="M162.893,92.669c-0.008,0.001-0.016,0.001-0.023,0.002c-0.321,0.013-0.598-0.223-0.637-0.541
				l-0.071-0.593c0-0.001,0-0.001,0-0.001c-0.182-1.544-1.443-2.704-2.997-2.757l-0.595-0.02c-0.321-0.011-0.579-0.268-0.593-0.588
				c-0.013-0.321,0.223-0.598,0.541-0.637l0.592-0.071c1.546-0.182,2.705-1.443,2.758-2.997l0.02-0.595
				c0.011-0.321,0.279-0.575,0.588-0.593c0.321-0.013,0.598,0.223,0.637,0.541l0.071,0.592c0.182,1.545,1.443,2.705,2.997,2.758
				l0.596,0.021c0.321,0.011,0.579,0.269,0.592,0.589c0.012,0.321-0.224,0.598-0.542,0.636l-0.592,0.07
				c-1.544,0.183-2.704,1.444-2.757,2.997l-0.02,0.596C163.446,92.391,163.202,92.644,162.893,92.669z M161.082,88.041
				c0.678,0.353,1.249,0.877,1.657,1.523c0.353-0.677,0.878-1.249,1.524-1.656c-0.677-0.353-1.249-0.879-1.657-1.524
				C162.254,87.062,161.728,87.633,161.082,88.041z"/>
		</g>
		<g>
			<path style="fill:#27DEBF;" d="M173.54,111.37c-0.796,0.065-1.62-0.112-2.354-0.557c-1.859-1.125-2.455-3.553-1.329-5.412
				c1.125-1.859,3.552-2.456,5.412-1.329c1.859,1.125,2.456,3.553,1.33,5.412C175.917,110.608,174.76,111.271,173.54,111.37z
				 M173.013,104.739c-0.144,0.012-0.289,0.035-0.433,0.07c-0.703,0.173-1.298,0.609-1.673,1.228
				c-0.375,0.62-0.486,1.348-0.314,2.053c0.173,0.703,0.609,1.298,1.228,1.673c1.281,0.774,2.951,0.363,3.725-0.915
				c0.774-1.28,0.364-2.951-0.915-3.725C174.139,104.825,173.577,104.693,173.013,104.739z"/>
		</g>
		<g>
			<g>
				<path style="fill:#27DEBF;" d="M150.402,106.281c-0.004,0-0.008,0.001-0.012,0.001l-2.047,0.128
					c-0.338,0.021-0.63-0.236-0.651-0.575c-0.021-0.338,0.225-0.615,0.575-0.651l2.047-0.128c0.338-0.021,0.63,0.236,0.651,0.575
					C150.987,105.965,150.735,106.254,150.402,106.281z"/>
			</g>
			<g>
				<path style="fill:#27DEBF;" d="M151.829,109.475c-0.004,0-0.008,0.001-0.012,0.001c-0.338,0.022-0.631-0.236-0.651-0.575
					l-0.128-2.047c-0.021-0.338,0.265-0.639,0.575-0.651c0.338-0.021,0.63,0.236,0.651,0.575l0.128,2.047
					C152.414,109.16,152.162,109.448,151.829,109.475z"/>
			</g>
			<g>
				<path style="fill:#27DEBF;" d="M155.016,105.993c-0.004,0-0.008,0.001-0.012,0.001l-2.047,0.127
					c-0.338,0.021-0.631-0.237-0.651-0.575c-0.021-0.338,0.249-0.619,0.575-0.651l2.047-0.127c0.338-0.021,0.63,0.237,0.651,0.575
					C155.601,105.678,155.349,105.966,155.016,105.993z"/>
			</g>
			<g>
				<path style="fill:#27DEBF;" d="M151.541,104.86c-0.004,0-0.008,0.001-0.012,0.001c-0.338,0.021-0.631-0.237-0.651-0.575
					l-0.127-2.047c-0.022-0.339,0.261-0.661,0.575-0.651c0.338-0.021,0.631,0.237,0.651,0.575l0.127,2.047
					C152.126,104.545,151.874,104.834,151.541,104.86z"/>
			</g>
		</g>
	</g>
</g>
<g id="Paper_Planes_1_">
	<g id="Paper_Planes">
		<g id="Paper_Plane_1_">
			<g id="XMLID_16655_">
				<polygon id="XMLID_16653_" style="fill:#27DEBF;" points="53.231,229.715 87.366,209.537 63.671,235.885 				"/>
				<polygon id="XMLID_16654_" style="fill:#27DEBF;" points="87.366,209.537 49.234,225.477 38.793,219.308 				"/>
				<polygon id="XMLID_16619_" style="fill:#27DEBF;" points="49.234,225.477 51.558,235.296 53.231,229.715 87.366,209.537 				"/>
				<polygon id="XMLID_679_" style="opacity:0.2;" points="49.234,225.477 51.558,235.296 53.231,229.715 87.366,209.537 				"/>
				<polygon id="XMLID_16671_" style="fill:#27DEBF;" points="51.558,235.296 56.711,231.772 53.231,229.715 				"/>
				<polygon id="XMLID_672_" style="opacity:0.2;" points="53.231,229.715 56.711,231.772 55.889,232.334 				"/>
			</g>
			<g id="XMLID_651_">
				<g>
					<path style="fill:#E0E0E0;" d="M43.268,238.319c-0.179,0-0.357-0.071-0.489-0.212c-0.254-0.27-0.24-0.695,0.03-0.948
						c0.689-0.646,1.382-1.25,2.06-1.796c0.287-0.23,0.71-0.189,0.943,0.102c0.232,0.289,0.188,0.711-0.102,0.943
						c-0.652,0.525-1.319,1.107-1.983,1.73C43.597,238.259,43.433,238.319,43.268,238.319z"/>
				</g>
				<g>
					<path style="fill:#E0E0E0;" d="M93.412,315.112c-1.326-0.001-2.632-0.022-3.917-0.065c-0.37-0.013-0.66-0.323-0.648-0.693
						c0.014-0.369,0.294-0.629,0.693-0.648c1.714,0.058,3.464,0.077,5.252,0.058c0.002,0,0.005,0,0.007,0
						c0.367,0,0.667,0.296,0.671,0.664c0.004,0.37-0.293,0.674-0.664,0.678C94.339,315.109,93.873,315.112,93.412,315.112z
						 M99.197,314.974c-0.355,0-0.652-0.28-0.669-0.64c-0.018-0.37,0.269-0.685,0.639-0.701c1.718-0.081,3.482-0.2,5.243-0.354
						c0.368-0.011,0.694,0.241,0.728,0.61c0.032,0.369-0.241,0.694-0.61,0.728c-1.78,0.155-3.563,0.275-5.298,0.357
						C99.218,314.974,99.207,314.974,99.197,314.974z M85.122,314.811c-0.017,0-0.033,0-0.05-0.002
						c-1.772-0.13-3.552-0.308-5.289-0.526c-0.368-0.047-0.628-0.383-0.582-0.75c0.047-0.368,0.383-0.62,0.75-0.582
						c1.714,0.217,3.47,0.392,5.219,0.52c0.37,0.027,0.647,0.349,0.62,0.718C85.765,314.542,85.47,314.811,85.122,314.811z
						 M108.846,314.165c-0.335,0-0.625-0.25-0.665-0.592c-0.044-0.367,0.219-0.701,0.587-0.745c1.709-0.204,3.462-0.445,5.21-0.716
						c0.357-0.063,0.708,0.193,0.766,0.561c0.057,0.366-0.194,0.709-0.561,0.766c-1.763,0.273-3.531,0.516-5.257,0.722
						C108.9,314.164,108.872,314.165,108.846,314.165z M75.516,313.639c-0.038,0-0.077-0.003-0.115-0.01
						c-1.774-0.308-3.528-0.664-5.214-1.059c-0.36-0.084-0.585-0.445-0.5-0.807c0.085-0.359,0.449-0.581,0.807-0.5
						c1.659,0.389,3.388,0.739,5.136,1.043c0.365,0.064,0.61,0.411,0.547,0.775C76.12,313.409,75.836,313.639,75.516,313.639z
						 M66.082,311.474c-0.062,0-0.124-0.009-0.187-0.026c-1.72-0.498-3.423-1.055-5.063-1.654c-0.348-0.127-0.527-0.512-0.4-0.86
						c0.125-0.348,0.51-0.531,0.86-0.399c1.611,0.588,3.286,1.135,4.976,1.625c0.356,0.104,0.562,0.476,0.458,0.831
						C66.642,311.283,66.373,311.474,66.082,311.474z M56.978,308.202c-0.09,0-0.181-0.018-0.268-0.056
						c-1.648-0.718-3.265-1.496-4.805-2.314c-0.327-0.174-0.451-0.58-0.277-0.908c0.175-0.325,0.58-0.449,0.908-0.277
						c1.508,0.802,3.093,1.565,4.709,2.27c0.34,0.147,0.495,0.543,0.348,0.883C57.483,308.052,57.237,308.202,56.978,308.202z
						 M48.408,303.71c-0.121,0-0.244-0.033-0.355-0.103c-1.529-0.958-3.008-1.979-4.394-3.037c-0.294-0.225-0.351-0.646-0.126-0.94
						c0.225-0.293,0.644-0.352,0.94-0.126c1.354,1.032,2.797,2.03,4.292,2.967c0.313,0.196,0.409,0.61,0.212,0.925
						C48.85,303.599,48.631,303.71,48.408,303.71z M40.681,297.897c-0.161,0-0.322-0.058-0.45-0.173
						c-1.342-1.215-2.609-2.494-3.767-3.805c-0.245-0.277-0.219-0.702,0.059-0.947c0.277-0.244,0.7-0.221,0.947,0.059
						c1.124,1.273,2.356,2.517,3.661,3.697c0.274,0.249,0.296,0.674,0.048,0.948C41.046,297.823,40.864,297.897,40.681,297.897z
						 M34.226,290.704c-0.21,0-0.416-0.098-0.547-0.28c-1.061-1.484-2.008-3.023-2.815-4.575c-0.171-0.328-0.043-0.733,0.286-0.905
						c0.33-0.171,0.733-0.042,0.905,0.286c0.777,1.495,1.691,2.98,2.716,4.413c0.216,0.302,0.146,0.721-0.155,0.937
						C34.496,290.664,34.361,290.704,34.226,290.704z M29.69,282.184c-0.275,0-0.533-0.17-0.632-0.444
						c-0.464-1.293-0.838-2.6-1.109-3.886c-0.095-0.445-0.18-0.889-0.255-1.333c-0.062-0.365,0.185-0.712,0.551-0.773
						c0.357-0.061,0.711,0.184,0.773,0.551c0.071,0.425,0.152,0.85,0.243,1.277c0.26,1.227,0.616,2.475,1.06,3.711
						c0.125,0.349-0.057,0.733-0.405,0.858C29.842,282.171,29.765,282.184,29.69,282.184z M27.909,272.705
						c-0.36,0-0.658-0.285-0.671-0.647c-0.015-0.429-0.022-0.856-0.022-1.282c0-1.343,0.078-2.719,0.231-4.09
						c0.042-0.369,0.387-0.631,0.742-0.592c0.368,0.041,0.633,0.373,0.592,0.742c-0.148,1.321-0.224,2.647-0.224,3.94
						c0,0.41,0.008,0.822,0.022,1.235c0.013,0.37-0.277,0.682-0.647,0.694C27.924,272.705,27.916,272.705,27.909,272.705z
						 M28.856,263.095c-0.05,0-0.101-0.005-0.15-0.017c-0.361-0.083-0.587-0.442-0.505-0.804c0.39-1.704,0.9-3.434,1.517-5.141
						c0.125-0.349,0.509-0.53,0.858-0.403c0.349,0.125,0.529,0.51,0.403,0.858c-0.598,1.657-1.092,3.334-1.47,4.984
						C29.438,262.885,29.162,263.095,28.856,263.095z M32.035,253.966c-0.096,0-0.193-0.021-0.285-0.064
						c-0.336-0.157-0.479-0.558-0.322-0.893c0.748-1.592,1.594-3.18,2.516-4.72c0.19-0.317,0.602-0.422,0.921-0.231
						c0.318,0.19,0.421,0.602,0.231,0.921c-0.899,1.501-1.725,3.049-2.453,4.601C32.528,253.823,32.287,253.966,32.035,253.966z
						 M36.933,245.624c-0.135,0-0.271-0.04-0.389-0.125c-0.302-0.215-0.372-0.634-0.156-0.936c1.044-1.462,2.161-2.873,3.322-4.193
						c0.245-0.277,0.668-0.307,0.947-0.061c0.278,0.245,0.306,0.669,0.061,0.947c-1.131,1.286-2.221,2.661-3.238,4.086
						C37.349,245.527,37.143,245.624,36.933,245.624z"/>
				</g>
				<g>
					<path style="fill:#E0E0E0;" d="M118.483,312.698c-0.317,0-0.6-0.225-0.659-0.549c-0.067-0.364,0.174-0.715,0.538-0.782
						c0.868-0.16,1.744-0.329,2.625-0.508c0.362-0.072,0.718,0.162,0.791,0.525c0.073,0.363-0.162,0.717-0.525,0.791
						c-0.889,0.179-1.771,0.35-2.646,0.512C118.565,312.694,118.524,312.698,118.483,312.698z"/>
				</g>
			</g>
		</g>
		<g id="Paper_Plane">
			<polygon id="XMLID_16609_" style="fill:#27DEBF;" points="421.262,223.275 461.454,203.172 477.467,210.255 			"/>
			<polygon id="XMLID_16612_" style="fill:#27DEBF;" points="421.262,223.275 456.669,199.605 450.328,190.491 			"/>
			<polygon id="XMLID_602_" style="fill:#27DEBF;" points="456.669,199.605 456,205.9 421.262,223.275 			"/>
			<polygon id="XMLID_668_" style="opacity:0.2;" points="456.669,199.605 456,205.9 421.262,223.275 			"/>
			<g id="XMLID_593_">
				<path style="fill:#E0E0E0;" d="M462.23,199.529c-0.196,0-0.392-0.086-0.524-0.252c-0.231-0.289-0.185-0.711,0.105-0.943
					l0.465,0.489l0.373,0.56C462.526,199.481,462.377,199.529,462.23,199.529z M465.62,196.529c-0.167,0-0.334-0.061-0.464-0.186
					c-0.268-0.256-0.277-0.681-0.021-0.948c1.194-1.248,2.287-2.629,3.246-4.105c0.2-0.311,0.617-0.399,0.928-0.197
					c0.312,0.201,0.399,0.617,0.197,0.928c-1.005,1.547-2.149,2.995-3.402,4.303C465.972,196.46,465.796,196.529,465.62,196.529z
					 M471.093,188.406c-0.094,0-0.189-0.02-0.279-0.061c-0.337-0.154-0.485-0.553-0.331-0.89c0.72-1.571,1.317-3.233,1.777-4.941
					c0.096-0.356,0.46-0.574,0.822-0.473c0.357,0.096,0.569,0.464,0.473,0.822c-0.479,1.778-1.102,3.512-1.852,5.15
					C471.59,188.261,471.347,188.406,471.093,188.406z M473.783,178.975c-0.029,0-0.059-0.002-0.089-0.006
					c-0.368-0.049-0.626-0.386-0.577-0.753c0.197-1.484,0.297-3.01,0.297-4.533c0-0.239-0.003-0.48-0.008-0.721
					c-0.008-0.371,0.287-0.677,0.657-0.685c0.005,0,0.01,0,0.014,0c0.364,0,0.664,0.292,0.671,0.657
					c0.005,0.25,0.008,0.499,0.008,0.748c0,1.582-0.104,3.167-0.309,4.709C474.402,178.73,474.114,178.975,473.783,178.975z
					 M473.708,169.163c-0.328,0-0.615-0.241-0.663-0.575c-0.249-1.723-0.628-3.453-1.128-5.144
					c-0.105-0.355,0.098-0.729,0.453-0.834c0.357-0.105,0.729,0.098,0.834,0.453c0.518,1.752,0.911,3.546,1.169,5.333
					c0.053,0.367-0.201,0.707-0.568,0.76C473.773,169.161,473.741,169.163,473.708,169.163z M471.041,159.721
					c-0.26,0-0.508-0.152-0.616-0.406c-0.689-1.602-1.499-3.178-2.411-4.688c-0.191-0.316-0.09-0.729,0.228-0.921
					c0.317-0.191,0.729-0.09,0.921,0.228c0.943,1.561,1.783,3.193,2.495,4.852c0.147,0.34-0.011,0.735-0.352,0.881
					C471.22,159.703,471.13,159.721,471.041,159.721z M466.066,151.26c-0.201,0-0.4-0.09-0.532-0.263
					c-1.057-1.376-2.226-2.712-3.477-3.971c-0.261-0.263-0.259-0.688,0.004-0.949c0.263-0.263,0.686-0.259,0.949,0.004
					c1.29,1.299,2.497,2.678,3.588,4.1c0.226,0.294,0.17,0.715-0.124,0.94C466.353,151.215,466.208,151.26,466.066,151.26z
					 M459.227,144.215c-0.15,0-0.301-0.05-0.426-0.152c-0.814-0.668-1.662-1.319-2.523-1.935c-0.57-0.408-1.153-0.807-1.746-1.196
					c-0.309-0.203-0.396-0.619-0.192-0.929c0.203-0.309,0.618-0.399,0.929-0.192c0.608,0.4,1.205,0.808,1.79,1.226
					c0.885,0.633,1.758,1.302,2.594,1.989c0.286,0.235,0.328,0.658,0.093,0.944C459.613,144.132,459.42,144.215,459.227,144.215z
					 M451.068,138.736c-0.109,0-0.221-0.026-0.323-0.083c-1.505-0.831-3.104-1.629-4.754-2.371c-0.338-0.152-0.488-0.55-0.337-0.888
					c0.154-0.339,0.551-0.486,0.888-0.337c1.683,0.758,3.314,1.572,4.852,2.42c0.324,0.18,0.442,0.588,0.264,0.912
					C451.534,138.611,451.304,138.736,451.068,138.736z M442.134,134.629c-0.079,0-0.16-0.014-0.238-0.044
					c-1.626-0.618-3.32-1.2-5.036-1.729c-0.354-0.109-0.553-0.485-0.444-0.839c0.108-0.356,0.487-0.549,0.839-0.444
					c1.744,0.537,3.466,1.129,5.118,1.758c0.347,0.132,0.521,0.52,0.389,0.865C442.66,134.465,442.405,134.629,442.134,134.629z
					 M432.75,131.675c-0.055,0-0.11-0.007-0.167-0.021c-1.683-0.432-3.433-0.829-5.203-1.181c-0.363-0.072-0.6-0.426-0.527-0.789
					c0.072-0.364,0.43-0.602,0.789-0.527c1.794,0.357,3.569,0.76,5.275,1.196c0.358,0.093,0.575,0.458,0.483,0.817
					C433.323,131.474,433.05,131.675,432.75,131.675z M378.698,131.56c-0.299,0-0.571-0.2-0.649-0.503
					c-0.093-0.358,0.123-0.725,0.481-0.817c1.71-0.442,3.483-0.845,5.271-1.196c0.366-0.072,0.717,0.165,0.788,0.528
					c0.071,0.364-0.165,0.717-0.528,0.788c-1.762,0.347-3.51,0.743-5.194,1.179C378.809,131.553,378.752,131.56,378.698,131.56z
					 M423.104,129.708c-0.034,0-0.069-0.002-0.105-0.008c-1.727-0.269-3.508-0.502-5.294-0.692c-0.368-0.039-0.635-0.37-0.596-0.738
					c0.038-0.368,0.381-0.643,0.738-0.596c1.807,0.192,3.609,0.428,5.358,0.7c0.366,0.057,0.616,0.4,0.559,0.767
					C423.714,129.472,423.429,129.708,423.104,129.708z M388.335,129.607c-0.326,0-0.612-0.238-0.662-0.57
					c-0.056-0.367,0.196-0.709,0.563-0.764c1.755-0.266,3.558-0.492,5.357-0.675c0.359-0.033,0.698,0.232,0.735,0.6
					c0.037,0.368-0.231,0.697-0.6,0.735c-1.777,0.18-3.559,0.403-5.291,0.665C388.403,129.605,388.369,129.607,388.335,129.607z
					 M413.32,128.625c-0.016,0-0.031,0-0.046-0.001c-1.767-0.12-3.562-0.2-5.333-0.239c-0.37-0.008-0.664-0.315-0.656-0.686
					c0.008-0.365,0.307-0.656,0.671-0.656c0.005,0,0.01,0,0.015,0c1.792,0.039,3.608,0.12,5.394,0.241
					c0.37,0.025,0.649,0.346,0.625,0.715C413.964,128.354,413.669,128.625,413.32,128.625z M398.119,128.575
					c-0.352,0-0.646-0.273-0.669-0.63c-0.022-0.37,0.259-0.688,0.629-0.711c1.777-0.109,3.593-0.179,5.395-0.206
					c0.003,0,0.007,0,0.01,0c0.366,0,0.665,0.294,0.671,0.661c0.006,0.37-0.29,0.675-0.661,0.681
					c-1.78,0.027-3.575,0.096-5.332,0.204C398.147,128.575,398.133,128.575,398.119,128.575z"/>
			</g>
		</g>
	</g>
</g>
</svg>
