<?xml version="1.0" encoding="utf-8"?>
<!-- Generator: Adobe Illustrator 27.5.0, SVG Export Plug-In . SVG Version: 6.00 Build 0)  -->
<svg version="1.1" xmlns="http://www.w3.org/2000/svg" xmlns:xlink="http://www.w3.org/1999/xlink" x="0px" y="0px"
	 viewBox="0 0 500 500" style="enable-background:new 0 0 500 500;" xml:space="preserve">
<g id="Floor">
	<ellipse id="Floor_7_" style="fill:#F5F5F5;" cx="250.046" cy="365.435" rx="208.906" ry="120.612"/>
</g>
<g id="Shadows">
	<ellipse id="Shadow_1_" style="fill:#EBEBEB;" cx="134.324" cy="401.975" rx="45.5" ry="26.269"/>
	<ellipse id="Shadow_2_" style="fill:#EBEBEB;" cx="369.922" cy="401.975" rx="45.5" ry="26.269"/>
	<ellipse id="Shadow" style="fill:#EBEBEB;" cx="251.977" cy="413.939" rx="51.66" ry="29.826"/>
</g>
<g id="Balloon">
	<g id="XMLID_1828_">
		<g>
			<g>
				<path style="fill:#37474F;" d="M47.008,168.901c2.474,5.054,3.636,10.599,2.904,16.207c-0.619,4.745-2.244,9.357-1.643,14.197
					c0.949,7.635,6.31,13.729,10.635,19.74c2.368,3.291,4.664,6.744,5.965,10.616c1.582,4.709,1.195,9.588,0.32,14.395
					c-0.856,4.7-2.157,9.375-2.227,14.182c-0.063,4.316,1.12,8.301,3.35,11.983c2.818,4.653,6.627,8.607,9.274,13.379
					c2.902,5.232,4.595,11.056,5.247,16.988c0.062,0.562,1.131,0.699,1.084,0.073c-0.378-5.031-1.576-9.882-3.669-14.48
					c-2.041-4.484-4.951-8.291-7.88-12.212c-3.074-4.114-5.728-8.447-6.095-13.698c-0.343-4.91,0.921-9.762,1.862-14.539
					c0.891-4.524,1.6-9.186,0.648-13.761c-0.753-3.619-2.477-6.96-4.466-10.044c-4.29-6.652-10.497-12.681-12.433-20.581
					c-1.416-5.775,0.771-11.192,1.274-16.91c0.484-5.515-0.747-10.984-3.632-15.709C47.321,168.392,46.798,168.47,47.008,168.901
					L47.008,168.901z"/>
			</g>
		</g>
		<g id="XMLID_1829_">
			<g id="XMLID_1831_">
				<path id="XMLID_1833_" style="fill:#27DEBF;" d="M45.677,177.442L45.677,177.442c-0.245-1.595,2.388-6.488,3.017-6.585
					c0.629-0.097,4.27,3.726,4.531,5.426l0,0c0.086,0.56-0.194,1.177-0.862,1.717c-1.335,1.08-3.725,1.447-5.338,0.82
					C46.219,178.506,45.763,178.003,45.677,177.442L45.677,177.442L45.677,177.442z"/>
				<path id="XMLID_1832_" style="opacity:0.1;" d="M45.677,177.442L45.677,177.442c-0.245-1.595,2.388-6.488,3.017-6.585
					c0.629-0.097,4.27,3.726,4.531,5.426l0,0c0.086,0.56-0.194,1.177-0.862,1.717c-1.335,1.08-3.725,1.447-5.338,0.82
					C46.219,178.506,45.763,178.003,45.677,177.442L45.677,177.442L45.677,177.442z"/>
			</g>
			<path id="XMLID_1830_" style="fill:#27DEBF;" d="M22.161,145.572c1.877,12.22,13.832,26.177,26.822,27.173
				c12.07-5.464,19.308-21.75,17.431-33.97c-1.877-12.22-11.502-22.422-25.757-20.233S20.284,133.352,22.161,145.572z"/>
			<path id="XMLID_2090_" style="opacity:0.05;" d="M66.44,145.305c0,0-1.491,12.231-15.859,15.398
				c-13.845,3.052-27.576-10.554-28.715-20.786c-0.092,1.868,0.006,3.766,0.296,5.654c1.877,12.22,13.832,26.177,26.822,27.173
				c10.003-4.529,16.681-16.489,17.609-27.408L66.44,145.305z"/>
		</g>
	</g>
	<g id="XMLID_260_">
		<g>
			<g>
				<path style="fill:#37474F;" d="M453.111,217.312c-2.245,3.147-3.819,6.771-4.486,10.59c-0.701,4.013,0.062,8.001,0.235,12.02
					c0.203,4.719-1.018,8.752-4.149,12.349c-2.63,3.021-5.81,5.497-8.192,8.745c-4.779,6.515-5.851,13.797-4.865,21.665
					c0.526,4.194,1.437,8.35,1.633,12.581c0.227,4.913-0.794,9.489-3.097,13.835c-2.264,4.271-5.073,8.259-6.601,12.887
					c-1.565,4.737-1.922,9.717-1.817,14.674c0.012,0.573,1.076,0.699,1.084,0.073c0.061-5.005,0.444-10.102,2.097-14.861
					c1.466-4.219,3.998-7.909,6.111-11.81c3.914-7.227,3.847-14.29,2.614-22.227c-0.662-4.263-1.44-8.593-1.155-12.925
					c0.289-4.387,1.892-8.653,4.334-12.292c4.237-6.314,11.906-10.26,13.071-18.357c0.567-3.942-0.288-7.91-0.439-11.85
					c-0.201-5.269,1.616-10.124,4.166-14.649C453.817,217.469,453.334,216.999,453.111,217.312L453.111,217.312z"/>
			</g>
		</g>
		<g id="XMLID_617_">
			<g id="XMLID_622_">
				<path id="XMLID_664_" style="fill:#27DEBF;" d="M454.417,226.248L454.417,226.248c0.346-1.576-1.968-6.628-2.59-6.765
					c-0.622-0.137-4.5,3.445-4.869,5.125l0,0c-0.122,0.554,0.119,1.187,0.751,1.769c1.263,1.164,3.625,1.683,5.274,1.16
					C453.807,227.275,454.295,226.802,454.417,226.248L454.417,226.248L454.417,226.248z"/>
				<path id="XMLID_624_" style="opacity:0.1;" d="M454.417,226.248L454.417,226.248c0.346-1.576-1.968-6.628-2.59-6.765
					c-0.622-0.137-4.5,3.445-4.869,5.125l0,0c-0.122,0.554,0.119,1.187,0.751,1.769c1.263,1.164,3.625,1.683,5.274,1.16
					C453.807,227.275,454.295,226.802,454.417,226.248L454.417,226.248L454.417,226.248z"/>
			</g>
			<path id="XMLID_619_" style="fill:#27DEBF;" d="M479.923,195.948c-2.655,12.075-15.479,25.238-28.507,25.4
				c-11.696-6.226-17.876-22.941-15.221-35.016c2.655-12.075,12.913-21.64,26.999-18.543
				C477.28,170.887,482.579,183.873,479.923,195.948z"/>
			<path id="XMLID_618_" style="opacity:0.05;" d="M435.753,192.848c0,0,0.705,12.302,14.841,16.382
				c13.621,3.931,28.195-8.767,29.987-18.905c-0.027,1.87-0.247,3.758-0.657,5.624c-2.655,12.075-15.479,25.238-28.507,25.4
				c-9.693-5.16-15.592-17.522-15.818-28.479L435.753,192.848z"/>
		</g>
	</g>
</g>
<g id="Confetti">
	<g id="XMLID_259_">
		<g id="XMLID_5043_">
			<path id="XMLID_5044_" style="fill:#27DEBF;" d="M304.32,43.594c-4.674-0.463-10.984,7.334-6.418,11.086
				c2.535,2.082,8.071,1.18,8.012-2.714c-0.003-0.221-0.216-0.388-0.413-0.433c-3.672-0.841-7.309,0.735-6.687,5.021
				c0.552,3.803,3.999,6.548,7.724,6.766c0.223,0.013,0.144-0.382-0.032-0.419c-3.198-0.675-6.218-2.661-6.844-6.083
				c-0.221-1.208-0.104-2.547,0.69-3.537c0.432-0.54,1.015-0.907,1.671-1.116c0.546-0.173,2.518-0.484,2.951-0.039
				c0.87,0.896-1.48,2.402-2.177,2.64c-1.31,0.448-3.054,0.416-4.225-0.4c-1.94-1.353-1.459-3.913-0.52-5.728
				c1.264-2.444,3.491-4.439,6.347-4.535C304.659,44.095,304.525,43.614,304.32,43.594L304.32,43.594z"/>
		</g>
		<g id="XMLID_360_">
			<path id="XMLID_367_" style="fill:#27DEBF;" d="M305.865,197.23c1.47-3.309,1.32-6.738,5.597-7.833
				c1.881-0.482,6.33-0.919,7.743,0.757c0.593,0.703,0.286,1.986-0.37,2.572c-1.113,0.993-1.949-0.198-2.235-1.255
				c-0.545-2.018,0.466-4.044,2.137-5.182c3.719-2.532,8.762-1.574,11.477,1.843c0.154,0.194,0.328-0.049,0.253-0.221
				c-3.28-7.551-19.035-2.301-13.978,4.942c1.53,2.191,4.235,0.257,3.725-2.059c-0.567-2.572-4.949-2.442-6.88-2.315
				c-1.975,0.13-3.86,0.605-5.324,2.046c-1.715,1.687-1.943,4.348-2.302,6.603C305.692,197.231,305.799,197.379,305.865,197.23
				L305.865,197.23z"/>
		</g>
		<g id="XMLID_350_">
			<path id="XMLID_351_" style="fill:#27DEBF;" d="M418.007,34.878c3.07-0.896,7.289-0.649,9.867,1.426
				c1.98,1.593,3.117,5.064,0.183,6.254c-1.148,0.465-4.936,0.467-5.391-1.102c-0.315-1.088,0.854-1.737,1.789-1.881
				c2.756-0.424,5.33,2.476,5.268,5.068c-0.093,3.89-4.623,5.176-7.824,5.21c-0.213,0.002-0.157,0.394,0.026,0.412
				c5.451,0.525,11.531-4.525,6.688-9.584c-1.306-1.364-3.344-2.33-5.224-1.58c-1.063,0.424-1.902,1.386-1.372,2.542
				c0.848,1.848,4.273,2.167,5.934,1.692c1.937-0.554,2.82-2.353,2.297-4.278c-1.339-4.921-8.225-5.947-12.31-4.465
				C417.82,34.635,417.865,34.92,418.007,34.878L418.007,34.878z"/>
		</g>
		<g id="XMLID_335_">
			<path id="XMLID_349_" style="fill:#27DEBF;" d="M458.226,241.307c3.07-0.896,7.289-0.649,9.867,1.426
				c1.979,1.593,3.117,5.064,0.183,6.254c-1.148,0.465-4.936,0.467-5.391-1.102c-0.316-1.088,0.854-1.737,1.789-1.881
				c2.756-0.424,5.33,2.476,5.268,5.068c-0.093,3.89-4.623,5.176-7.824,5.21c-0.213,0.002-0.157,0.395,0.026,0.412
				c5.451,0.525,11.531-4.525,6.688-9.584c-1.306-1.364-3.344-2.33-5.224-1.58c-1.063,0.424-1.902,1.386-1.372,2.542
				c0.848,1.848,4.273,2.167,5.934,1.693c1.937-0.554,2.82-2.353,2.297-4.278c-1.339-4.921-8.224-5.947-12.31-4.465
				C458.039,241.064,458.084,241.349,458.226,241.307L458.226,241.307z"/>
		</g>
		<g id="XMLID_325_">
			<path id="XMLID_5018_" style="fill:#27DEBF;" d="M435.733,91.788c-3.666,1.087-7.067,7.528-3.667,10.462
				c2.892,2.495,8.732,1.926,7.767-2.823c-0.02-0.097-0.101-0.212-0.203-0.236c-3.837-0.92-5.106,3.562-4.3,6.524
				c1.251,4.594,5.89,4.538,9.239,2.134c0.11-0.079,0.059-0.395-0.098-0.317c-2.742,1.372-6.581,2.586-8.253-0.913
				c-0.893-1.868-0.92-4.963,0.805-6.405c0.43-0.36,1.065-0.718,1.646-0.648c1.279,0.152,1.06,1.536,0.34,2.412
				c-1.149,1.398-3.459,1.251-4.998,0.708c-5.272-1.862-1.648-8.698,1.785-10.617C435.901,92.01,435.876,91.746,435.733,91.788
				L435.733,91.788z"/>
		</g>
		<g id="XMLID_314_">
			<path id="XMLID_5014_" style="fill:#27DEBF;" d="M354.337,75.702c-4.316-0.553-13.606,3.09-11.19,8.971
				c1.291,3.143,7.052,5.164,8.946,1.559c0.106-0.201-0.031-0.434-0.212-0.537c-9.005-5.091-18.482,9.631-8.928,15.046
				c0.298,0.169,0.29-0.339,0.111-0.473c-3.558-2.671-4.236-6.85-1.869-10.565c0.973-1.527,2.363-2.845,4.005-3.623
				c1.234-0.584,4.324-1.399,5.464-0.197c0.529,0.558,0.511-0.146,0.244,0.506c-0.165,0.403-0.714,0.627-1.1,0.774
				c-0.922,0.351-2.046,0.213-2.958-0.101c-2.023-0.698-3.574-2.538-3.045-4.754c1.056-4.425,6.699-6.035,10.641-6.071
				C354.725,76.234,354.548,75.729,354.337,75.702L354.337,75.702z"/>
		</g>
		<path id="XMLID_5012_" style="fill:#455A64;" d="M374.004,35.831c0,0-0.267,4.836,3.325,7.526l3.765-1.143
			c0,0-2.516-1.208-3.765-6.383H374.004z"/>
		<path id="XMLID_5011_" style="fill:#455A64;" d="M310.657,152.95c0,0-0.267,4.836,3.325,7.526l3.765-1.143
			c0,0-2.516-1.208-3.765-6.383H310.657z"/>
		<path id="XMLID_4997_" style="fill:#37474F;" d="M341.401,207.539c0,0-0.267,4.836,3.325,7.526l3.765-1.143
			c0,0-2.516-1.208-3.765-6.383H341.401z"/>
		<path id="XMLID_4996_" style="fill:#455A64;" d="M459.255,60.082c0,0-2.191,4.319-6.648,4.847l-2.686-2.876
			c0,0,2.782,0.215,6.457-3.637L459.255,60.082z"/>
		<path id="XMLID_4995_" style="fill:#455A64;" d="M433.468,214.537c0,0-2.191,4.319-6.648,4.847l-2.686-2.876
			c0,0,2.782,0.215,6.457-3.637L433.468,214.537z"/>
		<path id="XMLID_4993_" style="fill:#27DEBF;" d="M371.919,123.806c0,0-2.191,4.319-6.648,4.847l-2.686-2.876
			c0,0,2.782,0.215,6.457-3.638L371.919,123.806z"/>
		<path id="XMLID_313_" style="fill:#455A64;" d="M331.914,70.502c0,0-2.192,4.319-6.648,4.847l-2.686-2.876
			c0,0,2.782,0.215,6.457-3.637L331.914,70.502z"/>
		<path id="XMLID_310_" style="fill:#27DEBF;" d="M415.008,76.948c0,0-4.806,0.597-7.735-2.804l0.883-3.835
			c0,0,1.377,2.427,6.625,3.321L415.008,76.948z"/>
		<path id="XMLID_309_" style="fill:#27DEBF;" d="M345.264,53.394c0,0-4.806,0.597-7.735-2.804l0.883-3.834
			c0,0,1.377,2.427,6.625,3.321L345.264,53.394z"/>
		<path id="XMLID_5078_" style="fill:#27DEBF;" d="M264.392,42.893c0,0-4.806,0.597-7.735-2.804l0.883-3.834
			c0,0,1.377,2.427,6.625,3.321L264.392,42.893z"/>
		<path id="XMLID_4987_" style="fill:#27DEBF;" d="M321.935,107.406c0,0-4.806,0.597-7.735-2.804l0.884-3.835
			c0,0,1.377,2.427,6.625,3.321L321.935,107.406z"/>
		<path id="XMLID_4985_" style="fill:#27DEBF;" d="M465.82,143.217c0,0-4.806,0.597-7.735-2.804l0.883-3.834
			c0,0,1.377,2.427,6.625,3.321L465.82,143.217z"/>
		<path id="XMLID_4984_" style="fill:#455A64;" d="M382.066,94.752c0,0-2.191,4.319-6.648,4.847l-2.686-2.876
			c0,0,3.287,0.507,6.961-3.345L382.066,94.752z"/>
		<path id="XMLID_4983_" style="fill:#37474F;" d="M386.906,101.13c0,0-0.857,4.767-4.974,6.554l-3.399-1.982
			c0,0,3.534-1.371,5.705-5.206L386.906,101.13z"/>
		<g id="XMLID_5144_">
			<path id="XMLID_5146_" style="fill:#27DEBF;" d="M217.895,39.848c4.674-0.463,10.985,7.335,6.418,11.086
				c-2.535,2.082-8.071,1.18-8.012-2.714c0.003-0.221,0.216-0.388,0.413-0.433c3.672-0.841,7.309,0.734,6.687,5.021
				c-0.552,3.803-3.999,6.549-7.724,6.766c-0.223,0.013-0.144-0.382,0.032-0.419c3.198-0.675,6.218-2.661,6.844-6.083
				c0.221-1.208,0.104-2.547-0.69-3.537c-0.432-0.539-1.015-0.907-1.671-1.116c-0.546-0.173-2.518-0.484-2.951-0.039
				c-0.87,0.896,1.48,2.402,2.177,2.64c1.31,0.448,3.054,0.416,4.225-0.4c1.94-1.353,1.459-3.913,0.52-5.728
				c-1.264-2.444-3.491-4.439-6.347-4.535C217.555,40.349,217.69,39.868,217.895,39.848L217.895,39.848z"/>
		</g>
		<g id="XMLID_5140_">
			<path id="XMLID_5142_" style="fill:#27DEBF;" d="M210.394,203.765c-1.47-3.31-1.32-6.738-5.597-7.833
				c-1.881-0.482-6.33-0.919-7.743,0.757c-0.593,0.703-0.286,1.986,0.37,2.572c1.113,0.993,1.95-0.198,2.235-1.255
				c0.545-2.018-0.466-4.044-2.137-5.182c-3.719-2.532-8.762-1.574-11.477,1.843c-0.154,0.194-0.328-0.049-0.253-0.221
				c3.28-7.551,19.035-2.301,13.978,4.942c-1.53,2.191-4.235,0.257-3.725-2.059c0.567-2.572,4.949-2.442,6.88-2.315
				c1.975,0.13,3.86,0.605,5.324,2.046c1.715,1.687,1.943,4.348,2.302,6.603C210.567,203.766,210.46,203.914,210.394,203.765
				L210.394,203.765z"/>
		</g>
		<g id="XMLID_5115_">
			<path id="XMLID_5116_" style="fill:#27DEBF;" d="M87.501,34.878c-3.07-0.896-7.289-0.649-9.867,1.426
				c-1.98,1.593-3.117,5.064-0.183,6.254c1.147,0.465,4.936,0.467,5.391-1.102c0.316-1.088-0.854-1.737-1.789-1.881
				c-2.756-0.424-5.33,2.476-5.268,5.068c0.093,3.89,4.623,5.176,7.824,5.21c0.213,0.002,0.157,0.394-0.026,0.412
				c-5.451,0.525-11.531-4.525-6.688-9.584c1.306-1.364,3.344-2.33,5.224-1.58c1.063,0.424,1.902,1.386,1.372,2.542
				c-0.848,1.848-4.273,2.167-5.934,1.692c-1.937-0.554-2.82-2.353-2.297-4.278c1.339-4.921,8.225-5.947,12.31-4.465
				C87.689,34.635,87.643,34.92,87.501,34.878L87.501,34.878z"/>
		</g>
		<g id="XMLID_5110_">
			<path id="XMLID_5112_" style="fill:#27DEBF;" d="M51.787,237.608c-3.07-0.896-7.289-0.649-9.867,1.426
				c-1.98,1.593-3.117,5.064-0.183,6.254c1.147,0.465,4.936,0.467,5.391-1.102c0.316-1.088-0.854-1.737-1.789-1.881
				c-2.756-0.424-5.33,2.476-5.268,5.068c0.093,3.89,4.623,5.176,7.824,5.21c0.213,0.002,0.157,0.395-0.026,0.412
				c-5.451,0.525-11.531-4.525-6.688-9.584c1.306-1.364,3.344-2.33,5.224-1.58c1.063,0.424,1.902,1.386,1.372,2.542
				c-0.848,1.848-4.274,2.167-5.934,1.692c-1.937-0.554-2.82-2.353-2.297-4.278c1.339-4.921,8.225-5.947,12.31-4.465
				C51.975,237.365,51.929,237.65,51.787,237.608L51.787,237.608z"/>
		</g>
		<g id="XMLID_5106_">
			<path id="XMLID_5108_" style="fill:#27DEBF;" d="M59.657,93.642c3.666,1.087,7.067,7.528,3.667,10.461
				c-2.892,2.495-8.732,1.926-7.767-2.823c0.02-0.097,0.101-0.212,0.202-0.236c3.837-0.919,5.106,3.562,4.3,6.524
				c-1.251,4.594-5.889,4.538-9.239,2.134c-0.11-0.079-0.059-0.395,0.097-0.317c2.742,1.372,6.581,2.586,8.253-0.914
				c0.893-1.868,0.92-4.962-0.805-6.405c-0.43-0.359-1.065-0.717-1.646-0.648c-1.279,0.152-1.06,1.536-0.34,2.412
				c1.149,1.398,3.459,1.251,4.998,0.708c5.273-1.862,1.648-8.698-1.785-10.617C59.489,93.864,59.514,93.6,59.657,93.642
				L59.657,93.642z"/>
		</g>
		<g id="XMLID_5101_">
			<path id="XMLID_5102_" style="fill:#27DEBF;" d="M71.288,175.542c-6.231,0.5-5.108,12.329-0.074,13.924
				c0.622,0.197,1.316,0.227,1.909-0.099c0.61-0.336,1.338-1.691,1.13-2.403c-0.597-2.037-3.949,0.534-4.39,1.329
				c-1.212,2.18-1.252,4.907,0.475,6.801c2.566,2.816,7.461,2.917,10.67,1.3c0.169-0.085,0.197,0.228,0.08,0.303
				c-3.447,2.216-9.229,1.894-11.785-1.607c-2.047-2.804-0.636-10.229,3.829-9.572c4.16,0.611,1.282,5.35-1.871,4.723
				c-3.023-0.601-4.287-4.813-4.59-7.4c-0.383-3.262,0.591-7.666,4.631-7.592C71.432,175.252,71.417,175.532,71.288,175.542
				L71.288,175.542z"/>
		</g>
		<g id="XMLID_308_">
			<path id="XMLID_5099_" style="fill:#27DEBF;" d="M149.533,75.702c4.316-0.553,13.607,3.09,11.19,8.971
				c-1.292,3.143-7.052,5.164-8.946,1.559c-0.106-0.201,0.031-0.434,0.212-0.537c9.005-5.091,18.482,9.631,8.928,15.046
				c-0.298,0.169-0.29-0.339-0.111-0.473c3.558-2.671,4.236-6.85,1.869-10.565c-0.973-1.527-2.363-2.845-4.005-3.623
				c-1.234-0.584-4.324-1.399-5.464-0.197c-0.529,0.558-0.511-0.146-0.244,0.506c0.165,0.403,0.714,0.627,1.1,0.774
				c0.922,0.351,2.046,0.213,2.958-0.101c2.023-0.698,3.574-2.538,3.045-4.754c-1.056-4.425-6.699-6.035-10.641-6.071
				C149.145,76.234,149.322,75.729,149.533,75.702L149.533,75.702z"/>
		</g>
		<path id="XMLID_5096_" style="fill:#455A64;" d="M131.999,44.631c0,0,0.267,4.836-3.325,7.526l-3.765-1.143
			c0,0,2.515-1.208,3.765-6.383H131.999z"/>
		<path id="XMLID_307_" style="fill:#455A64;" d="M209.709,164.415c0,0,0.268,4.836-3.325,7.526l-3.765-1.143
			c0,0,2.516-1.208,3.765-6.383H209.709z"/>
		<path id="XMLID_5094_" style="fill:#37474F;" d="M194.847,222.261c0,0,0.267,4.836-3.325,7.526l-3.765-1.143
			c0,0,2.515-1.208,3.765-6.383H194.847z"/>
		<path id="XMLID_5091_" style="fill:#455A64;" d="M44.615,60.082c0,0,2.191,4.319,6.648,4.847l2.686-2.876
			c0,0-2.782,0.215-6.457-3.637L44.615,60.082z"/>
		<path id="XMLID_5088_" style="fill:#455A64;" d="M91.133,209.271c0,0,2.191,4.319,6.648,4.847l2.686-2.876
			c0,0-2.782,0.215-6.457-3.637L91.133,209.271z"/>
		<path id="XMLID_292_" style="fill:#27DEBF;" d="M138.489,129.412c0,0,2.191,4.319,6.648,4.847l2.686-2.876
			c0,0-2.782,0.215-6.457-3.637L138.489,129.412z"/>
		<path id="XMLID_5086_" style="fill:#455A64;" d="M181.97,72.871c0,0,2.192,4.319,6.648,4.847l2.686-2.876
			c0,0-2.782,0.215-6.457-3.638L181.97,72.871z"/>
		<path id="XMLID_282_" style="fill:#27DEBF;" d="M88.862,76.948c0,0,4.806,0.597,7.735-2.804l-0.883-3.835
			c0,0-1.377,2.427-6.625,3.321L88.862,76.948z"/>
		<path id="XMLID_269_" style="fill:#27DEBF;" d="M171.014,39.554c0,0,4.806,0.597,7.735-2.804l-0.883-3.834
			c0,0-1.377,2.427-6.625,3.321L171.014,39.554z"/>
		<path id="XMLID_5083_" style="fill:#27DEBF;" d="M181.906,103.368c0,0,4.806,0.597,7.735-2.804l-0.883-3.835
			c0,0-1.377,2.427-6.625,3.321L181.906,103.368z"/>
		<path id="XMLID_266_" style="fill:#27DEBF;" d="M25.964,198.461c0,0,4.806,0.597,7.735-2.804l-0.883-3.835
			c0,0-1.377,2.427-6.625,3.321L25.964,198.461z"/>
		<path id="XMLID_5080_" style="fill:#455A64;" d="M121.803,94.752c0,0,2.192,4.319,6.648,4.847l2.686-2.876
			c0,0-3.287,0.507-6.961-3.345L121.803,94.752z"/>
		<path id="XMLID_261_" style="fill:#37474F;" d="M116.964,101.13c0,0,0.857,4.767,4.974,6.554l3.399-1.982
			c0,0-3.534-1.371-5.705-5.206L116.964,101.13z"/>
		<path id="XMLID_4982_" style="fill:#455A64;" d="M274.879,76.244c0,0-2.191,4.319-6.648,4.847l-2.686-2.876
			c0,0,3.287,0.507,6.961-3.345L274.879,76.244z"/>
		<path id="XMLID_4981_" style="fill:#37474F;" d="M253.318,71.063c0,0-0.857,4.767-4.973,6.554l-3.4-1.982
			c0,0,3.534-1.371,5.705-5.206L253.318,71.063z"/>
	</g>
</g>
<g id="Character_3">
	<g>
		<g>
			<g id="XMLID_1061_">
				<path id="XMLID_1735_" style="fill:#FFBDA7;" d="M380.519,308.283c-0.004,1.544,0.34,6.17,1.201,10.182
					c1.665,20.906,3.835,25.819,6.328,40.29c0.273,1.614,0.919,4.825,0.985,5.894c0.116,1.348,0.742,11.56,1.285,14.6
					c0.795,4.458,8.2,4.573,8.772-0.611c0.38-3.451-0.538-12.548-0.611-14.206c0,0-0.01-2.944-0.038-4.366
					c-0.007-6.501,1.071-19.008,1.691-30.293c0.468-8.512-1.29-12.742-2.345-17.053c0,0,2.145-13.794,4.747-28.967
					c2.602-15.173,8.927-32.629-3.732-46.415l-17.475,5.961c0,0-1.782,27.924-1.102,50.62
					C380.419,300.464,380.527,305.113,380.519,308.283z"/>
			</g>
			<g id="XMLID_1733_">
				<g id="XMLID_811_">
					<path id="XMLID_814_" style="fill:#263238;" d="M372.414,332.903c2.686,3.566,4.404,7.896,6.174,11.971
						c-0.804,2.124-1.774,4.217-3.075,6.082c-2.384-3.1-4.764-6.204-7.144-9.307C369.759,338.753,371.077,335.824,372.414,332.903z"
						/>
					<path id="XMLID_813_" d="M375.513,350.957c-3.177,0.022-6.353,0.013-9.53,0.01c-1.594-2.043-3.205-4.073-4.779-6.131
						c3.32,0.103,6.636,0.302,9.957,0.395C372.61,347.139,374.061,349.048,375.513,350.957z"/>
					<path id="XMLID_812_" style="fill:#37474F;" d="M363.979,328.888c1.988-1.468,2.178,0.282,3.897,1.083
						c1.206,0.561,3.208,1.315,4.372,2.908c1.637,2.242,0.354,6.23-0.446,9.097c-0.8,2.867-0.706,5.109,0.083,8.526
						c0.955,4.135,0.864,7.52-2.3,11.142c-2.533,2.9-10.561,6.413-13.324,4.629c-4.712-3.044,2.198-9.724,2.103-13.723
						c-0.125-5.231-0.81-9.904-2.039-15.105c-0.188-0.797-0.272-1.633,0.203-2.038C358.745,333.512,361.991,330.355,363.979,328.888
						z"/>
				</g>
				<path id="XMLID_1060_" style="fill:#FFBDA7;" d="M367.533,237.337c-3.854,4.552-22.432,27.611-27.276,35.506
					c-3.175,5.175-0.97,11.955,0.76,17.692c2.297,7.617,5.553,16.317,7.464,21.92c3.569,10.465,6.213,15.972,9.083,25.067
					c1.652,1.733,4.622,0.239,6.263-0.923c1.41-0.999,2.928-4.537,2.746-6.322c-0.525-5.161-0.456-5.995-1.113-12.046
					c-1.04-9.584-0.825-24.543-7.332-33.193c9.751-10.81,20.437-18.397,27.555-31.053
					C378.044,249.899,373.141,230.712,367.533,237.337z"/>
			</g>
			<g id="XMLID_671_">
				<path style="fill:#37474F;" d="M388.861,363.324c-1.207,0.145-1.275,1.119-1.31,5.834c-0.026,3.542-0.041,9.776-0.921,15.082
					c-0.879,5.306-1.813,10.957,2.524,15.696c2.536,2.77,6.704,3.429,9.649-1.059c2.732-4.163,4.467-8.117,3.136-12.854
					c-1.128-4.014-1.945-7.825-2.098-12.487c-0.217-6.591,0.158-10.109-1.345-10.091l-0.019,0.986
					c-0.488,0.872-1.969,2.003-4.663,2.112c-2.975,0.121-4.348-0.974-4.783-1.895C389.002,364.211,388.929,363.772,388.861,363.324z
					"/>
			</g>
			<path style="fill:#455A64;" d="M368.052,232.982c-1.927,3.627-8.497,11.257-16.167,21.748
				c-5.311,7.264-14.627,18.278-15.116,23.689c-0.489,5.411,12.568,37.831,12.568,37.831s10.891,1.276,15.814-4.207
				c0.169-9.074-0.995-20.091-5.821-26.501c2.143-2.168,17.628-18.307,20.454-21.676c0,0-0.467,15.879-0.497,24.888
				c-0.03,9.008,1.018,27.019,1.78,32.758c0.762,5.739,1.835,14.304,2.283,17.008c0,0,6.727,6.218,17.044-0.205
				c0,0,0.999-9.082,0.674-13.098c-0.326-4.015-1.686-8.849-2.504-12.304c0,0,4.002-24.439,5.951-35.272
				c1.948-10.833,5.649-27.39-4.148-43.284C400.366,234.357,381.862,240.438,368.052,232.982z"/>
			<path style="fill:#37474F;" d="M379.784,263.866c0,0-6.217-3.937-8.789-8.496c0,0,1.351,5.418,5.027,8.496l-11.006,15.779
				L379.784,263.866z"/>
		</g>
		<g id="XMLID_794_">
			<g id="XMLID_795_">
				<path id="XMLID_796_" style="fill:#FFBDA7;" d="M343.115,166.555c7.69,17.514,18.119,23.626,22.958,34.866
					c6.162-0.494,14.612-10.75,9.946-17.058c-5.269-2.15-22.453-20.399-23.527-28.169c-0.953-6.899-4.805-17.614-4.702-23.368
					c0.017-0.961,0.433-1.853,1.078-2.565c1.867-2.06,1.85-3.695,3.039-5.959c0.927-1.765,1.956-2.433,1.655-2.824
					c-0.386-0.503-1.594-1.149-3.074-0.19c-0.745,0.483-1.226,1.044-2.301,2.261c0,0,0.264-2.719,1.771-6.231
					c2.043-4.761,1.503-7.171-4.87-5.407c-3.993,1.105-6.468,4.472-6.952,14.106c-0.139,2.776-0.296,8.521,0.075,12.024
					c0.783,7.401,1.63,14.487,2.615,20.611C341.264,161.37,342.008,164.033,343.115,166.555z"/>
			</g>
		</g>
		<g>
			<path id="XMLID_771_" style="fill:#27DEBF;" d="M367.324,228.092c-0.552-2.582-1.206-7.45-1.594-11.005
				c-6.494-6.073-4.673-12.707-2.31-17.588c4.725-9.76,9.29-15.304,13.564-15.142l11.692,0.869c6.387,0.758,10.75,1.48,12.297,1.818
				c3.935,0.86,3.819,3.711,4.046,7.883c0.249,4.572,0.637,5.309-0.428,12.896l-5.38,11.626l-0.478,7.158
				c0,0,6.512,13.092,7.696,21.593c0,0-4.641-1.064-8.368-5.411c0,0-5.074,7.646-17.653,8.279s-18.794-10.55-18.794-10.55
				L367.324,228.092z"/>
			<path style="opacity:0.1;" d="M392.474,213.522c0,0-2.532,5.755-9.845,5.62c-6.689-0.124-9.42-5.749-9.42-5.749
				s0.37,7.674,9.442,7.587C391.711,220.891,392.474,213.522,392.474,213.522z"/>
		</g>
		<g id="XMLID_768_">
			<path style="fill:#27DEBF;" d="M395.373,141.319c4.281,2.216,6.465,4.87,9.995,5.852c3.42,0.951,6.382-0.073,9.021-2.25
				c2.997-2.473,4.42-5.59,7.533-7.515c3.113-1.925,6.981-3.108,10.446-1.93c4.324,1.47,6.726,6.1,7.84,10.528
				c1.381,5.487,0.864,11.665-2.254,16.479c-5.513,8.513-14.194,14.85-23.88,17.856c-11.971,3.715-25.103,2.444-36.199-3.255
				c-4.594-2.359-6.078-4.401-9.408-8.236c-3.272-3.768-4.571-8.514-3.526-14.705c1.002-5.936,4.16-9.757,10.213-12.929
				C384.319,136.414,391.927,139.536,395.373,141.319z"/>
			<path style="opacity:0.5;" d="M395.373,141.319c4.281,2.216,6.465,4.87,9.995,5.852c3.42,0.951,6.382-0.073,9.021-2.25
				c2.997-2.473,4.42-5.59,7.533-7.515c3.113-1.925,6.981-3.108,10.446-1.93c4.324,1.47,6.726,6.1,7.84,10.528
				c1.381,5.487,0.864,11.665-2.254,16.479c-5.513,8.513-14.194,14.85-23.88,17.856c-11.971,3.715-25.103,2.444-36.199-3.255
				c-4.594-2.359-6.078-4.401-9.408-8.236c-3.272-3.768-4.571-8.514-3.526-14.705c1.002-5.936,4.16-9.757,10.213-12.929
				C384.319,136.414,391.927,139.536,395.373,141.319z"/>
			<g id="XMLID_791_">
				<path id="XMLID_792_" style="fill:#FFBDA7;" d="M373.529,148.801c-2.217,1.239-5.051,6.673-5.061,18.207
					c-0.009,9.775,3.1,12.265,4.674,12.998c1.573,0.734,4.65,0.384,7.643-0.041l-0.141,5.863c0,0-8.456,8.809-1.625,9.845
					c3.41,0.518,7.778-1.54,10.737-3.768c3.026-2.278,3.94-6.066,3.94-6.066l0.242-12.755c0,0,1.714,1.746,4.751-0.783
					c2.508-2.088,3.422-5.69,1.555-7.679c-1.867-1.989-5.418-1.545-6.841,1.193c0,0-1.752,0.1-3.424-3.188
					c0,0-3.928,0.63-8.348-2.081C375.473,156.767,374.023,150.772,373.529,148.801z"/>
			</g>
			<g id="XMLID_789_">
				<path id="XMLID_790_" style="fill:#263238;" d="M381.164,164.236c-0.052,0.703,0.454,1.313,1.131,1.361
					c0.677,0.048,1.268-0.482,1.32-1.186c0.052-0.703-0.454-1.312-1.131-1.361C381.807,163.002,381.216,163.533,381.164,164.236z"/>
			</g>
			<g id="XMLID_787_" style="opacity:0.5;">
				<path id="XMLID_788_" style="fill:#F0997A;" d="M379.443,172.378l-3.863,1.131c0.292,1.105,1.394,1.747,2.46,1.435
					C379.107,174.632,379.735,173.483,379.443,172.378z"/>
			</g>
			<g id="XMLID_784_">
				<path id="XMLID_785_" style="fill:#263238;" d="M370.149,160.149l2.527-1.663c-0.436-0.721-1.356-0.932-2.054-0.473
					C369.924,158.472,369.712,159.428,370.149,160.149z"/>
			</g>
			<g id="XMLID_781_">
				<path id="XMLID_782_" style="fill:#263238;" d="M382.981,159.964l2.797,1.152c0.35-0.766,0.007-1.646-0.765-1.964
					C384.24,158.834,383.33,159.197,382.981,159.964z"/>
			</g>
			<g id="XMLID_779_">
				<path id="XMLID_780_" style="fill:#263238;" d="M370.741,163.717c-0.052,0.703,0.454,1.312,1.131,1.361
					c0.677,0.049,1.268-0.482,1.32-1.186c0.053-0.703-0.454-1.313-1.131-1.361C371.384,162.484,370.793,163.014,370.741,163.717z"/>
			</g>
			<g id="XMLID_776_" style="opacity:0.5;">
				<polygon id="XMLID_777_" style="fill:#F0997A;" points="376.653,163.156 376.28,170.546 372.417,169.247 				"/>
			</g>
			<g id="XMLID_774_" style="opacity:0.5;">
				<path id="XMLID_775_" style="fill:#F0997A;" d="M380.785,179.965c3.152-0.337,9.66-2.039,10.728-4.57
					c0,0-0.374,1.598-2.344,3.207c-1.971,1.608-8.431,3.319-8.431,3.319L380.785,179.965z"/>
			</g>
			<path id="XMLID_770_" style="fill:#27DEBF;" d="M393.403,165.815l-0.123,5.139l0,0c-1.932-0.046-3.46-1.65-3.414-3.582
				l0.114-4.746L393.403,165.815z"/>
			<path id="XMLID_772_" style="opacity:0.5;" d="M393.403,165.815l-0.123,5.139l0,0c-1.932-0.046-3.46-1.65-3.414-3.582
				l0.114-4.746L393.403,165.815z"/>
		</g>
		<g id="XMLID_673_">
			<g id="XMLID_674_">
				<path id="XMLID_762_" style="fill:#FFBDA7;" d="M426.729,167.963c-7.266,17.694-16.273,28.536-22.139,39.86
					c-9.984,0.582-10.912-14.868-6.4-21.285c0,0,17.374-21.013,18.915-28.707c1.367-6.829,4.38-17.725,4.139-23.474
					c-0.04-0.96-0.477-1.842-1.14-2.539c-1.917-2.014-1.939-3.649-3.181-5.884c-0.969-1.742-2.013-2.385-1.723-2.783
					c0.374-0.512,1.566-1.187,3.069-0.264c0.756,0.465,1.251,1.015,2.354,2.205c0,0-0.329-2.712-1.921-6.187
					c-2.157-4.71-1.675-7.132,4.738-5.523c4.018,1.008,6.573,4.315,7.289,13.935c0.206,2.772,0.501,8.512,0.214,12.022
					c-0.605,7.418-1.281,14.522-2.118,20.668C428.455,162.736,427.776,165.416,426.729,167.963z"/>
			</g>
		</g>
	</g>
</g>
<g id="Character_2">
	<g>
		<g id="XMLID_750_">
			<g>
				<g>
					<g>
						<g>
							<path style="fill:#263238;" d="M227.481,377.235c0.732,1.934,1.822,3.868,3.977,4.585c4.482,1.49,10.306-2.362,12.716-5.23
								c2.92-3.475,3.351-7.19,5.499-10.074c2.147-2.885,5.157-4.73,6.617-7.224c1.461-2.494,1.176-4.429,0.429-6.345
								c-0.391-1.002-1.565-2.071-2.962-2.927c-0.332-0.203-0.908-0.217-1.271-0.416
								C244.14,358.824,235.832,368.007,227.481,377.235z"/>
						</g>
						<g>
							<path style="fill:#37474F;" d="M236.792,358.971c-0.373,1.835-1.036,3.642-2.059,5.003c-1.863,2.478-4.25,4.302-6.441,6.453
								c-0.724,0.711-1.486,1.332-1.877,2.345c-0.924,2.396,0.156,4.341,1.849,6.204c0.534,0.587,1.815,1.251,2.588,1.421
								c1.502,0.33,2.941,0.446,4.341-0.009c2.747-0.893,5.296-2.692,7.11-4.724c3.79-4.243,3.549-9.811,8.064-13.538
								c4.515-3.726,7.565-7.688,2.957-12.485c-2.246-2.338-4.746-3.343-5.417-4.181c-1.196-1.495-4.027,1.117-4.883,1.875
								c-0.907,0.803-1.751,1.668-2.661,2.461c-0.925,0.807-1.504,2.039-2.304,2.979c-0.269,0.315-0.552,0.63-0.709,1.013
								c-0.194,0.474-0.176,1.004-0.179,1.516C237.166,356.451,237.046,357.718,236.792,358.971z"/>
						</g>
					</g>
					<path style="fill:#FAFAFA;" d="M242.37,375.667c0.615-0.595,0.929-1.137,1.416-1.802c-0.871-2.198-1.885-3.869-3.952-5.234
						c-2.507-1.655-5.075-2.053-8.055-1.406c-1.338,0.924-2.749,1.768-3.904,2.905c-0.739,0.727-1.485,1.547-1.754,2.557
						c-0.692,2.596,0.351,4.913,2.244,6.392c0.553,0.607,1.697,1.144,2.489,1.316c1.537,0.335,2.884,0.449,4.346-0.008
						C238.069,379.491,240.266,377.701,242.37,375.667z"/>
				</g>
				<path style="fill:#B16668;" d="M244.743,337.921l2.7,8.265c0,0,2.063,2.711-1.197,5.858c-3.26,3.147-6.907,3.019-8.479,1.084
					l-4.644-8.772L244.743,337.921z"/>
			</g>
			<g>
				<g>
					<path style="fill:#263238;" d="M312.73,321.195c1.186,0.568,4.326,0.773,6.062-0.409c3.612-2.459,4.376-9.711,3.244-13.719
						c-1.371-4.855-4.078-7.321-4.991-10.233c-0.913-2.912-0.67-7.103-1.887-9.654c-1.157-2.425-3.274-3.51-4.945-3.995
						c-1.369-0.398-2.848-0.091-4,0.749l-1.095,0.799L312.73,321.195z"/>
				</g>
				<g>
					<path style="fill:#37474F;" d="M303.547,302.836c1.3,1.29,2.204,2.969,2.754,4.704c0.919,2.9,0.994,5.987,1.389,9.003
						c0.13,0.997,0.303,2.01,0.768,2.901c1.102,2.109,3.612,2.499,6.116,2.175c0.79-0.102,2.121-0.771,2.729-1.285
						c1.18-0.999,2.019-2.053,2.549-3.505c1.039-2.848,0.818-6.007,0.38-8.6c-0.914-5.417-6.36-9.034-6.295-14.336
						c0.065-5.302-3.058-12.255-9.779-8.718c-4.759,2.412-8.998,7.022-8.998,7.022c1.603,2.405,3.241,4.79,4.811,7.216
						c0.362,0.56,0.642,1.237,1.145,1.684c0.69,0.613,1.596,0.942,2.286,1.597C303.451,302.742,303.499,302.788,303.547,302.836z"/>
				</g>
				<path style="fill:#FAFAFA;" d="M320.228,308.318c-0.128-0.758-0.351-1.478-0.629-2.176c-1.745-0.65-4.159-0.812-6.533,0.061
					c-2.881,1.06-4.773,2.741-5.898,5.729c-0.073,1.549-0.171,3.306,0.033,4.865c0.13,0.997,0.453,2.115,1.026,2.942
					c1.474,2.126,3.84,2.292,6.344,1.968c0.79-0.102,2.121-0.77,2.729-1.285c1.18-0.999,2.019-2.053,2.549-3.505
					C320.887,314.071,320.666,310.912,320.228,308.318z"/>
				<path style="fill:#B16668;" d="M296.678,288.905l4.234-0.187c0,0,3.575,1.427,4.316,5.369c0.741,3.942-1.781,6.869-1.781,6.869
					l-6.997,0.928l0.215-12.704"/>
			</g>
			<path style="fill:#27DEBF;" d="M297.029,288.357l-29.208,0.292c0,0,5.302-39.19,3.544-62.124l-46.878-5.398l-0.141,0.294
				c-7.688,20.468-15.807,47.169-20.227,67.294c-1.361,6.196-0.66,7.884,4.164,16.994c6.768,12.781,18.283,29.88,26.532,42.867
				c6.521-0.586,10.041-2.567,11.508-7.953c-5.123-11.936-9.454-37.671-21.025-48.591c6.449-11.503,12.504-24.712,18.658-37.398
				c0.194,8.08,1.03,34.564,3.811,45.474c1.747,6.855,5.542,10.939,13.125,9.729c10.554-1.683,38.453-7.94,38.453-7.94
				C304.943,301.099,303.544,290.632,297.029,288.357z"/>
			<path style="opacity:0.2;" d="M297.029,288.357l-29.208,0.292c0,0,5.302-39.19,3.544-62.124l-46.878-5.398l-0.141,0.294
				c-7.688,20.468-15.807,47.169-20.227,67.294c-1.361,6.196-0.66,7.884,4.164,16.994c6.768,12.781,18.283,29.88,26.532,42.867
				c6.521-0.586,10.041-2.567,11.508-7.953c-5.123-11.936-9.454-37.671-21.025-48.591c6.449-11.503,12.504-24.712,18.658-37.398
				c0.194,8.08,1.03,34.564,3.811,45.474c1.747,6.855,5.542,10.939,13.125,9.729c10.554-1.683,38.453-7.94,38.453-7.94
				C304.943,301.099,303.544,290.632,297.029,288.357z"/>
			<path style="opacity:0.2;" d="M267.822,288.648c0,0,0.398,5.289-1.863,9.241c0,0,2.435-2.122,3.634-5.387
				c1.2-3.265,10.561-2.489,17.561-4.046L267.822,288.648z"/>
			<path style="opacity:0.2;" d="M243.944,254.655l-0.463-7.387c0,0-5.487-2.816-10.535-8.841c0,0,3.545,5.82,8.349,9.545
				l0.696,5.22l-10.202,26.542L243.944,254.655z"/>
			<path style="opacity:0.2;" d="M225.298,292.031c-0.896,1.396-2.344,2.334-2.344,2.334s4.115,2.094,7.074,5.942
				c2.93,3.811,5.705,8.909,5.759,9.008C233.041,302.462,229.692,296.177,225.298,292.031z"/>
		</g>
		<g>
			<g id="XMLID_748_">
				<path id="XMLID_749_" style="fill:#B16668;" d="M207.641,142.891c1.436,3.706,19.22,29.992,23.492,36.285
					c12.137-5.179,4.053-19.445,4.053-19.445s-12.759-20.649-14.823-24.127c-0.554-0.933-0.789-2.015-0.907-2.872
					c-0.255-1.847-1.157-24.424-0.055-31.247c0.195-1.209,0.86-2.289,1.809-3.062c2.548-2.074,3.44-3.988,5.248-6.427
					c1.415-1.91,2.75-2.508,2.468-3.023c-0.363-0.663-1.667-1.647-3.587-0.788c-0.967,0.432-2.165,1.381-3.655,2.617
					c0,0,0.732-3.54,3.152-7.402c3.28-5.235,3.086-8.173-4.746-7.264c-4.907,0.57-9.692,4.379-12.029,15.642
					c-0.674,3.245-0.824,8.134-1.065,12.328c-0.549,9.545-0.902,24.645-0.724,31.255
					C206.362,138.712,206.206,139.185,207.641,142.891z"/>
			</g>
			<path id="XMLID_747_" style="fill:#27DEBF;" d="M242.88,157.033c-4.209-0.622-17.982-15.717-17.982-15.717
				c-3.847-0.221-13.284,9.654-11.417,13.669c5.608,9.342,12.743,18.016,14.677,24.05c1.616,3.387,5.923,0.512,7.781-6.593
				C238.531,162.53,246.298,157.538,242.88,157.033z"/>
			<path id="XMLID_746_" style="opacity:0.3;" d="M242.88,157.033c-4.209-0.622-17.982-15.717-17.982-15.717
				c-3.847-0.221-13.284,9.654-11.417,13.669c5.608,9.342,12.743,18.016,14.677,24.05c1.616,3.387,5.923,0.512,7.781-6.593
				C238.531,162.53,246.298,157.538,242.88,157.033z"/>
		</g>
		<path id="XMLID_723_" style="fill:#455A64;" d="M274.094,174.826l-0.997,17.921l-1.102,38.112
			c-13.823,6.473-34.246,2.57-48.14-8.618c0,0,0.792-43.867,3.659-53.963c2.867-10.097,7.992-12.152,15.147-11.928
			c7.547,0.236,17.247,1.304,17.247,1.304l8.261,2.199C268.169,159.854,274.263,171.238,274.094,174.826z"/>
		<g>
			<path id="XMLID_720_" style="fill:#27DEBF;" d="M279.936,145.32c0.947-0.48,5.276,1.678,7.909,5.411
				c2.633,3.733,2.826,8.946,1.974,10.026c-0.851,1.08-11.424-3.752-11.424-3.752L279.936,145.32z"/>
			<path id="XMLID_718_" style="opacity:0.6;" d="M279.936,145.32c0.947-0.48,5.276,1.678,7.909,5.411
				c2.633,3.733,2.826,8.946,1.974,10.026c-0.851,1.08-11.424-3.752-11.424-3.752L279.936,145.32z"/>
			<path id="XMLID_713_" style="fill:#B16668;" d="M297.383,148.134c-1.778,3.554-21.957,28.05-26.802,33.913
				c-11.595-6.298-2.205-19.74-2.205-19.74s14.645-19.357,17.028-22.625c0.639-0.876,0.975-1.931,1.174-2.773
				c0.427-1.815,3.451-24.207,2.995-31.103c-0.08-1.222-0.641-2.36-1.513-3.219c-2.341-2.304-3.049-4.294-4.62-6.892
				c-1.229-2.034-2.502-2.756-2.172-3.242c0.423-0.626,1.815-1.482,3.645-0.446c0.922,0.521,2.026,1.578,3.392,2.949
				c0,0-0.395-3.593-2.441-7.666c-2.773-5.52-2.303-8.427,5.408-6.785c4.832,1.029,9.237,5.272,10.504,16.705
				c0.365,3.294,0.055,8.176-0.1,12.373c-0.352,9.555-1.421,24.62-2.221,31.185C299.05,144.095,299.161,144.58,297.383,148.134z"/>
			<path id="XMLID_712_" style="fill:#27DEBF;" d="M265.413,159.267l14.523-13.947c0,0-1.306,11.961,9.892,15.427l-16.691,21.11
				c-1.927,3.22-7.221-0.966-8.402-8.214C263.088,163.531,265.413,159.267,265.413,159.267z"/>
			<path id="XMLID_711_" style="opacity:0.3;" d="M265.413,159.267l14.523-13.947c0,0-1.306,11.961,9.892,15.427l-16.691,21.11
				c-1.927,3.22-7.221-0.966-8.402-8.214C263.088,163.531,265.413,159.267,265.413,159.267z"/>
		</g>
		<g id="XMLID_286_">
			<g id="XMLID_693_">
				<path id="XMLID_710_" style="fill:#263238;" d="M257.689,125.507c-0.336,7.136-6.394,12.647-13.53,12.311
					c-7.136-0.337-12.647-6.394-12.311-13.529c0.336-7.136,6.394-12.647,13.529-12.311
					C252.514,112.314,258.026,118.371,257.689,125.507z"/>
				<path id="XMLID_709_" style="fill:#263238;" d="M266.67,135.137c0,0-2.557,9.738-3.473,11.314
					c-0.916,1.577-2.673,1.954-2.673,1.954l0.473-6.913L266.67,135.137z"/>
				<path id="XMLID_707_" style="fill:#263238;" d="M264.707,120.922c0,0,2.273-0.28,3.946,1.6c1.64,1.844,0.418,7.314-1.983,12.615
					l-3.965,0.267L264.707,120.922z"/>
				<path id="XMLID_706_" style="fill:#B16668;" d="M261.522,135.352c0.768,0.51,1.968-0.956,2.992-1.931
					c1.023-0.974,4.273-2.218,5.703,1.203c1.458,3.487-1.775,7.85-4.319,8.519c-4.383,1.152-4.901-1.649-4.901-1.649l-1.076,16.042
					l0,0c-5.695,6.632-20.571,5.348-14.022-1.552l0.236-4.741c0,0-3.942,0.409-5.837,0.024c-3.153-0.641-5.034-3.242-5.835-6.725
					c-1.287-5.596-1.665-10.083,0.161-20.883c2.001-11.837,15.853-11.308,23.109-6.249
					C264.987,122.468,261.522,135.352,261.522,135.352z"/>
				<path id="XMLID_705_" style="fill:#263238;" d="M261.459,136.682c0.398,0.026,2.028-2.412,3.055-3.261
					c1.423-1.177,0.193-12.499,0.193-12.499s1.837-3.097-0.653-6.112c-1.772-2.145-4.259-4.779-12.786-4.176
					c-6.078,0.43-12.745,2.005-17.937-0.857c-0.952,3.269-0.483,6.989,2.698,9.758c0,0,1.866,1.331,6.896,2.186
					c5.031,0.855,12.946,0.492,14.031,0.395c1.477-0.132,1.723,1.305,2.331,5.228C259.82,130.786,260.124,136.593,261.459,136.682z"
					/>
				<path id="XMLID_695_" style="fill:#263238;" d="M264.658,121.796l4.902-2.341c-0.614-1.402-2.209-2.015-3.563-1.368
					C264.643,118.733,264.044,120.394,264.658,121.796z"/>
				<path id="XMLID_694_" style="fill:#9A4A4D;" d="M246.134,151.242c0,0,7.158-1.094,9.699-2.295
					c1.701-0.804,3.14-2.268,3.587-3.229c0,0-0.564,2.082-2.136,3.907c-1.922,2.232-11.24,3.503-11.24,3.503L246.134,151.242z"/>
			</g>
			<g id="XMLID_287_">
				<path id="XMLID_692_" style="fill:#263238;" d="M248.704,132.97c-0.038,0.815,0.567,1.505,1.352,1.539
					c0.785,0.035,1.452-0.598,1.491-1.413c0.038-0.815-0.566-1.505-1.352-1.54C249.41,131.522,248.742,132.155,248.704,132.97z"/>
				<path id="XMLID_688_" style="fill:#263238;" d="M250.464,127.677l2.961,1.821c0.489-0.852,0.223-1.951-0.594-2.454
					C252.013,126.541,250.953,126.824,250.464,127.677z"/>
				<path id="XMLID_687_" style="fill:#9A4A4D;" d="M247.179,142.736l-3.301,1.064c0.277,0.945,1.241,1.473,2.153,1.179
					C246.942,144.686,247.456,143.681,247.179,142.736z"/>
				<path id="XMLID_686_" style="fill:#263238;" d="M236.23,128.191l2.873-2.004c-0.528-0.821-1.599-1.037-2.392-0.483
					C235.917,126.257,235.702,127.37,236.23,128.191z"/>
				<path id="XMLID_685_" style="fill:#263238;" d="M236.905,132.009c-0.038,0.815,0.567,1.505,1.352,1.539
					c0.785,0.035,1.452-0.598,1.491-1.413c0.038-0.815-0.567-1.505-1.351-1.54C237.611,130.56,236.943,131.193,236.905,132.009z"/>
				<polygon id="XMLID_682_" style="fill:#9A4A4D;" points="244.208,131.002 243.338,139.526 238.948,137.794 				"/>
			</g>
		</g>
	</g>
</g>
<g id="Character_1">
	<g>
		<g id="XMLID_285_">
			<g id="XMLID_1500_">
				<path id="XMLID_1502_" style="fill:#263238;" d="M150.736,374.94l0.405-1.388c0.072,1.788,0.567,9.539,3.393,14.175
					c2.247,3.686,5.483,8.13,5.637,11.554c0.16,3.561-7.075,2.63-9.788,1.289c-3.152-1.558-6.902-4.699-8.404-8.258
					c-1.056-2.502-1.405-5.204-2.116-7.137c-0.711-1.933-2.902-4.498-3.001-6.524c-0.054-1.113,1.006-3.206,2.042-4.934
					c0.951-1.585,2.254-3.409,2.794-3.077c-0.059,0.21-0.574,1.138-0.574,1.138c0.477,0.987,2.2,2.331,4.374,3.056
					C146.905,375.303,150.432,376.027,150.736,374.94z"/>
			</g>
			<g id="XMLID_593_">
				<path id="XMLID_623_" style="fill:#263238;" d="M86.143,348.352l1.016-0.31c-1.003,1.482-4.874,8.588-5.35,13.997
					c-0.379,4.3-0.412,9.798-2.32,12.644c-1.984,2.961-7.255-2.082-8.643-4.771c-1.612-3.125-2.767-7.878-1.863-11.633
					c0.635-2.641,1.958-5.022,2.533-7c0.575-1.978,0.334-5.343,1.457-7.032c0.617-0.928,2.713-1.983,4.572-2.759
					c1.706-0.712,3.838-1.406,4.075-0.819c-0.172,0.133-1.137,0.575-1.137,0.575c-0.202,1.077,0.388,3.182,1.707,5.056
					C83.04,347.511,85.015,348.216,86.143,348.352z"/>
			</g>
			<path style="fill:#FFA8A7;" d="M174.977,314.114c0.989-3.07,3.514-9.59,3.046-12.781c-2.188-14.91-7.052-31.926-8.685-37.295
				c-2.188-7.195-4.743-17.818-7.51-29.961c0.072-3.391,0.099-6.41,0.099-6.41l-31.952,2.757c-3.684,9.039-9.545,24.48-7.322,44.044
				c1.239,10.905,1.546,20.712,1.536,27.455c-3.003,1.861-6.326,3.983-8.962,5.843c-7.135,5.036-32.161,31.417-32.161,31.417
				l-2.577,2.054l0,0l-0.001,0.001l-0.199,0.152l0.011,0.056c-1.376,1.661-3.006,8.74-4.305,13.047
				c-0.871,2.887-1.306,7.442,0.701,10.957c1.902,3.331,4.034,4.149,4.828,0.436c0.102-1.322,0.184-2.636,0.292-3.854
				c0.334-3.78,2.486-8.108,4.094-10.878c0.009-0.016,0.019-0.032,0.028-0.047c1.314-2.242,2.186-4.136,4.647-5.723
				c0,0,29.908-19.527,44.284-28.709c4.738-3.026,8.026-7.847,9.115-13.363c1.023-5.187,4.548-17.929,5.762-24.348l6.961,26.666
				c-1.59,2.584-4.544,11.745-6.292,22.966c-2.342,15.029-7.878,37.933-7.878,37.933l-1.408,5.238v0l-0.001,0.002l-0.07,0.24
				l0.042,0.039c-0.121,2.153,2.768,8.819,4.278,13.056c1.012,2.841,3.365,6.765,7.067,8.403c3.508,1.552,5.71,0.945,4.145-2.515
				c-0.702-1.125-1.271-2.442-1.771-3.557c-1.614-3.6-2.885-7.748-3.234-10.932c-0.273-2.584-0.072-4.727,0.967-7.465
				C152.552,369.038,169.692,330.529,174.977,314.114z"/>
		</g>
		<path style="fill:#455A64;" d="M128.12,235.145c0,0-6.249,9.411-7.514,17.355c-2.152,13.517,0.792,35.113,0.792,35.113
			s4.16-2.42,4.754-6.995c0,0,1.715,4.129,4.864,6.217c3.954,2.622,9.965,4.113,17.656,1.804l1.072-9.674l1.506,8.141
			c0,0,7.162,0.952,14.628-1.913c7.466-2.865,9.134-11.124,9.134-11.124l-12.941-38.923c0,0,0.729,6.476-14.696,7.076
			C131.951,242.821,128.12,235.145,128.12,235.145z"/>
		<g id="XMLID_589_">
			<g id="XMLID_590_">
				<path id="XMLID_591_" style="fill:#FFA8A7;" d="M184.119,171.128c-7.479,17.605-17.833,23.843-22.537,35.14
					c-6.167-0.419-14.741-10.574-10.151-16.937c5.242-2.214,22.206-20.668,23.187-28.45c0.87-6.91,4.593-17.671,4.421-23.423
					c-0.029-0.961-0.455-1.848-1.109-2.552c-1.892-2.037-1.895-3.673-3.11-5.922c-0.948-1.754-1.985-2.409-1.689-2.804
					c0.38-0.507,1.58-1.168,3.072-0.227c0.751,0.474,1.238,1.03,2.328,2.233c0,0-0.297-2.715-1.846-6.21
					c-2.1-4.736-1.589-7.152,4.804-5.465c4.006,1.057,6.521,4.394,7.121,14.021c0.173,2.774,0.398,8.517,0.069,12.024
					c-0.694,7.41-1.456,14.506-2.366,20.641C185.907,165.922,185.195,168.594,184.119,171.128z"/>
			</g>
		</g>
		<path id="XMLID_305_" style="fill:#27DEBF;" d="M129.227,231.845l-0.564-7.151l-5.519-11.561
			c-1.156-7.573-0.777-8.315-0.583-12.89c0.177-4.175,0.027-7.024,3.951-7.931c1.542-0.356,5.897-1.131,12.274-1.966l11.681-1.01
			c4.273-0.213,8.904,5.276,13.746,14.978c2.421,4.852,4.322,11.463-2.099,17.614c0.019,1.275,0.158,5.559,0.008,8.134
			C162.121,230.063,147.764,238.597,129.227,231.845z"/>
		<g id="XMLID_283_">
			<path style="fill:#263238;" d="M159.864,158.46l-0.034-0.363c-1.046-11.204-7.478-13.292-19.228-12.085
				c-8.683,0.892-16.556,4.951-19.175,12.65c-1.968,5.782-1.037,12.23,2.377,17.295c3.59,5.326,9.66,8.289,18.241,7.489
				c0.003,0,0.005,0,0.008,0C153.217,184.8,160.909,169.657,159.864,158.46z"/>
			<path style="fill:#263238;" d="M86.034,171.006c-2.013-1.523-3.636-3.545-4.726-5.82c-1.755-3.664-2.571-9.287,1.536-11.797
				c0.469-0.287,0.99-0.504,1.537-0.559c1.816-0.184,3.274,1.349,4.702,2.485c2.722,2.165,6.335,3.173,9.785,2.729
				c3.756-0.483,7.117-2.57,10.068-4.944c0.94-0.756,1.87-1.557,2.974-2.043c0.887-0.389,1.857-0.56,2.823-0.619
				c3.181-0.193,6.395,0.824,8.986,2.679c0.918,0.657,1.818,1.514,1.98,2.631c0.106,0.731-0.279,1.592-0.931,1.961
				c-0.756,0.428-1.749-0.015-2.554-0.094c-1.983-0.194-4.088,0.078-5.764,1.224c-1.642,1.123-2.668,2.917-3.773,4.572
				c-3.476,5.207-8.616,9.727-14.81,10.632C93.731,174.648,89.369,173.529,86.034,171.006z"/>
			<g id="XMLID_2649_">
				<path id="XMLID_2650_" style="fill:#FFA8A7;" d="M152.154,153.135c2.297,1.083,5.5,6.309,6.307,17.814
					c0.684,9.751-2.246,12.449-3.765,13.29c-1.519,0.841-4.612,0.705-7.628,0.487l0.545,5.839c0,0,9.044,8.204,2.302,9.709
					c-3.367,0.752-7.866-0.999-10.972-3.017c-3.176-2.064-4.349-5.779-4.349-5.779l-1.123-12.708c0,0-1.589,1.861-4.794-0.453
					c-2.646-1.91-3.807-5.44-2.081-7.553c1.725-2.113,5.298-1.915,6.907,0.718c0,0,1.755-0.021,3.195-3.417
					c0,0,3.962,0.357,8.184-2.653C150.765,161.217,151.798,155.136,152.154,153.135z"/>
			</g>
			<g id="XMLID_2647_">
				<path id="XMLID_2648_" style="fill:#263238;" d="M145.603,169.062c0.101,0.698-0.362,1.341-1.034,1.436
					c-0.672,0.095-1.299-0.394-1.399-1.092c-0.101-0.698,0.362-1.34,1.034-1.435C144.876,167.875,145.503,168.364,145.603,169.062z"
					/>
			</g>
			<g id="XMLID_2638_" style="opacity:0.5;">
				<path id="XMLID_2639_" style="fill:#F28F8F;" d="M147.883,177.064l3.932,0.862c-0.215,1.122-1.27,1.839-2.355,1.602
					C148.373,179.29,147.668,178.187,147.883,177.064z"/>
			</g>
			<g id="XMLID_2636_">
				<path id="XMLID_2637_" style="fill:#263238;" d="M156.31,164.223l-2.636-1.485c0.386-0.749,1.289-1.024,2.017-0.614
					C156.419,162.534,156.696,163.474,156.31,164.223z"/>
			</g>
			<g id="XMLID_2742_">
				<path id="XMLID_2743_" style="fill:#263238;" d="M143.496,164.924l-2.711,1.342c-0.402-0.741-0.121-1.641,0.628-2.012
					C142.161,163.884,143.094,164.184,143.496,164.924z"/>
			</g>
			<g id="XMLID_2634_">
				<path id="XMLID_2635_" style="fill:#263238;" d="M155.966,167.824c0.101,0.698-0.362,1.34-1.034,1.436
					c-0.672,0.095-1.298-0.394-1.399-1.091c-0.101-0.698,0.362-1.341,1.034-1.436C155.239,166.637,155.865,167.126,155.966,167.824z
					"/>
			</g>
			<g id="XMLID_2563_" style="opacity:0.5;">
				<polygon id="XMLID_2633_" style="fill:#F28F8F;" points="150.029,167.672 150.911,175.019 154.675,173.456 				"/>
			</g>
			<g id="XMLID_2521_" style="opacity:0.5;">
				<path id="XMLID_2562_" style="fill:#F28F8F;" d="M147.068,184.726c-3.167-0.118-9.777-1.367-11.018-3.818
					c0,0,0.484,1.568,2.56,3.037c2.077,1.468,8.64,2.729,8.64,2.729L147.068,184.726z"/>
			</g>
			<path id="XMLID_2520_" style="fill:#263238;" d="M123.874,153.549l1.437-5.256c1.493,0.356,2.382,1.821,1.985,3.273
				C126.899,153.017,125.368,153.905,123.874,153.549z"/>
			<path id="XMLID_2519_" style="fill:#263238;" d="M123.411,153.962l-3.003-4.547c1.252-0.888,2.94-0.589,3.769,0.666
				C125.006,151.338,124.663,153.075,123.411,153.962z"/>
			<path id="XMLID_2497_" style="fill:#263238;" d="M133.502,171.482l0.478,5.119l0,0c1.924-0.18,3.338-1.885,3.159-3.809
				l-0.441-4.727L133.502,171.482z"/>
		</g>
		<g id="XMLID_284_">
			<g id="XMLID_290_">
				<path id="XMLID_301_" style="fill:#FFA8A7;" d="M100.527,173.542c7.479,17.605,16.615,28.338,22.617,39.591
					c9.99,0.462,10.733-14.998,6.143-21.361c0,0-17.626-20.803-19.259-28.477c-1.45-6.812-4.593-17.671-4.421-23.423
					c0.029-0.961,0.455-1.848,1.109-2.552c1.892-2.037,1.895-3.672,3.11-5.922c0.948-1.754,1.985-2.409,1.689-2.804
					c-0.38-0.507-1.58-1.168-3.072-0.227c-0.751,0.474-1.239,1.03-2.328,2.233c0,0,0.297-2.715,1.846-6.21
					c2.1-4.736,1.589-7.152-4.804-5.465c-4.006,1.057-6.521,4.393-7.121,14.021c-0.173,2.774-0.398,8.517-0.069,12.024
					c0.694,7.41,1.456,14.506,2.366,20.641C98.739,168.336,99.45,171.008,100.527,173.542z"/>
			</g>
		</g>
		<path id="XMLID_2499_" style="fill:#37474F;" d="M151.251,286.835l-1.506-7.466l1.541-14.222c0,0,5.537-2.272,9.188-5.343
			c0,0-2.894,4.193-6.282,6.464l-3.452,12.233L151.251,286.835z"/>
		<path style="opacity:0.1;" d="M135.328,218.686c0,0,2.601,5.724,9.912,5.501c6.687-0.204,9.35-5.862,9.35-5.862
			s-0.278,7.678-9.35,7.7C136.18,226.045,135.328,218.686,135.328,218.686z"/>
	</g>
</g>
</svg>
