<?xml version="1.0" encoding="utf-8"?>
<!-- Generator: Adobe Illustrator 27.5.0, SVG Export Plug-In . SVG Version: 6.00 Build 0)  -->
<svg version="1.1" xmlns="http://www.w3.org/2000/svg" xmlns:xlink="http://www.w3.org/1999/xlink" x="0px" y="0px"
	 viewBox="0 0 500 500" style="enable-background:new 0 0 500 500;" xml:space="preserve">
<g id="Character">
	<g id="Character_00000099644215665118074130000011742922143797839236_">
		<g id="Character_00000062153969491468148630000009886639208121853318_">
			<g id="Head_00000107571905450533203320000002036893669809489815_">
				<path style="fill:#303030;" d="M167.009,154.759c-3.646,25.448,14.256,56.357,40.9,60.174
					c26.644,3.817,51.942-20.904,55.587-46.352c3.646-25.448-14.998-49.172-41.643-52.989
					C195.21,111.776,170.655,129.311,167.009,154.759z"/>
				<path style="fill:#FFC4B0;" d="M180.597,202.08c-0.574,5.551-0.501,10.467,5.697,17.958l-6.016,21.475l-17.306,3.171
					c2.167,7.348,5.231,36.382,43.553,40.733c38.322,4.351,38.025-26.281,38.025-26.281l-16.086-6.691l0.768-15.126
					c3.147,0.364,13.356-0.469,19.707-5.449c6.351-4.979,9.555-14.063,10.385-26.144c0.448-6.514,0.297-12.866,1.397-18.719
					c1.336-7.107,2.376-11.294,3.098-20.504c1.058-13.514-5.033-25.173-5.033-25.173c-6.459-12.503-28.817-21.857-43.66-16.915
					c-7.829,2.607-12.428,12.598-12.428,12.598c1,6.16,1.076,15.482-11.323,19.506c0.045,7.566,0.555,11.079-3.46,21.101
					c-3.835-7.206-9.227-10.24-14.943-10.978c-7.445-0.961-12.976,2.741-14.646,8.006c-1.979,6.242,1.704,11.437,6.608,14.237
					c4.904,2.8,11.748,3.664,16.904,1.181C181.839,190.065,181.171,196.529,180.597,202.08z"/>
				<g>
					<path style="fill:#303030;" d="M229.232,237.317c-10.549-0.006-25.51-3.841-33.073-9.432
						c3.998,8.704,17.342,15.768,32.643,17.922L229.232,237.317z"/>
					<g>
						<g>
							
								<path style="fill:none;stroke:#303030;stroke-width:2;stroke-linecap:round;stroke-linejoin:round;stroke-miterlimit:10;" d="
								M240.497,177.062c3.482,3.414,12.237,3.88,15.786,0.929"/>
						</g>
						<path style="fill:none;stroke:#303030;stroke-width:2;stroke-linecap:round;stroke-linejoin:round;stroke-miterlimit:10;" d="
							M241.401,161c1.993,5.778,12.055,2.192,17.569,8.867"/>
					</g>
					<g>
						<path style="fill:none;stroke:#303030;stroke-width:2;stroke-linecap:round;stroke-linejoin:round;stroke-miterlimit:10;" d="
							M205.259,162.633c9.986-3.851,16.833,4.096,21.571-1.144"/>
					</g>
					<path style="fill:none;stroke:#303030;stroke-width:2;stroke-linecap:round;stroke-linejoin:round;stroke-miterlimit:10;" d="
						M233.363,166.268c1.876,5.896,3.265,13.214,4.837,20.745c0.819,3.925-0.192,9.523-8.226,8.914"/>
					<g>
						<path style="fill:none;stroke:#303030;stroke-width:2;stroke-linecap:round;stroke-linejoin:round;stroke-miterlimit:10;" d="
							M166.279,175.387c1.437-0.824,4.823-1.249,8.09-0.049c3.268,1.2,5.809,4.075,6.499,7.351"/>
						<path style="fill:none;stroke:#303030;stroke-width:2;stroke-linecap:round;stroke-linejoin:round;stroke-miterlimit:10;" d="
							M171.668,179.537c1.058-0.6,4.719-2.039,7.968,0.114"/>
					</g>
					<g>
						<path style="fill:none;stroke:#303030;stroke-width:2;stroke-linecap:round;stroke-linejoin:round;stroke-miterlimit:10;" d="
							M206.874,173.646c3.362,3.532,11.934,3.982,15.745,2.689"/>
					</g>
					<path style="fill:none;stroke:#303030;stroke-width:2;stroke-linecap:round;stroke-linejoin:round;stroke-miterlimit:10;" d="
						M230.597,208.42c-3.25-3.155-9.689-6.019-15.102-6.15"/>
				</g>
				<g>
					<path style="fill:#303030;" d="M191.328,153.715c1.556-0.282,2.898-1.517,3.307-3.045c-8.846,2.588-18.379,2.788-27.326,0.572
						c-0.382-0.095-0.79-0.21-1.041-0.514c-0.303-0.366-0.288-0.891-0.251-1.365c0.82-10.628,4.807-21.49,11.856-27.167
						c8.301-6.686,15.627-8.379,24.024-7.154c3.677-4.61,12.839-13.711,37.209-7.658c15.886,3.946,28.965,16.212,36.402,30.793
						c2.407,4.719,4.287,9.786,4.733,15.064c0.447,5.278-0.638,10.801-3.712,15.115c-3.074,4.313-8.274,7.476-13.558,7.115
						l0.525-5.898c-8.404-5.634-11.043-9.374-13.24-13.831c-1.822-3.697-2.069-8.328-3.412-12.215
						c-1.96-5.672-6.923-11.277-13.461-8.572c-0.764,0.316-1.527,0.719-2.353,0.717c-0.572-0.002-1.122-0.199-1.659-0.393
						c-2.452-0.888-4.792-2.205-7.432-1.382c-2.168,0.676-3.91,2.411-4.592,4.578c-1.603,5.1-4.489,10.151-9.103,13.159
						C203.182,154.933,197.084,155.642,191.328,153.715z"/>
				</g>
			</g>
			<path style="fill:#00826F;" d="M361.754,342.552c-10.982,7.747-34.582,2.214-50.162-1.946
				c-14.99-4.002-36.173-9.163-36.173-9.163l-1.267-70.062c22.929,6.138,50.035,14.698,81.422,31.461L361.754,342.552z"/>
			<g id="Chest_00000017491366875808202710000009670645512838043013_">
				
					<path style="fill:#FFFFFF;stroke:#303030;stroke-width:2;stroke-linecap:round;stroke-linejoin:round;stroke-miterlimit:10;" d="
					M100.333,394.473l24.672-147.232l48.569-5.879c0,0,6.062,13.981,27.967,18.232c25.891,5.024,31.508-6.564,31.508-6.564
					c15.831,4.471,38.455,11.288,38.455,11.288s10.217,22.418,5.399,70.135c-3.31,32.779-3.983,60.021-3.983,60.021"/>
				<g id="Jacket">
					<path style="fill:#00826F;" d="M228.464,252.443c9.057,12.862,16.224,27.604,15.286,66.422
						c-0.779,32.256-3.525,75.607-3.525,75.607h40.112c0,0,1.673-68.222,1.03-88.348c-0.819-25.613-7.215-44.744-7.215-44.744
						l-30.355-8.668c0,0-8.133-12.045-14.709-12.572L228.464,252.443z"/>
					<path style="fill:none;stroke:#303030;stroke-width:2;stroke-linecap:round;stroke-linejoin:round;stroke-miterlimit:10;" d="
						M280.337,394.473c0,0,1.673-68.222,1.03-88.348"/>
					<path style="fill:#00826F;" d="M182.484,233.637l-2.206,7.875c0,0-2.044,33.405-7.298,70.417s-12.569,82.543-12.569,82.543
						h-60.078l24.912-148.666l41.293-5.221C166.538,240.586,175.475,231.886,182.484,233.637z"/>
					<path style="fill:none;stroke:#303030;stroke-width:2;stroke-linecap:round;stroke-linejoin:round;stroke-miterlimit:10;" d="
						M165.787,242.764c-7.367,11.811-14.754,45.284-14.754,45.284l13.214,31.456l-9.85,15.529l7.688,18.98"/>
					<path style="fill:none;stroke:#303030;stroke-width:2;stroke-linecap:round;stroke-linejoin:round;stroke-miterlimit:10;" d="
						M246.66,257.006c5.334,9.757,11.579,34.628,13.53,41.382l-10.538,23.016l7.676,16.623l-8.456,22.796"/>
				</g>
			</g>
			
				<line id="Table" style="fill:#FFFFFF;stroke:#303030;stroke-width:2;stroke-linecap:round;stroke-linejoin:round;stroke-miterlimit:10;" x1="15.2" y1="394.886" x2="484.788" y2="394.886"/>
			<g id="Arm_00000013156370919090996980000015201793126998645428_">
				<g>
					<path style="fill:#FFC4B0;" d="M125.987,249.605c-32.34-4.332-46.606,24.83-57.851,57.08
						c-19.624,56.28-23.307,81.175-21.165,93.617l56.043-5.465c0,0,17.22-50.533,22.778-69.299
						C131.35,306.772,144.032,275.645,125.987,249.605z"/>
					<g>
						<path style="fill:#00826F;" d="M125.245,245.807c-25.743,1.855-36.089,6.824-48.098,30.417
							c-16.343,32.107-29.599,86.742-29.599,86.742s-7.957,10.134,0.25,15.508c40.191-23.223,64.805-14.15,64.805-14.15l5.918,0.756
							c4.776-3.421,1.14-9.901,2.11-13.9c2.244-9.808,6.933-25.481,9.102-35.045C134.648,294.459,142.492,263.698,125.245,245.807z"
							/>
						<path style="fill:none;stroke:#303030;stroke-width:2;stroke-linecap:round;stroke-linejoin:round;stroke-miterlimit:10;" d="
							M120.463,356.478c-6.423-9.797-43.412-9.827-53.809-6.313"/>
						<path style="fill:none;stroke:#303030;stroke-width:2;stroke-linecap:round;stroke-linejoin:round;stroke-miterlimit:10;" d="
							M118.521,365.078c4.776-3.421,1.14-9.901,2.11-13.9c2.244-9.808,6.933-25.481,9.102-35.045"/>
					</g>
				</g>
				<g>
					<path style="fill:#D48983;" d="M245.914,376.575c-1.606-2.844-2.214-4.893-3.879-10.03c-0.296-0.913-1.875-4.478-2.68-4.999
						c-2.878-1.864-7.559-1.311-12.26-0.936l6.85,17.343c1.174,1.498,2.366,3.014,3.88,4.169c1.513,1.155,3.41,1.927,5.302,1.716
						c1.892-0.212,3.711-1.58,4.066-3.45C247.473,378.905,246.655,377.888,245.914,376.575z"/>
					<g>
						<g id="Pen">
							<path id="Glasses" style="fill:#F55571;" d="M317.797,335.425c-0.47-1.121-1.761-1.65-2.882-1.179l-1.863,0.781
								c-3.559-3.644-9.661-5.471-20.127-0.747c-5.052,2.281-8.658,5.009-10.716,8.108c-1.289,1.941-1.966,4.004-2.049,6.172
								c-0.002-0.001-0.004-0.002-0.005-0.003c-1.313-0.474-3.537-0.697-6.697,0.942c-2.329,1.209-4.393,2.451-5.539,4.392
								c-2.069-3.202-4.965-5.099-8.664-5.607c-3.684-0.505-8.116,0.395-13.168,2.675c-5.052,2.281-8.658,5.009-10.716,8.107
								c-1.577,2.374-2.25,4.93-2.022,7.638l-1.658,0.695c-1.122,0.47-1.65,1.761-1.179,2.882c0.47,1.122,1.761,1.65,2.882,1.179
								l1.053-0.441c0.09,0.221,0.16,0.44,0.26,0.663c2.077,4.601,5.821,8.118,10.544,9.903c3.156,1.193,6.496,1.516,9.738,0.98
								c1.609-0.266,3.195-0.745,4.721-1.433c4.601-2.077,8.118-5.822,9.902-10.544c1.503-3.977,1.609-8.243,0.369-12.241
								c-0.29-3.002,0.967-4.193,4.85-6.209c1.742-0.904,3.234-1.176,4.313-0.785c0.737,0.267,1.304,0.863,1.686,1.77
								c0.198,0.62,0.431,1.245,0.717,1.879c3.598,7.969,12.071,12.235,20.316,10.871c1.583-0.262,3.157-0.731,4.686-1.421
								c4.601-2.078,8.118-5.822,9.902-10.545c1.785-4.722,1.624-9.857-0.454-14.458c-0.111-0.245-0.23-0.49-0.353-0.734
								l0.976-0.409C317.739,337.837,318.267,336.547,317.797,335.425z M258.483,378.421c-3.877,1.751-8.205,1.886-12.183,0.383
								c-3.979-1.504-7.135-4.467-8.885-8.345c-1.645-3.644-1.504-6.832,0.432-9.746c1.744-2.626,4.928-4.995,9.462-7.042
								c2.625-1.185,5.032-1.959,7.199-2.318c1.576-0.261,3.026-0.302,4.341-0.122c3.466,0.475,5.951,2.478,7.596,6.122
								C270.058,365.357,266.486,374.808,258.483,378.421z M305.322,361.741c-8.004,3.614-17.454,0.041-21.068-7.962
								c-1.645-3.644-1.504-6.833,0.432-9.746c1.744-2.626,4.928-4.996,9.462-7.042c2.626-1.186,5.015-1.956,7.162-2.311
								c5.729-0.948,9.743,1.055,11.974,5.994C316.897,348.677,313.325,358.128,305.322,361.741z"/>
						</g>
						<g>
							<path style="fill:#F55571;" d="M232.039,371.602c-0.235-0.044-0.468-0.133-0.683-0.266l-30.909-19.255
								c-4.191-2.614-9.428-2.664-13.672-0.144l-4.967,2.951c-0.939,0.559-2.156,0.25-2.717-0.693
								c-0.559-0.941-0.249-2.157,0.692-2.717l4.967-2.951c5.523-3.282,12.341-3.209,17.793,0.186l30.909,19.255
								c0.93,0.579,1.214,1.802,0.635,2.732C233.643,371.414,232.818,371.748,232.039,371.602z"/>
						</g>
						<g>
							<path style="fill:#F55571;" d="M315.418,337.993c-0.235-0.044-0.468-0.133-0.683-0.266l-30.909-19.255
								c-4.191-2.615-9.428-2.664-13.672-0.144l-4.967,2.951c-0.938,0.559-2.156,0.25-2.717-0.692
								c-0.559-0.941-0.249-2.157,0.693-2.717l4.967-2.951c5.522-3.282,12.341-3.209,17.793,0.186l30.909,19.255
								c0.93,0.579,1.214,1.802,0.635,2.732C317.022,337.806,316.198,338.139,315.418,337.993z"/>
						</g>
					</g>
					<path style="fill:#FFC4B0;" d="M83.61,415.787c17.154,0.376,79.058-7.281,93.624-6.912c15.804,0.4,24.786,0.698,32.507,1.527
						c12.672,1.361,14.181-3.163,15.286-6.22c2.521,1.066,5.48,0.857,7.368-2.82c1.615-3.145,1.615-5.95-0.765-8.584
						c0,0,3.555-0.784,4.844-5.524c2.056-7.56-2.92-8.781-2.92-8.781s2.501-1.802,3.261-5.796c0.811-4.266,0.626-7.311-4.456-9.742
						c-5.082-2.431-16.601-8.41-22.36-7.612c-5.76,0.798-14.229,6.994-19.311,9.409c-5.082,2.415-13.213,6.055-20.327,5.801
						c-7.115-0.253-70.031-7.639-70.031-7.639c-28.5-0.142-54.065,20.08-53.583,35.442C47.151,411.217,66.456,415.411,83.61,415.787
						z"/>
					<g>
						<path style="fill:none;stroke:#303030;stroke-width:2;stroke-linecap:round;stroke-linejoin:round;stroke-miterlimit:10;" d="
							M213.316,370.306c9.135,2.285,12.133,3.208,20.238,8.167"/>
						<path style="fill:none;stroke:#303030;stroke-width:2;stroke-linecap:round;stroke-linejoin:round;stroke-miterlimit:10;" d="
							M213.695,383.414c8.525,3.165,11.408,4.733,18.213,9.466"/>
						<path style="fill:none;stroke:#303030;stroke-width:2;stroke-linecap:round;stroke-linejoin:round;stroke-miterlimit:10;" d="
							M210.178,396.973c6.169,2.723,10.686,3.605,14.848,7.21"/>
					</g>
				</g>
			</g>
			<g id="Arm_00000069359177855968860400000011633217622501870752_">
				<path style="fill:#FFC4B0;" d="M292.411,201.249c-2.694-5.398-3.511-18.05-4.453-22.917c-0.942-4.867-2.76-12.702-3.957-15.267
					s-4.878-8.959-7.058-12.44c-2.18-3.482-4.856-3.533-6.105-0.547c-1.249,2.986,0.118,7.85,1.596,11.087
					c1.478,3.238,1.943,7.909,0.488,11.668c-6.414-2.988-16.993-14.07-20.878-16.004c-3.885-1.934-10.813-6.004-16.185-7.149
					c-5.373-1.145-7.565-1.987-9.747-1.704c-2.182,0.284-3.2,3.974,0.098,6.905c3.298,2.931,11.318,6.509,13.369,7.897
					s8.868,8.101,8.868,8.101c0.908,1.077-0.484,1.552-3.747,0.211s-10.509-4.679-13.743-5.906
					c-3.233-1.227-11.676-2.105-13.788-2.286c-2.112-0.182-3.562,2.638-2.102,5.19c1.133,1.98,4.049,3.518,7.512,4.613
					c4.078,1.289,7.867,2.699,9.443,3.626c1.577,0.928,8.409,5.867,8.409,5.867s-8.863-3.143-12.005-4.341
					c-3.142-1.198-8.154-4.146-9.639-3.836c-1.484,0.31-2.502,3.331-0.884,5.669c1.618,2.338,4.189,4.205,4.189,4.205
					s-0.51,3.784,1.929,6.579c2.439,2.796,7.691,7.247,9.866,9.888c2.175,2.641,5.663,6.875,9.506,10.801
					c6.284,6.419,8.202,8.906,17.715,14.923c7.033,4.448,9.117,9.539,26.671,50.951c9.946,23.463,18.831,44.806,33.006,55.632
					c15.812,12.076,33.846,14.636,40.97,9.887c13.092-8.728,5.934-41.291,0.3-54.643c-8.775-20.797-23.538-31.6-34.111-43.193
					C315.199,230.742,296.21,208.861,292.411,201.249z"/>
				<path style="fill:none;stroke:#303030;stroke-width:2;stroke-linecap:round;stroke-linejoin:round;stroke-miterlimit:10;" d="
					M272.921,172.833c-6.414-2.988-16.993-14.07-20.878-16.004c-3.885-1.934-10.813-6.004-16.185-7.149
					c-5.373-1.145-7.565-1.987-9.747-1.704c-2.182,0.284-3.2,3.974,0.098,6.905c3.298,2.931,11.318,6.509,13.369,7.897
					s8.868,8.101,8.868,8.101c0.908,1.077-0.484,1.552-3.747,0.211s-10.509-4.679-13.743-5.906
					c-3.233-1.227-11.676-2.105-13.788-2.286c-2.112-0.182-3.562,2.638-2.102,5.19c1.133,1.98,4.049,3.518,7.512,4.613
					c4.078,1.289,7.867,2.699,9.443,3.626c1.577,0.928,8.409,5.867,8.409,5.867s-8.863-3.143-12.005-4.341
					c-3.142-1.198-8.154-4.146-9.639-3.836c-1.484,0.31-2.502,3.331-0.884,5.669c1.618,2.338,4.189,4.205,4.189,4.205
					s-0.51,3.784,1.929,6.579c2.439,2.796,7.691,7.247,9.866,9.888c2.175,2.641,5.663,6.875,9.506,10.801
					c6.284,6.419,8.202,8.906,17.715,14.923c7.033,4.448,9.117,9.539,26.671,50.951"/>
				
					<path style="fill:#FFC4B0;stroke:#303030;stroke-width:2;stroke-linecap:round;stroke-linejoin:round;stroke-miterlimit:10;" d="
					M222.091,183.891c0,0,7.152,4.973,16.051,7.671"/>
				
					<line style="fill:#FFC4B0;stroke:#303030;stroke-width:2;stroke-linecap:round;stroke-linejoin:round;stroke-miterlimit:10;" x1="272.921" y1="172.833" x2="277.917" y2="175.338"/>
			</g>
		</g>
	</g>
</g>
<g id="Device">
	<g id="Laptop">
		<g id="Device_00000041977327252372864230000011507634921549395610_">
			<path style="fill:#303030;" d="M228.756,415.532h99.093v9.079H219.677l0,0C219.677,419.597,223.742,415.532,228.756,415.532z"/>
			<path style="fill:#F55571;" d="M309.905,424.611l132.674,0c2.432,0,5.121-2.884,6.005-6.443l24.433-98.287
				c0.885-3.558-0.37-6.442-2.802-6.442l-132.674,0c-2.432,0-5.121,2.884-6.005,6.443l-24.433,98.287
				C306.219,421.727,307.473,424.611,309.905,424.611z"/>
		</g>
		<path style="fill:#FFFFFF;stroke:#303030;stroke-width:2;stroke-linecap:round;stroke-linejoin:round;stroke-miterlimit:10;" d="
			M400.697,371.739c-1.026,4.847-6.62,8.776-12.494,8.776c-5.875,0-9.806-3.929-8.78-8.776c1.026-4.847,6.62-8.777,12.494-8.777
			C397.792,362.962,401.723,366.892,400.697,371.739z"/>
		<g>
			<polygon style="fill:#00826F;" points="464.251,306.35 460.726,320.529 467.13,320.529 470.655,306.35 			"/>
			<polygon style="fill:#FF95FB;" points="453.091,306.35 449.566,320.529 455.97,320.529 459.495,306.35 			"/>
			<polygon style="fill:#303030;" points="441.931,306.35 438.406,320.529 444.81,320.529 448.335,306.35 			"/>
		</g>
		<g id="Note">
			<path style="fill:#00826F;stroke:#303030;stroke-width:2;stroke-linecap:round;stroke-linejoin:round;stroke-miterlimit:10;" d="
				M385.529,377.991h-51.081c-1.572,7.97-2.793,18.064-3.204,26.149c2.154,8.81,10.061,11.392,10.061,11.392h43.086
				C384.391,415.532,381.503,397.576,385.529,377.991z"/>
			
				<polygon style="fill:#00826F;stroke:#303030;stroke-width:2;stroke-linecap:round;stroke-linejoin:round;stroke-miterlimit:10;" points="
				335.738,371.739 335.216,374.272 334.448,377.991 385.529,377.991 386.82,371.739 			"/>
			<path style="fill:#303030;" d="M331.244,404.141c4.514,4.514,12.482,4.023,12.482,4.023l-2.421,7.369
				C341.305,415.532,333.77,413.727,331.244,404.141z"/>
			<g>
				<path style="fill:none;stroke:#303030;stroke-width:2;stroke-linecap:round;stroke-linejoin:round;stroke-miterlimit:10;" d="
					M335.772,404.141c3.289,1.476,7.558-2.264,7.095-6.284c-0.304-2.633-3.29-2.587-4.314-0.637
					c-0.683,1.301-0.577,3.394-0.227,4.824c0.908,3.717,6.53,4.796,7.774,0.766c0.869-2.814-1.144-7.496,1.741-8.143
					c1.789-0.401,3.792,2.387,5.467,4.349c1.499,1.755,3.676,3.228,5.529,3.048"/>
				
					<line style="fill:none;stroke:#303030;stroke-width:2;stroke-linecap:round;stroke-linejoin:round;stroke-miterlimit:10;" x1="352.098" y1="391.091" x2="351.349" y2="404.865"/>
				<path style="fill:none;stroke:#303030;stroke-width:2;stroke-linecap:round;stroke-linejoin:round;stroke-miterlimit:10;" d="
					M360.183,391.69c-3.114-3.753-5.516,1.809-4.256,5.03c0.833,2.127,2.675,2.345,3.657,0.292c0.844-1.766,0.599-4.313,0.599-5.945
					c0,1.714-0.193,3.35,1.134,4.68c2.263,2.268,2.107-3.012,2.31-4.513c0.187-1.385,0.707-5.494,2.59-3.308
					c1.312,1.523,1.147,4.269,2.171,5.974c0.094-1.394-0.15-7.623,2.277-6.851c1.518,0.483,1.679,3.911,2.671,4.995
					c0.24-2.218-0.35-4.113,0.467-6.289c0.715-1.904,1.765-3.665,2.972-1.042c1.522,3.308,1.045,7.738,3.32,10.721"/>
			</g>
		</g>
	</g>
</g>
<g id="Bolts_00000044177753436075673380000002502688834581197474_">
	<g id="Bolts">
		<polygon style="fill:#FF95FB;" points="127.247,135.256 120.116,147.794 98.856,130.499 121.885,161.368 121.911,161.403 
			121.911,161.403 129.043,148.864 150.303,166.16 		"/>
		<polygon style="fill:#FF95FB;" points="127.235,175.915 127.235,185.613 110.937,182.572 132.208,192.957 132.232,192.969 
			132.232,192.969 132.232,183.271 148.531,186.312 		"/>
		<polygon style="fill:#FF95FB;" points="317.411,127.864 326.227,139.282 344.858,119.182 326.373,152.97 326.353,153.008 
			326.353,153.008 317.537,141.59 298.906,161.69 		"/>
		<polygon style="fill:#FF95FB;" points="327.151,165.347 325.519,174.906 342.096,174.651 319.38,181.308 319.354,181.316 
			319.354,181.316 320.986,171.756 304.409,172.011 		"/>
	</g>
</g>
<g id="Lines_00000057828548280070826310000013733218482007232657_">
	
		<path id="Lines" style="fill:none;stroke:#303030;stroke-width:2;stroke-linecap:round;stroke-linejoin:round;stroke-miterlimit:10;" d="
		M216.256,66.828c-5.633-0.944-14.558-0.747-21.27,0c-7.479,0.832-18.342,2.763-22.346,6.593s3.869,6.772,9.881,7.586
		c9.144,1.239,20.206,0.814,29.061-1.1c7.85-1.697,14.661-6.623,2.726-7.959c-9.272-1.038-20.651,0.407-28.855,2.887
		c-7.746,2.341-15.505,8.345-6.306,12.253c8.189,3.479,23.088,3.467,31.696,0.53c5.704-1.947,3.932-3.831-2.279-4.288
		c-4.817-0.354-11.552,0.164-15.209,2.035c-5.773,2.953-2.901,6.965,3.241,8.405c6.359,1.49,14.573,0.255,15.475-2.261
		c0.684-1.908-8.038-1.254-11.456,1.978c-3.333,3.152-1.539,6.359,4.446,6.288c1.864-0.022,7.267-0.494,8.23-2.401
		c0.852-1.687-3.1-1.555-4.896,0.423c-3.027,3.336,4.247,5.761,9.063,4.31"/>
</g>
</svg>
