<?xml version="1.0" encoding="utf-8"?>
<!-- Generator: Adobe Illustrator 27.5.0, SVG Export Plug-In . SVG Version: 6.00 Build 0)  -->
<svg version="1.1" xmlns="http://www.w3.org/2000/svg" xmlns:xlink="http://www.w3.org/1999/xlink" x="0px" y="0px"
	 viewBox="0 0 500 500" style="enable-background:new 0 0 500 500;" xml:space="preserve">
<g id="Floor">
	<path id="Floor_15_" style="fill:#F5F5F5;" d="M92.257,435.506c88.837,47.449,232.871,47.451,321.707,0.001
		c88.837-47.451,88.837-124.382,0-171.831c-88.837-47.45-232.871-47.45-321.708-0.001C3.42,311.124,3.42,388.056,92.257,435.506z"/>
</g>
<g id="Device">
	<g id="Device_1_">
		<path id="XMLID_2690_" style="fill:#37474F;" d="M86.935,350.09l-2.561-1.479c-2.08-1.201-3.766-4.121-3.766-6.523V117.68
			c0-2.402,1.686-5.322,3.766-6.523l103.498-59.755c2.08-1.201,5.452-1.201,7.532,0l2.563,1.479c2.08,1.201,3.766,4.121,3.766,6.523
			v224.408c0,2.402-1.686,5.322-3.766,6.523l-103.5,59.755C92.387,351.291,89.015,351.29,86.935,350.09z"/>
		<path id="XMLID_2689_" style="fill:#263238;" d="M95.748,122.072l-14.037-8.104c-0.681,1.18-1.103,2.511-1.103,3.712v224.408
			c0,2.402,1.686,5.322,3.766,6.523l2.561,1.479c2.08,1.201,5.452,1.201,7.532,0l1.281-0.74V122.072z"/>
		<path id="XMLID_2688_" style="fill:#455A64;" d="M90.701,123.507v224.408c0,2.402,1.686,3.375,3.766,2.174l103.5-59.755
			c2.08-1.201,3.766-4.121,3.766-6.523V59.404c0-2.402-1.686-3.375-3.766-2.174l-103.5,59.755
			C92.387,118.185,90.701,121.106,90.701,123.507z"/>
		<path id="XMLID_2687_" style="fill:#FAFAFA;" d="M98.976,137.692l94.112-54.331c1.783-1.029,3.228-0.195,3.228,1.864v179.029
			c0,2.059-1.445,4.562-3.228,5.591l-94.111,54.331c-1.783,1.029-3.228,0.195-3.228-1.864l-0.001-179.029
			C95.748,141.225,97.193,138.722,98.976,137.692z"/>
		<path id="XMLID_2655_" style="fill:#263238;" d="M146.217,92.934c1.394-0.805,2.523-0.152,2.523,1.457
			c0,1.609-1.13,3.566-2.523,4.371c-1.394,0.805-2.523,0.152-2.523-1.457C143.693,95.696,144.823,93.739,146.217,92.934z"/>
		<g id="XMLID_2610_">
			<path id="XMLID_2653_" style="fill:#263238;" d="M138.93,105.54c5.127-2.835,14.274-8.278,19.329-11.251
				c0.858-0.505,1.553-0.157,1.553,0.777s-0.699,2.095-1.561,2.592l-19.362,11.183c-0.862,0.498-1.561,0.144-1.561-0.79
				C137.328,107.116,138.059,106.021,138.93,105.54z"/>
			<path id="XMLID_2611_" style="fill:#263238;" d="M134.038,108.366c0.783-0.452,1.417-0.086,1.417,0.818
				c0,0.904-0.634,2.002-1.417,2.454c-0.783,0.452-1.417,0.086-1.417-0.818C132.621,109.917,133.255,108.818,134.038,108.366z"/>
		</g>
		<path id="XMLID_2609_" style="fill:#263238;" d="M146.217,302.729c2.787-1.609,5.047-0.305,5.047,2.914
			c0,3.219-2.259,7.132-5.047,8.741c-2.787,1.609-5.047,0.305-5.047-2.914C141.17,308.252,143.429,304.338,146.217,302.729z"/>
	</g>
</g>
<g id="Bank_Card">
	<g id="XMLID_2606_">
		<path id="XMLID_2928_" style="fill:#455A64;" d="M251.503,338.794c-1.145-0.661-2.073-2.34-2.073-3.749l-0.001-119.388
			c0-1.409,0.99-3.123,2.21-3.828l153.153-88.423c1.221-0.705,3.139-0.74,4.284-0.079c1.145,0.661,2.074,2.34,2.074,3.749v119.388
			c0,1.41-0.99,3.123-2.21,3.828l-153.154,88.423C254.565,339.42,252.648,339.455,251.503,338.794z"/>
		<g id="XMLID_2924_">
			<path id="XMLID_2940_" style="fill:#37474F;" d="M411.126,126.713c-0.16-1.14-1.08-1.56-2.19-0.91l-153.15,88.42
				c-0.61,0.35-1.16,0.95-1.56,1.65l-4.15-2.39c0.39-0.69,0.95-1.3,1.56-1.65l153.16-88.43c1.22-0.7,3.13-0.74,4.28-0.08
				C410.126,123.933,410.996,125.393,411.126,126.713z"/>
			<path id="XMLID_2946_" style="fill:#263238;" d="M255.266,338.943c-0.05,0.03-0.1,0.05-0.16,0.06c-0.1,0.05-0.2,0.08-0.31,0.1
				c-0.06,0.02-0.11,0.03-0.17,0.04c-0.1,0.03-0.21,0.05-0.32,0.06c-0.09,0.01-0.17,0.02-0.26,0.03c-0.39,0.05-0.78,0.04-1.15-0.01
				c-0.52-0.06-1-0.21-1.39-0.43c-1.15-0.66-2.08-2.34-2.08-3.75v-119.39c0-0.7,0.25-1.48,0.65-2.17l4.15,2.39
				c-0.4,0.69-0.65,1.48-0.65,2.18v119.39c0,0.75,0.28,1.26,0.73,1.47c0.105,0.05,0.225,0.082,0.353,0.096
				c0.127,0.013,0.263,0.009,0.407-0.016C255.136,338.983,255.196,338.963,255.266,338.943z"/>
		</g>
		<g id="XMLID_2902_">
			<defs>
				<path id="XMLID_2903_" d="M266.016,249.174v18.836c0,1.41,0.99,1.981,2.21,1.276l24.607-14.207
					c1.221-0.705,2.21-2.419,2.21-3.828l-0.001-18.836c0-1.41-0.99-1.981-2.21-1.276c-5.398,3.117-19.208,11.09-24.607,14.206
					C267.005,246.051,266.016,247.765,266.016,249.174z"/>
			</defs>
			<use xlink:href="#XMLID_2903_"  style="overflow:visible;fill:#27DEBF;"/>
			<clipPath id="XMLID_00000143589711830308149580000016400022791902644413_">
				<use xlink:href="#XMLID_2903_"  style="overflow:visible;"/>
			</clipPath>
			<g id="XMLID_2923_" style="clip-path:url(#XMLID_00000143589711830308149580000016400022791902644413_);">
				
					<rect id="XMLID_18001_" x="258.982" y="244.873" transform="matrix(0.8658 -0.5003 0.5003 0.8658 -85.129 173.2709)" style="fill:#FFFFFF;" width="43.094" height="0.999"/>
			</g>
			<g id="XMLID_2907_" style="clip-path:url(#XMLID_00000143589711830308149580000016400022791902644413_);">
				<rect id="XMLID_18000_" x="273.809" y="248.965" style="fill:#FFFFFF;" width="1" height="9.596"/>
			</g>
			<g id="XMLID_2906_" style="clip-path:url(#XMLID_00000143589711830308149580000016400022791902644413_);">
				<rect id="XMLID_17999_" x="286.25" y="241.822" style="fill:#FFFFFF;" width="1" height="9.581"/>
			</g>
			<g id="XMLID_2905_" style="clip-path:url(#XMLID_00000143589711830308149580000016400022791902644413_);">
				
					<rect id="XMLID_17998_" x="258.982" y="254.49" transform="matrix(0.8658 -0.5003 0.5003 0.8658 -89.9401 174.561)" style="fill:#FFFFFF;" width="43.094" height="0.999"/>
			</g>
		</g>
		<g id="XMLID_502_">
			<path id="XMLID_533_" style="fill:#FFFFFF;" d="M267.017,233.929c-0.107-0.063-0.16-0.221-0.16-0.479v-10.416
				c0-0.257,0.053-0.48,0.16-0.672c0.105-0.189,0.281-0.355,0.525-0.496l4.455-2.572c1.115-0.645,1.953-0.832,2.51-0.563
				c0.559,0.27,0.838,0.925,0.838,1.967c0,0.551-0.115,1.109-0.344,1.674c-0.229,0.564-0.539,1.055-0.936,1.471
				c1.045-0.205,1.568,0.377,1.568,1.747c0,0.667-0.135,1.349-0.404,2.042c-0.27,0.693-0.674,1.353-1.217,1.976
				c-0.543,0.624-1.215,1.167-2.016,1.63l-4.455,2.572C267.298,233.95,267.123,233.989,267.017,233.929z M271.572,224.369
				c0.406-0.233,0.721-0.532,0.943-0.896c0.223-0.362,0.334-0.767,0.334-1.212c0-0.479-0.103-0.763-0.31-0.848
				c-0.209-0.085-0.531-0.001-0.967,0.25l-2.205,1.273v2.705L271.572,224.369z M271.816,229.218
				c0.445-0.258,0.777-0.588,0.996-0.988c0.217-0.4,0.326-0.824,0.326-1.27c0-0.503-0.127-0.808-0.381-0.913
				c-0.252-0.106-0.607-0.026-1.063,0.236l-2.328,1.344v3.004L271.816,229.218z"/>
			<path id="XMLID_2740_" style="fill:#FFFFFF;" d="M275.603,228.857c0-0.081,0.016-0.185,0.045-0.307l3.94-13.111
				c0.07-0.24,0.15-0.423,0.236-0.549c0.086-0.126,0.211-0.236,0.373-0.33l1.109-0.641c0.162-0.094,0.283-0.125,0.365-0.097
				c0.082,0.03,0.156,0.124,0.229,0.282l3.939,8.561c0.029,0.088,0.045,0.174,0.045,0.256c0,0.199-0.09,0.351-0.273,0.456
				l-1.84,1.063c-0.143,0.083-0.246,0.116-0.313,0.101c-0.064-0.014-0.123-0.077-0.174-0.189l-0.699-1.669l-3.697,2.135
				l-0.684,2.467c-0.051,0.17-0.109,0.301-0.176,0.392c-0.066,0.091-0.17,0.177-0.313,0.259l-1.84,1.063
				C275.693,229.103,275.603,229.056,275.603,228.857z M282.005,220.997l-1.262-3.064l-1.277,4.531L282.005,220.997z"/>
			<path id="XMLID_2957_" style="fill:#FFFFFF;" d="M287.308,222.214c-0.107-0.063-0.16-0.221-0.16-0.479v-10.434
				c0-0.257,0.053-0.479,0.16-0.662c0.105-0.186,0.285-0.351,0.539-0.497l0.943-0.544c0.172-0.1,0.301-0.148,0.387-0.145
				c0.088,0.002,0.182,0.051,0.283,0.145l4.258,4.479v-6.552c0-0.257,0.055-0.481,0.16-0.671c0.107-0.191,0.281-0.355,0.525-0.496
				l1.141-0.659c0.254-0.146,0.43-0.187,0.531-0.122c0.101,0.064,0.152,0.23,0.152,0.5v10.416c0,0.258-0.051,0.477-0.152,0.658
				c-0.102,0.182-0.277,0.345-0.531,0.491l-0.959,0.554c-0.162,0.094-0.287,0.139-0.373,0.136c-0.086-0.003-0.18-0.052-0.281-0.146
				l-4.273-4.452v6.552c0,0.258-0.051,0.477-0.152,0.658c-0.102,0.182-0.279,0.346-0.533,0.492l-1.141,0.658
				C287.589,222.235,287.414,222.274,287.308,222.214z"/>
			<path id="XMLID_2960_" style="fill:#FFFFFF;" d="M306.343,211.108c0,0.199-0.092,0.352-0.273,0.457l-1.902,1.098
				c-0.121,0.07-0.215,0.11-0.281,0.119c-0.066,0.009-0.129-0.01-0.189-0.057l-3.361-3.152l-0.047-0.045v4.619
				c0,0.258-0.051,0.477-0.152,0.658c-0.102,0.182-0.277,0.346-0.531,0.492l-1.141,0.658c-0.244,0.141-0.418,0.181-0.525,0.119
				c-0.107-0.061-0.16-0.221-0.16-0.479v-10.416c0-0.256,0.053-0.48,0.16-0.671c0.107-0.19,0.281-0.356,0.525-0.497l1.141-0.658
				c0.254-0.147,0.43-0.188,0.531-0.123c0.102,0.064,0.152,0.232,0.152,0.5v4.533l0.047-0.098l3.254-6.885
				c0.061-0.129,0.125-0.227,0.189-0.294c0.066-0.067,0.17-0.142,0.313-0.224l1.871-1.08c0.184-0.105,0.273-0.059,0.273,0.141
				c0,0.094-0.029,0.205-0.09,0.334l-3.605,7.438l3.711,3.283C306.312,210.929,306.343,211.003,306.343,211.108z"/>
			<path id="XMLID_2985_" style="fill:#FFFFFF;" d="M314.246,205.502c-0.969-0.513-1.453-1.776-1.453-3.79
				c0-2.025,0.475-3.844,1.422-5.457c0.947-1.613,2.305-2.93,4.068-3.947c0.74-0.428,1.412-0.73,2.016-0.909
				c0.604-0.179,1.113-0.229,1.529-0.153c0.1,0.023,0.152,0.087,0.152,0.192c0,0.094-0.031,0.211-0.092,0.352l-0.533,1.379
				c-0.07,0.17-0.141,0.275-0.213,0.316c-0.061,0.035-0.146,0.05-0.258,0.044c-0.648-0.047-1.414,0.185-2.297,0.693
				c-1.045,0.604-1.855,1.42-2.434,2.451c-0.578,1.029-0.867,2.23-0.867,3.6c0,1.382,0.303,2.244,0.904,2.586
				c0.604,0.344,1.428,0.213,2.473-0.391c0.953-0.55,1.754-1.223,2.402-2.02c0.111-0.135,0.199-0.22,0.26-0.255
				c0.07-0.041,0.141-0.018,0.213,0.07l0.592,0.835c0.041,0.059,0.063,0.117,0.063,0.176c0,0.07-0.063,0.193-0.184,0.368
				c-0.791,1.112-2.014,2.146-3.666,3.101C316.58,205.761,315.212,206.015,314.246,205.502z"/>
			<path id="XMLID_2995_" style="fill:#FFFFFF;" d="M322.74,201.642c0-0.08,0.016-0.184,0.045-0.307l3.941-13.111
				c0.068-0.239,0.148-0.422,0.234-0.549c0.086-0.125,0.211-0.235,0.373-0.329l1.109-0.642c0.164-0.094,0.283-0.125,0.365-0.096
				s0.158,0.123,0.228,0.281l3.94,8.562c0.031,0.088,0.045,0.174,0.045,0.255c0,0.199-0.09,0.352-0.273,0.457l-1.84,1.063
				c-0.143,0.082-0.246,0.115-0.313,0.101c-0.064-0.015-0.123-0.077-0.174-0.189l-0.699-1.669l-3.697,2.134l-0.684,2.468
				c-0.051,0.17-0.109,0.3-0.176,0.392c-0.066,0.09-0.17,0.177-0.313,0.259l-1.84,1.063
				C322.83,201.889,322.74,201.841,322.74,201.642z M329.144,193.783l-1.264-3.065l-1.277,4.531L329.144,193.783z"/>
			<path id="XMLID_3002_" style="fill:#FFFFFF;" d="M334.445,194.999c-0.107-0.062-0.16-0.221-0.16-0.479v-10.416
				c0-0.256,0.053-0.48,0.16-0.671c0.105-0.19,0.281-0.356,0.525-0.497l3.848-2.221c2.574-1.487,3.863-0.931,3.863,1.668
				c0,0.832-0.152,1.625-0.457,2.381c-0.303,0.755-0.756,1.457-1.353,2.107l1.598,3.117c0.029,0.064,0.045,0.139,0.045,0.219
				c0,0.211-0.107,0.379-0.32,0.502l-1.688,0.975c-0.143,0.082-0.248,0.123-0.32,0.123c-0.07,0-0.131-0.057-0.182-0.168
				l-1.398-3.055l-1.811,1.045v3.441c0,0.258-0.051,0.477-0.152,0.658c-0.102,0.182-0.279,0.346-0.533,0.492l-1.139,0.658
				C334.726,195.02,334.55,195.061,334.445,194.999z M338.453,186.581c0.578-0.334,1.012-0.725,1.301-1.172
				c0.289-0.447,0.432-0.977,0.432-1.584c0-0.609-0.131-0.979-0.395-1.107c-0.264-0.129-0.66-0.041-1.185,0.264l-1.811,1.045v3.512
				L338.453,186.581z"/>
			<path id="XMLID_3005_" style="fill:#FFFFFF;" d="M344.087,189.432c-0.107-0.062-0.16-0.22-0.16-0.478v-10.417
				c0-0.257,0.053-0.481,0.16-0.671c0.105-0.19,0.281-0.356,0.525-0.496l3.193-1.844c1.734-1.001,3.053-1.282,3.955-0.843
				c0.902,0.439,1.353,1.689,1.353,3.75c0,2.037-0.455,3.805-1.369,5.304c-0.912,1.5-2.225,2.743-3.939,3.733l-3.193,1.844
				C344.369,189.454,344.193,189.493,344.087,189.432z M347.927,185.274c0.902-0.521,1.578-1.201,2.024-2.037
				c0.447-0.838,0.67-1.959,0.67-3.365c0-1.405-0.223-2.266-0.67-2.581c-0.445-0.317-1.121-0.214-2.024,0.307l-1.49,0.86v7.675
				L347.927,185.274z"/>
		</g>
		<g id="XMLID_2841_">
			<path id="XMLID_2883_" style="fill:#EBEBEB;" d="M266.016,285.088v4.472c0,1.409,0.99,1.981,2.21,1.276l24.607-14.207
				c1.221-0.705,2.21-2.419,2.21-3.828v-4.472c0-1.41-0.99-1.981-2.21-1.276l-24.607,14.207
				C267.006,281.965,266.016,283.679,266.016,285.088z"/>
			<path id="XMLID_2881_" style="fill:#EBEBEB;" d="M300.572,265.135l0,4.472c0,1.41,0.99,1.981,2.21,1.276l24.606-14.207
				c1.221-0.705,2.21-2.419,2.21-3.828l0-4.472c0-1.41-0.989-1.981-2.21-1.276l-24.606,14.207
				C301.561,262.012,300.572,263.726,300.572,265.135z"/>
			<path id="XMLID_2880_" style="fill:#EBEBEB;" d="M335.127,245.182v4.472c0,1.41,0.99,1.981,2.21,1.276l24.607-14.207
				c1.221-0.705,2.21-2.419,2.21-3.828v-4.472c0-1.41-0.99-1.981-2.21-1.276l-24.607,14.207
				C336.116,242.059,335.127,243.773,335.127,245.182z"/>
			<path id="XMLID_2876_" style="fill:#EBEBEB;" d="M369.682,225.23l0,4.472c0,1.41,0.99,1.981,2.21,1.276l24.607-14.207
				c1.221-0.705,2.21-2.419,2.21-3.828v-4.472c0-1.41-0.99-1.981-2.21-1.276l-24.607,14.207
				C370.672,222.106,369.682,223.82,369.682,225.23z"/>
		</g>
		<path id="XMLID_2840_" style="fill:#27DEBF;" d="M384.944,230.629l-5.641,3.257c-0.732,0.423-1.326,1.451-1.326,2.297v1.726
			c0,0.846,0.594,1.188,1.326,0.766l5.641-3.257c0.732-0.423,1.326-1.451,1.326-2.297v-1.726
			C386.27,230.549,385.676,230.206,384.944,230.629z"/>
		<path id="XMLID_2839_" style="fill:#27DEBF;" d="M397.383,223.446l-5.641,3.257c-0.732,0.423-1.326,1.451-1.326,2.297v1.726
			c0,0.846,0.594,1.189,1.326,0.766l5.641-3.257c0.732-0.423,1.326-1.451,1.326-2.297v-1.726
			C398.71,223.366,398.116,223.023,397.383,223.446z"/>
		<path id="XMLID_2838_" style="fill:#27DEBF;" d="M326.167,276.53l70.22-40.541c1.221-0.705,2.21-0.133,2.21,1.276v2.078
			c0,1.41-0.99,3.123-2.21,3.828l-70.22,40.542c-1.221,0.705-2.21,0.133-2.21-1.276l0-2.079
			C323.957,278.949,324.946,277.235,326.167,276.53z"/>
	</g>
</g>
<g id="Fingerprint">
	<g id="XMLID_2605_">
		<g id="XMLID_2596_">
			<path id="XMLID_2032_" style="fill:#EBEBEB;" d="M177.309,110.027v102.796c0,1.381,0.969,3.06,2.165,3.75l3.794,2.191
				c1.196,0.69,3.134,0.69,4.33,0l64.724-37.369c1.196-0.69,2.165-2.369,2.165-3.75V74.849c0-1.381-0.969-3.06-2.165-3.75
				l-3.794-2.191c-1.196-0.69-3.134-0.69-4.33,0l-64.724,37.369C178.278,106.967,177.309,108.646,177.309,110.027z"/>
			<path id="XMLID_2877_" style="fill:#F5F5F5;" d="M254.473,74.495c-0.15-1.12-1.06-1.53-2.15-0.9l-64.72,37.37
				c-0.6,0.34-1.14,0.94-1.54,1.62l-8.12-4.69c0.4-0.68,0.94-1.27,1.53-1.62l64.73-37.37c1.19-0.69,3.13-0.69,4.33,0l3.79,2.19
				C253.423,71.725,254.333,73.195,254.473,74.495z"/>
			<path id="XMLID_2882_" style="fill:#E0E0E0;" d="M187.223,218.934c-0.04,0.03-0.09,0.04-0.13,0.05
				c-0.08,0.04-0.17,0.07-0.26,0.09c-0.01,0.01-0.02,0.01-0.03,0.01c-0.14,0.04-0.29,0.08-0.44,0.11c-0.87,0.16-1.83,0.09-2.61-0.21
				c-0.17-0.06-0.33-0.14-0.48-0.22l-3.8-2.19c-1.19-0.69-2.16-2.37-2.16-3.75V110.025c0-0.69,0.24-1.45,0.63-2.13l8.12,4.69
				c-0.39,0.68-0.63,1.44-0.63,2.13v102.799c0,0.49,0.12,0.88,0.33,1.14c0.27,0.33,0.68,0.47,1.16,0.37
				C187.023,219.004,187.123,218.974,187.223,218.934z"/>
		</g>
		<g id="XMLID_603_">
			<path id="XMLID_2542_" style="fill:none;stroke:#455A64;stroke-width:1.25;stroke-linecap:round;stroke-miterlimit:10;" d="
				M229.716,150.82c2.832,1.887,6.468,1.969,10.143,1.308"/>
			<path id="XMLID_2589_" style="fill:none;stroke:#455A64;stroke-width:1.25;stroke-linecap:round;stroke-miterlimit:10;" d="
				M220.454,130.994c3.029-0.874,4.807,0.607,5.126,4.851c0.393,5.213,0.266,10.13,2.946,13.132"/>
			<path id="XMLID_2593_" style="fill:none;stroke:#455A64;stroke-width:1.25;stroke-linecap:round;stroke-miterlimit:10;" d="
				M215.519,158.956c-2.26-5.518-3.419-22.556,3.047-27.036"/>
			<path id="XMLID_2170_" style="fill:none;stroke:#455A64;stroke-width:1.25;stroke-linecap:round;stroke-miterlimit:10;" d="
				M234.891,169.498c-7.375,0.877-14.318-1.336-18.251-8.24"/>
			<path id="XMLID_610_" style="fill:none;stroke:#455A64;stroke-width:1.25;stroke-linecap:round;stroke-miterlimit:10;" d="
				M236.35,165.469c-11.86,1.289-20.314-4.738-18.916-24.941c0.132-1.901,1.185-4.081,2.596-4.896
				c0.017-0.01,0.034-0.02,0.052-0.029c1.434-0.791,2.897,0.133,2.869,2.062c-0.208,14.443,4.465,21.156,16.32,19.055"/>
			<g id="XMLID_2030_">
				<path id="XMLID_607_" style="fill:none;stroke:#455A64;stroke-width:1.25;stroke-linecap:round;stroke-miterlimit:10;" d="
					M232.135,174.319c-14.837,0.974-22.775-8.85-21.601-29.619c0.388-6.858,2.982-14.459,8.135-17.434
					c0.055-0.032,0.162-0.091,0.216-0.122c5.222-2.879,9.297,0.135,9.836,7.177c0.518,6.758,0.705,14.739,11.884,12.851"/>
				<path id="XMLID_2518_" style="fill:none;stroke:#455A64;stroke-width:1.25;stroke-linecap:round;stroke-miterlimit:10;" d="
					M221.949,178.081c2.184,0.759,4.581,1.263,7.018,1.268"/>
				<path id="XMLID_2511_" style="fill:none;stroke:#455A64;stroke-width:1.25;stroke-linecap:round;stroke-miterlimit:10;" d="
					M210.533,168.987c2.046,4.273,5.655,6.835,8.982,8.336"/>
				<path id="XMLID_606_" style="fill:none;stroke:#455A64;stroke-width:1.25;stroke-linecap:round;stroke-miterlimit:10;" d="
					M211.415,130.734c-6.392,11.803-4.77,27.643-2.113,35.285"/>
				<path id="XMLID_2524_" style="fill:none;stroke:#455A64;stroke-width:1.25;stroke-linecap:round;stroke-miterlimit:10;" d="
					M232.02,133.52c-0.6-6.408-2.235-10.79-6.88-11.816c-3.71-0.819-8.462,1.539-12.228,6.717"/>
				<path id="XMLID_2514_" style="fill:none;stroke:#455A64;stroke-width:1.25;stroke-linecap:round;stroke-miterlimit:10;" d="
					M241.066,142.726c-3.819,1.34-7.873,0.518-8.586-5.284"/>
				<path id="XMLID_605_" style="fill:none;stroke:#455A64;stroke-width:1.25;stroke-linecap:round;stroke-miterlimit:10;" d="
					M241.344,138.318c-3.987,0.109-5.851-1.665-6.824-8.84c-1.492-10.997-7.183-15.706-16.012-10.608
					c-9.255,5.343-14.813,18.572-15.24,29.507c-0.804,20.591,5.657,28.781,15.804,32.934c3.806,1.362,5.809,1.697,7.057,1.811"/>
			</g>
			<path id="XMLID_2172_" style="fill:none;stroke:#455A64;stroke-width:1.25;stroke-linecap:round;stroke-miterlimit:10;" d="
				M236.323,123.276c0.79,4.335,1.202,10.378,5.125,10.242"/>
			<path id="XMLID_2167_" style="fill:none;stroke:#455A64;stroke-width:1.25;stroke-linecap:round;stroke-miterlimit:10;" d="
				M227.662,112.283c3.785,0.702,6.628,3.862,8.063,8.498"/>
			<path id="XMLID_2034_" style="fill:none;stroke:#455A64;stroke-width:1.25;stroke-linecap:round;stroke-miterlimit:10;" d="
				M212.913,118.702c4.021-4.14,8.707-6.392,12.667-6.559"/>
			<path id="XMLID_614_" style="fill:none;stroke:#455A64;stroke-width:1.25;stroke-linecap:round;stroke-miterlimit:10;" d="
				M201.399,138.426c1.599-6.479,5.069-12.821,9.135-17.645"/>
			<path id="XMLID_615_" style="fill:none;stroke:#455A64;stroke-width:1.25;stroke-linecap:round;stroke-miterlimit:10;" d="
				M199.923,158.994c-0.648-5.342-0.57-11.376,0.589-17.63"/>
			<path id="XMLID_604_" style="fill:none;stroke:#455A64;stroke-width:1.25;stroke-linecap:round;stroke-miterlimit:10;" d="
				M205,175.896c-2.197-3.686-3.789-8.488-4.656-13.397"/>
			<path id="XMLID_613_" style="fill:none;stroke:#455A64;stroke-width:1.25;stroke-linecap:round;stroke-miterlimit:10;" d="
				M220.233,187.535c-4.704-1.923-9.944-4.721-13.271-9.204"/>
			<path id="XMLID_2523_" style="fill:none;stroke:#455A64;stroke-width:1.25;stroke-linecap:round;stroke-miterlimit:10;" d="
				M214.963,190.525c-14.057-5.753-18.938-20.947-18.938-37.84c0-16.893,7.972-35.102,22.483-43.052
				c9.828-5.384,22.941,0.45,22.941,17.343"/>
			<path id="XMLID_2594_" style="fill:none;stroke:#455A64;stroke-width:1.25;stroke-linecap:round;stroke-miterlimit:10;" d="
				M232.957,161.342c1.722,0.099,3.498,0.007,5.301-0.208"/>
			<path id="XMLID_609_" style="fill:none;stroke:#455A64;stroke-width:1.25;stroke-linecap:round;stroke-miterlimit:10;" d="
				M223.318,155.965c1.366,2.806,4.214,4.583,7.098,5.151"/>
			<path id="XMLID_608_" style="fill:none;stroke:#455A64;stroke-width:1.25;stroke-linecap:round;stroke-miterlimit:10;" d="
				M220.329,138.899c-0.479,5.802,0.251,11.129,1.899,14.926"/>
			<path id="XMLID_2595_" style="fill:none;stroke:#455A64;stroke-width:1.25;stroke-linecap:round;stroke-miterlimit:10;" d="
				M224.687,102.296c3.644-0.939,8.912,0.156,11.636,2.153"/>
			<path id="XMLID_2590_" style="fill:none;stroke:#455A64;stroke-width:1.25;stroke-linecap:round;stroke-miterlimit:10;" d="
				M206.963,112.993c4.169-4.777,9.944-8.099,14.393-9.79"/>
			<path id="XMLID_612_" style="fill:none;stroke:#455A64;stroke-width:1.25;stroke-linecap:round;stroke-miterlimit:10;" d="
				M202.066,187.839c1.542,1.875,3.338,3.341,5.354,4.333"/>
			<path id="XMLID_611_" style="fill:none;stroke:#455A64;stroke-width:1.25;stroke-linecap:round;stroke-miterlimit:10;" d="
				M195.482,176.7c1.137,3.313,3.065,6.421,4.786,8.58"/>
		</g>
	</g>
</g>
<g id="Letter">
	<g id="Letter_2_">
		<g id="XMLID_2676_">
			<g id="XMLID_2678_">
				<path id="XMLID_2680_" style="fill:#27DEBF;" d="M38.436,235.438c0-1.223,0.859-2.711,1.918-3.323l98.147-56.665
					c1.059-0.612,2.777-0.612,3.837,0l2.162,1.248c1.06,0.612,1.919,2.099,1.919,3.323v75.231c0,1.218-0.863,2.714-1.919,3.323
					l-98.147,56.665c-1.055,0.609-2.782,0.609-3.837,0l-2.162-1.248c-1.055-0.609-1.918-2.104-1.918-3.323L38.436,235.438z"/>
			</g>
		</g>
		<path id="XMLID_2675_" style="opacity:0.4;fill:#FFFFFF;" d="M38.996,233.548l5.446,3.14l101.415-58.558
			c-0.345-0.599-0.826-1.125-1.352-1.434l-2.169-1.243c-1.053-0.617-2.777-0.617-3.83,0l-98.147,56.661
			C39.822,232.423,39.341,232.949,38.996,233.548z"/>
		<path id="XMLID_2673_" style="opacity:0.1;" d="M38.433,235.436v75.23c0,1.225,0.862,2.714,1.924,3.322l2.16,1.253
			c0.163,0.091,0.336,0.173,0.526,0.236c0.245,0.082,0.508,0.145,0.79,0.181c0.499,0.064,1.026,0.045,1.516-0.055
			c0.127-0.027,0.254-0.063,0.372-0.1c0.082-0.027,0.154-0.055,0.227-0.091c-0.354,0.127-0.663,0.109-0.917-0.018
			c-0.363-0.191-0.59-0.626-0.59-1.262v-75.23c0-0.79,0.399-1.389,0.998-1.634l-0.998-0.581l-5.446-3.14
			C38.651,234.147,38.433,234.828,38.433,235.436z"/>
		<path id="XMLID_2672_" style="opacity:0.2;" d="M44.442,236.689l45.452,16.981c3.24,1.207,6.88,0.009,8.767-2.886l7.299-11.182
			l40.259-61.679l-38.804,62.099l39.003,15.264c-0.009,0.617-0.236,1.307-0.599,1.915l-38.513-17.005l-8.482,13.574
			c-1.951,3.113-5.89,4.329-9.248,2.841l-6.039-2.666l-38.506,61.45c-0.363-0.191-0.59-0.626-0.59-1.262v-1.253l38.907-59.019
			L44.442,236.689z"/>
	</g>
</g>
<g id="Folder">
	<g id="XMLID_26_">
		<path id="XMLID_3039_" style="fill:#27DEBF;" d="M391.222,27.966c0-0.664-0.228-1.133-0.594-1.369l0.005-0.002l-0.024-0.014
			c-0.015-0.009-0.03-0.018-0.046-0.026l-4.035-2.334c0,0-0.002-0.001-0.003-0.002l-0.007-0.004v0.001
			c-0.391-0.221-0.928-0.188-1.522,0.154l-61.971,35.749l-1.672-5.571c-0.167-0.555-0.496-0.957-0.904-1.197l0.013-0.005
			l-4.074-2.352l0.002,0.014c-0.565-0.334-1.288-0.35-1.982,0.051L287.774,66.43c-1.196,0.69-2.165,2.369-2.165,3.75l0.001,88.809
			c0,0.662,0.227,1.129,0.591,1.366l-0.007,0.005l0.042,0.024c0.006,0.003,0.012,0.007,0.018,0.01l4.032,2.325
			c0.015,0.009,0.029,0.018,0.045,0.026l0.032,0.019v-0.007c0.387,0.194,0.903,0.157,1.474-0.173l97.221-56.131
			c1.196-0.69,2.165-2.369,2.165-3.75L391.222,27.966z"/>
		<path id="XMLID_3048_" style="opacity:0.4;fill:#FFFFFF;" d="M320.404,53.318c-0.56-0.31-1.26-0.3-1.94,0.09l-26.63,15.37
			c-0.59,0.35-1.13,0.94-1.53,1.62l-4.06-2.35c0.39-0.68,0.93-1.28,1.53-1.62l26.63-15.37c0.7-0.4,1.42-0.38,1.98-0.05v-0.01
			L320.404,53.318z"/>
		<path id="XMLID_3044_" style="opacity:0.4;fill:#FFFFFF;" d="M390.474,26.508c-0.38-0.16-0.88-0.1-1.42,0.21l-62.66,36.15
			c-1.2,0.69-2.49,0.18-2.89-1.15l-0.48-1.6l61.97-35.75c0.34-0.2,0.67-0.29,0.96-0.29c0.21,0,0.4,0.05,0.56,0.14h0.01
			L390.474,26.508z"/>
		<path id="XMLID_3051_" style="opacity:0.1;" d="M289.974,162.428c0.06,0.09,0.13,0.16,0.21,0.23l-3.93-2.26
			c-0.01-0.01-0.01-0.01-0.02-0.01l-0.04-0.03c-0.15-0.1-0.27-0.24-0.37-0.42c-0.04-0.08-0.08-0.16-0.1-0.25
			c-0.07-0.2-0.11-0.43-0.11-0.7l-0.01-88.81c0-0.09,0-0.17,0.01-0.26c0.02-0.18,0.05-0.36,0.09-0.54c0.02-0.09,0.05-0.18,0.07-0.27
			c0.09-0.27,0.2-0.54,0.33-0.8c0.04-0.09,0.09-0.18,0.14-0.26l4.06,2.35c-0.39,0.67-0.63,1.44-0.63,2.13v88.81
			c0,0.13,0.01,0.26,0.03,0.38c0.01,0.07,0.02,0.14,0.04,0.21c0.01,0.04,0.02,0.07,0.03,0.11c0.02,0.05,0.04,0.1,0.06,0.14
			C289.864,162.268,289.914,162.348,289.974,162.428z"/>
	</g>
</g>
<g id="Password">
	<g id="XMLID_2713_">
		<g id="XMLID_2683_">
			<g id="XMLID_3095_">
				<path id="XMLID_3111_" style="fill:#37474F;" d="M224.676,307.743c0-1.709-1.199-3.786-2.679-4.641l-2.182-1.259
					c-1.479-0.854-3.879-0.854-5.359,0l-72.403,41.778c-1.48,0.855-2.68,2.932-2.68,4.641v8.527c0,1.709,1.2,3.786,2.68,4.641
					l2.182,1.26c1.48,0.854,3.879,0.854,5.359,0l72.403-41.778c1.48-0.854,2.679-2.932,2.679-4.641L224.676,307.743z"/>
				<path id="XMLID_3110_" style="fill:#263238;" d="M139.374,356.789c0,1.709,1.2,3.786,2.679,4.641l2.182,1.259
					c1.337,0.772,3.419,0.839,4.901,0.216c-1.261,0.477-2.221-0.235-2.221-1.763l0-8.527c0-0.855,0.3-1.801,0.785-2.641l-7.54-4.353
					c-0.485,0.84-0.785,1.786-0.785,2.641V356.789z"/>
				<path id="XMLID_3109_" style="fill:#455A64;" d="M224.588,306.982c-0.313-1.137-1.35-1.5-2.587-0.787l-72.409,41.783
					c-0.737,0.425-1.412,1.15-1.887,2l-7.537-4.35c0.487-0.85,1.15-1.575,1.887-2l72.396-41.783c1.487-0.85,3.887-0.85,5.363,0
					l2.188,1.262C223.264,303.832,224.326,305.457,224.588,306.982z"/>
			</g>
			<g id="XMLID_3115_">
				<path id="XMLID_3150_" style="fill:#E6E6E6;" d="M156.135,349.033c1.405-0.811,2.544-0.154,2.544,1.469
					c0,1.622-1.139,3.595-2.544,4.406s-2.544,0.153-2.544-1.469C153.591,351.816,154.73,349.844,156.135,349.033z"/>
				<path id="XMLID_3149_" style="fill:#E6E6E6;" d="M164.549,344.174c1.405-0.811,2.544-0.153,2.544,1.469
					c0,1.622-1.139,3.595-2.544,4.406c-1.405,0.811-2.544,0.154-2.544-1.469C162.005,346.958,163.144,344.986,164.549,344.174z"/>
				<path id="XMLID_3148_" style="fill:#E6E6E6;" d="M172.963,339.317c1.405-0.811,2.544-0.154,2.544,1.469
					c0,1.622-1.139,3.595-2.544,4.406c-1.405,0.811-2.544,0.154-2.544-1.469C170.419,342.1,171.558,340.128,172.963,339.317z"/>
				<path id="XMLID_3147_" style="fill:#E6E6E6;" d="M181.377,334.459c1.405-0.811,2.544-0.154,2.544,1.469
					c0,1.622-1.139,3.595-2.544,4.406c-1.405,0.811-2.544,0.153-2.544-1.469C178.834,337.242,179.973,335.27,181.377,334.459z"/>
				<path id="XMLID_3146_" style="fill:#E6E6E6;" d="M189.792,329.601c1.405-0.811,2.544-0.154,2.544,1.469
					s-1.139,3.595-2.544,4.406c-1.405,0.811-2.544,0.154-2.544-1.469C187.248,332.384,188.387,330.412,189.792,329.601z"/>
				<path id="XMLID_3145_" style="fill:#E6E6E6;" d="M198.206,324.743c1.405-0.811,2.544-0.154,2.544,1.469
					c0,1.622-1.139,3.595-2.544,4.406c-1.405,0.811-2.544,0.154-2.544-1.469S196.801,325.554,198.206,324.743z"/>
				<path id="XMLID_3144_" style="fill:#E6E6E6;" d="M206.62,319.885c1.405-0.811,2.544-0.153,2.544,1.469
					c0,1.622-1.139,3.595-2.544,4.406c-1.405,0.811-2.544,0.153-2.544-1.469C204.076,322.668,205.215,320.696,206.62,319.885z"/>
				<path id="XMLID_3143_" style="fill:#E6E6E6;" d="M215.034,315.027c1.405-0.811,2.544-0.153,2.544,1.469
					s-1.139,3.595-2.544,4.406c-1.405,0.811-2.544,0.154-2.544-1.469C212.491,317.81,213.629,315.838,215.034,315.027z"/>
			</g>
		</g>
		<g id="XMLID_2684_">
			<g id="XMLID_1795_">
				<path id="XMLID_2607_" style="fill:#37474F;" d="M224.676,335.872c0-1.709-1.199-3.786-2.679-4.641l-2.182-1.259
					c-1.479-0.854-3.879-0.854-5.359,0l-72.403,41.778c-1.48,0.855-2.68,2.932-2.68,4.641v8.527c0,1.709,1.2,3.786,2.68,4.641
					l2.182,1.26c1.48,0.854,3.879,0.854,5.359,0l72.403-41.778c1.48-0.854,2.679-2.932,2.679-4.641L224.676,335.872z"/>
				<path id="XMLID_1797_" style="fill:#263238;" d="M139.374,384.917c0,1.709,1.2,3.786,2.679,4.641l2.182,1.26
					c1.337,0.772,3.419,0.839,4.901,0.216c-1.261,0.477-2.221-0.235-2.221-1.763l0-8.527c0-0.855,0.3-1.801,0.785-2.641l-7.54-4.353
					c-0.485,0.84-0.785,1.786-0.785,2.641V384.917z"/>
				<path id="XMLID_1796_" style="fill:#455A64;" d="M224.588,335.111c-0.313-1.137-1.35-1.5-2.587-0.787l-72.409,41.783
					c-0.737,0.425-1.412,1.15-1.887,2l-7.537-4.35c0.487-0.85,1.15-1.575,1.887-2l72.396-41.783c1.487-0.85,3.887-0.85,5.363,0
					l2.188,1.262C223.264,331.961,224.326,333.586,224.588,335.111z"/>
			</g>
			<g id="XMLID_601_">
				<path id="XMLID_1772_" style="fill:#E6E6E6;" d="M156.135,377.161c1.405-0.811,2.544-0.154,2.544,1.469
					c0,1.622-1.139,3.595-2.544,4.406s-2.544,0.154-2.544-1.469C153.591,379.945,154.73,377.972,156.135,377.161z"/>
				<path id="XMLID_1574_" style="fill:#E6E6E6;" d="M164.549,372.303c1.405-0.811,2.544-0.154,2.544,1.469
					c0,1.622-1.139,3.595-2.544,4.406c-1.405,0.811-2.544,0.153-2.544-1.469C162.005,375.087,163.144,373.114,164.549,372.303z"/>
				<path id="XMLID_1573_" style="fill:#E6E6E6;" d="M172.963,367.445c1.405-0.811,2.544-0.154,2.544,1.469
					c0,1.622-1.139,3.595-2.544,4.406c-1.405,0.811-2.544,0.154-2.544-1.469C170.419,370.229,171.558,368.256,172.963,367.445z"/>
				<path id="XMLID_1496_" style="fill:#E6E6E6;" d="M181.377,362.587c1.405-0.811,2.544-0.154,2.544,1.469
					s-1.139,3.595-2.544,4.406c-1.405,0.811-2.544,0.154-2.544-1.469C178.834,365.371,179.973,363.398,181.377,362.587z"/>
				<path id="XMLID_1495_" style="fill:#E6E6E6;" d="M189.792,357.729c1.405-0.811,2.544-0.154,2.544,1.469
					c0,1.622-1.139,3.595-2.544,4.406c-1.405,0.811-2.544,0.153-2.544-1.469C187.248,360.513,188.387,358.54,189.792,357.729z"/>
				<path id="XMLID_1427_" style="fill:#E6E6E6;" d="M198.206,352.871c1.405-0.811,2.544-0.154,2.544,1.469
					c0,1.622-1.139,3.595-2.544,4.406c-1.405,0.811-2.544,0.154-2.544-1.469C195.662,355.655,196.801,353.682,198.206,352.871z"/>
				<path id="XMLID_1425_" style="fill:#E6E6E6;" d="M206.62,348.013c1.405-0.811,2.544-0.154,2.544,1.469
					c0,1.622-1.139,3.595-2.544,4.406c-1.405,0.811-2.544,0.154-2.544-1.469C204.076,350.797,205.215,348.824,206.62,348.013z"/>
				<path id="XMLID_602_" style="fill:#E6E6E6;" d="M215.034,343.156c1.405-0.811,2.544-0.154,2.544,1.469
					c0,1.622-1.139,3.595-2.544,4.406c-1.405,0.811-2.544,0.153-2.544-1.469C212.491,345.939,213.629,343.967,215.034,343.156z"/>
			</g>
		</g>
		<g id="XMLID_2682_">
			<g id="XMLID_3090_">
				<path id="XMLID_3093_" style="fill:#27DEBF;" d="M136.985,358.325c0-1.709-1.199-3.786-2.679-4.641l-2.182-1.259
					c-1.48-0.855-3.879-0.855-5.359,0l-33.457,19.351c-1.48,0.854-2.68,2.932-2.68,4.641v36.689c0,1.709,1.2,3.786,2.68,4.641
					l2.182,1.26c1.48,0.854,3.879,0.854,5.359,0l33.457-19.351c1.48-0.854,2.679-2.932,2.679-4.641L136.985,358.325z"/>
				<path id="XMLID_3092_" style="opacity:0.2;" d="M90.629,413.105c0,1.709,1.2,3.786,2.679,4.641l2.182,1.259
					c1.337,0.772,3.419,0.839,4.901,0.216c-1.261,0.477-2.221-0.235-2.221-1.763l0-36.689c0-0.854,0.3-1.801,0.785-2.641
					l-7.54-4.353c-0.485,0.84-0.785,1.786-0.785,2.641V413.105z"/>
				<path id="XMLID_3091_" style="opacity:0.3;fill:#FFFFFF;" d="M136.897,357.564c-0.313-1.138-1.35-1.5-2.587-0.787
					l-33.463,19.355c-0.737,0.425-1.412,1.15-1.887,2l-7.537-4.35c0.487-0.85,1.15-1.575,1.887-2l33.45-19.355
					c1.487-0.85,3.887-0.85,5.363,0l2.188,1.263C135.573,354.414,136.635,356.039,136.897,357.564z"/>
			</g>
			<path id="XMLID_3058_" style="fill:#FAFAFA;" d="M117.08,372.666c3.22-1.859,5.83-0.352,5.83,3.365
				c0,3.718-2.61,8.239-5.83,10.098c-3.219,1.859-5.83,0.352-5.83-3.366C111.25,379.045,113.86,374.524,117.08,372.666z"/>
			<path id="XMLID_3057_" style="fill:#FAFAFA;" d="M128.568,392.489c0-6.108-4.289-8.584-9.577-5.53l-3.307,1.909
				c-5.289,3.054-9.577,10.481-9.577,16.589v1.644c3.058,1.015,19.366-8.485,22.462-13.195V392.489z"/>
		</g>
	</g>
</g>
<g id="Shield">
	<g id="XMLID_1878_">
		<g id="XMLID_2780_">
			<path id="XMLID_2781_" style="fill:#27DEBF;" d="M438.196,286.261c0.003-0.004,0.005-0.007,0.008-0.01l-12.197-7.042
				c0,0-0.001,0.011-0.001,0.013c-0.476-0.263-1.183-0.086-2.039,0.569c-0.444,0.34-0.897,0.665-1.358,0.977
				c-0.165,0.111-0.335,0.213-0.501,0.32c-0.299,0.194-0.597,0.389-0.901,0.571c-0.212,0.127-0.429,0.242-0.644,0.363
				c-0.265,0.15-0.529,0.302-0.798,0.443c-0.244,0.128-0.492,0.245-0.739,0.366c-0.245,0.12-0.488,0.243-0.735,0.355
				c-0.271,0.124-0.546,0.237-0.82,0.352c-0.227,0.096-0.453,0.194-0.681,0.284c-0.296,0.116-0.595,0.222-0.893,0.329
				c-0.21,0.075-0.418,0.152-0.629,0.222c-0.321,0.106-0.643,0.203-0.966,0.299c-0.19,0.056-0.38,0.114-0.571,0.167
				c-0.344,0.094-0.689,0.18-1.035,0.262c-0.171,0.041-0.342,0.082-0.514,0.12c-0.366,0.08-0.733,0.151-1.1,0.218
				c-0.151,0.027-0.301,0.055-0.452,0.08c-0.388,0.064-0.777,0.119-1.165,0.167c-0.128,0.016-0.257,0.032-0.385,0.046
				c-0.408,0.045-0.816,0.082-1.225,0.11c-0.108,0.008-0.215,0.014-0.323,0.021c-0.427,0.025-0.853,0.041-1.278,0.046
				c-0.086,0.001-0.172,0.001-0.258,0.002c-0.444,0.002-0.887-0.005-1.329-0.024c-0.064-0.003-0.128-0.007-0.191-0.01
				c-0.46-0.023-0.918-0.056-1.373-0.101c-0.044-0.004-0.087-0.01-0.131-0.014c-0.473-0.05-0.943-0.11-1.41-0.185
				c-0.022-0.004-0.045-0.008-0.067-0.012c-0.399-0.065-0.794-0.144-1.188-0.227c-0.283-0.303-0.566-0.536-0.843-0.689l0,0
				l-0.139-0.08l0,0l-12.027-6.944l0,0.002c-0.997-0.566-1.916-0.155-2.502,1.299c-7.863,19.526-24.613,39.321-35.779,44.27
				c-0.217,0.096-0.429,0.209-0.635,0.333c-0.137,0.081-0.266,0.175-0.397,0.266c-0.058,0.041-0.118,0.079-0.175,0.122
				c-0.169,0.127-0.328,0.264-0.483,0.407c-0.01,0.01-0.021,0.019-0.032,0.029c-0.167,0.156-0.323,0.32-0.471,0.492l-0.001,0.001
				l0,0c-0.78,0.907-1.286,2.021-1.244,3.188l1.607,43.854c0,12.786,5.446,26.28,16.545,32.733l0,0l0.004,0.002
				c0.001,0,0.001,0.001,0.001,0.001l12.185,7.035l0.002,0.001l0.154,0.089l-0.001-0.006c5.02,2.875,11.182,4.32,18.512,3.621
				c2.062-0.197,4.921-1.687,6.362-3.175c24.409-25.213,36.277-59.337,36.277-78.214l1.613-45.868
				C438.874,287.117,438.632,286.505,438.196,286.261z"/>
			<path id="XMLID_2786_" style="opacity:0.15;" d="M375.633,411.487l-11.895-6.862h-0.008
				c-11.093-6.458-16.545-19.95-16.545-32.738l-1.605-43.852c-0.053-1.508,0.788-2.94,1.987-3.923
				c-0.262,0.225-0.517,0.473-0.742,0.735l12.18,7.027c-0.788,0.908-1.282,2.033-1.237,3.195l1.605,43.852
				C359.373,391.597,364.728,404.969,375.633,411.487z"/>
			<path id="XMLID_2783_" style="opacity:0.3;fill:#FFFFFF;" d="M438.183,286.237c-0.472-0.247-1.178-0.052-2.025,0.592
				c-10.958,8.385-27.352,8.393-35.693-1.32c-0.052-0.06-0.097-0.112-0.15-0.165c7.815,1.65,16.792-0.3,23.655-5.55
				c0.855-0.66,1.56-0.832,2.04-0.57c0-0.008,0-0.015,0-0.015L438.183,286.237z"/>
			<path id="XMLID_2782_" style="opacity:0.5;fill:#FFFFFF;" d="M399.325,284.572l-0.008,0.008c-0.93-0.435-1.777,0.008-2.332,1.38
				c-7.86,19.53-24.615,39.323-35.782,44.272c-0.825,0.368-1.598,0.938-2.198,1.643l-12.18-7.027c0.225-0.263,0.48-0.51,0.742-0.735
				c0.09-0.075,0.18-0.15,0.27-0.217c0.097-0.068,0.188-0.135,0.285-0.202c0.098-0.06,0.195-0.12,0.293-0.18
				c0.195-0.12,0.397-0.225,0.608-0.315c11.16-4.95,27.915-24.742,35.775-44.272c0.42-1.035,1.005-1.538,1.672-1.538
				c0.262,0,0.548,0.075,0.833,0.24L399.325,284.572z"/>
		</g>
		<g id="XMLID_1877_">
			<polygon id="XMLID_1989_" style="fill:#455A64;" points="459.114,328.356 452.609,324.602 427.118,384.669 431.466,387.179 			
				"/>
			<polygon id="XMLID_1876_" style="fill:#455A64;" points="420.496,368.692 413.991,364.937 407.005,379.726 413.51,383.481 			"/>
			<g id="XMLID_3023_">
				<polygon id="XMLID_3024_" style="fill:#37474F;" points="433.141,404.792 413.51,383.481 420.496,368.692 431.466,387.179 
					459.114,328.356 469.36,338.356 				"/>
			</g>
			<polygon id="XMLID_1994_" style="fill:#263238;" points="407.005,379.726 413.51,383.481 433.141,404.792 426.64,401.077 			"/>
		</g>
	</g>
</g>
</svg>
