<?xml version="1.0" encoding="utf-8"?>
<!-- Generator: Adobe Illustrator 27.5.0, SVG Export Plug-In . SVG Version: 6.00 Build 0)  -->
<svg version="1.1" xmlns="http://www.w3.org/2000/svg" xmlns:xlink="http://www.w3.org/1999/xlink" x="0px" y="0px"
	 viewBox="0 0 500 500" style="enable-background:new 0 0 500 500;" xml:space="preserve">
<g id="Floor">
	<ellipse id="Floor_2_" style="fill:#F5F5F5;" cx="250" cy="348.918" rx="239.652" ry="126.726"/>
</g>
<g id="Shadows">
	<ellipse id="Shadow_36_" style="fill:#E0E0E0;" cx="116.778" cy="362.118" rx="72.601" ry="41.916"/>
	<ellipse id="Shadow_20_" style="fill:#E0E0E0;" cx="387.047" cy="374.074" rx="71.781" ry="41.545"/>
</g>
<g id="Plants">
	<g id="Plants_10_">
		<g id="XMLID_1374_">
			<g id="XMLID_1377_">
				<path id="XMLID_1379_" style="fill:#27DEBF;" d="M420.638,321.756c0,0-3.31-16.477,0.608-31.361
					c3.919-14.885,12.278-26.087,22.131-30.158c9.853-4.07,21.02,2.615,12.261,12.517c-8.758,9.901-25.877,22.65-27.017,49.462
					L420.638,321.756z"/>
				<path id="XMLID_1378_" style="opacity:0.15;" d="M420.638,321.756c0,0-3.31-16.477,0.608-31.361
					c3.919-14.885,12.278-26.087,22.131-30.158c9.853-4.07,21.02,2.615,12.261,12.517c-8.758,9.901-25.877,22.65-27.017,49.462
					L420.638,321.756z"/>
			</g>
			<g id="XMLID_1375_">
				<path id="XMLID_1376_" style="fill:#FFFFFF;" d="M422.275,316.67c-0.039,0.005-0.077,0.007-0.117,0.003
					c-0.313-0.023-0.547-0.296-0.524-0.609c2.195-29.792,18.97-47.359,27.534-52.485c0.267-0.163,0.616-0.072,0.778,0.197
					c0.16,0.27,0.073,0.619-0.196,0.78c-8.388,5.021-24.823,22.267-26.984,51.592C422.745,316.422,422.535,316.635,422.275,316.67z"
					/>
			</g>
		</g>
		<g id="XMLID_1366_">
			<g id="XMLID_1371_">
				<g id="XMLID_1372_">
					<path id="XMLID_1373_" style="fill:#27DEBF;" d="M429.657,338.431c-0.265-2.905-0.952-5.223-2.131-7.865
						c-1.186-2.658-3.376-4.993-4.064-7.862c-0.553-2.307,0.388-5.22,1.73-7.111c1.384-1.951,3.413-3.519,4.163-5.792
						c0.767-2.326,0.018-4.858,0.117-7.306c0.109-2.684,1.299-5.309,3.244-7.157c1.945-1.848,4.623-2.898,7.303-2.864
						c2.521,0.032,4.927,0.972,7.359,1.638c2.531,0.694,5.008,0.923,7.509,0.01c2.673-0.976,5.294-1.945,8.101-2.48
						c4.724-0.9,10.98-0.454,13.564,4.243c0.638,1.16,1.065,2.501,0.866,3.804c-0.008,0.055-0.018,0.111-0.029,0.166
						c-0.715,3.659-4.892,5.183-7.348,7.383c-0.671,0.601-1.81,1.491-1.922,2.471c-0.113,0.983,0.924,2.079,1.482,2.857
						c1.431,1.995,3.294,3.822,3.904,6.279c0.871,3.511-1.432,7.497-4.121,9.58c-2.577,1.997-5.813,2.956-9.034,3.44
						c-1.6,0.24-3.355,0.44-4.484,1.601c-0.981,1.009-1.243,2.533-1.149,3.939c0.094,1.406,0.492,2.777,0.626,4.18
						c0.427,4.438-1.978,8.94-5.719,11.352c-3.099,1.998-6.976,2.589-10.572,1.917c-2.977-0.556-6.001-3.439-7.097-6.244
						C430.728,345.469,429.962,341.777,429.657,338.431z"/>
				</g>
			</g>
			<g id="XMLID_1369_">
				<path id="XMLID_1370_" style="fill:#FFFFFF;" d="M432.361,346.318c-0.014,0.002-0.029,0.003-0.044,0.004
					c-0.294,0.016-0.545-0.212-0.56-0.507c-1.728-33.613,29.365-48.603,37.153-50.513c0.283-0.067,0.575,0.106,0.646,0.393
					c0.07,0.287-0.105,0.577-0.392,0.647c-7.618,1.868-38.031,16.532-36.342,49.419
					C432.838,346.041,432.634,346.282,432.361,346.318z"/>
			</g>
			<g id="XMLID_1367_">
				<path id="XMLID_1368_" style="fill:#FFFFFF;" d="M463.461,318.949c-0.104,0.014-0.214-0.004-0.314-0.056
					c-0.108-0.056-11.043-5.574-24.15,0.906c-0.265,0.127-0.585,0.022-0.715-0.243c-0.131-0.265-0.021-0.587,0.242-0.717
					c13.615-6.727,25.001-0.954,25.115-0.895c0.262,0.136,0.363,0.459,0.228,0.722C463.782,318.825,463.628,318.927,463.461,318.949
					z"/>
			</g>
		</g>
	</g>
	<g id="Plants_9_">
		<g id="XMLID_1256_">
			<g id="XMLID_1349_">
				<path id="XMLID_1363_" style="fill:#27DEBF;" d="M76.812,308.14c1.213-7.744,0.731-21.058-5.252-35.054
					c-6.402-14.977-16.018-25.698-25.474-24.034c-8.807,1.55-8.425,13.281,2.692,27.434c7.801,9.931,16.718,21.165,19.21,34.426
					l3.741,18.398L76.812,308.14z"/>
			</g>
			<g id="XMLID_1276_" style="opacity:0.15;">
				<path id="XMLID_1342_" d="M76.812,308.14c1.213-7.744,0.731-21.058-5.252-35.054c-6.402-14.977-16.018-25.698-25.474-24.034
					c-8.807,1.55-8.425,13.281,2.692,27.434c7.801,9.931,16.718,21.165,19.21,34.426l3.741,18.398L76.812,308.14z"/>
			</g>
			<g id="XMLID_1267_">
				<path id="XMLID_1268_" style="fill:#FFFFFF;" d="M74.651,313.746c-0.22-0.053-0.396-0.239-0.422-0.477
					c-2.594-22.899-13.406-48.037-25.152-58.471c-0.23-0.205-0.25-0.555-0.047-0.784c0.206-0.23,0.555-0.249,0.784-0.047
					c11.928,10.597,22.898,36.037,25.519,59.176c0.035,0.305-0.184,0.58-0.489,0.614C74.777,313.765,74.713,313.76,74.651,313.746z"
					/>
			</g>
		</g>
		<g id="XMLID_1146_">
			<path id="XMLID_1253_" style="fill:#27DEBF;" d="M67.059,349.34c-0.619,0.207-1.276,0.322-2.006,0.55
				c-3.182,0.995-6.345,1.749-9.687,1.946c-6.454,0.38-13.255-1.018-18.43-5.066c-1.066-0.834-2.145-2.066-1.8-3.374
				c0.26-0.988,1.235-1.586,2.127-2.082c4.297-2.39,8.593-4.781,12.89-7.171c-5.257,0.41-10.514,0.819-15.771,1.229
				c-1.034,0.081-2.106,0.156-3.081-0.198c-1.359-0.494-2.296-1.735-3.036-2.977c-1.135-1.905-2.003-3.969-2.571-6.113
				c-0.314-1.185-0.474-2.619,0.397-3.482c0.42-0.416,1.004-0.611,1.568-0.787c5.442-1.693,11.072-2.781,16.753-3.238
				c-5.439-2.115-11.331-2.383-17.08-2.832c-0.41-0.032-0.833-0.068-1.2-0.254c-0.908-0.46-1.149-1.628-1.239-2.642
				c-0.59-6.645,1.114-13.432,1.785-20.036c0.218-2.145,0.461-2.064,2.438-1.789c8.89,1.235,17.159,3.614,25.809,5.837
				c0.966,0.248,2.002,0.54,2.626,1.318c0.733,0.913,0.678,2.213,0.519,3.373c-0.444,3.248-1.42,6.422-2.877,9.359
				c2.48-2.12,4.539-4.73,6.021-7.637c0.359-0.705,0.747-1.487,1.478-1.787c0.86-0.353,1.825,0.106,2.611,0.603
				c11.529,7.283,11.645,21.57,9.35,33.532c-0.113,0.59-0.233,1.18-0.358,1.767c-0.477,2.24-0.967,4.54-2.459,6.868
				c-0.93,1.452-1.915,2.987-3.19,4.164C68.13,348.897,67.609,349.155,67.059,349.34z"/>
			<g id="XMLID_1153_">
				<path id="XMLID_1198_" style="fill:#FFFFFF;" d="M66.349,350.939c-0.193-0.073-0.337-0.252-0.356-0.471
					c-1.595-18.306-22.501-46.786-31.699-52.472c-0.26-0.161-0.342-0.504-0.18-0.765c0.162-0.261,0.506-0.337,0.765-0.18
					c9.348,5.78,30.6,34.723,32.219,53.321c0.027,0.306-0.199,0.575-0.505,0.601C66.507,350.98,66.425,350.967,66.349,350.939z"/>
			</g>
		</g>
	</g>
</g>
<g id="Character_2_1_">
	<g id="Character_2">
		<g id="Character_Girl">
			<g>
				<path style="fill:#FFA8A7;" d="M293.714,125.558c-1.897-1.151-4.444-1.835-6.292-2.701c-1.389-0.651-3.228-1.179-3.763-2.791
					c-0.225-0.679-0.246-1.406-0.276-2.121c-0.03-0.715-0.075-1.444-0.345-2.107c-0.208-0.511-0.547-0.975-0.648-1.518
					c-0.126-0.679,0.13-1.346,0.272-2c0.151-0.698,0.064-1.218-0.165-1.88c-0.47-1.353-0.124-2.956,0.861-3.993
					c0.262-0.276,0.567-0.518,0.762-0.845c0.408-0.683,0.242-1.559,0.447-2.329c0.918-3.436,6.909-0.681,8.773,0.405
					c0.535,0.312,3.177,1.773,4.356,2.48c0.266-1.581,0.637-3.062,1.81-5.574c1.606-3.438,5.547-4.063,5.285-1.829
					c-0.15,1.281-0.785,3.86-0.565,7.42c0.093,1.493,0.224,3.464,0.839,6.039c0.481,2.015,1.259,5.855,3.068,9.848
					c2.455,5.79,14.574,22.729,14.574,22.729c6.033-3.427,24.512-14.386,31.872-18.85c8.057-4.887,17.495-3.227,17.495-3.227
					l-15.09,23.116c0,0-23.105,12.359-30.448,16.348c-6.021,3.27-10.801,4.543-15.077-3.693
					C304.83,145.716,296.955,128.157,293.714,125.558z"/>
				<path style="fill:#F28F8F;" d="M295.947,106.882c1.853,0.856,2.224,2.202,1.82,4.973c-0.24,1.643-0.133,4.747,1.5,6.191
					c0,0-1.466-0.327-2.203-1.304c-0.736-0.976-0.955-1.104-1.487-0.666c-0.531,0.437-1.324,0.555-1.324,0.555
					s0.915,1.257-0.124,2.573c-1.039,1.316-4.9,0.863-7.852-1.17c0,0,4.928,2.242,6.322,0.762c1.393-1.48-1.066-3.867-3.019-4.674
					c0,0,4.803,1.804,5.764,0.274c0.961-1.53-0.929-3.017-3.752-4.128c0,0,4.002,1.258,4.877-0.043
					C297.533,108.641,296.416,107.507,295.947,106.882z"/>
			</g>
			<g id="XMLID_3604_">
				<g id="XMLID_3648_">
					<path id="XMLID_3958_" style="fill:#263238;" d="M374.472,114.208h7.036c12.983,0,23.509-10.551,23.509-23.567l0,0
						c0-14.963-12.1-27.094-27.027-27.094l0,0c-7.331,0-13.646,2.926-18.175,7.676l-0.461,36.924
						C359.354,108.147,368.419,114.208,374.472,114.208z"/>
				</g>
				<path id="XMLID_3647_" style="fill:#263238;" d="M390.58,67.183l-1.102-7.298c-2.06,0.243-3.484,2.074-3.179,4.09
					C386.603,65.99,388.52,67.426,390.58,67.183z"/>
				<path id="XMLID_3605_" style="fill:#263238;" d="M404.731,75.174c-3.934,3.514-7.277,0.764-10.783-3.18
					c-3.505-3.944-5.847-7.589-1.912-11.103c3.934-3.514,9.966-3.166,13.472,0.779C409.013,65.613,408.666,71.66,404.731,75.174z"/>
			</g>
			<g id="XMLID_5594_">
				<g id="XMLID_5597_">
					<path id="XMLID_5598_" style="fill:#263238;" d="M436.036,352.337c-0.913,1.914-0.434,4.293-0.51,9.468
						c-0.05,3.402,0.038,6.831-0.414,10.212c-0.161,1.211-0.554,2.318-0.81,3.498c-0.207,0.952-0.602,1.759-1.36,2.422
						c-0.63,0.553-1.513,0.876-2.322,0.655c-0.641-0.175-1.162-0.671-1.476-1.258c-0.427-0.797-1.148-2.714-1.33-3.568
						c-0.974,8.665-10.356,14.659-4.636,16.808c4.962,1.864,9.394,0.695,12.433-0.676c1.866-0.842,3.617-2.701,4.011-3.391
						c2.201-3.846,1.956-7.51,1.986-10.822c0.067-7.315,1.273-11.095,1.86-14.753C444.18,356.503,437.418,351.673,436.036,352.337z"
						/>
				</g>
				<path id="XMLID_5595_" style="fill:#263238;" d="M373.246,351.493c0,0,0.482,0.07,0.593,0.729
					c0.164,0.974,0.355,2.796,0.683,4.458c0.437,2.214,0.906,5.4,0.544,7.176c-0.363,1.777-2.759,3.503-7.255,4.779
					c-2.709,0.769-7.545,3.113-9.758,5.127c-2.71,2.467-8.505,4.526-12.422,4.643c-4.592,0.136-9.379-1.094-10.484-4.409
					c-0.465-1.393,1.816-2.912,7.694-5.736c0,0,2.97-1.567,4.656-2.628c8.49-5.346,11.387-8.385,13.858-13.84L373.246,351.493z"/>
				<path style="fill:#FFA8A7;" d="M358.161,356.28c2.705-2.928,3.224-5.753,2.856-11.187c-0.368-5.434-4.642-52.799-5.744-64.657
					c-1.849-19.918,0.154-76.51,1.809-90.328l51.652,4.098c3.845,9.646,6.667,21.522,6.062,40.154
					c-0.462,14.211-0.147,52.756-0.147,52.756s6.463,5.667,11.077,16.856c4.077,9.885,8.759,44.034,8.759,44.034l0,0
					c0.72,2.265,1.301,3.992,1.55,4.33c1.114,1.516,1.908,3.139,1.907,4.985c-0.003,5.899-0.633,11.797-1.875,17.563
					c-0.643,2.985-2.503,4.906-5.474,6.09c-0.658,0.262-1.371,0.396-2.078,0.343c-0.361-0.027-0.747-0.115-1.005-0.375
					c-0.501-0.505-0.044-1.7,0.052-2.299c0.154-0.965,0.238-1.941,0.267-2.917c0.057-1.919-0.001-4.261-0.127-6.174
					c-0.328-5.009-1.055-9.073-2.054-12.727c0-0.001-0.409-0.977-1.029-2.461l0,0c0,0-22.976-46.494-29.502-57.828
					c-5.19-8.894-8.624-43.41-12.298-62.28l-5.381,45.102c0,0,1.868,8.143,2.583,14.374c0.96,8.368-4.949,41.157-6.716,52.816
					c-0.328,2.165-0.354,4.358-0.079,6.531l0,0c-0.624,5.052-4.408,6.609-8.32,9.469c-1.946,1.422-10.501,6.627-15.667,7.675
					c-4.202,0.852-5.806-0.782-6.391-1.968C348.088,365.155,355.456,359.207,358.161,356.28z"/>
			</g>
			<g>
				<path style="fill:#455A64;" d="M398.851,175.429c0,0,4.662,5.706,11.914,20.067c4.87,9.644,5.177,45.033,5.177,45.033
					s-4.238,9.665-30.968,8.064l-1.99-12.007l-1.709,11.725c-0.658-0.061-1.328-0.127-2.01-0.201
					c-23.039-2.48-27.345-7.698-27.345-7.698s1.663-41.084,6.673-64.406C366.385,181.51,389.5,182.816,398.851,175.429z"/>
				<path style="fill:#263238;" d="M382.983,236.586l-5.112-19.892c0,0-9.877-1.06-17.563-6.727c0,0,1.584,7.276,15.18,9.422
					l5.847,19.527l-0.06,9.396L382.983,236.586z"/>
				<path style="fill:#37474F;" d="M402.354,241.942c9.51-2.273,13.289-6.195,13.289-6.195c0,0.002,0,0.004,0,0.006l0.304,4.686
					c0,0-4.238,9.665-30.968,8.064l-0.883-5.329C384.096,243.174,392.843,244.215,402.354,241.942z"/>
				<path style="fill:#37474F;" d="M351.919,240.412c0,0,0.082-1.904,0.256-5.14c0.498,0.32,6.677,3.506,14.525,5.318
					c8.197,1.892,15.379,2.195,15.379,2.195l-0.805,5.526c-0.658-0.061-1.328-0.127-2.01-0.201
					C356.225,245.629,351.919,240.412,351.919,240.412z"/>
			</g>
			<g>
				<path style="fill:#27DEBF;" d="M353.303,140.946c5.155-7.985,15.435-15.587,18.771-18.233l17.574,0.135
					c2.423,0.124,6.003,0.422,7.3,0.628c1.302,0.207,2.613,0.724,3.326,1.104c4.044,2.164,4.459,6.169,4.593,10.925
					c0.156,5.216,0.181,7.509-1.254,16.124L401,162.607l-0.402,1.686c-0.07,0.289-0.132,0.579-0.203,0.877
					c-0.909,4.075-0.585,8.4,1.547,12.481c4.443,8.506,8.894,15.121,10.375,22.265c0,0-2.615-0.908-5.905-4.069
					c-2.863-2.751-4.588-4.028-6.881-7.272c-5.553,10.753-35.236,19.869-44.565,3.309c0,0,2.852-14.284,3.333-19.078
					c-0.725-4.146-2.885-11.332-2.938-12.918C349.451,154.559,349.548,146.756,353.303,140.946z"/>
				<path style="opacity:0.1;" d="M364.73,159.01c0,0,6.372,5.653,14.202,3.426c7.83-2.226,9.379-8.863,9.379-8.863
					s0.248,8.826-9.601,11.193C369.206,167.05,364.73,159.01,364.73,159.01z"/>
			</g>
			<g id="XMLID_783_">
				<g id="XMLID_5840_">
					<path style="fill:#FFA8A7;" d="M355.398,98.27c0.882,13.214,3.957,16.818,7.338,17.777c2.255,0.64,6.295,0.367,10.319-0.301
						v7.946c0,0-4.643,4.881-4.296,8.52c0.356,3.649,7.298,4.053,12.514,0.489c3.807-2.599,6.525-5.57,7.712-6.98
						c0.432-0.513,0.665-1.157,0.665-1.828v-18.698c0,0,2.204,2.341,6.107-0.339c3.893-2.671,4.231-7.655,1.848-10.476
						c-1.698-2.003-6.013-2.144-8.086,0.969c-1.163,2.285-1.323,4.58-2.627,3.63c-3.48-2.511-1.292-9.933-5.495-12.754
						c-0.009,0-4.717-3.058-6.311-3.613c-7.495-2.595-12.293-1.331-13.859-6.465C355.965,78.176,354.424,83.687,355.398,98.27z"/>
				</g>
				<g id="XMLID_5837_">
					<path id="XMLID_5838_" style="fill:#263238;" d="M370.658,95.969c-0.051,1.022,0.703,1.888,1.683,1.935
						c0.981,0.046,1.818-0.744,1.869-1.766c0.051-1.022-0.703-1.888-1.684-1.934C371.546,94.158,370.709,94.948,370.658,95.969z"/>
				</g>
				<g id="XMLID_5828_">
					<path id="XMLID_5829_" style="fill:#263238;" d="M357.681,95.505c-0.048,0.963,0.662,1.779,1.587,1.823
						c1.017,0.049,1.708-0.605,1.762-1.664c0.048-0.963-0.662-1.779-1.587-1.823C358.519,93.797,357.73,94.542,357.681,95.505z"/>
				</g>
				<g id="XMLID_5821_">
					<polygon id="XMLID_5827_" style="fill:#F28F8F;" points="365.96,93.838 365.666,104.976 359.818,103.16 					"/>
				</g>
				<g id="XMLID_5819_">
					<path id="XMLID_5820_" style="fill:#F28F8F;" d="M373.059,115.743c4.247-0.558,12.986-3.075,14.348-6.538
						c0,0-0.454,2.177-3.064,4.419c-2.61,2.243-11.284,4.769-11.284,4.769V115.743z"/>
				</g>
				<path id="XMLID_5818_" style="fill:#263238;" d="M372.046,89.95l4.161,1.82c0.477-1.194-0.068-2.569-1.217-3.072
					C373.841,88.196,372.523,88.756,372.046,89.95z"/>
				<path id="XMLID_5792_" style="fill:#B16668;" d="M375.341,104.682l-8.182,2.853c0.874,2.294,2.863,3.521,5.421,2.791
					C374.881,109.669,376.216,106.976,375.341,104.682z"/>
				<path style="fill:#F28F8F;" d="M374.338,106.835c-2.026,0-3.666,1.636-3.688,3.661c0.596,0.07,1.24,0.026,1.93-0.171
					c1.526-0.435,2.608-1.769,2.922-3.285C375.134,106.918,374.747,106.835,374.338,106.835z"/>
				<path id="XMLID_1421_" style="fill:#263238;" d="M364.338,67.628c-9.756,1.183-15.369,8.57-15.369,21.1h9.007
					c4.193,0,7.741-3.106,8.306-7.272l0,0l0.331,7.272l0,0c3.456,0,6.339-2.649,6.64-6.1l0.103-1.185l0,0
					c0.328,4.114,3.755,7.285,7.872,7.285h0.798l0.923-13.037L364.338,67.628z"/>
			</g>
		</g>
		<g id="Smiley_Face">
			<path style="fill:#27DEBF;" d="M367.81,273.557c0-33.291-20.191-71.965-45.098-86.38c-11.424-6.612-22.118-7.322-30.064-2.563
				l0,0l-19.075,11.2l5.457,11.316c-0.924,4.274-1.416,9.029-1.416,14.223c0,33.291,20.191,71.965,45.098,86.38
				c1.757,1.017,3.488,1.87,5.193,2.596l5.151,10.877l18.914-10.946l-0.007-0.015C361.657,304.799,367.81,291.924,367.81,273.557z"
				/>
			<path id="XMLID_14574_" style="fill:#27DEBF;" d="M258.031,232.413c0,33.36,20.233,72.115,45.191,86.56
				c24.959,14.446,45.192-0.888,45.192-34.248s-20.233-72.115-45.192-86.56C278.264,183.719,258.031,199.053,258.031,232.413z"/>
			<path style="opacity:0.1;" d="M367.3,282.179c-0.046,0.378-0.093,0.754-0.145,1.126c-0.107,0.78-0.222,1.55-0.354,2.301
				c-0.216,1.243-0.466,2.445-0.757,3.604c-0.175,0.776-0.383,1.535-0.616,2.278c-0.108,0.367-0.225,0.734-0.341,1.093
				c-0.116,0.367-0.241,0.726-0.358,1.076c-0.25,0.709-0.516,1.393-0.791,2.069c-0.133,0.325-0.275,0.651-0.416,0.976
				c-0.308,0.693-0.624,1.368-0.974,2.027c-0.1,0.2-0.208,0.409-0.316,0.609c-0.524,0.968-1.082,1.894-1.673,2.77
				c-0.1,0.15-0.2,0.292-0.299,0.442c-0.075,0.1-0.15,0.209-0.225,0.309c-1.473,2.061-3.138,3.83-4.969,5.281
				c-0.141,0.117-0.283,0.225-0.424,0.334c-0.266,0.209-0.533,0.4-0.799,0.584c-0.324,0.225-0.649,0.442-0.982,0.651
				c-0.291,0.184-0.599,0.367-0.899,0.534l0.008,0.017l-18.56,10.738c7.715-4.797,13.034-14.484,14.557-27.992
				c0.299-2.62,0.449-5.382,0.449-8.285c0-14.676-3.92-30.404-10.437-44.638l19.359-11.205c6.534,14.242,10.47,29.987,10.47,44.679
				c0,2.886-0.169,5.625-0.467,8.232l0.009-0.005C367.335,281.918,367.316,282.047,367.3,282.179z"/>
			<path style="opacity:0.1;" d="M367.35,281.785c-0.15,1.31-0.333,2.586-0.549,3.821c-0.216,1.243-0.466,2.445-0.757,3.604
				c-0.191,0.776-0.4,1.535-0.616,2.278c-0.108,0.367-0.225,0.734-0.341,1.093c-0.116,0.367-0.241,0.726-0.358,1.076
				c-0.25,0.709-0.516,1.393-0.791,2.069c-0.133,0.325-0.275,0.651-0.416,0.976c-0.308,0.693-0.624,1.368-0.974,2.027
				c-0.1,0.2-0.208,0.409-0.316,0.609c-0.524,0.968-1.082,1.894-1.673,2.77c-0.166,0.259-0.341,0.509-0.524,0.751
				c-1.473,2.061-3.138,3.83-4.969,5.281c-0.141,0.117-0.283,0.225-0.424,0.334c-0.266,0.209-0.533,0.4-0.799,0.584
				c-0.324,0.225-0.649,0.442-0.982,0.651c-0.291,0.184-0.599,0.367-0.899,0.534l0.008,0.017l-18.56,10.738
				c7.715-4.797,13.034-14.484,14.557-27.992L367.35,281.785z"/>
			<path style="opacity:0.4;fill:#FFFFFF;" d="M357.338,228.879l-19.359,11.205c-8.282-18.114-20.783-33.833-34.757-41.918
				c-11.311-6.55-21.656-6.983-29.58-2.386l19.01-11.164c7.94-4.764,18.635-4.055,30.062,2.562
				C336.622,195.23,349.065,210.857,357.338,228.879z"/>
			<g id="XMLID_293_">
				<g id="XMLID_838_">
					<path id="XMLID_839_" style="fill:#37474F;" d="M334.314,275.92c0,9.294-2.421,16.812-6.495,21.666
						c-5.669,6.808-14.468,8.465-24.33,2.723c-9.92-5.742-18.719-17.641-24.387-30.96c-4.076-9.59-6.496-19.89-6.496-29.184
						L334.314,275.92z"/>
					<path id="XMLID_14620_" style="fill:#F28F8F;" d="M327.819,297.586c-5.669,6.808-14.468,8.465-24.33,2.723
						c-9.92-5.742-18.719-17.641-24.387-30.96c6.319-4.558,14.94-4.617,24.387,0.829C312.879,275.624,321.5,285.628,327.819,297.586
						z"/>
				</g>
			</g>
			<g id="XMLID_934_">
				<g id="XMLID_935_">
					<path id="XMLID_962_" style="fill:#37474F;" d="M315.904,243.271c0,4.762,2.501,10.069,5.586,11.855
						c3.085,1.786,5.586-0.627,5.586-5.389c0-4.762-2.501-10.069-5.586-11.855C318.405,236.097,315.904,238.509,315.904,243.271z"/>
					<path id="XMLID_940_" style="fill:#37474F;" d="M280.533,222.799c0,4.762,2.501,10.069,5.586,11.855
						c3.085,1.785,5.586-0.627,5.586-5.389c0-4.762-2.501-10.069-5.586-11.855C283.034,215.625,280.533,218.038,280.533,222.799z"/>
				</g>
			</g>
		</g>
		<path style="fill:#FFA8A7;" d="M339.812,202.759c-1.837-0.106-3.662,0.186-5.463,0.518c-3.717,0.685-7.294,1.158-10.953-0.203
			c-2.113-0.786-4.605-2.505-4.997-4.945c-0.379-2.36,2.269-3.232,3.926-4.116c2.277-1.215,4.613-2.335,7.061-3.162
			c4.252-1.436,8.389-1.676,12.733-0.649c2.172,0.513,5.081,1.21,7.221,0.197c1.452-0.687,2.865-1.515,4.294-2.253
			c3.723-1.923,7.445-3.846,11.168-5.769c5.128-2.649,10.256-5.298,15.384-7.948l7.083-30.506c0,0,1.646-12.531,8.617-20.582
			c5.296,0.475,10.458,2.298,11.648,5.573c1.19,3.275,0.36,7.768-1.11,14.603c-1.47,6.835-9.104,29.031-12.072,36.921
			c-1.362,3.622-2.035,5.146-6.822,7.234c-7.113,3.102-14.243,6.167-21.386,9.202c-3.702,1.573-7.406,3.139-11.12,4.683
			c-2.342,0.974-4.705,2.09-7.276,2.211C345.064,203.893,342.476,202.913,339.812,202.759z"/>
	</g>
</g>
<g id="Character_1_1_">
	<g id="Character_1">
		<g id="Boy_arm_1_">
			<path id="XMLID_5841_" style="fill:#FFA8A7;" d="M144.173,134.639c0,0,19.772,12.237,21.539,13.222
				c1.766,0.985,5.396,4.467,9.114-0.121c2.98-3.677,23.354-35.001,23.354-35.001l-10.795-5.203l-18.979,23.29l-28.604-20.351
				L144.173,134.639z"/>
			<g>
				<path id="XMLID_5839_" style="fill:#37474F;" d="M144.604,112.323c6.424,5.048,17.358,13.212,17.358,13.212
					c-0.962,6.111-3.57,11.739-8.323,16.501l-11.161-6.882L128.63,107.08C128.63,107.08,135.892,105.477,144.604,112.323z"/>
			</g>
		</g>
		<g id="Smiley_Face_1_">
			<path style="fill:#27DEBF;" d="M153.478,184.107c0-33.589,20.422-72.608,45.613-87.152c11.554-6.671,22.37-7.387,30.408-2.585
				l0,0l19.293,11.3l-5.519,11.417c0.935,4.312,1.432,9.11,1.432,14.351c0,33.589-20.422,72.608-45.613,87.152
				c-1.778,1.026-3.528,1.887-5.253,2.619l-5.21,10.974l-19.13-11.044l0.007-0.015C159.702,215.629,153.478,202.639,153.478,184.107
				z"/>
			<path id="XMLID_1158_" style="fill:#27DEBF;" d="M264.512,142.596c0,33.658-20.464,72.759-45.708,87.333
				c-25.244,14.575-45.708-0.896-45.708-34.554s20.464-72.759,45.708-87.333C244.048,93.467,264.512,108.937,264.512,142.596z"/>
			<path style="opacity:0.1;" d="M153.995,192.807c0.046,0.382,0.094,0.76,0.147,1.136c0.108,0.787,0.224,1.564,0.358,2.322
				c0.219,1.254,0.471,2.466,0.766,3.637c0.177,0.783,0.387,1.549,0.623,2.298c0.11,0.37,0.227,0.741,0.345,1.103
				c0.118,0.37,0.244,0.732,0.362,1.086c0.253,0.715,0.522,1.406,0.8,2.088c0.135,0.328,0.278,0.657,0.421,0.985
				c0.312,0.699,0.631,1.381,0.985,2.046c0.101,0.202,0.21,0.413,0.32,0.615c0.53,0.976,1.094,1.911,1.692,2.795
				c0.101,0.152,0.202,0.295,0.303,0.446c0.076,0.101,0.152,0.21,0.227,0.312c1.49,2.079,3.174,3.864,5.026,5.329
				c0.143,0.118,0.286,0.227,0.429,0.337c0.269,0.21,0.539,0.404,0.808,0.589c0.328,0.227,0.657,0.446,0.993,0.657
				c0.295,0.185,0.606,0.37,0.909,0.539l-0.008,0.017l18.772,10.834c-7.804-4.84-13.183-14.614-14.723-28.242
				c-0.303-2.643-0.455-5.43-0.455-8.359c0-14.807,3.965-30.675,10.556-45.036l-19.58-11.305
				c-6.608,14.37-10.59,30.254-10.59,45.079c0,2.912,0.171,5.675,0.472,8.306l-0.009-0.005
				C153.959,192.543,153.979,192.673,153.995,192.807z"/>
			<path style="opacity:0.1;" d="M153.943,192.408c0.152,1.322,0.337,2.61,0.556,3.856c0.219,1.254,0.471,2.466,0.766,3.637
				c0.194,0.783,0.404,1.549,0.623,2.298c0.11,0.37,0.227,0.741,0.345,1.103c0.118,0.37,0.244,0.732,0.362,1.086
				c0.253,0.715,0.522,1.406,0.8,2.088c0.135,0.328,0.278,0.657,0.421,0.985c0.312,0.699,0.631,1.381,0.985,2.046
				c0.101,0.202,0.21,0.413,0.32,0.615c0.53,0.976,1.094,1.911,1.692,2.795c0.168,0.261,0.345,0.513,0.53,0.758
				c1.49,2.079,3.174,3.864,5.026,5.329c0.143,0.118,0.286,0.227,0.429,0.337c0.269,0.21,0.539,0.404,0.808,0.589
				c0.328,0.227,0.657,0.446,0.993,0.657c0.295,0.185,0.606,0.37,0.909,0.539l-0.008,0.017l18.772,10.834
				c-7.804-4.84-13.183-14.614-14.723-28.242L153.943,192.408z"/>
			<path style="opacity:0.4;fill:#FFFFFF;" d="M164.07,139.03l19.58,11.305c8.376-18.276,21.02-34.135,35.154-42.292
				c11.44-6.608,21.904-7.046,29.918-2.408l-19.227-11.263c-8.031-4.807-18.848-4.091-30.406,2.584
				C185.023,105.08,172.438,120.847,164.07,139.03z"/>
			<g id="XMLID_300_">
				<g id="XMLID_466_">
					<path id="XMLID_755_" style="fill:#37474F;" d="M205.978,153.551c0,4.804-2.53,10.159-5.65,11.961
						c-3.12,1.802-5.65-0.633-5.65-5.437c0-4.804,2.53-10.159,5.65-11.961C203.449,146.313,205.978,148.747,205.978,153.551z"/>
					<path id="XMLID_467_" style="fill:#37474F;" d="M241.753,132.896c0,4.804-2.529,10.159-5.65,11.961
						c-3.12,1.801-5.65-0.633-5.65-5.437s2.53-10.159,5.65-11.961C239.223,125.658,241.753,128.092,241.753,132.896z"/>
				</g>
			</g>
			<g id="XMLID_1140_">
				<g id="XMLID_1167_">
					<path id="XMLID_1168_" style="fill:#37474F;" d="M208.111,209.779c-2.357,0-4.638-0.441-6.808-1.325
						c-6.419-2.618-11.35-9.054-13.884-18.124c-0.437-1.558,0.473-3.175,2.031-3.61c1.558-0.441,3.175,0.475,3.61,2.031
						c2.038,7.288,5.751,12.359,10.458,14.279c4.018,1.644,8.801,0.976,13.822-1.922c12.006-6.933,22.923-25.086,27.164-45.167
						c0.334-1.584,1.898-2.59,3.471-2.262c1.583,0.334,2.595,1.888,2.262,3.471c-4.636,21.951-16.4,41.197-29.967,49.031
						C216.124,208.574,212.015,209.779,208.111,209.779z"/>
				</g>
			</g>
			<g>
				<path style="fill:#37474F;" d="M183.873,192.694c-1.444,0-2.759-0.26-3.745-0.788c-1.107-0.592-1.523-1.968-0.932-3.074
					c0.592-1.106,1.971-1.523,3.074-0.93c0.601,0.321,2.828,0.51,5.256-0.51c1.931-0.812,4.477-2.617,5.64-6.61
					c0.35-1.204,1.615-1.895,2.816-1.545c1.204,0.35,1.896,1.611,1.545,2.816c-1.298,4.455-4.224,7.838-8.24,9.526
					C187.528,192.319,185.607,192.694,183.873,192.694z"/>
			</g>
			<g>
				<path style="fill:#37474F;" d="M242.517,158.896c-1.444,0-2.759-0.26-3.745-0.787c-1.106-0.592-1.523-1.968-0.932-3.074
					c0.592-1.106,1.966-1.523,3.074-0.932c0.601,0.322,2.831,0.511,5.258-0.51c1.931-0.812,4.476-2.617,5.639-6.61
					c0.35-1.204,1.614-1.898,2.816-1.545c1.204,0.35,1.896,1.611,1.545,2.816c-1.297,4.455-4.224,7.838-8.239,9.526
					C246.175,158.52,244.253,158.896,242.517,158.896z"/>
			</g>
		</g>
		<g id="Character_Boy">
			<g id="XMLID_5831_">
				<path style="fill:#263238;" d="M89.547,377.226c-0.357,1.416-1.109,5.427-8.566,5.427c-7.457,0-11.735-3.056-13.202-6.845
					c-1.467-3.79-0.625-6.598-0.489-9.902c0.136-3.304-2.32-5.41-2.864-7.196c-0.8-2.63,1.397-6.251,1.397-6.251L89.547,377.226z"/>
				<path style="fill:#263238;" d="M161.27,352.868c0.275,0.203,0.439,2.527-0.348,3.592c-0.542,0.733-5.546,4.366-11.721,3.609
					c-6.175-0.756-9.189-2.362-12.717-4.443c-3.61-2.129-6.103-2.437-9.777-2.425c-3.557,0.012-6.187-0.682-6.492-1.605
					c-0.534-1.62-0.572-2.658,0.208-2.635L161.27,352.868z"/>
				<path id="XMLID_5836_" style="fill:#FFA8A7;" d="M68.432,346.71c-0.127,3.839,11.608,7.17,11.322,2.288l4.046-14.169
					l-13.121-1.392L68.432,346.71z"/>
				<path id="XMLID_5835_" style="fill:#FFA8A7;" d="M123.023,337.698c3.682,2.646,7.084,2.973,11.412,0.8l2.18-23.195h-15.93
					L123.023,337.698z"/>
				<path id="XMLID_5834_" style="fill:#37474F;" d="M88.852,183.706c-3.05,27.989-8.478,84.525-8.478,84.525
					s-4.8,7.32-6.589,20.823c-2.209,16.672-4.396,51.472-4.396,51.472s5.394,3.779,12.977,1.33c0,0,18.711-51.087,22.172-67.501
					c3.021-14.325,8.369-43.746,8.369-43.746l6.689,40.037c0,0-2.627,8.311-2.16,19.513c0.322,7.711,3.943,36.886,3.943,36.886
					c1.078,3.19,11.087,2.967,14.308,0.915c0,0,5.126-49.051,5.802-57.151c0.889-10.655,2.537-87.103,2.537-87.103H88.852z"/>
				<path style="fill:#263238;" d="M112.908,230.61l3.735-17.216c0,0,8.347-1.905,14.31-6.687c0,0-2.186,5.493-11.328,9.697
					l-3.813,16.128l3.281,35.378L112.908,230.61z"/>
				<path id="XMLID_5833_" style="fill:#455A64;" d="M79.753,348.998c0,0,0.421-1.48,0.422-1.478
					c0.49,0.488,0.413,0.907,0.427,2.234c0.011,1.041,0.015,2.055,0.142,3.444c0.194,2.124,0.403,2.873,0.993,5.376
					c0.962,4.087,2.05,5.722,4.924,10.772c0.682,1.198,2.331,3.189,2.813,4.48c0.482,1.291,0.635,3.655-0.892,4.558
					c-4.362,2.581-11.093,1.877-15.364-0.131c-3.286-1.545-5.343-4.681-5.364-8.312c-0.006-1.042,0.216-2.074,0.259-3.115
					c0.097-2.377-0.744-4.693-1.767-6.84c-0.594-1.246-1.258-2.476-1.578-3.819c-0.574-2.412,0.565-4.849,1.509-7.016
					c0.815-1.872,1.767-4.368,2.404-4.082c-0.035,0.238-0.251,1.641-0.251,1.641c0.663,1.012,2.743,2.238,5.228,2.723
					C75.264,349.746,79.575,350.232,79.753,348.998z"/>
				<path id="XMLID_5832_" style="fill:#455A64;" d="M134.89,333.661c0.57,0.015,1.149,0.448,2.158,1.922
					c1.263,1.846,2.369,3.015,5.274,5.058c3.757,2.642,9.687,5.306,15.786,7.587c3.324,1.243,3.955,3.642,2.857,5.793
					c-1.721,1.721-7.582,5.74-17.212,2.806c-5.975-1.82-8.076-4.886-12.344-5.427c-3.018-0.383-8.257,0.446-11.34-2.049
					c-0.971-2.328-0.193-4.672,0.116-7.912c0.302-3.156,1.346-8.407,2.371-8.204l0.179,1.712c0.821,3.746,9.439,4.114,11.877,1.666
					L134.89,333.661z"/>
			</g>
			<path id="XMLID_5830_" style="fill:#27DEBF;" d="M110.297,105.947c-8.18,0-14.112,0.454-19.401,1.589
				c-4.134,0.887-5.443,7.836-5.716,12.46c-0.891,15.051,5.786,43.019,5.786,43.019l-3.094,25.95
				c7.015,7.502,38.382,11.417,56.302,0.421c0,0,0.482-51.143,0-59.766c-0.848-15.173-7.35-22.443-12.947-22.872
				C131.226,106.749,118.477,105.947,110.297,105.947z"/>
			<g id="XMLID_1425_">
				<g id="XMLID_1486_">
					<path style="fill:#37474F;" d="M102.826,59.906c0,0-4.287,0.597-5.859,3.828c-1.367,2.81-0.872,9.595,0.95,16.988
						c1.822,7.394,3.539,11.848,4.61,13.894c1.071,2.046,3.273,2.621,3.273,2.621l-0.214-8.773l-0.317-6.113
						c0,0,3.924-5.358,4.356-9.75c0.555-5.652-0.635-7.965-0.635-7.965L102.826,59.906z"/>
					<path id="XMLID_1489_" style="fill:#37474F;" d="M109.748,68.395c0.029,9.048,7.388,16.358,16.436,16.329
						c9.048-0.029,16.359-7.388,16.329-16.436c-0.029-9.048-7.388-16.359-16.435-16.329
						C117.03,51.989,109.719,59.348,109.748,68.395z"/>
					<path id="XMLID_1488_" style="fill:#FFA8A7;" d="M105.499,81.376c-1.474,1.279-2.674-2.031-3.915-3.32
						c-1.241-1.29-5.283-3.045-7.283,1.205c-2.038,4.331,1.852,10.214,4.873,11.615c4.427,2.053,6.411-2.41,6.411-2.41l0.471,18.453
						c7.569,11.475,25.17,9.146,17.829,0.722l-0.035-6.012c0,0,4.965,0.737,7.384,0.355c4.026-0.636,6.13-3.673,7.338-8.036
						c1.94-7.009,1.891-17.672-0.804-31.28c-4.509-3.488-19.317-4.027-28.779,1.971C109.682,76.705,106.974,80.097,105.499,81.376z"
						/>
					<path style="fill:#263238;" d="M140.846,51.911c-0.123-0.233-0.327-0.446-0.586-0.452c-0.204-0.004-0.385,0.121-0.551,0.24
						c-0.594,0.43-1.911,1.535-3.586,2.415c0.334-1.607,0.351-3.278,0.062-4.894c-0.178-0.993-0.459-3.291-1.688-3.536
						c-0.732-0.146-1.369,0.465-1.914,0.975c-4.923,4.607-11.349,2.476-17.281,2.665c-4.959,0.158-10.945,2.177-13.184,7
						c-1.024,2.206-1.201,4.532,0.825,6.057c1.729,1.302,3.944,1.89,6.046,2.256c9.881,1.72,23.184,5.106,30.489-4.106
						c1.075-1.356,1.82-2.828,1.992-4.556c0.145-1.461,0.012-2.701-0.595-4.005C140.865,51.949,140.856,51.93,140.846,51.911z"/>
					<path id="XMLID_1487_" style="fill:#F28F8F;" d="M123.851,101.626c0,0-8.997-1.782-12.146-3.443
						c-2.107-1.111-3.847-3.044-4.359-4.285c0,0,0.598,2.666,2.485,5.063c2.308,2.931,14.027,5.057,14.027,5.057L123.851,101.626z"
						/>
				</g>
				<g id="XMLID_1426_">
					<path id="XMLID_1483_" style="fill:#263238;" d="M121.519,79.21c0.003,1.034-0.801,1.872-1.796,1.873
						c-0.995,0.001-1.804-0.837-1.808-1.871c-0.003-1.034,0.8-1.872,1.796-1.873C120.706,77.338,121.515,78.176,121.519,79.21z"/>
					<path id="XMLID_1482_" style="fill:#263238;" d="M119.586,72.413l-3.848,2.14c-0.572-1.105-0.174-2.481,0.888-3.072
						C117.689,70.891,119.014,71.308,119.586,72.413z"/>
					<path id="XMLID_1481_" style="fill:#B16668;" d="M120.558,88.905l9.203,3.42c-0.901,2.637-3.692,4.01-6.234,3.066
						C120.986,94.447,119.657,91.543,120.558,88.905z"/>
					<path id="XMLID_1480_" style="fill:#263238;" d="M137.568,73.855l-3.523-2.696c0.714-1.009,2.081-1.223,3.054-0.479
						C138.072,71.425,138.282,72.846,137.568,73.855z"/>
					<path id="XMLID_1470_" style="fill:#263238;" d="M136.502,78.648c0.003,1.034-0.801,1.872-1.796,1.872
						c-0.995,0-1.804-0.837-1.808-1.871c-0.003-1.034,0.801-1.872,1.796-1.873C135.689,76.776,136.498,77.614,136.502,78.648z"/>
					<polygon id="XMLID_1431_" style="fill:#F28F8F;" points="127.317,76.969 127.944,87.802 133.595,85.856 					"/>
				</g>
				<path style="fill:#F28F8F;" d="M123.527,95.391c0.882,0.327,1.79,0.36,2.642,0.174c-0.116-2.279-2.022-4.064-4.316-4.002
					c-0.504,0.014-0.978,0.13-1.422,0.304C120.824,93.445,121.939,94.801,123.527,95.391z"/>
			</g>
			<g id="XMLID_1422_">
				<g id="XMLID_1427_">
					<g id="XMLID_1428_">
						<path id="XMLID_1429_" style="fill:#FFA8A7;" d="M99.524,179.738c-4.428-1.484-6.163-2.361-8.274-9.046
							c-5.62-17.794-10.701-32.461-11.779-41.381c-2.084-17.245,4.848-18.819,10.082-20.7l7.201,17.491l10.592,38.126
							c8.521,3.834,22.473,6.668,32.455,9.768c1.398,0.434,5.229,0.787,6.686,0.646c3.482-0.338,5.624-0.749,7.568-0.407
							c-0.196,1.424-0.27,2.775-0.375,4.048c0,0,4.798,0.066,10.154-0.932c7.259-1.353,9.858,1.057,3.893,8.354
							c-3.371,4.124-9.987,5.718-19.64,4.695c-3.939-0.418-8.286-1.349-14.763-3.089
							C120.699,183.918,106.474,182.067,99.524,179.738z"/>
					</g>
				</g>
				<g id="XMLID_1423_">
					<path id="XMLID_1424_" style="fill:#37474F;" d="M90.896,107.536c-10.625,1.167-15.083,10.538-12.872,21.502
						c1.566,7.763,4.633,18.477,7.116,26.292c0,0,12.941-0.126,19.151-6.068c-2.339-7.678-2.722-9.295-4.789-16.57
						C98.719,118.086,95.699,110.999,90.896,107.536z"/>
				</g>
			</g>
			<path id="Hand" style="fill:#FFA8A7;" d="M190.803,102.744c1.176-0.976,2.508-1.991,4.025-3.064c0,0,4.309,0.404,9.553,4.561
				c3.321,2.632,13.319,2.444,11.894-2.154c-2.005-6.47-8.993-8.83-12.145-9.509C198.926,91.455,189.648,95.964,190.803,102.744z"/>
		</g>
	</g>
</g>
</svg>
