<?xml version="1.0" encoding="UTF-8"?>
<svg xmlns="http://www.w3.org/2000/svg" viewBox="0 0 500 500">
  <defs>
    <style>
      .cls-1, .cls-2, .cls-3 {
        fill: #fff;
      }

      .cls-4, .cls-5 {
        fill: #fafafa;
      }

      .cls-6 {
        fill: #37474f;
      }

      .cls-2, .cls-7 {
        opacity: .4;
      }

      .cls-8 {
        fill: #f5f5f5;
      }

      .cls-9 {
        fill: #455a64;
      }

      .cls-5 {
        stroke: #e0e0e0;
        stroke-miterlimit: 10;
      }

      .cls-10 {
        isolation: isolate;
      }

      .cls-7, .cls-11, .cls-12, .cls-13 {
        fill: #27debf;
      }

      .cls-14 {
        opacity: .2;
      }

      .cls-15 {
        fill: #f28f8f;
      }

      .cls-3 {
        opacity: .5;
      }

      .cls-16 {
        fill: #9a4a4d;
      }

      .cls-17 {
        fill: #e0e0e0;
      }

      .cls-18 {
        opacity: .35;
      }

      .cls-19, .cls-12 {
        opacity: .15;
      }

      .cls-20 {
        opacity: .3;
      }

      .cls-21, .cls-13 {
        opacity: .1;
      }

      .cls-22 {
        fill: #b16668;
      }

      .cls-23 {
        fill: #263238;
      }

      .cls-24 {
        fill: #ffa8a7;
      }
    </style>
  </defs>
  <g id="Floor">
    <g id="Floor-2" data-name="Floor">
      <ellipse class="cls-8" cx="252.63" cy="356.9" rx="240.08" ry="122.65"/>
    </g>
  </g>
  <g id="Shadow">
    <path id="Shadow-2" data-name="Shadow" class="cls-17" d="M408.64,340.16c-16.46,9.27-16.62,24.59-.37,34.21,16.25,9.62,42.78,9.91,59.25,.64,16.47-9.27,16.63-24.59,.37-34.21-16.26-9.62-42.79-9.91-59.25-.64Z"/>
    <path id="Shadow-3" data-name="Shadow" class="cls-17" d="M43.61,356c-17.72,9.98-17.89,26.47-.4,36.82,17.5,10.36,46.05,10.67,63.77,.69,17.72-9.98,17.9-26.46,.4-36.82-17.5-10.36-46.06-10.67-63.77-.69Z"/>
  </g>
  <g id="Gears">
    <g id="Gears-2" data-name="Gears">
      <path class="cls-11" d="M171.07,90.89c.07,0,.15,0,.22-.02l2.22-.34c.37-.06,.68-.26,.87-.56,.19-.3,.24-.67,.13-1.03l-1.21-4.1c-.07-.25,.06-.64,.29-.86,.24-.22,.46-.46,.66-.71,.12-.14,.32-.24,.5-.1l2.77,2.1c.32,.24,.69,.31,1.01,.19,.32-.12,.56-.4,.66-.79l.75-3.13c.15-.63-.07-1.45-.51-1.92l-2.73-2.86c-.24-.25-.46-.79-.48-1.17-.03-.71-.11-1.44-.23-2.19-.04-.24,.12-.52,.34-.59l1.75-.61c.34-.12,.62-.37,.77-.69s.17-.69,.04-1.04l-1.69-4.57c-.24-.64-.93-1.13-1.61-1.14l-2.11-.04c-.3,0-.71-.25-.87-.52-.44-.75-.92-1.48-1.41-2.15-.21-.29-.36-.85-.32-1.19l.4-3.1c.08-.63-.21-1.43-.69-1.86l-3.1-2.79c-.29-.26-.65-.36-.99-.28-.34,.08-.61,.34-.75,.71l-.9,2.4c-.03,.08-.08,.13-.14,.16-.07,.03-.16,.02-.25-.02-.46-.22-.92-.41-1.38-.56-.34-.11-.76-.46-.88-.75l-1.8-4.05c-.28-.64-1.04-1.05-1.73-.94l-2.22,.34c-.37,.06-.68,.26-.87,.56-.19,.3-.24,.67-.13,1.03l1.21,4.1c.07,.25-.06,.64-.29,.86-.23,.21-.46,.45-.66,.71-.12,.14-.32,.24-.5,.1l-2.77-2.1c-.32-.24-.68-.31-1.01-.19-.32,.12-.56,.4-.66,.79l-.75,3.13c-.15,.63,.07,1.45,.52,1.92l2.72,2.86c.24,.25,.46,.79,.48,1.17,.03,.72,.11,1.45,.23,2.19,.04,.24-.12,.52-.34,.59l-1.75,.61c-.34,.12-.62,.37-.77,.69-.15,.33-.17,.69-.04,1.04l1.69,4.57c.24,.64,.93,1.13,1.61,1.14l2.11,.04c.3,0,.71,.25,.87,.52,.44,.75,.92,1.47,1.41,2.15,.21,.29,.36,.85,.32,1.19l-.4,3.1c-.08,.63,.21,1.43,.69,1.86l3.1,2.79c.29,.26,.65,.37,.99,.28,.34-.08,.61-.34,.75-.71l.9-2.4c.03-.08,.08-.13,.14-.16,.07-.03,.16-.02,.25,.02,.46,.22,.92,.41,1.38,.56,.34,.11,.76,.46,.88,.75l1.79,4.05c.25,.57,.88,.96,1.51,.96Zm3.49-8.76c-.4,0-.79,.18-1.08,.54-.18,.22-.36,.42-.56,.6-.51,.47-.75,1.25-.57,1.86l1.21,4.1c.03,.08,.02,.16-.02,.22-.04,.06-.1,.1-.19,.11l-2.22,.34c-.25,.04-.57-.14-.68-.37l-1.8-4.05c-.27-.62-.95-1.11-1.48-1.28-.41-.13-.83-.31-1.25-.51-.34-.16-.71-.18-1.04-.05-.32,.13-.57,.39-.7,.73l-.9,2.4c-.02,.07-.05,.09-.06,.1,0,0-.04-.01-.09-.06l-3.1-2.79c-.23-.21-.41-.69-.37-1l.4-3.1c.08-.58-.14-1.4-.5-1.89-.48-.65-.94-1.35-1.36-2.07-.33-.56-1.07-1-1.7-1.01l-2.11-.04c-.28,0-.61-.24-.71-.5l-1.69-4.57c-.03-.09-.03-.19,.01-.27,.04-.09,.11-.15,.2-.18l1.75-.61c.67-.23,1.1-.97,.98-1.68-.11-.71-.19-1.41-.22-2.09-.03-.61-.35-1.38-.75-1.8l-2.72-2.86c-.21-.23-.34-.7-.27-1.01h0s.75-3.13,.75-3.13c.01-.05,.03-.08,.04-.09,0,0,.04,.02,.08,.05l2.77,2.1c.58,.44,1.38,.32,1.86-.27,.17-.22,.36-.42,.56-.6,.51-.47,.75-1.25,.57-1.86l-1.21-4.1c-.02-.08-.02-.16,.02-.22,.04-.06,.1-.1,.19-.11l2.22-.34c.25-.04,.57,.14,.68,.37l1.8,4.05c.27,.62,.95,1.11,1.48,1.28,.41,.13,.84,.31,1.25,.51,.34,.17,.71,.18,1.04,.05,.32-.13,.57-.39,.7-.73l.9-2.4c.02-.07,.05-.09,.06-.1,0,0,.04,.01,.09,.06l3.1,2.79c.24,.21,.41,.69,.37,1l-.4,3.1c-.08,.59,.14,1.4,.5,1.89,.48,.65,.93,1.35,1.36,2.07,.33,.56,1.06,.99,1.7,1.01l2.11,.04c.28,0,.61,.24,.71,.5l1.69,4.57c.03,.09,.03,.19-.01,.27-.04,.09-.11,.15-.2,.18l-1.75,.61c-.66,.23-1.1,.97-.99,1.67,.11,.71,.19,1.42,.22,2.09,.03,.61,.35,1.38,.75,1.8l2.73,2.86c.21,.23,.34,.71,.27,1.01l-.75,3.13c-.01,.05-.03,.08-.04,.09,0,0-.04-.02-.08-.05l-2.77-2.1c-.24-.18-.51-.27-.79-.27Zm-6.95-2.68c.4,0,.79-.06,1.16-.17,1.38-.43,2.37-1.62,2.79-3.36,.92-3.84-1.15-9.5-4.63-12.63-1.94-1.74-4.02-2.44-5.72-1.92-1.38,.43-2.37,1.62-2.79,3.36-.92,3.84,1.15,9.5,4.63,12.63h0c1.52,1.36,3.12,2.09,4.56,2.09Zm-5.24-17.27c1.19,0,2.56,.64,3.89,1.84,3.24,2.91,5.18,8.15,4.33,11.67-.34,1.41-1.07,2.33-2.12,2.65-1.36,.42-3.1-.2-4.77-1.71-3.24-2.91-5.18-8.15-4.33-11.67,.34-1.41,1.07-2.33,2.12-2.65,.28-.09,.57-.13,.88-.13Z"/>
      <path class="cls-11" d="M138.77,79.32c.05,0,.1,0,.15-.01l1.46-.23c.26-.04,.49-.19,.63-.4,.14-.21,.17-.48,.1-.74l-.8-2.69c-.04-.14,.04-.36,.17-.48,.16-.14,.3-.3,.44-.47,.04-.05,.14-.12,.22-.05l1.82,1.38c.23,.17,.5,.22,.73,.14,.24-.08,.41-.29,.48-.57l.5-2.06c.1-.43-.05-1.01-.36-1.33l-1.79-1.88c-.14-.15-.28-.49-.29-.72-.02-.47-.07-.96-.15-1.45-.02-.12,.06-.27,.17-.3l1.15-.4c.24-.09,.44-.26,.55-.49,.11-.23,.12-.5,.03-.74l-1.11-3c-.17-.45-.65-.79-1.13-.8l-1.39-.02c-.17,0-.42-.15-.51-.31-.29-.49-.6-.97-.93-1.42-.13-.18-.22-.52-.2-.73l.26-2.04c.06-.44-.15-.99-.48-1.29l-2.04-1.83c-.21-.19-.47-.26-.72-.2-.25,.06-.44,.25-.54,.51l-.59,1.58c-.08,.07-.11,.06-.15,.05-.31-.15-.62-.27-.92-.37-.2-.07-.46-.28-.53-.45l-1.18-2.66c-.2-.45-.72-.74-1.22-.66l-1.46,.23c-.26,.04-.49,.19-.62,.4-.14,.21-.17,.48-.1,.74l.8,2.69c.04,.14-.04,.36-.17,.48-.16,.14-.3,.3-.44,.47-.04,.05-.13,.12-.22,.05l-1.82-1.38c-.23-.17-.5-.22-.73-.14-.24,.08-.41,.29-.48,.57l-.5,2.06c-.11,.43,.05,1.01,.36,1.33l1.79,1.88c.14,.15,.28,.49,.29,.72,.02,.47,.07,.96,.15,1.45,.02,.12-.06,.27-.17,.3l-1.15,.4c-.25,.09-.44,.26-.55,.5-.11,.23-.12,.5-.03,.74l1.11,3c.16,.45,.65,.79,1.13,.8l1.39,.02c.17,0,.42,.15,.51,.31,.29,.49,.6,.97,.93,1.42,.13,.18,.22,.52,.2,.73l-.26,2.04c-.06,.44,.15,.99,.48,1.29l2.04,1.83c.21,.19,.48,.26,.72,.2,.25-.06,.44-.25,.54-.51l.59-1.58c.08-.07,.11-.06,.15-.05,.3,.15,.61,.27,.92,.37,.2,.07,.46,.28,.53,.45l1.18,2.66c.18,.4,.62,.68,1.06,.68Zm2.29-5.91c-.28,0-.57,.13-.77,.38-.11,.14-.23,.27-.36,.39-.36,.33-.52,.87-.4,1.3l.8,2.69-.08,.12-1.46,.23c-.14,.02-.31-.08-.36-.2l-1.18-2.66c-.19-.42-.65-.77-1.02-.89-.27-.09-.54-.2-.81-.33-.24-.12-.51-.13-.75-.04-.23,.09-.41,.28-.5,.52l-.59,1.58-2.02-1.84c-.13-.12-.24-.41-.22-.59l.26-2.04c.05-.4-.1-.96-.34-1.3-.31-.43-.61-.89-.89-1.36-.23-.39-.74-.69-1.19-.7l-1.39-.02c-.15,0-.34-.14-.39-.28l-1.11-3c-.02-.05,0-.09,0-.12,0-.02,.04-.06,.09-.08l1.15-.4c.47-.17,.78-.69,.7-1.19-.07-.46-.12-.92-.14-1.36-.02-.42-.24-.95-.51-1.23l-1.79-1.88c-.12-.13-.2-.42-.16-.59h0s.5-2.06,.5-2.06l1.78,1.4c.42,.32,.99,.23,1.33-.19,.11-.14,.23-.27,.36-.39,.36-.33,.52-.87,.4-1.3l-.8-2.69v-.52s.08,.4,.08,.4l1.46-.23c.14-.02,.31,.08,.36,.2l1.18,2.66c.19,.42,.65,.77,1.02,.89,.27,.09,.54,.2,.82,.33,.24,.12,.51,.13,.75,.03,.23-.09,.41-.28,.5-.52l.59-1.58,2.02,1.84c.13,.12,.24,.41,.22,.59l-.26,2.04c-.05,.4,.1,.96,.34,1.3,.31,.43,.61,.89,.89,1.36,.23,.39,.74,.69,1.18,.7l1.39,.02c.15,0,.34,.14,.39,.28l1.11,3c.02,.05,0,.1,0,.12-.01,.03-.04,.06-.09,.08l-1.15,.4c-.47,.17-.78,.69-.7,1.19,.08,.46,.12,.92,.14,1.36,.02,.42,.24,.94,.51,1.23l1.79,1.88c.12,.13,.2,.42,.16,.59l-.5,2.06-1.78-1.4c-.17-.13-.37-.19-.56-.19Zm-4.57-1.61c.27,0,.54-.04,.79-.12,.93-.29,1.6-1.09,1.88-2.26,.61-2.55-.76-6.3-3.07-8.38-1.29-1.16-2.69-1.63-3.83-1.27-.93,.29-1.6,1.09-1.88,2.26-.61,2.55,.76,6.3,3.07,8.38h0c1.01,.91,2.08,1.39,3.05,1.39Zm-3.44-11.35c.76,0,1.64,.41,2.5,1.19,2.11,1.9,3.38,5.3,2.83,7.59-.22,.9-.68,1.48-1.34,1.69-.87,.27-1.98-.13-3.06-1.11h0c-2.11-1.9-3.38-5.3-2.82-7.59,.22-.9,.68-1.48,1.34-1.69,.18-.05,.36-.08,.56-.08Z"/>
    </g>
  </g>
  <g id="Character_2" data-name="Character 2">
    <g id="Character">
      <g>
        <g>
          <path class="cls-23" d="M406.94,353.48c-.19,0-.47,1.87,.54,2.66,1.17,.92,4.59,2.42,9.11,1.89,4.52-.53,6.97-1.81,8.78-3.19s4.34-3.33,6.39-3.74c1.9-.38,3.96-1.17,4.57-1.7,.61-.54,.52-2.91,.52-2.91l-29.91,6.99Z"/>
          <path class="cls-6" d="M435.05,337.33s.57,0,.68,.56c.14,.66,.29,2.56,.59,3.64,.42,1.5,.69,4.56,.44,5.78-.25,1.22-3.35,2.07-5.32,2.75-2.02,.7-4.36,2.15-6.41,3.69-2.12,1.6-6.59,3.26-9.54,3.24-3.49-.02-7.41-1.05-8.31-2.52-1.11-1.82-.24-2.88,4.93-5.06,.98-.41,4.42-2.27,5.59-2.94,3.17-1.82,6.31-4.35,7.77-7.57,.17-.38,.35-.79,.74-.98,.3-.15,.67-.13,1-.08,.86,.11,1.7,.34,2.49,.68,.69,.3,1.68,.65,1.66,1.46,0,.28-.09,.56-.19,.82-.06,.17-.11,.39,.05,.48,.15,.09,.35-.01,.48-.12,.54-.44,.94-1.01,1.39-1.52,.24-.28,.51-.54,.82-.76,.28-.2,.64-.3,.89-.52,.31-.29,.24-.64,.25-1.02Z"/>
          <path class="cls-9" d="M425.03,353.75c.9-.68,1.86-1.33,2.82-1.92h0s-6.08,3.36-8.53,1.84c-1.58-.98-.83-2.18-.79-2.56,.04-.38-3.21-2.36-4.75-2.52,0,0-1.74,.71-1.97,.8-5.17,2.18-5.74,3.26-4.63,5.08,.9,1.47,3.74,2.62,8.25,2.62,2.95,0,7.48-1.74,9.6-3.34Z"/>
        </g>
        <g>
          <path class="cls-23" d="M452.61,360.74c-.13,2.8,.14,4.69,1.05,6.43,.91,1.73,2.9,2.43,5.04,2.15,2.13-.29,4.94-1.32,5.8-3.67,.86-2.35,.92-4.01,.74-6.63l-12.63,1.73Z"/>
          <path class="cls-6" d="M463.12,341.33c.85,.14,.69,3.9,.77,7.69,.08,4.06,1.22,5.84,1.33,9.18,.12,3.81-.28,5.47-1.98,7.61-1.7,2.14-7.09,3.9-9.26,.41-1.77-2.84-1.53-5.79-.93-9.53,.62-3.86,1.1-6.58,1.25-9.54,.14-2.83,.23-5.58,1.01-5.82,.01,.42,0,.95,.02,1.36,.01,.32-.07,1.85,.41,1.91,.08-.36,.11-.69,.13-1.06,.01-.32,.08-.67,.34-.89,.26-.22,.64-.27,.99-.3,.86-.07,1.72-.13,2.59-.12,.43,0,.86,.02,1.29,.07,.35,.04,.75,.1,1.07,.24,.19,.09,.37,.23,.42,.42,.04,.14,.01,.29,0,.43-.03,.26-.02,.52,.02,.78,.02,.11,.09,.26,.21,.24,.1-.01,.15-.12,.16-.21,.05-.45,.03-.79,.06-1.32,.02-.24,0-.58,.03-.83,.02-.24,.05-.48,.06-.72Z"/>
          <path class="cls-9" d="M465.14,357.11c.02,.55,.13,4.19-1.02,4.74-1.24,.59-2.05-2.26-2.05-2.26,0,0-2.55-1.22-6.06-.15-.14,.84-.95,2.79-2,2.29-1.04-.5-1.01-4.66-1.01-4.71-.56,3.58-.74,6.45,.98,9.21,2.17,3.49,7.56,1.73,9.26-.41,1.7-2.14,2.11-3.8,1.98-7.61-.01-.38-.04-.74-.08-1.09Z"/>
        </g>
        <path class="cls-11" d="M457.95,225.6c1.73,3.66,3.74,10.71,4.11,15.41,1.49,19.33,2.24,47.4,2.24,47.4,.17,2.02,1.45,6.61,2.31,15.5,1.02,10.51-1.81,45.79-1.81,45.79,0,0-6.29,3.75-11.17-.52,0,0-5.68-48.94-7-59.38-1.15-9.12-4.37-28.84-4.37-28.84l-2.47,30.16s.35,8.2,.11,13.5c-.28,6.17-3.3,36.58-3.3,36.58,0,0-8.63,2.92-12.49-1.23,0,0-.92-43.57-1.05-50.99-.26-14.56,.5-41.69,1.02-56.48l33.88-6.91Z"/>
        <path class="cls-18" d="M457.95,225.6c1.73,3.66,3.74,10.71,4.11,15.41,1.49,19.33,2.24,47.4,2.24,47.4,.17,2.02,1.45,6.61,2.31,15.5,1.02,10.51-1.81,45.79-1.81,45.79,0,0-6.29,3.75-11.17-.52,0,0-5.68-48.94-7-59.38-1.15-9.12-4.37-28.84-4.37-28.84l-2.47,30.16s.35,8.2,.11,13.5c-.28,6.17-3.3,36.58-3.3,36.58,0,0-8.63,2.92-12.49-1.23,0,0-.92-43.57-1.05-50.99-.26-14.56,.5-41.69,1.02-56.48l33.88-6.91Z"/>
        <path class="cls-14" d="M442.25,260.96l-1.35-9.28s-7.84-1.05-11.39-4.39c0,0,2.67,4.89,9.23,5.84l1.39,8.39,.1,26.11,2.02-26.67Z"/>
      </g>
      <g>
        <g>
          <path class="cls-22" d="M418.23,228.29l5.72,6.36s4.67-5.84,4.5-5.84-5.39-8.56-5.39-8.56l-4.82,8.04Z"/>
          <path class="cls-9" d="M432.34,182.41c-7.64,2.17-7.73,1.66-12.57,8.1-3.36,4.47-10.06,12.75-12.02,16.16-2.21,3.84-2.52,5.4-.79,8.28,1.65,2.74,11.26,13.79,11.26,13.79,2.3-1.8,4.84-3.47,6.13-6.71l-6.13-10.24,12.68-13.06,1.43-16.32Z"/>
        </g>
        <g>
          <g>
            <g>
              <path class="cls-23" d="M453.29,150.14s.18,.03,.46,.1c-.19-.99,.24-1.98,1.13-2.39,1.07-.49,2.39,.05,2.94,1.21l-3.21,1.47c.85,.34,1.9,.97,2.44,2.08,.88,1.81-.28,5.66-1.45,10.41-1.17,4.76-1.81,6.81-2.59,8.81-.54,1.38-1.51,1.43-1.51,1.43v-4.74s.2-3.93,.2-3.93c0,0-2.52-3.45-2.8-6.27-.36-3.64,.41-5.12,.41-5.12l3.96-3.04Z"/>
              <path class="cls-23" d="M435.84,146.06c4.42,.01,7.99,3.61,7.97,8.03-.01,4.42-3.61,7.99-8.03,7.97-4.42-.01-7.99-3.61-7.97-8.03,.01-4.42,3.61-7.99,8.03-7.97Z"/>
            </g>
            <path class="cls-22" d="M451.57,163.94c.95,.82,1.72-1.31,2.52-2.14,.8-.83,3.4-1.96,4.68,.77,1.31,2.79-1.19,6.57-3.13,7.47-2.85,1.32-4.12-1.55-4.12-1.55v11.87c-3,5.4-8.77,4.34-11.83,5.1-.56-2.19-1.05-3.22-.74-4.43l.02-3.87s-2.36,.46-3.92,.21c-2.59-.41-3.98-2.54-4.75-5.35-1.25-4.51-1.51-12.08,.23-20.83,2.9-2.24,12.71-1.88,18.8,1.98-.45,7.76,1.3,9.94,2.24,10.77Z"/>
            <path class="cls-23" d="M440.75,162.08c0,.67,.54,1.22,1.22,1.22s1.22-.54,1.22-1.22-.54-1.22-1.22-1.22-1.22,.54-1.22,1.22Z"/>
            <path class="cls-23" d="M431.55,161.62c0,.67,.54,1.22,1.22,1.22s1.22-.54,1.22-1.22-.54-1.22-1.22-1.22-1.22,.54-1.22,1.22Z"/>
            <path class="cls-16" d="M438.97,177.17s5.79-1.15,7.81-2.21c1.36-.71,2.47-1.96,2.8-2.76,0,0-.38,1.71-1.6,3.26-1.48,1.89-9.02,3.25-9.02,3.25v-1.54Z"/>
            <path class="cls-23" d="M428.56,145.01c.01-.1,.02-.2,.04-.29,.03-.18,.06-.37,.19-.5,.39-.41,1.17,.61,1.45,.85,.27,.23,.54,.45,.83,.65,.09,.06,.77,.4,.78,.46-.1-.96-.25-1.95,0-2.92,.11-.64,.3-2.12,1.09-2.27,.47-.09,.88,.3,1.23,.63,3.17,2.96,7.3,1.59,11.11,1.71,3.19,.1,7.04,1.4,8.48,4.5,.66,1.42,.77,2.91-.53,3.9-.84,.63-1.66,.6-2.13,1.62-.12,.25-.84,3.27-.41,3.24-1.63,.11-3.18-.84-3.55-2.43-.08-.33-.26-.93-.33-1.27-.11-.5-.52-.64-.91-.55-.97,.21-1.6,.6-2.51,.86-2.48,.68-5.51,.98-8.03,.47-1.89-.38-3.72-1.29-5.05-2.71-1.45-1.55-1.95-3.86-1.72-5.94Z"/>
          </g>
          <g>
            <path class="cls-23" d="M442.42,158.65l2.37,1.54c.42-.68,.22-1.58-.43-2.01-.66-.43-1.52-.22-1.94,.47Z"/>
            <path class="cls-16" d="M440.68,169.6l-3.91,1.02c.26,1.12,1.34,1.8,2.43,1.52,1.08-.28,1.75-1.41,1.49-2.53Z"/>
            <path class="cls-15" d="M438.46,172.18c.12-1.05,1-1.86,2.08-1.86,.06,0,.11,.01,.17,.02-.1,.84-.68,1.58-1.52,1.8-.25,.06-.49,.07-.73,.04Z"/>
            <path class="cls-23" d="M430.55,159.45l2.59-1.2c-.31-.73-1.13-1.06-1.85-.73-.72,.33-1.05,1.19-.74,1.93Z"/>
            <polygon class="cls-16" points="437.87 160.41 437.18 168.2 433.14 166.76 437.87 160.41"/>
          </g>
        </g>
        <g>
          <path class="cls-6" d="M456.64,180.37c4.59,2.01,8.65,3.83,10.65,5.1,0,0-1.29,13.26-3.47,21.78-1.59,6.21-2.47,27.7-2.47,27.7,0,0-9.19,4.39-22.38,3.58-8.95-.55-15.13-3.47-15.13-3.47,0,0-.5-13.51,.46-30.41,.71-12.44,1.18-18.98,4.2-20.81,1.8-1.09,9.51-2.92,9.51-2.92,0,0,.53,3.01,1.67,4.56,2.71-1.36,16.96-5.1,16.96-5.1Z"/>
          <path class="cls-23" d="M437.29,238.38c-.64-.06-1.26-.14-1.86-.22-.79-8.94-1.8-30.18,4.25-52.69,0,0-5.09,26.55-2.39,52.91Z"/>
          <path class="cls-9" d="M439.68,185.47c-2.29-1.51-4.16,2.31-4.55,1.72s2.05-8.98,3.83-9.46l-.02,3.31s.26,3.03,.74,4.43Z"/>
          <path class="cls-9" d="M451.51,175.35v.93c-.18,.89-1.92,2.94-6.32,4.91-4.48,2.01-5.51,4.27-5.51,4.27,0,0,1.05-.59,2.77,.44,1.82,1.09,3.69,3.91,4.65,3.89,.92-.02,3.89-3.3,6.39-5.92,2.09-2.2,3.16-3.51,3.16-3.51,0,0-3.42-5-5.13-5.02Z"/>
        </g>
        <g>
          <g>
            <path class="cls-11" d="M451.08,240.36v29.88c0,.27,.08,.46,.24,.56l1.35,.78c.07,.03,.14,.04,.21,.04,.12,0,.25-.03,.39-.11l33.87-19.56c.48-.28,.87-.95,.87-1.52v-29.84c0-.27-.1-.46-.25-.56,0,0-.02-.02-.06-.03h0l-1.27-.74c-.07-.03-.14-.06-.23-.06-.12,0-.24,.04-.39,.12l-17.76,10.23-2.1,1.22s-2.58,1.49-3.14,1.8c-.04,.03-.07,.04-.08,.05l-10.78,6.22c-.06,.03-.12,.08-.18,.13-.17,.14-.32,.32-.44,.53-.16,.27-.25,.58-.25,.86Z"/>
            <path class="cls-3" d="M451.34,239.5l1.31,.76h0c.04-.07,.08-.14,.13-.19,.09-.13,.2-.24,.31-.34,.06-.05,.12-.09,.18-.13l10.78-6.21c.27-.16,2.7-1.55,3.19-1.83l1.29-.74,18.6-10.72c.21-.13,.41-.15,.57-.08l-1.27-.74c-.07-.03-.14-.06-.23-.06-.12,0-.25,.03-.39,.12l-17.76,10.23-2.1,1.22s-2.58,1.49-3.14,1.8c-.04,.03-.07,.04-.08,.05l-10.78,6.22c-.06,.03-.12,.08-.18,.13-.17,.14-.32,.32-.44,.53Z"/>
            <path class="cls-11" d="M488,220.59l.02,29.85c0,.56-.39,1.24-.88,1.52l-33.97,19.61c-.34,.2-.77-.05-.77-.45v-30c0-.28,.1-.59,.26-.86,.16-.28,.38-.51,.62-.65l10.78-6.22c.28-.16,2.71-1.55,3.19-1.83l19.89-11.47c.22-.13,.42-.15,.57-.08l.04,.02s.01,0,.02,0h0c.15,.1,.24,.29,.24,.56Z"/>
            <path class="cls-11" d="M452.65,240.26h0c.04-.07,.08-.14,.13-.19-.05,.06-.09,.13-.14,.19Z"/>
            <path class="cls-14" d="M452.71,271.6s-.03,0-.04-.01l-1.36-.79c-.15-.1-.24-.29-.24-.56v-29.89c0-.28,.1-.59,.26-.86l1.31,.76h0c-.16,.28-.26,.59-.26,.86v30c0,.22,.14,.4,.32,.48Z"/>
          </g>
          <g>
            <path class="cls-22" d="M479.46,222.78c-7.26-29.67-10.99-38.77-19.81-38.65-2.57,3.08,.14,12.65,1.84,17.3,0,0,7.8,19.05,9.25,25.85,1.27,5.98,2.71,13.49,2.62,18.63-.02,.91-.39,1.77-1.01,2.44-1.66,1.79-1.66,3.24-2.74,5.23-.84,1.55-1.76,2.14-1.5,2.48,.34,.45,1.4,1.04,2.72,.2,.67-.42,1.1-.91,2.06-1.98,0,0-.24,3.72-1.61,6.82l-1.84,1.06s.56,1.92,5.02,.64c5.03-1.44,6.83-2.07,7.37-10.6,.15-2.46,.39-6.34,.09-9.44-.76-8.09-1.3-15.21-2.47-19.98Z"/>
            <path class="cls-9" d="M459.43,181.6s8.9,2.07,11.03,5.33c2.46,3.77,3.4,8.63,7.53,23.35,4.14,14.72,4.51,25.62,4.72,33.9,0,0-5.18,2.42-9.97-.34,0,0-2.12-12.8-4-19.62-1.88-6.81-7.9-21.57-7.9-21.57,0,0-4.76-10.8-1.41-21.05Z"/>
          </g>
          <path class="cls-6" d="M450.46,264.98c-.41,.25-.58-.51-.68-1.64l-.04-2.07s-1.58,1.42-1.97-3.38c-.43-5.28,1.94-6.25,1.94-6.25,0,0,.01-.88,.01-2.61s.37-2.16,.77-2.45l.59-.3v18.33s-.21,.12-.62,.37Z"/>
          <path class="cls-6" d="M452.39,262.37c0-1.57,.15-2.5,1.16-3.12,1.15-.71,1.65-.95,1.65-.95l.3-9.73s-1.67,1.12-2.24,1.45c-.57,.33-.9-1.65-.87-2.23l-1.36,.62-.16,15.02,1.52-1.06Z"/>
          <path class="cls-6" d="M455.68,261.43s-.53,.32-1.19,.72c-.66,.4-.95-1.62-.65-4.51l-.28-6.42c.3-2.89,.35-5.53,1-5.93l1.19-.72-.07,16.86Z"/>
        </g>
      </g>
    </g>
  </g>
  <g id="Screen_1" data-name="Screen 1">
    <g id="Screen_2" data-name="Screen 2">
      <g id="Screen_2-2" data-name="Screen 2">
        <g>
          <path class="cls-7" d="M189.76,56.19c0-1.31,.47-2.21,1.23-2.62h0s3.15-1.81,3.15-1.81h0c.73-.44,1.75-.4,2.88,.25l184.52,106.52c2.22,1.28,4.02,4.4,4.02,6.96v183.36c0,1.29-.46,2.19-1.2,2.61h0s-3.22,1.84-3.22,1.84h0c-.73,.42-1.73,.36-2.84-.28l-184.52-106.52c-2.22-1.28-4.02-4.4-4.02-6.96V56.19Z"/>
          <path class="cls-7" d="M189.76,56.19V239.55c0,2.56,1.79,5.68,4.02,6.96l184.52,106.52c1.97,1.14,3.61,.44,3.95-1.53-.23-.07-.46-.19-.71-.32l-184.52-106.52c-2.21-1.28-4.02-4.39-4.02-6.96V54.34c0-.3,.02-.56,.07-.81-1.88-.7-3.31,.37-3.31,2.66Z"/>
          <path class="cls-1" d="M193.78,53.87l43.61,25.66,43.7,25.51,43.78,25.37,21.89,12.68,21.93,12.61,5.48,3.15,2.74,1.58c.43,.26,.96,.54,1.32,.78,.38,.26,.75,.57,1.08,.92,1.31,1.4,2.24,3.33,2.3,5.19v6.32s.04,25.3,.04,25.3l.15,50.6c.08,33.73,.31,67.46,.52,101.19,.21-33.73,.44-67.46,.52-101.19l.15-50.6,.03-25.3v-6.33c-.08-2.37-1.13-4.48-2.67-6.15-.39-.41-.83-.79-1.32-1.13-.52-.34-.93-.55-1.4-.83l-2.74-1.59-5.47-3.17-21.89-12.68-21.93-12.62-43.86-25.23-43.94-25.09-44.03-24.94Z"/>
        </g>
      </g>
      <g id="Chart">
        <path class="cls-19" d="M363.75,264.38l-70.84-40.9c-1.41-.82-2.56-.15-2.56,1.48v50.32c0,1.63,1.14,3.61,2.56,4.43l70.84,40.9c1.41,.82,2.56,.15,2.56-1.48v-50.32c0-1.63-1.14-3.61-2.56-4.43Z"/>
        <g>
          <path class="cls-4" d="M362.26,274.36c.09,0,.17-.05,.22-.13,.07-.12,.03-.28-.09-.35l-67.67-39.07c-.12-.07-.28-.03-.35,.09-.07,.12-.03,.28,.09,.35l67.67,39.07s.08,.03,.13,.03Z"/>
          <path class="cls-4" d="M362.26,283.42c.09,0,.17-.05,.22-.13,.07-.12,.03-.28-.09-.35l-67.67-39.07c-.12-.07-.28-.03-.35,.09-.07,.12-.03,.28,.09,.35l67.67,39.07s.08,.03,.13,.03Z"/>
          <path class="cls-4" d="M362.26,292.48c.09,0,.17-.05,.22-.13,.07-.12,.03-.28-.09-.35l-67.67-39.07c-.12-.07-.28-.03-.35,.09-.07,.12-.03,.28,.09,.35l67.67,39.07s.08,.03,.13,.03Z"/>
          <path class="cls-4" d="M362.26,301.54c.09,0,.17-.05,.22-.13,.07-.12,.03-.28-.09-.35l-67.67-39.07c-.12-.07-.28-.03-.35,.09-.07,.12-.03,.28,.09,.35l67.67,39.07s.08,.03,.13,.03Z"/>
          <path class="cls-4" d="M362.26,310.61c.09,0,.18-.05,.23-.14,.07-.13,.03-.29-.1-.37l-67.67-39.07c-.13-.07-.29-.03-.37,.1-.07,.13-.03,.29,.1,.37l67.67,39.07s.09,.04,.13,.04Z"/>
          <path class="cls-20" d="M294.59,256.84l3.94-3.8c1.45-1.4,3.66-.69,5.5,1.75l.12,.16c1.96,2.6,4.32,3.22,5.74,1.49l1.68-2.04c1.72-2.09,4.74-.71,6.75,3.09l1.45,2.74c1.46,2.76,3.52,4.34,5.24,4.02h0c2-.37,4.42,1.83,5.83,5.3l2.26,5.55c1.27,3.12,3.38,5.26,5.28,5.34l2.02,.09c1.13,.05,2.37,.83,3.47,2.2l2.16,2.68c2.11,2.61,4.56,2.94,5.85,.77l.1-.16c1.9-3.16,5.97-.84,7.89,4.5l2.39,6.66v13.08l-67.67-39.07v-14.35Z"/>
          <path class="cls-9" d="M362.26,297.44s.06,0,.09-.02c.13-.05,.2-.19,.15-.33l-2.39-6.66c-1.24-3.44-3.48-5.89-5.59-6.09-1.11-.12-2.1,.44-2.76,1.54l-.1,.16c-.48,.8-1.13,1.24-1.89,1.3-1.14,.07-2.4-.69-3.54-2.1l-2.16-2.68c-1.15-1.42-2.45-2.24-3.65-2.29l-2.02-.09c-1.79-.08-3.82-2.16-5.05-5.18l-2.26-5.55c-1.47-3.61-3.97-5.86-6.12-5.46-1.6,.3-3.56-1.23-4.96-3.89l-1.45-2.74c-1.3-2.45-3.07-4.01-4.73-4.18-.95-.1-1.79,.27-2.44,1.05l-1.68,2.04c-.48,.58-1.07,.88-1.75,.88-.02,0-.03,0-.05,0-1.13-.02-2.42-.89-3.53-2.36l-.12-.16c-1.17-1.55-2.5-2.46-3.77-2.56-.79-.06-1.53,.21-2.12,.77l-3.94,3.8c-.1,.1-.1,.26,0,.36,.1,.1,.26,.1,.36,0l3.94-3.8c.49-.47,1.06-.68,1.72-.63,1.11,.09,2.32,.92,3.4,2.36l.12,.16c1.22,1.63,2.62,2.54,3.93,2.57,.89,0,1.62-.35,2.21-1.07l1.68-2.04c.53-.65,1.21-.95,1.99-.87,1.49,.15,3.11,1.61,4.33,3.91l1.45,2.74c1.51,2.86,3.67,4.5,5.51,4.15,1.85-.34,4.2,1.82,5.55,5.15l2.26,5.55c1.32,3.25,3.48,5.41,5.5,5.5l2.02,.09c1.06,.05,2.22,.79,3.28,2.1l2.16,2.68c1.26,1.57,2.69,2.38,3.97,2.29,.94-.06,1.73-.6,2.3-1.54l.1-.16c.56-.94,1.35-1.39,2.27-1.3,1.91,.19,3.99,2.5,5.16,5.75l2.39,6.66c.04,.1,.14,.17,.24,.17Z"/>
          <path class="cls-11" d="M300.95,275.2c.14,0,.26-.12,.26-.26v-1.54c0-.14-.12-.26-.26-.26s-.26,.12-.26,.26v1.54c0,.14,.12,.26,.26,.26Zm0-3.08c.14,0,.26-.12,.26-.26v-1.54c0-.14-.12-.26-.26-.26s-.26,.12-.26,.26v1.54c0,.14,.12,.26,.26,.26Zm0-3.08c.14,0,.26-.12,.26-.26v-1.54c0-.14-.12-.26-.26-.26s-.26,.12-.26,.26v1.54c0,.14,.12,.26,.26,.26Zm0-3.08c.14,0,.26-.12,.26-.26v-1.54c0-.14-.12-.26-.26-.26s-.26,.12-.26,.26v1.54c0,.14,.12,.26,.26,.26Zm0-3.08c.14,0,.26-.12,.26-.26v-1.54c0-.14-.12-.26-.26-.26s-.26,.12-.26,.26v1.54c0,.14,.12,.26,.26,.26Zm0-3.08c.14,0,.26-.12,.26-.26v-1.54c0-.14-.12-.26-.26-.26s-.26,.12-.26,.26v1.54c0,.14,.12,.26,.26,.26Zm0-3.08c.14,0,.26-.12,.26-.26v-1.54c0-.14-.12-.26-.26-.26s-.26,.12-.26,.26v1.54c0,.14,.12,.26,.26,.26Zm0-3.08c.14,0,.26-.12,.26-.26v-.95c0-.14-.12-.26-.26-.26s-.26,.12-.26,.26v.95c0,.14,.12,.26,.26,.26Z"/>
          <path class="cls-11" d="M328.42,291.06c.14,0,.26-.12,.26-.26v-1.54c0-.14-.12-.26-.26-.26s-.26,.12-.26,.26v1.54c0,.14,.12,.26,.26,.26Zm0-3.08c.14,0,.26-.12,.26-.26v-1.54c0-.14-.12-.26-.26-.26s-.26,.12-.26,.26v1.54c0,.14,.12,.26,.26,.26Zm0-3.08c.14,0,.26-.12,.26-.26v-1.54c0-.14-.12-.26-.26-.26s-.26,.12-.26,.26v1.54c0,.14,.12,.26,.26,.26Zm0-3.08c.14,0,.26-.12,.26-.26v-1.54c0-.14-.12-.26-.26-.26s-.26,.12-.26,.26v1.54c0,.14,.12,.26,.26,.26Zm0-3.08c.14,0,.26-.12,.26-.26v-1.54c0-.14-.12-.26-.26-.26s-.26,.12-.26,.26v1.54c0,.14,.12,.26,.26,.26Zm0-3.08c.14,0,.26-.12,.26-.26v-1.54c0-.14-.12-.26-.26-.26s-.26,.12-.26,.26v1.54c0,.14,.12,.26,.26,.26Zm0-3.08c.14,0,.26-.12,.26-.26v-1.54c0-.14-.12-.26-.26-.26s-.26,.12-.26,.26v1.54c0,.14,.12,.26,.26,.26Zm0-3.08c.14,0,.26-.12,.26-.26v-1.54c0-.14-.12-.26-.26-.26s-.26,.12-.26,.26v1.54c0,.14,.12,.26,.26,.26Zm0-3.08c.14,0,.26-.12,.26-.26v-.43c0-.14-.12-.26-.26-.26s-.26,.12-.26,.26v.43c0,.14,.12,.26,.26,.26Z"/>
          <path class="cls-11" d="M342.16,298.99c.14,0,.26-.12,.26-.26v-1.54c0-.14-.12-.26-.26-.26s-.26,.12-.26,.26v1.54c0,.14,.12,.26,.26,.26Zm0-3.08c.14,0,.26-.12,.26-.26v-1.54c0-.14-.12-.26-.26-.26s-.26,.12-.26,.26v1.54c0,.14,.12,.26,.26,.26Zm0-3.08c.14,0,.26-.12,.26-.26v-1.54c0-.14-.12-.26-.26-.26s-.26,.12-.26,.26v1.54c0,.14,.12,.26,.26,.26Zm0-3.08c.14,0,.26-.12,.26-.26v-1.54c0-.14-.12-.26-.26-.26s-.26,.12-.26,.26v1.54c0,.14,.12,.26,.26,.26Zm0-3.08c.14,0,.26-.12,.26-.26v-1.54c0-.14-.12-.26-.26-.26s-.26,.12-.26,.26v1.54c0,.14,.12,.26,.26,.26Zm0-3.08c.14,0,.26-.12,.26-.26v-1.54c0-.14-.12-.26-.26-.26s-.26,.12-.26,.26v1.54c0,.14,.12,.26,.26,.26Z"/>
          <path class="cls-11" d="M355.9,306.92c.14,0,.26-.12,.26-.26v-1.54c0-.14-.12-.26-.26-.26s-.26,.12-.26,.26v1.54c0,.14,.12,.26,.26,.26Zm0-3.08c.14,0,.26-.12,.26-.26v-1.54c0-.14-.12-.26-.26-.26s-.26,.12-.26,.26v1.54c0,.14,.12,.26,.26,.26Zm0-3.08c.14,0,.26-.12,.26-.26v-1.54c0-.14-.12-.26-.26-.26s-.26,.12-.26,.26v1.54c0,.14,.12,.26,.26,.26Zm0-3.08c.14,0,.26-.12,.26-.26v-1.54c0-.14-.12-.26-.26-.26s-.26,.12-.26,.26v1.54c0,.14,.12,.26,.26,.26Zm0-3.08c.14,0,.26-.12,.26-.26v-1.54c0-.14-.12-.26-.26-.26s-.26,.12-.26,.26v1.54c0,.14,.12,.26,.26,.26Zm0-3.08c.14,0,.26-.12,.26-.26v-1.54c0-.14-.12-.26-.26-.26s-.26,.12-.26,.26v1.54c0,.14,.12,.26,.26,.26Zm0-3.08c.14,0,.26-.12,.26-.26v-1.54c0-.14-.12-.26-.26-.26s-.26,.12-.26,.26v1.54c0,.14,.12,.26,.26,.26Zm0-3.09c.14,0,.26-.1,.26-.24v-.02c0-.14-.12-.26-.26-.26s-.26,.12-.26,.26,.12,.27,.26,.27Z"/>
          <path class="cls-11" d="M314.69,283.13c.14,0,.26-.12,.26-.26v-1.54c0-.14-.12-.26-.26-.26s-.26,.12-.26,.26v1.54c0,.14,.12,.26,.26,.26Zm0-3.08c.14,0,.26-.12,.26-.26v-1.54c0-.14-.12-.26-.26-.26s-.26,.12-.26,.26v1.54c0,.14,.12,.26,.26,.26Zm0-3.08c.14,0,.26-.12,.26-.26v-1.54c0-.14-.12-.26-.26-.26s-.26,.12-.26,.26v1.54c0,.14,.12,.26,.26,.26Zm0-3.08c.14,0,.26-.12,.26-.26v-1.54c0-.14-.12-.26-.26-.26s-.26,.12-.26,.26v1.54c0,.14,.12,.26,.26,.26Zm0-3.08c.14,0,.26-.12,.26-.26v-1.54c0-.14-.12-.26-.26-.26s-.26,.12-.26,.26v1.54c0,.14,.12,.26,.26,.26Zm0-3.08c.14,0,.26-.12,.26-.26v-1.54c0-.14-.12-.26-.26-.26s-.26,.12-.26,.26v1.54c0,.14,.12,.26,.26,.26Zm0-3.08c.14,0,.26-.12,.26-.26v-1.54c0-.14-.12-.26-.26-.26s-.26,.12-.26,.26v1.54c0,.14,.12,.26,.26,.26Zm0-3.08c.14,0,.26-.12,.26-.26v-1.54c0-.14-.12-.26-.26-.26s-.26,.12-.26,.26v1.54c0,.14,.12,.26,.26,.26Zm0-3.08c.14,0,.26-.12,.26-.26v-1.54c0-.14-.12-.26-.26-.26s-.26,.12-.26,.26v1.54c0,.14,.12,.26,.26,.26Zm0-3.08c.14,0,.26-.12,.26-.26v-1.51c0-.14-.12-.26-.26-.26s-.26,.12-.26,.26v1.51c0,.14,.12,.26,.26,.26Z"/>
          <path class="cls-17" d="M300.33,252.07c0-.53,.28-.8,.62-.6s.62,.79,.62,1.32-.28,.8-.62,.6-.62-.79-.62-1.32Z"/>
          <path class="cls-17" d="M314.06,253.28c0-.53,.28-.8,.62-.6s.62,.79,.62,1.32-.28,.8-.62,.6-.62-.79-.62-1.32Z"/>
          <path class="cls-17" d="M327.8,265.38c0-.53,.28-.8,.62-.6,.34,.2,.62,.79,.62,1.32s-.28,.8-.62,.6-.62-.79-.62-1.32Z"/>
          <path class="cls-17" d="M341.54,280.8c0-.53,.28-.8,.62-.6s.62,.79,.62,1.32-.28,.8-.62,.6-.62-.79-.62-1.32Z"/>
          <path class="cls-17" d="M355.28,284.72c0-.53,.28-.8,.62-.6,.34,.2,.62,.79,.62,1.32s-.28,.8-.62,.6c-.34-.2-.62-.79-.62-1.32Z"/>
        </g>
      </g>
      <g id="Check_List" data-name="Check List">
        <g>
          <g>
            <path class="cls-11" d="M217.42,106.92c.09,0,.18-.02,.26-.07,.16-.09,.26-.27,.26-.46v-9.23c0-.19-.1-.36-.26-.46l-8-4.62c-.16-.09-.37-.09-.53,0-.16,.09-.26,.27-.26,.46v9.23c0,.19,.1,.36,.26,.46l8,4.62c.08,.05,.17,.07,.26,.07Zm-.53-9.46v8.01l-6.94-4.01v-8.01l6.94,4.01Z"/>
            <path id="Check" class="cls-9" d="M218.34,95.77c-.38-.37-.71-.33-.92-.08l-3.67,4.49-1.47-3.05c-.23-.53-.53-.66-.88-.52-.43,.17-.34,.54-.21,.83l1.89,4.02c.18,.39,.26,.52,.52,.57,.38,.07,.61-.25,.73-.4l4.03-4.93c.21-.25,.34-.57-.04-.94Z"/>
          </g>
          <path class="cls-9" d="M224.22,104.31l37.98,21.94c.71,.41,1.28,1.36,1.28,2.13s-.57,1.06-1.28,.65l-37.98-21.94c-.71-.41-1.28-1.36-1.28-2.13s.57-1.06,1.28-.65Z"/>
        </g>
        <g>
          <g>
            <path class="cls-11" d="M217.42,120.77c.09,0,.18-.02,.26-.07,.16-.09,.26-.27,.26-.46v-9.23c0-.19-.1-.36-.26-.46l-8-4.62c-.16-.09-.37-.09-.53,0-.16,.09-.26,.27-.26,.46v9.23c0,.19,.1,.36,.26,.46l8,4.62c.08,.05,.17,.07,.26,.07Zm-.53-9.46v8.01l-6.94-4.01v-8.01l6.94,4.01Z"/>
            <path id="Check-2" data-name="Check" class="cls-9" d="M218.34,109.67c-.38-.37-.71-.33-.92-.08l-3.67,4.49-1.47-3.05c-.23-.53-.53-.66-.88-.52-.43,.17-.34,.54-.21,.83l1.89,4.02c.18,.39,.26,.52,.52,.57,.38,.07,.61-.25,.73-.4l4.03-4.93c.21-.25,.34-.57-.04-.94Z"/>
          </g>
          <path class="cls-9" d="M224.22,118.12l37.98,21.94c.71,.41,1.28,1.36,1.28,2.13s-.57,1.06-1.28,.65l-37.98-21.94c-.71-.41-1.28-1.36-1.28-2.13s.57-1.06,1.28-.65Z"/>
        </g>
      </g>
      <g id="Chart-2" data-name="Chart">
        <g class="cls-19">
          <path d="M289.1,125.19l51.89,29.96c2.03,1.17,3.68,4.03,3.68,6.37v47.29c0,2.35-1.65,3.3-3.68,2.12l-51.89-29.96c-2.03-1.17-3.68-4.03-3.68-6.37v-47.29c0-2.35,1.65-3.3,3.68-2.12Z"/>
        </g>
        <g>
          <g>
            <path class="cls-9" d="M308.42,161.66s-.09-.03-.13,0c-.04,.03-.05,.08-.05,.15v.66c0,.07,.02,.14,.05,.21,.04,.07,.08,.12,.13,.15l2.18,1.26-1.62,4.04s-.02,.07-.02,.1c0,.07,.02,.14,.06,.21,.04,.07,.08,.12,.13,.15l.58,.33c.06,.03,.1,.04,.13,0,.03-.03,.05-.07,.07-.11l1.61-4.03c.04-.09,.06-.15,.08-.21,.02-.06,.03-.11,.03-.17v-.61c0-.07-.02-.14-.05-.21-.04-.07-.08-.12-.13-.15l-3.05-1.76Z"/>
            <path class="cls-9" d="M315.86,167.37c-.07-.34-.17-.67-.32-.98-.14-.31-.33-.6-.57-.86-.23-.26-.52-.49-.86-.68-.34-.2-.63-.3-.86-.3-.23,0-.42,.07-.57,.21-.15,.14-.25,.35-.32,.63-.07,.27-.11,.59-.12,.94,0,.23-.01,.49-.01,.79s0,.57,.01,.81c.02,.37,.05,.72,.12,1.07,.06,.34,.17,.67,.32,.98,.15,.31,.34,.59,.57,.85,.23,.26,.52,.49,.86,.69,.34,.19,.62,.3,.86,.3,.24,.01,.43-.06,.57-.2,.15-.14,.25-.34,.32-.61,.07-.27,.11-.58,.12-.93,0-.11,0-.24,0-.39v-.87c0-.14,0-.27,0-.39-.01-.37-.05-.72-.12-1.07Zm-2.69,.27c0-.28,0-.54,.01-.77,.02-.43,.1-.73,.24-.9,.14-.17,.37-.16,.69,.03,.32,.19,.56,.44,.69,.77,.14,.32,.22,.72,.24,1.17,.01,.24,.01,.5,.01,.79s0,.54-.01,.77c-.02,.43-.1,.73-.24,.89-.14,.17-.37,.15-.69-.03-.33-.19-.56-.44-.69-.77-.14-.33-.22-.72-.24-1.17-.01-.24-.01-.5-.01-.79Z"/>
            <path class="cls-9" d="M317.27,166.82c-.13,0-.23,.02-.32,.08-.09,.06-.15,.15-.2,.26-.04,.11-.07,.24-.08,.38,0,.16-.01,.32-.01,.51s0,.36,.01,.52c.01,.15,.03,.3,.08,.47,.04,.16,.11,.33,.2,.48,.08,.16,.19,.3,.32,.44,.12,.14,.27,.25,.44,.35,.17,.1,.32,.15,.45,.16,.12,0,.23-.02,.32-.08s.15-.14,.19-.26c.04-.11,.07-.24,.08-.37,.01-.15,.01-.32,.01-.51s0-.36-.01-.52c0-.15-.04-.3-.08-.47-.04-.17-.11-.33-.19-.48-.09-.16-.19-.31-.32-.45-.13-.14-.28-.26-.45-.36-.17-.1-.32-.15-.44-.16Zm-.2,6.03s-.02,.03-.02,.04c0,.02,0,.03,0,.04,0,.06,.02,.11,.05,.16,.03,.05,.07,.09,.12,.12l.42,.24c.06,.04,.11,.05,.15,.04,.03-.01,.07-.04,.1-.07l3.44-4.04s.01-.03,.02-.05c0-.01,0-.03,0-.04,0-.05-.01-.11-.04-.16-.03-.05-.07-.09-.12-.12l-.42-.24c-.07-.04-.12-.05-.15-.04-.03,0-.07,.03-.1,.07l-3.44,4.05Zm.92-3.31c-.05,.06-.14,.05-.28-.03s-.23-.17-.28-.29c-.05-.11-.08-.24-.09-.37,0-.04-.01-.1-.01-.18,0-.08,0-.16,0-.25s0-.17,0-.25c0-.08,0-.14,.01-.17,0-.12,.04-.21,.09-.26,.05-.06,.14-.05,.28,.03,.13,.08,.23,.17,.28,.29,.05,.12,.08,.24,.09,.37,0,.04,0,.1,0,.18v.5c0,.08,0,.14,0,.17,0,.12-.04,.2-.09,.26Zm2.29,2.27c-.13,0-.23,.02-.32,.08-.09,.06-.15,.14-.19,.26-.04,.11-.07,.24-.08,.38-.01,.15-.02,.32-.02,.5s0,.36,.02,.52c0,.15,.04,.3,.08,.47,.04,.16,.11,.32,.19,.48,.09,.16,.19,.31,.32,.44,.12,.14,.27,.25,.44,.35,.17,.1,.32,.15,.45,.16,.12,0,.23-.02,.32-.08,.09-.06,.15-.14,.2-.26,.04-.11,.07-.24,.08-.38,0-.16,.01-.33,.01-.51s0-.36-.01-.52c-.01-.15-.04-.3-.08-.47-.04-.16-.11-.33-.2-.48-.08-.16-.19-.31-.32-.45-.13-.14-.27-.26-.45-.36-.17-.1-.32-.15-.44-.16Zm.72,2.73c-.05,.06-.14,.05-.28-.03-.13-.08-.23-.17-.28-.29-.05-.12-.08-.24-.09-.37,0-.04,0-.1-.01-.18,0-.08,0-.17,0-.25s0-.17,0-.25c0-.08,0-.14,.01-.17,0-.12,.04-.21,.09-.26,.05-.06,.14-.05,.28,.03,.14,.08,.23,.17,.28,.29,.05,.12,.08,.24,.09,.37,0,.04,0,.1,0,.18v.5c0,.08,0,.14,0,.17,0,.12-.04,.21-.09,.26Z"/>
          </g>
          <g>
            <path class="cls-9" d="M308.56,152.42l-2.3-5.54c-2.52,.99-4.45,3.35-5.43,6.82l3.71,3.75c.73-2.56,2.15-4.3,4.01-5.03Z"/>
            <path class="cls-9" d="M315.04,153.34v-5.2c-3.28-1.89-6.31-2.23-8.78-1.26l2.3,5.54c1.82-.72,4.06-.48,6.48,.92Z"/>
            <path class="cls-9" d="M304,161.68c0-1.59,.19-3,.54-4.23l-3.71-3.75c-.47,1.67-.73,3.59-.73,5.73s.26,4.37,.73,6.58l3.71,.53c-.35-1.63-.54-3.27-.54-4.86Z"/>
            <g class="cls-20">
              <path d="M329.25,170.11c-.98-4.61-2.91-9.19-5.43-13.09-2.46-3.82-5.5-6.98-8.78-8.88v5.2c2.43,1.4,4.66,3.75,6.48,6.57,1.86,2.88,3.29,6.26,4.01,9.67,.35,1.63,.54,3.27,.54,4.86s-.19,3-.54,4.23c-.73,2.56-2.15,4.3-4.01,5.03-1.82,.72-4.06,.48-6.48-.92-2.43-1.4-4.66-3.75-6.48-6.57-1.86-2.88-3.29-6.26-4.01-9.67l-3.71-.53c.98,4.61,2.91,9.19,5.43,13.09,2.47,3.82,5.5,6.98,8.78,8.88,3.28,1.9,6.31,2.23,8.78,1.26,2.52-.99,4.45-3.35,5.43-6.82,.47-1.67,.73-3.58,.73-5.73s-.26-4.37-.73-6.58Z"/>
            </g>
          </g>
        </g>
      </g>
      <g id="Chart-3" data-name="Chart">
        <path class="cls-19" d="M359.62,165.95l25.94,14.97v7.97c-3.28-1.89-6.31-2.23-8.77-1.26-2.52,.99-4.45,3.35-5.43,6.82-.47,1.67-.73,3.59-.73,5.73s.26,4.37,.73,6.58c.98,4.61,2.91,9.19,5.43,13.09,2.46,3.81,5.49,6.97,8.77,8.87v7.97l-25.94-14.97c-2.03-1.17-3.68-4.03-3.68-6.37v-47.29c0-2.35,1.65-3.3,3.68-2.12Z"/>
        <path class="cls-19" d="M384.94,211.3c-.32-.19-.55-.44-.69-.77-.14-.32-.22-.71-.24-1.17-.01-.24-.01-.5-.01-.79s0-.54,.01-.77c.02-.43,.1-.73,.24-.9,.14-.17,.37-.15,.69,.03,.28,.16,.48,.38,.62,.65v3.81c-.14,.09-.34,.07-.62-.09Z"/>
        <path class="cls-19" d="M384.94,205.79c-.34-.2-.63-.3-.86-.3-.23,0-.42,.07-.57,.21-.15,.15-.25,.35-.32,.63-.07,.28-.11,.59-.12,.94,0,.23-.02,.49-.02,.79s0,.57,.02,.81c.01,.37,.05,.72,.12,1.07,.07,.34,.17,.67,.32,.98,.15,.31,.34,.59,.57,.86,.23,.26,.52,.49,.86,.69,.23,.14,.43,.21,.62,.25v10.82c-2.42-1.4-4.65-3.74-6.47-6.56-1.86-2.88-3.29-6.26-4.01-9.67-.35-1.63-.54-3.27-.54-4.86s.19-3,.54-4.23c.73-2.56,2.15-4.3,4.01-5.03,1.82-.72,4.05-.48,6.47,.91v12.15c-.18-.17-.38-.32-.62-.46Zm-2.68,2.38c-.06-.25-.16-.49-.28-.72-.12-.23-.27-.44-.43-.64-.17-.2-.36-.37-.57-.53l1.02-.84s.06-.06,.1-.1c.04-.04,.05-.09,.05-.16v-.66c0-.07-.02-.14-.05-.21-.04-.07-.08-.12-.13-.15l-3.05-1.76c-.05-.03-.09-.03-.13,0-.04,.03-.05,.08-.05,.14v.66c0,.07,.02,.14,.05,.21,.04,.07,.08,.12,.13,.15l1.92,1.11-.97,.8s-.07,.06-.1,.09c-.03,.04-.05,.09-.05,.16v.66c0,.07,.02,.14,.06,.21,.03,.07,.08,.12,.13,.15l.58,.33c.28,.16,.51,.35,.69,.58,.17,.22,.26,.47,.26,.75s-.09,.44-.26,.49c-.17,.05-.4,0-.69-.17-.17-.1-.31-.19-.42-.29-.12-.1-.21-.2-.29-.29-.08-.1-.14-.19-.18-.28-.04-.09-.08-.18-.11-.27-.03-.09-.06-.17-.09-.23-.03-.06-.07-.1-.12-.13l-.55-.32c-.05-.03-.1-.03-.14,0-.04,.02-.06,.07-.05,.15,.01,.21,.06,.43,.15,.69,.08,.25,.2,.5,.36,.76,.16,.25,.36,.5,.6,.74,.24,.24,.52,.45,.84,.64,.27,.16,.52,.25,.75,.29,.23,.04,.43,.02,.6-.05,.17-.08,.3-.21,.4-.41,.09-.2,.14-.45,.14-.77,0-.27-.03-.53-.1-.78Z"/>
        <path class="cls-9" d="M381.82,210.13c-.17,.08-.37,.09-.6,.05-.23-.04-.48-.14-.75-.29-.32-.19-.61-.4-.84-.64-.24-.24-.44-.49-.6-.74-.16-.25-.28-.5-.36-.76-.08-.25-.13-.48-.15-.69,0-.08,.01-.13,.05-.15,.04-.02,.08-.02,.14,0l.55,.32s.08,.07,.12,.13c.03,.06,.06,.13,.09,.23,.03,.09,.07,.18,.11,.27,.05,.09,.11,.19,.18,.28,.08,.09,.17,.19,.29,.29,.12,.1,.26,.2,.42,.29,.28,.16,.51,.22,.69,.17,.17-.05,.26-.22,.26-.49s-.09-.53-.26-.75c-.17-.22-.4-.41-.69-.58l-.58-.33c-.05-.03-.1-.08-.13-.15-.04-.07-.06-.14-.06-.21v-.66c0-.07,.02-.12,.05-.16,.03-.04,.07-.07,.1-.09l.97-.8-1.92-1.11c-.05-.03-.09-.08-.13-.15-.04-.07-.05-.14-.05-.21v-.66c0-.07,.02-.11,.05-.14,.04-.03,.08-.03,.13,0l3.05,1.76s.09,.08,.13,.15c.03,.07,.05,.14,.05,.21v.66c0,.07-.02,.12-.05,.16-.03,.04-.07,.07-.1,.1l-1.02,.84c.21,.16,.4,.34,.57,.53,.17,.2,.31,.41,.43,.64,.12,.23,.21,.47,.28,.72,.06,.26,.1,.51,.1,.78,0,.32-.05,.58-.14,.77-.09,.2-.23,.33-.4,.41Z"/>
        <path class="cls-9" d="M384.08,211.78c-.23-.26-.42-.55-.57-.86-.15-.31-.25-.64-.32-.98-.07-.34-.11-.7-.12-1.07,0-.24-.02-.51-.02-.81s0-.56,.02-.79c.01-.35,.05-.66,.12-.94,.07-.27,.17-.48,.32-.63,.15-.14,.34-.22,.57-.21,.23,0,.52,.1,.86,.3,.23,.14,.43,.29,.62,.46v1.35c-.14-.26-.34-.49-.62-.65-.32-.19-.55-.2-.69-.03-.14,.17-.22,.46-.24,.9-.01,.23-.01,.49-.01,.77s0,.54,.01,.79c.02,.46,.1,.85,.24,1.17,.14,.32,.37,.58,.69,.77,.27,.16,.48,.18,.62,.09v1.32c-.18-.05-.38-.12-.62-.25-.34-.2-.63-.43-.86-.69Z"/>
        <path class="cls-9" d="M375.07,198.21l-3.71-3.75c.98-3.47,2.91-5.83,5.43-6.82l2.3,5.54c-1.86,.73-3.29,2.47-4.01,5.03Z"/>
        <path class="cls-9" d="M379.09,193.18l-2.3-5.54c2.46-.97,5.49-.63,8.77,1.26v5.2c-2.42-1.4-4.65-1.63-6.47-.91Z"/>
        <path class="cls-9" d="M374.53,202.45c0,1.59,.19,3.23,.54,4.86l-3.71-.54c-.47-2.21-.73-4.43-.73-6.58s.26-4.07,.73-5.73l3.71,3.75c-.35,1.23-.54,2.65-.54,4.23Z"/>
        <path class="cls-9" d="M385.56,223.54v5.2c-3.28-1.9-6.31-5.06-8.77-8.87l2.3-2.89c1.82,2.82,4.05,5.16,6.47,6.56Z"/>
        <path class="cls-9" d="M379.09,216.98l-2.3,2.89c-2.52-3.9-4.45-8.48-5.43-13.09l3.71,.54c.73,3.4,2.15,6.78,4.01,9.67Z"/>
        <path class="cls-4" d="M385.57,228.74c3.28,1.9,6.31,2.23,8.78,1.26,2.52-.99,4.45-3.35,5.43-6.82,.47-1.67,.73-3.59,.73-5.73s-.26-4.37-.73-6.58c-.98-4.61-2.91-9.19-5.43-13.09-2.47-3.82-5.5-6.98-8.78-8.88,0,0,0,0,0,0v-7.97l25.95,14.99c2.03,1.17,3.68,4.03,3.68,6.37v47.29c0,2.35-1.65,3.3-3.68,2.12l-25.95-14.99v-7.97s0,0,0,0Z"/>
        <path class="cls-17" d="M413.16,252.7c.44,0,.84-.1,1.21-.31,.86-.49,1.33-1.49,1.33-2.81v-47.29c0-2.54-1.73-5.53-3.93-6.8l-26.2-15.14v1.17l25.7,14.84c1.89,1.09,3.43,3.75,3.43,5.94v47.29c0,.95-.29,1.64-.83,1.95-.53,.31-1.28,.21-2.1-.26l-26.2-15.15v1.18s25.7,14.84,25.7,14.84c.66,.38,1.3,.57,1.89,.57Z"/>
        <path class="cls-4" d="M385.87,208.88c.01,.24,.01,.5,.01,.79s0,.54-.01,.77c-.02,.43-.1,.73-.24,.9-.02,.03-.05,.04-.08,.06v-3.81s.06,.08,.08,.12c.14,.32,.22,.71,.24,1.17Z"/>
        <path class="cls-4" d="M391.18,213.93c.01-.12,.04-.21,.09-.26,.05-.06,.14-.05,.28,.03,.14,.08,.23,.17,.28,.29,.05,.11,.08,.24,.09,.37,0,.04,0,.1,0,.18v.5c0,.08,0,.14,0,.17,0,.12-.04,.2-.09,.26-.05,.06-.14,.05-.28-.03-.13-.08-.23-.17-.28-.29-.05-.12-.08-.24-.09-.37,0-.04,0-.1-.01-.18,0-.08,0-.16,0-.25s0-.17,0-.25c0-.08,0-.14,.01-.17Z"/>
        <path class="cls-4" d="M392.05,200.67c1.86,2.88,3.29,6.26,4.01,9.67,.35,1.63,.54,3.27,.54,4.86s-.19,3-.54,4.23c-.73,2.56-2.15,4.3-4.01,5.03-1.82,.72-4.06,.48-6.48-.92,0,0,0,0,0,0v-10.82c.08,.02,.17,.05,.24,.05,.23,0,.43-.06,.57-.2,.15-.14,.25-.35,.32-.61,.07-.27,.11-.58,.12-.93,0-.12,0-.24,0-.39v-.87c0-.14,0-.27,0-.39-.01-.37-.05-.72-.12-1.07-.07-.35-.17-.67-.32-.98-.14-.31-.34-.6-.57-.86-.07-.08-.16-.15-.24-.23v-12.15s0,0,0,0c2.43,1.4,4.66,3.75,6.48,6.57Zm-1.53,13.83c0,.15,.03,.3,.08,.47,.04,.16,.11,.33,.2,.48,.09,.16,.19,.31,.32,.44,.12,.14,.27,.25,.44,.35,.17,.1,.32,.15,.45,.16,.12,0,.23-.02,.32-.08,.09-.06,.15-.14,.2-.26,.04-.11,.07-.24,.08-.38,.01-.15,.01-.32,.01-.51s0-.35-.01-.52c0-.15-.03-.3-.08-.47-.04-.16-.11-.33-.2-.48-.08-.16-.19-.31-.32-.45-.13-.14-.27-.26-.45-.36-.17-.1-.32-.15-.44-.15-.13,0-.23,.02-.32,.08-.09,.06-.15,.14-.2,.26-.04,.11-.07,.24-.08,.38,0,.16-.01,.32-.01,.51s0,.36,.01,.52Zm-2.6-.46c.03,.05,.07,.09,.12,.12l.42,.24c.06,.04,.12,.05,.15,.04,.03-.01,.07-.03,.1-.07l3.44-4.04s.01-.03,.02-.05c0-.02,0-.03,0-.04,0-.05-.01-.11-.04-.16-.03-.05-.07-.09-.12-.12l-.42-.24c-.06-.04-.11-.05-.15-.04-.04,.01-.07,.04-.1,.07l-3.44,4.04s-.01,.03-.02,.04c0,.02,0,.03,0,.04,0,.06,.01,.11,.05,.16Zm.63-6.12c-.17-.1-.32-.15-.45-.16-.12,0-.23,.02-.32,.08-.09,.06-.15,.14-.2,.26-.04,.11-.07,.24-.08,.38-.01,.15-.01,.32-.01,.51s0,.36,.01,.52c0,.15,.03,.3,.08,.47,.04,.16,.11,.33,.2,.48,.08,.16,.19,.3,.32,.44,.13,.14,.27,.25,.45,.35,.17,.1,.32,.15,.44,.16,.13,0,.23-.02,.32-.08,.09-.06,.15-.15,.19-.26,.04-.11,.07-.24,.08-.38,0-.15,.01-.32,.01-.51s0-.36-.01-.52c0-.15-.03-.3-.08-.47-.04-.16-.11-.32-.19-.48-.09-.16-.19-.31-.32-.45-.13-.14-.27-.26-.44-.36Z"/>
        <path class="cls-4" d="M388.82,210.48c-.05,.06-.14,.05-.28-.03-.13-.08-.23-.17-.28-.29-.05-.12-.08-.24-.09-.37,0-.04,0-.1,0-.18,0-.08,0-.17,0-.25s0-.17,0-.25c0-.08,0-.14,0-.17,.01-.12,.04-.2,.09-.26,.05-.06,.14-.05,.28,.03,.13,.08,.23,.17,.28,.29,.05,.12,.08,.24,.09,.37,0,.04,0,.1,0,.18v.5c0,.08,0,.14,0,.17-.01,.12-.04,.2-.09,.26Z"/>
        <path class="cls-17" d="M385.64,211.34c.14-.17,.22-.46,.24-.9,.01-.23,.01-.49,.01-.77s0-.54-.01-.79c-.02-.46-.1-.85-.24-1.17-.02-.04-.05-.08-.08-.12v-1.35c.08,.07,.17,.15,.24,.23,.23,.26,.43,.55,.57,.86,.15,.31,.25,.64,.32,.98,.07,.34,.11,.7,.12,1.07,0,.12,0,.25,0,.39v.87c0,.14,0,.27,0,.39-.01,.35-.05,.66-.12,.93-.07,.27-.17,.47-.32,.61-.14,.14-.34,.21-.57,.2-.07,0-.16-.03-.24-.05v-1.32s.05-.03,.08-.06Z"/>
        <path class="cls-17" d="M389.5,209.2c.04,.17,.07,.32,.08,.47,0,.17,.01,.34,.01,.52s0,.35-.01,.51c0,.14-.03,.26-.08,.38-.04,.11-.11,.2-.19,.26-.09,.06-.19,.08-.32,.08-.13,0-.27-.06-.44-.16-.17-.1-.32-.22-.45-.35-.12-.14-.23-.29-.32-.44-.09-.16-.15-.32-.2-.48-.04-.17-.07-.32-.08-.47-.01-.17-.01-.34-.01-.52s0-.35,.01-.51c0-.14,.03-.26,.08-.38,.04-.11,.11-.2,.2-.26,.08-.06,.19-.09,.32-.08,.13,0,.27,.06,.45,.16,.17,.1,.32,.22,.44,.36,.13,.14,.23,.29,.32,.45,.09,.16,.15,.32,.19,.48Zm-.58,.6v-.25c0-.08,0-.14,0-.18-.01-.13-.04-.25-.09-.37-.05-.12-.14-.21-.28-.29-.13-.08-.23-.09-.28-.03-.05,.06-.08,.14-.09,.26,0,.04,0,.09,0,.17,0,.08,0,.16,0,.25s0,.17,0,.25c0,.08,0,.14,0,.18,.01,.13,.04,.25,.09,.37,.05,.12,.14,.21,.28,.29,.13,.08,.23,.09,.28,.03,.05-.06,.08-.14,.09-.26,0-.03,0-.09,0-.17v-.25Z"/>
        <path class="cls-17" d="M390.59,213.09c.04-.11,.11-.2,.2-.26,.09-.06,.19-.09,.32-.08,.12,0,.27,.06,.44,.15,.17,.1,.32,.22,.45,.36,.12,.14,.23,.29,.32,.45,.09,.16,.15,.32,.2,.48,.04,.16,.07,.32,.08,.47,.01,.17,.01,.34,.01,.52s0,.35-.01,.51c0,.14-.03,.26-.08,.38-.04,.11-.11,.2-.2,.26-.08,.06-.19,.09-.32,.08-.13,0-.27-.06-.45-.16-.17-.1-.32-.22-.44-.35-.13-.14-.23-.28-.32-.44-.09-.16-.15-.32-.2-.48-.04-.16-.07-.32-.08-.47,0-.17-.01-.34-.01-.52s0-.35,.01-.51c0-.14,.03-.26,.08-.38Zm.58,1.52c0,.08,0,.14,.01,.18,.01,.13,.04,.25,.09,.37,.05,.12,.14,.21,.28,.29,.14,.08,.23,.09,.28,.03,.05-.06,.08-.14,.09-.26,0-.03,0-.09,0-.17v-.5c0-.08,0-.14,0-.18,0-.13-.04-.25-.09-.37-.05-.12-.14-.21-.28-.29-.13-.08-.23-.09-.28-.03-.05,.06-.08,.15-.09,.26,0,.03,0,.09-.01,.17,0,.08,0,.16,0,.25s0,.17,0,.25Z"/>
        <path class="cls-17" d="M387.89,213.79l3.44-4.04s.07-.06,.1-.07c.03,0,.08,0,.15,.04l.42,.24c.05,.03,.09,.07,.12,.12,.03,.05,.04,.11,.04,.16,0,.01,0,.03,0,.04,0,.02-.01,.03-.02,.05l-3.44,4.04s-.07,.06-.1,.07c-.03,.01-.08,0-.15-.04l-.42-.24s-.09-.07-.12-.12c-.03-.05-.05-.11-.05-.16,0-.01,0-.03,0-.04,0-.01,.01-.03,.02-.04Z"/>
        <polygon class="cls-11" points="385.57 194.1 385.56 194.1 385.56 188.9 385.57 188.9 385.57 194.1"/>
        <path class="cls-11" d="M396.61,215.2c0-1.59-.19-3.23-.54-4.86-.73-3.4-2.15-6.78-4.01-9.67-1.82-2.82-4.06-5.17-6.48-6.57v-5.2c3.28,1.9,6.31,5.06,8.78,8.88,2.52,3.9,4.45,8.48,5.43,13.09,.47,2.21,.73,4.43,.73,6.58s-.26,4.07-.73,5.73l-3.71-3.75c.35-1.23,.54-2.65,.54-4.23Z"/>
        <path class="cls-17" d="M396.06,219.43l3.71,3.75c-.98,3.47-2.91,5.83-5.43,6.82l-2.3-5.54c1.86-.73,3.29-2.47,4.01-5.03Z"/>
        <polygon class="cls-11" points="385.57 223.54 385.57 228.74 385.56 228.74 385.56 223.54 385.57 223.54"/>
        <path class="cls-17" d="M392.05,224.46l2.3,5.54c-2.47,.97-5.5,.63-8.78-1.26v-5.2c2.43,1.4,4.66,1.64,6.48,.92Z"/>
      </g>
      <g id="Text_Box" data-name="Text Box">
        <g class="cls-20">
          <path d="M321.63,231.87c.21,0,.4-.05,.58-.15,.39-.23,.62-.68,.62-1.25v-20.13c0-.99-.67-2.15-1.52-2.64l-29.42-16.99c-.49-.28-1-.32-1.4-.09-.39,.23-.62,.68-.62,1.25v20.13c0,.99,.67,2.15,1.52,2.64l29.42,16.99c.28,.16,.56,.24,.82,.24Zm-30.57-40.42c.08,0,.19,.03,.32,.11l29.42,16.99c.55,.32,1.03,1.15,1.03,1.79v20.13c0,.24-.07,.37-.13,.4-.06,.04-.2,.03-.41-.09l-29.42-16.99c-.55-.32-1.03-1.15-1.03-1.79v-20.13c0-.24,.07-.37,.13-.4,.02-.01,.05-.02,.09-.02Z"/>
        </g>
        <g class="cls-20">
          <path d="M318.34,213.94c.17,0,.33-.09,.43-.25,.14-.24,.06-.54-.18-.67l-23.99-13.85c-.23-.13-.54-.06-.67,.18-.14,.24-.06,.54,.18,.67l23.99,13.85c.08,.04,.16,.07,.25,.07Z"/>
          <path d="M318.34,218.58c.17,0,.33-.09,.43-.25,.14-.24,.06-.54-.18-.67l-23.99-13.85c-.23-.13-.54-.06-.67,.18-.14,.24-.06,.54,.18,.67l23.99,13.85c.08,.04,.16,.07,.25,.07Z"/>
          <path d="M318.34,223.23c.17,0,.33-.09,.43-.25,.14-.24,.06-.54-.18-.67l-23.99-13.85c-.23-.13-.54-.06-.67,.18-.14,.24-.06,.54,.18,.67l23.99,13.85c.08,.04,.16,.07,.25,.07Z"/>
        </g>
      </g>
      <g id="Text_Box-2" data-name="Text Box">
        <g class="cls-20">
          <path d="M365.6,257.26c.21,0,.4-.05,.58-.15,.39-.23,.62-.69,.62-1.25v-20.13c0-.99-.67-2.15-1.52-2.64l-29.42-16.99c-.49-.28-1-.32-1.4-.09-.39,.23-.62,.68-.62,1.25v20.13c0,.99,.67,2.15,1.52,2.64l29.42,16.99c.28,.16,.56,.24,.82,.24Zm-30.57-40.42c.08,0,.19,.03,.32,.11l29.42,16.99c.55,.32,1.03,1.15,1.03,1.79v20.13c0,.24-.07,.37-.13,.4-.06,.03-.2,.03-.41-.09l-29.42-16.99c-.55-.32-1.03-1.15-1.03-1.79v-20.13c0-.24,.07-.37,.13-.4,.02-.01,.05-.02,.09-.02Z"/>
        </g>
        <g class="cls-20">
          <path d="M362.31,239.33c.17,0,.34-.09,.43-.25,.14-.24,.06-.54-.18-.67l-23.99-13.85c-.23-.13-.54-.06-.67,.18-.14,.24-.06,.54,.18,.67l23.99,13.85c.08,.04,.16,.07,.25,.07Z"/>
          <path d="M362.31,243.97c.17,0,.34-.09,.43-.25,.14-.24,.06-.54-.18-.67l-23.99-13.85c-.23-.13-.54-.06-.67,.18-.14,.24-.06,.54,.18,.67l23.99,13.85c.08,.04,.16,.07,.25,.07Z"/>
          <path d="M362.31,248.62c.17,0,.34-.09,.43-.25,.14-.24,.06-.54-.18-.67l-23.99-13.85c-.23-.13-.54-.06-.67,.18-.14,.24-.06,.54,.18,.67l23.99,13.85c.08,.05,.16,.07,.25,.07Z"/>
        </g>
      </g>
    </g>
  </g>
  <g id="Screen_2-3" data-name="Screen 2">
    <g id="Screen_1-2" data-name="Screen 1">
      <g id="Screen_1-3" data-name="Screen 1">
        <g>
          <path class="cls-13" d="M94.45,72.64c0-1.31,.47-2.21,1.23-2.62h0s3.15-1.81,3.15-1.81h0c.73-.44,1.75-.4,2.88,.25l163.9,94.63c2.22,1.28,4.02,4.4,4.02,6.96v191.97c0,1.29-.46,2.19-1.2,2.61h0s-3.22,1.84-3.22,1.84h0c-.73,.42-1.73,.36-2.85-.28l-163.9-94.63c-2.22-1.28-4.02-4.4-4.02-6.96V72.64Z"/>
          <path class="cls-13" d="M98.47,70.32l163.9,94.63c2.22,1.28,4.02,4.4,4.02,6.96v191.97c0,2.56-1.8,3.6-4.02,2.32l-163.9-94.63c-2.22-1.28-4.02-4.4-4.02-6.96V72.64c0-2.56,1.8-3.6,4.02-2.32Z"/>
          <path class="cls-12" d="M94.45,72.64v191.97c0,2.57,1.79,5.68,4.02,6.97l163.9,94.62c1.98,1.13,3.61,.45,3.96-1.52-.23-.08-.46-.2-.71-.33l-163.91-94.62c-2.21-1.29-4.02-4.4-4.02-6.97V70.79c0-.3,.02-.56,.07-.81-1.88-.7-3.31,.37-3.31,2.66Z"/>
          <path class="cls-1" d="M98.47,70.32l41.97,24.7,42.05,24.56,42.13,24.42,21.07,12.21,10.55,6.07,5.28,3.03c1.7,.85,2.87,2.39,3.6,4.13,.36,.88,.55,1.75,.54,2.69v3.04s.01,6.09,.01,6.09l.02,12.17,.03,24.35,.14,48.7,.21,48.7,.33,48.7,.33-48.7,.21-48.7,.14-48.7,.03-24.35,.02-12.17v-6.09s.01-3.04,.01-3.04c.03-1.1-.22-2.24-.63-3.24-.4-1.02-.98-1.96-1.67-2.8-.35-.42-.75-.81-1.18-1.17-.43-.35-.95-.66-1.37-.9l-5.27-3.05-10.53-6.1-21.11-12.14-42.21-24.28-42.29-24.14-42.38-23.99Z"/>
        </g>
      </g>
      <g id="Chart-4" data-name="Chart">
        <path class="cls-4" d="M248.24,178.02l-75.69-43.7c-1.18-.68-2.13-.13-2.13,1.23v64.32c0,1.36,.95,3.01,2.13,3.69l75.69,43.7c1.18,.68,2.13,.13,2.13-1.23v-64.32c0-1.36-.95-3.01-2.13-3.69Z"/>
        <g>
          <path class="cls-9" d="M241.27,231.71c0,.07,0,.15,0,.24v.53c0,.09,0,.17,0,.24,0,.22,.03,.44,.06,.64,.03,.21,.09,.4,.17,.58,.08,.18,.18,.35,.3,.49,.12,.15,.27,.27,.45,.38,.18,.1,.33,.15,.45,.15,.12,0,.22-.06,.3-.15,.08-.09,.13-.22,.17-.39,.04-.16,.06-.35,.06-.57,0-.14,0-.3,0-.48s0-.35,0-.49c0-.22-.03-.44-.06-.65-.04-.21-.09-.41-.17-.59-.08-.18-.18-.35-.3-.5-.12-.15-.27-.28-.45-.38-.18-.1-.33-.15-.45-.14-.12,0-.22,.05-.3,.15-.08,.09-.13,.22-.17,.39-.04,.16-.06,.36-.06,.57Zm1.48,1.83c-.01,.26-.05,.45-.13,.56-.07,.11-.19,.11-.36,.01-.17-.1-.29-.24-.36-.43-.07-.19-.11-.42-.13-.7,0-.15,0-.31,0-.48s0-.33,0-.47c.01-.26,.05-.45,.13-.56,.07-.11,.19-.11,.36-.01,.17,.1,.29,.24,.36,.43,.07,.19,.11,.42,.13,.7,0,.15,0,.31,0,.48s0,.33,0,.47Z"/>
          <path class="cls-17" d="M235.76,230c.17,0,.33-.09,.43-.25,.14-.24,.06-.54-.18-.67l-57.21-33.03c-.23-.13-.54-.06-.67,.18-.14,.24-.06,.54,.18,.67l57.21,33.03c.08,.04,.16,.07,.25,.07Z"/>
          <g>
            <path class="cls-9" d="M244.19,217.39s.02-.06,.02-.1c0-.04-.02-.09-.04-.12l-.79-1.42s-.04-.07-.06-.1c-.02-.03-.04-.06-.07-.07l-.29-.16s-.05-.01-.07,0c-.02,.02-.03,.05-.03,.09v3.64s.01,.08,.03,.12c.02,.04,.04,.07,.07,.09l.3,.17s.05,.01,.07,0c.02-.02,.03-.05,.03-.09v-2.79l.52,.93s.05,.06,.07,.07c.02,0,.05,0,.07-.02l.17-.23Z"/>
            <path class="cls-9" d="M240.43,215.41c0,.07,0,.15,0,.23v.53c0,.09,0,.17,0,.24,0,.22,.03,.44,.06,.64,.04,.21,.09,.4,.17,.58,.08,.18,.18,.35,.3,.49,.12,.15,.27,.27,.45,.38,.18,.1,.33,.15,.45,.15,.12,0,.22-.06,.3-.15,.08-.09,.13-.22,.17-.39,.04-.16,.06-.35,.06-.57,0-.14,0-.3,0-.48s0-.35,0-.49c0-.22-.03-.44-.06-.65-.03-.21-.09-.41-.17-.59-.08-.18-.18-.35-.3-.5-.12-.15-.27-.28-.45-.38-.18-.1-.33-.15-.45-.14-.12,0-.22,.05-.3,.15-.08,.09-.13,.22-.17,.39-.04,.16-.06,.36-.06,.57Zm1.48,1.83c-.01,.26-.05,.45-.13,.56-.07,.11-.19,.11-.37,.01-.17-.1-.29-.24-.36-.43-.07-.19-.11-.42-.13-.7,0-.15,0-.31,0-.48s0-.33,0-.47c.01-.26,.05-.45,.13-.56,.07-.11,.19-.11,.36-.01,.17,.1,.29,.24,.37,.43,.07,.19,.11,.42,.13,.7,0,.15,0,.31,0,.48s0,.33,0,.47Z"/>
          </g>
          <path class="cls-17" d="M235.76,214.19c.17,0,.33-.09,.43-.25,.14-.24,.06-.54-.18-.67l-57.21-33.03c-.23-.13-.54-.06-.67,.18-.14,.24-.06,.54,.18,.67l57.21,33.03c.08,.04,.16,.07,.25,.07Z"/>
          <g>
            <path class="cls-9" d="M243.22,201.47c-.07-.13-.12-.25-.14-.36-.02-.11-.03-.2-.03-.28,0-.15,.03-.27,.09-.34,.06-.07,.16-.07,.3,.02,.13,.08,.23,.19,.29,.32,.06,.14,.11,.29,.13,.47,0,.05,.02,.1,.04,.13,.02,.04,.04,.06,.07,.08l.29,.17s.05,.01,.07,0c.02-.02,.03-.05,.03-.09,0-.17-.04-.35-.08-.53-.05-.18-.11-.35-.2-.51-.08-.16-.18-.31-.29-.43-.11-.13-.23-.23-.36-.3-.15-.09-.29-.13-.4-.11-.11,.01-.21,.06-.28,.14-.07,.08-.13,.18-.16,.31-.04,.13-.05,.27-.05,.41,0,.09,0,.19,.01,.27,0,.09,.02,.18,.05,.28,.03,.1,.07,.21,.12,.33,.05,.12,.12,.26,.2,.41l.68,1.34-1.02-.59s-.05-.01-.07,0c-.02,.02-.03,.05-.03,.09v.4s0,.08,.03,.12c.02,.04,.04,.07,.07,.09l1.71,.99s.05,.01,.07,0c.02-.02,.03-.05,.03-.09v-.34c0-.06-.01-.13-.04-.19s-.05-.11-.06-.14l-1.09-2.08Z"/>
            <path class="cls-9" d="M240.15,199.44c0,.07,0,.15,0,.23v.53c0,.09,0,.17,0,.24,0,.22,.03,.44,.06,.64,.04,.21,.09,.4,.17,.58,.08,.18,.18,.35,.3,.49,.12,.15,.27,.27,.45,.38,.18,.1,.33,.15,.45,.15,.12,0,.22-.06,.3-.15,.08-.09,.13-.22,.17-.39,.04-.16,.06-.35,.06-.57,0-.14,0-.3,0-.48s0-.35,0-.49c0-.22-.03-.44-.06-.65-.03-.21-.09-.41-.17-.59-.08-.18-.18-.35-.3-.5-.12-.15-.27-.28-.45-.38-.18-.1-.33-.15-.45-.14-.12,0-.22,.05-.3,.15-.08,.09-.13,.22-.17,.39-.04,.16-.06,.36-.06,.57Zm1.48,1.83c-.01,.26-.05,.45-.13,.56-.07,.11-.19,.11-.37,.01-.17-.1-.29-.24-.36-.43-.07-.19-.11-.42-.13-.7,0-.15,0-.31,0-.48s0-.33,0-.47c.01-.26,.05-.45,.13-.56,.07-.11,.19-.11,.36-.01,.17,.1,.29,.24,.37,.43,.07,.19,.11,.42,.13,.7,0,.15,0,.31,0,.48s0,.33,0,.47Z"/>
          </g>
          <path class="cls-17" d="M235.76,198.37c.17,0,.33-.09,.43-.25,.14-.24,.06-.54-.18-.67l-57.21-33.03c-.23-.13-.54-.06-.67,.18-.14,.24-.06,.54,.18,.67l57.21,33.03c.08,.04,.16,.07,.25,.07Z"/>
          <g>
            <path class="cls-9" d="M242.66,183.6s-.05-.01-.07,0c-.02,.02-.03,.05-.03,.09v.4s0,.09,.03,.13c.02,.05,.04,.09,.05,.12l.53,1.18c-.11-.04-.21-.06-.3-.05-.09,0-.17,.04-.23,.1-.06,.06-.11,.15-.15,.26-.03,.11-.05,.25-.05,.41,0,.2,.03,.38,.08,.56,.05,.18,.12,.35,.21,.51,.09,.16,.19,.3,.31,.42,.12,.13,.25,.23,.39,.31,.17,.1,.32,.15,.45,.16,.13,.01,.23,0,.31-.06,.09-.05,.15-.12,.19-.22,.04-.1,.07-.21,.08-.32,0-.04,0-.09-.03-.13-.02-.04-.05-.07-.07-.08l-.29-.17s-.04-.01-.06,0c-.02,.01-.03,.04-.05,.07-.01,.04-.03,.07-.06,.09-.02,.03-.06,.04-.1,.05-.04,0-.09,0-.15-.01-.06-.02-.14-.05-.22-.1-.15-.09-.27-.2-.36-.35-.09-.15-.14-.3-.14-.47s.05-.26,.14-.28c.09-.02,.21,.01,.36,.1l.3,.18s.05,.01,.07,0c.02-.02,.03-.05,.03-.09v-.4s0-.09-.03-.13c-.02-.05-.04-.09-.05-.12l-.51-1.13,1.01,.58s.05,.01,.07,0c.02-.02,.03-.05,.03-.09v-.4s0-.08-.03-.12c-.02-.04-.04-.07-.07-.09l-1.6-.93Z"/>
            <path class="cls-9" d="M240.1,183.6c0,.07,0,.15,0,.24v.53c0,.09,0,.17,0,.24,0,.22,.03,.44,.06,.64,.04,.21,.09,.4,.17,.58,.08,.18,.18,.35,.3,.49,.12,.15,.27,.27,.45,.38,.18,.1,.33,.15,.45,.15,.12,0,.22-.06,.3-.15,.08-.09,.13-.22,.17-.39,.04-.16,.06-.35,.06-.57,0-.14,0-.3,0-.48s0-.35,0-.49c0-.22-.03-.44-.06-.65-.04-.21-.09-.41-.17-.59-.08-.18-.18-.35-.3-.5-.12-.15-.27-.28-.45-.38-.18-.1-.33-.15-.45-.14-.12,0-.22,.05-.3,.15-.08,.09-.13,.22-.17,.39-.04,.16-.06,.36-.06,.57Zm1.48,1.83c-.01,.26-.05,.45-.13,.56-.07,.11-.19,.11-.36,.01-.17-.1-.29-.24-.36-.43-.07-.19-.11-.42-.13-.7,0-.15,0-.31,0-.48s0-.33,0-.47c.01-.26,.05-.45,.13-.56,.07-.11,.19-.11,.36-.01,.17,.1,.29,.24,.36,.43,.07,.19,.11,.42,.13,.7,0,.15,0,.31,0,.48s0,.33,0,.47Z"/>
          </g>
          <path class="cls-17" d="M235.76,182.56c.17,0,.33-.09,.43-.25,.14-.24,.06-.54-.18-.67l-57.21-33.03c-.23-.13-.54-.06-.67,.18-.14,.24-.06,.54,.18,.67l57.21,33.03c.08,.04,.16,.07,.25,.07Z"/>
          <g class="cls-10">
            <path class="cls-11" d="M235.76,229.51v-45.04s-5.7-3.98-9.85,9.22c-4.15,13.2-12.7,7.92-18.37-1.63-5.72-9.64-8.22-19.19-14.32-22.72-6.1-3.52-10.52,8.84-14.67,6.45v20.69l57.21,33.03Z"/>
            <path class="cls-14" d="M235.76,229.51v-45.04s-5.7-3.98-9.85,9.22c-4.15,13.2-12.7,7.92-18.37-1.63-5.72-9.64-8.22-19.19-14.32-22.72-6.1-3.52-10.52,8.84-14.67,6.45v20.69l57.21,33.03Z"/>
            <path class="cls-11" d="M235.76,222.68s-3.02-14.65-5.87-16.29c-3.66-2.11-4.15,11.13-10.49,7.47-6.35-3.66-7.97-36.3-14.48-40.05-6.51-3.76-7.53,14.6-12.33,11.83-4.8-2.77-5.91-13.09-14.04-17.79v28.63l57.21,33.03v-6.83Z"/>
            <path class="cls-21" d="M184.16,173.12c3.48,4.85,5.04,10.56,8.43,12.52,3.03,1.75,4.55-4.91,6.9-9.13,2.49,4.38,4.73,9.94,8.05,15.54,1.76,2.97,3.8,5.53,5.9,7.24,1.64,7.01,3.42,13.1,5.95,14.56,6.35,3.66,6.83-9.58,10.49-7.47,2.85,1.64,5.87,16.29,5.87,16.29v6.83l-57.21-33.03v-20.69c1.78,1.03,3.62-.67,5.61-2.67Z"/>
          </g>
        </g>
      </g>
      <g id="Chart-5" data-name="Chart">
        <path class="cls-4" d="M248.24,270.37l-75.69-43.7c-1.18-.68-2.13-.13-2.13,1.23v64.32c0,1.36,.95,3.01,2.13,3.69l75.69,43.7c1.18,.68,2.13,.13,2.13-1.23v-64.32c0-1.36-.95-3.01-2.13-3.69Z"/>
        <g>
          <polygon class="cls-17" points="237.94 322.52 242.14 324.94 242.14 277.99 237.94 275.57 237.94 322.52"/>
          <polygon class="cls-17" points="230.53 318.24 234.73 320.66 234.73 273.71 230.53 271.29 230.53 318.24"/>
          <polygon class="cls-17" points="223.12 313.96 227.32 316.38 227.32 269.44 223.12 267.01 223.12 313.96"/>
          <polygon class="cls-17" points="215.71 309.68 219.91 312.1 219.91 265.16 215.71 262.73 215.71 309.68"/>
          <polygon class="cls-17" points="208.3 305.4 212.5 307.83 212.5 260.88 208.3 258.45 208.3 305.4"/>
          <polygon class="cls-17" points="200.89 301.12 205.09 303.55 205.09 256.6 200.89 254.17 200.89 301.12"/>
          <polygon class="cls-11" points="205.09 256.6 200.89 254.17 200.89 275.6 205.09 278.03 205.09 256.6"/>
          <polygon class="cls-17" points="193.48 296.84 197.68 299.27 197.68 252.32 193.48 249.9 193.48 296.84"/>
          <polygon class="cls-17" points="186.07 292.57 190.27 294.99 190.27 248.04 186.07 245.62 186.07 292.57"/>
          <polygon class="cls-17" points="178.66 288.29 182.85 290.71 182.85 243.76 178.66 241.34 178.66 288.29"/>
          <g>
            <polygon class="cls-11" points="242.14 288.24 237.94 285.82 237.94 312.03 242.14 314.46 242.14 288.24"/>
            <polygon class="cls-19" points="242.14 314.46 237.94 312.03 237.94 322.52 242.14 324.94 242.14 314.46"/>
          </g>
          <g>
            <polygon class="cls-11" points="234.73 289.92 230.53 287.5 230.53 296.94 234.73 299.36 234.73 289.92"/>
            <polygon class="cls-19" points="234.73 299.36 230.53 296.94 230.53 318.24 234.73 320.66 234.73 299.36"/>
          </g>
          <g>
            <polygon class="cls-11" points="227.32 273.36 223.12 270.94 223.12 279.18 227.32 281.6 227.32 273.36"/>
            <polygon class="cls-19" points="227.32 281.6 223.12 279.18 223.12 313.96 227.32 316.38 227.32 281.6"/>
          </g>
          <g>
            <polygon class="cls-11" points="219.91 275.41 215.71 272.98 215.71 293.73 219.91 296.15 219.91 275.41"/>
            <polygon class="cls-19" points="219.91 296.15 215.71 293.73 215.71 309.68 219.91 312.1 219.91 296.15"/>
          </g>
          <g>
            <polygon class="cls-11" points="212.5 279.56 208.3 277.13 208.3 285.91 212.5 288.33 212.5 279.56"/>
            <polygon class="cls-19" points="212.5 288.33 208.3 285.91 208.3 305.4 212.5 307.83 212.5 288.33"/>
          </g>
          <polygon class="cls-19" points="205.09 278.03 200.89 275.6 200.89 301.12 205.09 303.55 205.09 278.03"/>
          <g>
            <polygon class="cls-11" points="197.68 277.15 193.48 274.73 193.48 285.05 197.68 287.47 197.68 277.15"/>
            <polygon class="cls-19" points="197.68 287.47 193.48 285.05 193.48 296.84 197.68 299.27 197.68 287.47"/>
          </g>
          <g>
            <polygon class="cls-11" points="190.27 256.09 186.07 253.66 186.07 277.01 190.27 279.43 190.27 256.09"/>
            <polygon class="cls-19" points="190.27 279.43 186.07 277.01 186.07 292.57 190.27 294.99 190.27 279.43"/>
          </g>
          <g>
            <polygon class="cls-11" points="182.85 264.53 178.66 262.1 178.66 270.23 182.85 272.65 182.85 264.53"/>
            <polygon class="cls-11" points="182.85 272.65 178.66 270.23 178.66 288.29 182.85 290.71 182.85 272.65"/>
            <polygon class="cls-11" points="242.14 314.46 237.94 312.03 237.94 322.52 242.14 324.94 242.14 314.46"/>
            <polygon class="cls-14" points="242.14 314.46 237.94 312.03 237.94 322.52 242.14 324.94 242.14 314.46"/>
            <polygon class="cls-11" points="234.73 299.36 230.53 296.94 230.53 318.24 234.73 320.66 234.73 299.36"/>
            <polygon class="cls-14" points="234.73 299.36 230.53 296.94 230.53 318.24 234.73 320.66 234.73 299.36"/>
            <polygon class="cls-11" points="227.32 281.6 223.12 279.18 223.12 313.96 227.32 316.38 227.32 281.6"/>
            <polygon class="cls-14" points="227.32 281.6 223.12 279.18 223.12 313.96 227.32 316.38 227.32 281.6"/>
            <polygon class="cls-11" points="219.91 296.15 215.71 293.73 215.71 309.68 219.91 312.1 219.91 296.15"/>
            <polygon class="cls-14" points="219.91 296.15 215.71 293.73 215.71 309.68 219.91 312.1 219.91 296.15"/>
            <polygon class="cls-11" points="212.5 288.33 208.3 285.91 208.3 305.4 212.5 307.83 212.5 288.33"/>
            <polygon class="cls-14" points="212.5 288.33 208.3 285.91 208.3 305.4 212.5 307.83 212.5 288.33"/>
            <polygon class="cls-11" points="205.09 278.03 200.89 275.6 200.89 301.12 205.09 303.55 205.09 278.03"/>
            <polygon class="cls-14" points="205.09 278.03 200.89 275.6 200.89 301.12 205.09 303.55 205.09 278.03"/>
            <polygon class="cls-11" points="197.68 287.47 193.48 285.05 193.48 296.84 197.68 299.27 197.68 287.47"/>
            <polygon class="cls-14" points="197.68 287.47 193.48 285.05 193.48 296.84 197.68 299.27 197.68 287.47"/>
            <polygon class="cls-11" points="190.27 279.43 186.07 277.01 186.07 292.57 190.27 294.99 190.27 279.43"/>
            <polygon class="cls-14" points="190.27 279.43 186.07 277.01 186.07 292.57 190.27 294.99 190.27 279.43"/>
            <polygon class="cls-14" points="182.85 272.65 178.66 270.23 178.66 288.29 182.85 290.71 182.85 272.65"/>
          </g>
        </g>
      </g>
      <g id="Chart-6" data-name="Chart">
        <path class="cls-5" d="M147.56,156.36l-59.96-34.62c-1.18-.68-2.13-.13-2.13,1.23v64.32c0,1.36,.95,3.01,2.13,3.69l59.96,34.62c1.18,.68,2.13,.13,2.13-1.23v-64.32c0-1.36-.95-3.01-2.13-3.69Z"/>
        <g>
          <g>
            <path class="cls-9" d="M117.58,152.55c-3.48-2.01-6.69-2.35-9.3-1.32l9.3,22.43v-21.11Z"/>
            <path class="cls-11" d="M126.88,161.97c-2.61-4.04-5.82-7.41-9.3-9.42v21.11l9.3-11.7Z"/>
            <path class="cls-11" d="M132.63,175.84c-1.04-4.88-3.09-9.73-5.76-13.87l-9.3,11.7,15.06,2.17Z"/>
            <path class="cls-9" d="M108.28,151.23c-2.67,1.05-4.72,3.54-5.76,7.22l15.06,15.22-9.3-22.43Z"/>
            <path class="cls-11" d="M132.63,188.89c.5-1.77,.78-3.8,.78-6.07s-.28-4.63-.78-6.97l-15.06-2.17,15.06,15.22Z"/>
            <path class="cls-11" d="M102.52,171.5c1.04,4.88,3.09,9.73,5.76,13.87l9.3-11.7-15.06-2.17Z"/>
            <path class="cls-11" d="M117.58,194.78c3.48,2.01,6.69,2.35,9.3,1.32l-9.3-22.43v21.11Z"/>
            <path class="cls-11" d="M132.63,188.89l-15.06-15.22,9.3,22.43c2.67-1.05,4.72-3.54,5.76-7.22Z"/>
            <path class="cls-21" d="M126.88,161.97c2.67,4.14,4.72,8.98,5.76,13.87,.5,2.34,.78,4.69,.78,6.97s-.28,4.31-.78,6.07c-1.04,3.68-3.09,6.17-5.76,7.22l-9.3-22.43,9.3-11.7Z"/>
            <path class="cls-11" d="M102.52,158.45c-.5,1.77-.78,3.8-.78,6.07s.28,4.63,.78,6.97l15.06,2.17-15.06-15.22Z"/>
            <path class="cls-11" d="M108.28,185.37c2.61,4.04,5.82,7.41,9.3,9.42v-21.11l-9.3,11.7Z"/>
            <path class="cls-14" d="M102.52,158.45l15.06,15.22,9.3,22.43c-2.61,1.03-5.82,.69-9.3-1.32-3.48-2.01-6.69-5.37-9.3-9.42-2.67-4.14-4.72-8.98-5.76-13.87-.5-2.34-.78-4.69-.78-6.97s.28-4.31,.78-6.07Z"/>
          </g>
          <path class="cls-17" d="M125.12,201.72c1.84,0,3.57-.44,5.12-1.34,4.32-2.5,6.8-8.24,6.8-15.76,0-14.1-8.62-30.55-19.21-36.66-4.72-2.72-9.3-3.08-12.9-1-4.32,2.5-6.8,8.24-6.8,15.76,0,14.1,8.62,30.55,19.21,36.66,2.69,1.55,5.34,2.34,7.79,2.34Zm-15.08-55.12c2.28,0,4.76,.74,7.29,2.2,10.32,5.96,18.72,22.02,18.72,35.81,0,7.16-2.3,12.6-6.31,14.91-3.29,1.9-7.52,1.54-11.92-1-10.32-5.96-18.72-22.02-18.72-35.81,0-7.16,2.3-12.6,6.31-14.91,1.39-.8,2.95-1.2,4.63-1.2Z"/>
        </g>
      </g>
      <g id="Speech_Bubble" data-name="Speech Bubble">
        <path class="cls-11" d="M151.79,140.92c.31,0,.6-.08,.87-.23,.61-.35,.95-1.05,.95-1.97v-20.35c0-1.71-1.16-3.71-2.63-4.56l-32.56-18.8c-.8-.46-1.57-.52-2.18-.17-.61,.35-.95,1.05-.95,1.97v20.35c0,1.7,1.16,3.71,2.63,4.56l4.82,2.78,3.25,11.07c.14,.47,.54,.79,1.02,.82,.46,.04,.93-.24,1.12-.69l2.8-6.47,19.53,11.28c.45,.26,.9,.39,1.31,.39Zm-33.87-45.05l32.56,18.8c1.16,.67,2.14,2.37,2.14,3.71v20.35c0,.55-.17,.95-.45,1.12-.29,.17-.73,.11-1.2-.17l-20.49-11.83-3.24,7.48c-.04,.08-.09,.1-.16,.1-.05,0-.12-.03-.14-.11l-3.37-11.45-5.17-2.98c-1.16-.67-2.14-2.37-2.14-3.71v-20.35c0-.54,.16-.95,.45-1.12,.29-.17,.72-.11,1.2,.17h0Z"/>
        <path class="cls-11" d="M145.65,120.39c.17,0,.34-.09,.43-.25,.14-.24,.06-.54-.18-.67l-22.4-12.93c-.23-.13-.54-.06-.67,.18-.14,.24-.06,.54,.18,.67l22.4,12.93c.08,.04,.16,.07,.25,.07Z"/>
        <path class="cls-11" d="M145.65,124.72c.17,0,.34-.09,.43-.25,.14-.24,.06-.54-.18-.67l-22.4-12.93c-.23-.13-.54-.06-.67,.18-.14,.24-.06,.54,.18,.67l22.4,12.93c.08,.04,.16,.07,.25,.07Z"/>
        <path class="cls-11" d="M145.65,129.06c.17,0,.34-.09,.43-.25,.14-.24,.06-.54-.18-.67l-22.4-12.93c-.23-.13-.54-.06-.67,.18-.14,.24-.06,.54,.18,.67l22.4,12.93c.08,.04,.16,.07,.25,.07Z"/>
      </g>
      <g id="Check_List-2" data-name="Check List">
        <g>
          <g>
            <path class="cls-11" d="M158.43,255.91c.08,0,.17-.02,.25-.07,.15-.09,.25-.25,.25-.43v-9.23c0-.18-.09-.34-.25-.43l-8-4.62c-.15-.09-.34-.09-.49,0-.15,.09-.25,.25-.25,.43v9.23c0,.18,.09,.34,.25,.43l8,4.62c.08,.04,.16,.07,.25,.07Zm-.49-9.44v8.1l-7.01-4.05v-8.09s7.01,4.05,7.01,4.05Z"/>
            <path id="Check-3" data-name="Check" class="cls-9" d="M149.5,239.26c.49-.21,1.06,.03,1.27,.52l3.67,8.72,.87-.85c.38-.37,1-.36,1.37,.02,.37,.38,.36,1-.02,1.37l-1.89,1.84c-.18,.18-.42,.27-.68,.27-.06,0-.13,0-.19-.02-.31-.06-.58-.28-.7-.57l-4.22-10.03c-.21-.49,.03-1.06,.52-1.27Z"/>
          </g>
          <path class="cls-9" d="M143.64,240.88l-29.42-16.99c-.71-.41-1.28-.11-1.28,.65s.57,1.72,1.28,2.13l29.42,16.99c.71,.41,1.28,.12,1.28-.65,0-.77-.57-1.72-1.28-2.13Z"/>
        </g>
        <g>
          <g>
            <path class="cls-11" d="M158.43,269.76c.08,0,.17-.02,.25-.07,.15-.09,.25-.25,.25-.43v-9.23c0-.18-.09-.34-.25-.43l-8-4.62c-.15-.09-.34-.09-.49,0-.15,.09-.25,.25-.25,.43v9.23c0,.18,.09,.34,.25,.43l8,4.62c.08,.04,.16,.07,.25,.07Zm-.49-9.44v8.09l-7.01-4.05v-8.1l7.01,4.05Z"/>
            <path id="Check-4" data-name="Check" class="cls-9" d="M149.5,253.11c.49-.21,1.06,.03,1.27,.52l3.67,8.72,.87-.85c.38-.37,1-.36,1.37,.02,.37,.38,.36,1-.02,1.37l-1.89,1.84c-.18,.18-.42,.27-.68,.27-.06,0-.13,0-.19-.02-.31-.06-.58-.28-.7-.57l-4.22-10.03c-.21-.49,.03-1.06,.52-1.27Z"/>
          </g>
          <path class="cls-9" d="M143.64,254.68l-29.42-16.99c-.71-.41-1.28-.11-1.28,.65s.57,1.72,1.28,2.13l29.42,16.99c.71,.41,1.28,.12,1.28-.65,0-.77-.57-1.72-1.28-2.13Z"/>
        </g>
        <g>
          <g>
            <path class="cls-11" d="M158.43,283.61c.08,0,.17-.02,.25-.07,.15-.09,.25-.25,.25-.43v-9.23c0-.18-.09-.34-.25-.43l-8-4.62c-.15-.09-.34-.09-.49,0-.15,.09-.25,.25-.25,.43v9.23c0,.18,.09,.34,.25,.43l8,4.62c.08,.04,.16,.07,.25,.07Zm-.49-9.44v8.1l-7.01-4.05v-8.09l7.01,4.05Z"/>
            <path id="Check-5" data-name="Check" class="cls-9" d="M149.5,266.96c.49-.21,1.06,.03,1.27,.52l3.67,8.72,.87-.85c.38-.37,1-.36,1.37,.02,.37,.38,.36,1-.02,1.37l-1.89,1.84c-.18,.18-.42,.27-.68,.27-.06,0-.13,0-.19-.02-.31-.06-.58-.28-.7-.57l-4.22-10.03c-.21-.49,.03-1.06,.52-1.27Z"/>
          </g>
          <path class="cls-9" d="M143.64,268.49l-29.42-16.99c-.71-.41-1.28-.11-1.28,.65s.57,1.72,1.28,2.13l29.42,16.99c.71,.41,1.28,.11,1.28-.65,0-.77-.57-1.72-1.28-2.13Z"/>
        </g>
      </g>
    </g>
  </g>
  <g id="Speech_Bubbles" data-name="Speech Bubbles">
    <g id="Speech_Bubbles-2" data-name="Speech Bubbles">
      <g>
        <path class="cls-11" d="M327.68,105.55c.33,0,.64-.08,.91-.24,.64-.37,1-1.11,1-2.08v-21.79c0-1.81-1.23-3.95-2.8-4.85l-34.86-20.13c-.84-.49-1.66-.55-2.3-.18-.64,.37-1,1.11-1,2.08v21.79c0,1.81,1.23,3.95,2.8,4.85l5.18,2.99,3.49,11.86c.14,.49,.56,.82,1.07,.85,.49,.03,.96-.25,1.16-.71l3.01-6.96,20.95,12.1c.48,.28,.95,.42,1.39,.42Zm-36.25-48.24l34.86,20.13c1.25,.72,2.31,2.56,2.31,4v21.79c0,.6-.18,1.04-.5,1.23-.32,.19-.8,.12-1.32-.18l-21.91-12.65-3.45,7.97c-.05,.12-.15,.12-.2,.12-.05,0-.15-.03-.18-.15l-3.6-12.24-5.52-3.19c-1.25-.72-2.31-2.56-2.31-4v-21.79c0-.6,.18-1.04,.5-1.23,.32-.18,.8-.12,1.32,.18h0Z"/>
        <path class="cls-11" d="M321.1,83.57c.17,0,.33-.09,.43-.25,.14-.24,.06-.54-.18-.67l-23.99-13.85c-.23-.13-.54-.06-.67,.18-.14,.24-.06,.54,.18,.67l23.99,13.85c.08,.04,.16,.07,.25,.07Z"/>
        <path class="cls-11" d="M321.1,88.21c.17,0,.33-.09,.43-.25,.14-.24,.06-.54-.18-.67l-23.99-13.85c-.23-.13-.54-.06-.67,.18-.14,.24-.06,.54,.18,.67l23.99,13.85c.08,.04,.16,.07,.25,.07Z"/>
        <path class="cls-11" d="M321.1,92.86c.17,0,.33-.09,.43-.25,.14-.24,.06-.54-.18-.67l-23.99-13.85c-.23-.13-.54-.06-.67,.18-.14,.24-.06,.54,.18,.67l23.99,13.85c.08,.04,.16,.07,.25,.07Z"/>
      </g>
      <g>
        <path class="cls-11" d="M361.1,104.38c.33,0,.64-.08,.91-.24,.64-.37,1-1.11,1-2.08v-21.79c0-1.82-1.23-3.95-2.8-4.85l-34.86-20.13c-.84-.49-1.66-.55-2.3-.18-.64,.37-1,1.11-1,2.08v13.85c0,.27,.22,.49,.49,.49h0c.27,0,.49-.22,.49-.49v-13.85c0-.6,.18-1.04,.5-1.23,.32-.19,.8-.12,1.32,.18l34.86,20.13c1.25,.72,2.31,2.56,2.31,4v21.79c0,.6-.18,1.04-.5,1.23-.32,.18-.8,.12-1.32-.18l-27.39-15.82c-.23-.13-.54-.06-.67,.18-.14,.24-.06,.54,.18,.67l27.39,15.82c.48,.28,.95,.42,1.39,.42Z"/>
        <path class="cls-11" d="M354.52,82.4c.17,0,.33-.09,.43-.25,.14-.24,.06-.54-.18-.67l-23.99-13.85c-.23-.13-.54-.06-.67,.18-.14,.24-.06,.54,.18,.67l23.99,13.85c.08,.04,.16,.07,.25,.07Z"/>
        <path class="cls-11" d="M354.52,87.04c.17,0,.33-.09,.43-.25,.14-.24,.06-.54-.18-.67l-23.99-13.85c-.23-.13-.54-.06-.67,.18-.14,.24-.06,.54,.18,.67l23.99,13.85c.08,.04,.16,.07,.25,.07Z"/>
        <path class="cls-11" d="M354.52,91.69c.17,0,.33-.09,.43-.25,.14-.24,.06-.54-.18-.67l-21.43-12.4c-.23-.14-.54-.06-.67,.18-.14,.24-.06,.54,.18,.67l21.43,12.4c.08,.05,.16,.07,.25,.07Z"/>
      </g>
    </g>
    <g id="Speech_Bubble-2" data-name="Speech Bubble">
      <g id="Speech_Bubble-3" data-name="Speech Bubble">
        <path class="cls-11" d="M440.94,130.09l2.43-4.57-1.95-5.64v-3.45l5.98,3.45v3.45l-2.57,4.45c-.04,.08-.11,.12-.17,.16h0s-3.71,2.15-3.71,2.15Z"/>
        <path class="cls-14" d="M440.94,130.09l2.43-4.57-1.95-5.64v-3.45l5.98,3.45v3.45l-2.57,4.45c-.04,.08-.11,.12-.17,.16h0s-3.71,2.15-3.71,2.15Z"/>
        <path class="cls-11" d="M425.46,95.5c0-1.14,.8-2.53,1.79-3.11l1.46-.84c.99-.57,2.6-.57,3.59,0l28.53,16.47c.99,.57,1.79,1.96,1.79,3.11v17.49c0,1.14-.8,2.53-1.79,3.11l-1.46,.84c-.99,.57-2.6,.57-3.59,0l-12.15-7.07-2.57,4.45c-.16,.28-.59,.24-.69-.07l-2.71-7.83-10.41-5.95c-.99-.57-1.79-1.96-1.79-3.11v-17.49Z"/>
        <path class="cls-14" d="M462.63,128.62c0,1.14-.8,2.53-1.79,3.11l-1.46,.84c-.9,.52-2.29,.56-3.28,.14,.84,.32,1.49-.16,1.49-1.18v-17.49c0-.57-.2-1.21-.52-1.77l5.05-2.91c.32,.56,.53,1.2,.53,1.77v17.49Z"/>
        <path class="cls-2" d="M425.52,94.99c.21-.76,.9-1,1.73-.53l28.54,16.48c.49,.28,.95,.77,1.26,1.34l5.05-2.91c-.33-.57-.77-1.05-1.26-1.34l-28.53-16.48c-1-.57-2.6-.57-3.59,0l-1.46,.84c-.85,.49-1.56,1.57-1.73,2.59Z"/>
      </g>
      <g>
        <path class="cls-1" d="M450.29,115.82c1.32,.76,2.39,2.62,2.39,4.15,0,1.53-1.07,2.14-2.39,1.38-1.32-.76-2.39-2.62-2.39-4.15s1.07-2.14,2.39-1.38Z"/>
        <path class="cls-1" d="M441.47,110.72c1.32,.76,2.39,2.62,2.39,4.15,0,1.53-1.07,2.15-2.39,1.38-1.32-.76-2.39-2.62-2.39-4.15,0-1.53,1.07-2.15,2.39-1.38Z"/>
        <path class="cls-1" d="M432.64,105.61c1.32,.76,2.39,2.62,2.39,4.15,0,1.53-1.07,2.14-2.39,1.38-1.32-.76-2.39-2.62-2.39-4.15,0-1.53,1.07-2.14,2.39-1.38Z"/>
      </g>
    </g>
  </g>
  <g id="Character_2-2" data-name="Character 2">
    <g id="Character-2" data-name="Character">
      <polygon class="cls-24" points="84.08 191.62 82.88 204.11 71.71 203.42 72.61 189.56 84.08 191.62"/>
      <path class="cls-24" d="M69.89,197.15c-6.08-1.29-8.77,2.36-11.43,8.86-2.67,6.51-9.51,20.86-10.62,25.21-.5,1.95,15.79,21.42,15.26,21.17-.16-.08,4.82-8.41,4.82-8.41l-9.06-12.76,6.38-10.27,4.66-23.81Z"/>
      <g>
        <path class="cls-24" d="M41.27,343.53c1.24-3.85,5.94-18.55,7.57-22.74,2.58-6.65,4.24-10.17,9.66-13.57,0,0-.28-33.18,0-44.99,.36-15.12,3.7-20.19,3.7-20.19l34.96,1.97s2.97,25.76,3.56,37.64c.67,13.38,.67,17.57,.34,24.86-.21,4.58-.86,8.76-1.21,15.72-.35,6.95-2.4,41.74-2.4,41.74,0,0-.02-.03-.06-.08-.03,.48-.07,.87-.13,1.08-.32,1.25-1.67,2.67-4.13,2.72-3.51,.07-4.63-1.68-4.82-2.81-.03-.19-.06-.41-.09-.64-.02,0-.04,0-.07-.02,0,0-2.6-14.83-4.32-26.15-1.08-7.12-1.46-12.18-1.45-15.78,.01-2.71,1.03-7.33,1.53-9.66l-5.02-32.51s-4.29,27.68-4.99,30.32c-.48,1.85-11.9,19.51-18.78,30.04h0s0,.01,0,.01c-2.98,4.57-9.75,14.55-10.17,15.11-1.49,1.97-6.48-5.17-6.48-5.17l2.79-6.94Z"/>
        <path class="cls-24" d="M47.56,351.85c-3.61,4.91-5.56,17.95-4.52,19.88s-4.18-.03-4.9-2.93-.86-17.19-.86-17.19l10.27,.24Z"/>
        <path class="cls-24" d="M97.53,363.41c.08,3.81,2.64,13.7,6.37,14.87s-1.67,3.89-4.49,2.83-7.09-9.5-9.28-11.59c-2.19-2.1-2.32-7.4-2.32-7.4l9.72,1.3Z"/>
        <path class="cls-6" d="M97.5,239.9s1.22,3.85,2.39,17.95c1.17,14.1,3.49,34.18,3.65,42.19,0,0-6.19-1.55-8.8-7.2,0,0-4.36,9.42-14.55,11.5-10.19,2.07-20.42-.69-22.44-6.76,.06-.66-.25-32.59,0-40.04,.25-7.45,3.1-13.67,5.91-19.93l33.84,2.28Z"/>
        <g>
          <path class="cls-11" d="M99.41,384.81s-.84,1.48-5.4-.44c-4.56-1.92-5.84-4.19-5.84-4.19,0,0,1.18-9.15,4-6.85,2.82,2.3,7.23,11.48,7.23,11.48Z"/>
          <path class="cls-20" d="M99.41,384.81s-.84,1.48-5.4-.44c-4.56-1.92-5.84-4.19-5.84-4.19,0,0,1.18-9.15,4-6.85,2.82,2.3,7.23,11.48,7.23,11.48Z"/>
          <path class="cls-23" d="M87.11,362.24c.93-.49,3.41,.53,4.86,1.79,1.91,1.65,2.38,3.88,3.36,6.5,1.05,2.8,2.94,6.64,4.48,7.5,1.53,.86,4.34,.07,6.66,.05,2.32-.01,4.11,1.05,4.24,2.74,.06,1.33-5.95,4.39-9.76,4.54-3.16,.13-4.23,.67-5.98-3.95-1.75-4.62-2.41-7.22-3.8-4.08-1.39,3.14-1.92,9.69-1.92,9.69,0,0-1.09,1.3-2.79,.06,0,0,0-4.04-.4-6.88-.4-2.84-1.91-7.31-1.71-10.73,.2-3.42,1.83-6.76,2.75-7.23Z"/>
        </g>
        <g>
          <path class="cls-11" d="M36.52,374.21s-1.45,.71-4.24-3.37c-1.38-2.02-1.45-2.7-1.45-2.7,0,0,.8-3.22,.61-5.62-.23-2.87,4.85-3.86,5.46-1.87,1.06,3.48-.38,13.56-.38,13.56Z"/>
          <path class="cls-20" d="M36.52,374.21s-1.45,.71-4.24-3.37c-1.38-2.02-1.45-2.7-1.45-2.7,0,0,.8-3.22,.61-5.62-.23-2.87,4.85-3.86,5.46-1.87,1.06,3.48-.38,13.56-.38,13.56Z"/>
          <path class="cls-23" d="M38.87,348.61c1.05,.11,2.53,2.34,3.04,4.19,.67,2.44-.18,4.55-.83,7.27-.69,2.9-1.25,7.16-.46,8.72,.8,1.57,3.57,2.47,5.5,3.75,1.93,1.28,2.83,3.16,2,4.63-.69,1.14-7.39,.33-10.63-1.66-2.69-1.65-3.89-1.8-2.77-6.61,1.12-4.81,2.02-7.34-.88-5.5s-6.99,6.98-6.99,6.98c0,0-1.63,.47-2.36-1.5,0,0,2.25-3.36,3.5-5.94,1.25-2.58,2.48-7.13,4.55-9.87,2.07-2.73,5.29-4.6,6.31-4.47Z"/>
        </g>
      </g>
      <g>
        <path class="cls-11" d="M62.97,202.58c1.14-3.37,3.73-5.69,7.63-5.91,0,0,6.72-.22,11.14,.17s6.52,.91,9.39,1.84l3.83,3.7c1.78,2.22,4.93,12.19,4.86,29.33-.01,3.29,.41,7.32-2.31,8.19-6.41,3.56-22.26,5.14-34.22-1.65-1.74-1.3-1.47-11.41-1.41-16,.09-6.14,.3-17.32,1.09-19.67Z"/>
        <path class="cls-19" d="M93.95,215.95l-.3-3.74,.54-.04,.3,3.74c1.03,12.86,1.66,21.59,.87,24.96-.2,.08-.38,.16-.59,.23,.96-3.08,.1-13.83-.81-25.15Z"/>
        <path class="cls-24" d="M91.13,198.68s2.6,0,10.69,4.41c5.35,2.92,16.12,8.45,20.58,10.54,3.36-2.81,16.69-13.97,17.22-15.06,.6-1.25-.41-3.23-.93-4.32-.53-1.09-1.56-3.56-1.99-4.22-.76-1.14,1.18-1.27,2.57-.37,1.42,.92,2.45,3.08,3.09,3.33,.64,.26,3.61-5.56,5.05-8.37,1.44-2.81,1.98-4.66,3.57-4.05,1.15,.44,.86,1.97-.09,4.31-.95,2.34-1.11,2.6-1.21,3.08-.09,.4,.52,.55,.78,.68,.48,.25,1.32,.65,1.5,1.19,.1,.29,.12,.61,.28,.88,.35,.61,1.24,.72,1.63,1.3,.28,.42,.23,.99,.44,1.46,.14,.3,.38,.54,.52,.84,.26,.59,.06,1.28-.22,1.86-1,2.04-2.77,3.17-4.37,4.66-1.33,1.24-2.83,2.01-4.41,3.25-1.58,1.23-18.4,21.55-22.18,22.28-1.25,.24-2.11,.09-3.52-.33-3.37-1.02-17.45-6.7-24.42-9.15-5.35-2.75-6.99-3.79-8.13-11.73-.55-3.84,3.55-6.48,3.55-6.48Z"/>
      </g>
      <g>
        <path class="cls-23" d="M93.92,168.3c0-.48-.09-.96-.32-1.37-.37-.64-1.2-1.05-1.88-.75,.37-.67,.74-1.35,.83-2.11,.09-.76-.17-1.6-.83-1.99-.52-.31-1.17-.27-1.77-.25-3.73,.12-7.4-.86-11.11-1.31-3.71-.45-7.72-.3-10.81,1.8-1.51,1.03-2.93,2.6-3.47,4.36-.26,.83-.5,1.66-.35,2.54,.15,.86,.55,1.65,.39,2.54-.27,1.47-.36,2.97-.42,4.46-.24,6.17,14.08,10.18,13.8,14.41,2.54-3.1,5.09-6.19,7.63-9.29,0-.39,1.08-1.35,1.32-1.67,.46-.61,.86-1.27,1.28-1.91,1.89-2.87,5.1-5.11,5.64-8.68,.04-.26,.06-.52,.06-.79Z"/>
        <path class="cls-15" d="M92.36,177.9s2.47,3.68,2.15,4.06c-.32,.39-1.89,.8-1.89,.8l-.26-4.87Z"/>
        <path class="cls-24" d="M84.81,166.26c2.4,1.22,6.56,3.48,7.63,12.18,1.1,8.94-.93,12.04-2.17,13.21-.84,.79-5.15,1.08-7.41,.39-2.82-.86-8.92-3.82-11.78-8.44-3.37-5.43-4.06-12.66-.18-15.49,5.47-3.99,11.87-2.89,13.9-1.85Z"/>
        <path class="cls-15" d="M90.04,191.81c-1.01,.56-3.88,.79-6.02,.48l.06-1.6s1.2,.55,2.85,.93c1.64,.37,3.09,.2,3.11,.2Z"/>
        <path class="cls-23" d="M56.55,164.38c1.69-3.32,5.75-4.63,9.07-2.94,2.04,1.04,2.2,2.41,1.64,4.07,.61-.4,1.27-.77,2.03-1.07,.34-.13,.69-.21,1.03-.31,3.17-.84,6.54-.89,9.74-.21,1.6,.34,3.17,.86,4.65,1.57,.38,.18,.76,.34,1.14,.5,.99,.42,1.94,.84,2.8,1.61,.4,.36,.78,.77,.99,1.27,.19,.45,.25,.95,.2,1.44-.12,1.34-1.02,2.57-2.25,3.11,.65,.88,.88,2.05,.61,3.11-.33,1.26-1.28,2.25-2.2,3.17-.05,.05-.11,.11-.18,.13-.14,.04-.28-.04-.4-.12-1.51-1.01-2.44-2.75-4.58-2.05-2.8,.92-2.77,5.51-.34,7.15,1.24,.83,2.37,.08,2.37,.08,0,0-.74,6.93,1,8.82,1.9,2.06,5.26,1.34,5.26,1.34,0,0-1.56,7.63-13.03,6.47-9.66-.97-10.17-7.01-10.17-7.01,0,0-.71,3.16,2.32,6.04,0,0-7.22,.68-9.42-4.8-1.65-4.12,2.05-6.88,2.98-12.08,.38-2.13-.51-6.32-.35-9.74-.57,.04-1.21-.1-1.98-.49-3.32-1.69-4.63-5.75-2.94-9.07Z"/>
        <path class="cls-23" d="M86.18,182.86c1.1-.39,1.67-1.58,1.27-2.66-.4-1.08-1.61-1.64-2.71-1.25l1.44,3.91Z"/>
      </g>
    </g>
  </g>
</svg>