<?xml version="1.0" encoding="utf-8"?>
<!-- Generator: Adobe Illustrator 27.5.0, SVG Export Plug-In . SVG Version: 6.00 Build 0)  -->
<svg version="1.1" xmlns="http://www.w3.org/2000/svg" xmlns:xlink="http://www.w3.org/1999/xlink" x="0px" y="0px"
	 viewBox="0 0 500 500" style="enable-background:new 0 0 500 500;" xml:space="preserve">
<g id="Background_Complete">
	<g>
		<rect x="416.779" y="398.494" style="fill:#EBEBEB;" width="33.122" height="0.25"/>
		<rect x="322.527" y="401.208" style="fill:#EBEBEB;" width="8.693" height="0.25"/>
		<rect x="396.586" y="389.208" style="fill:#EBEBEB;" width="19.192" height="0.25"/>
		<rect x="52.459" y="390.888" style="fill:#EBEBEB;" width="43.193" height="0.25"/>
		<rect x="104.556" y="390.888" style="fill:#EBEBEB;" width="6.333" height="0.25"/>
		<rect x="131.471" y="395.111" style="fill:#EBEBEB;" width="93.676" height="0.25"/>
		<g>
			<path style="fill:#EBEBEB;" d="M238.401,337.8H45.302c-3.147,0-5.708-2.561-5.708-5.708V60.66c0-3.147,2.561-5.708,5.708-5.708
				h193.099c3.146,0,5.707,2.561,5.707,5.708v271.432C244.108,335.239,241.547,337.8,238.401,337.8z M45.302,55.203
				c-3.01,0-5.458,2.448-5.458,5.458v271.432c0,3.01,2.448,5.458,5.458,5.458h193.099c3.009,0,5.457-2.448,5.457-5.458V60.66
				c0-3.009-2.448-5.458-5.457-5.458H45.302z"/>
			<path style="fill:#EBEBEB;" d="M454.698,337.8H261.599c-3.146,0-5.707-2.561-5.707-5.708V60.66c0-3.147,2.561-5.708,5.707-5.708
				h193.099c3.148,0,5.708,2.561,5.708,5.708v271.432C460.406,335.239,457.845,337.8,454.698,337.8z M261.599,55.203
				c-3.009,0-5.457,2.448-5.457,5.458v271.432c0,3.01,2.448,5.458,5.457,5.458h193.099c3.01,0,5.458-2.448,5.458-5.458V60.66
				c0-3.009-2.448-5.458-5.458-5.458H261.599z"/>
		</g>
		<rect y="382.398" style="fill:#EBEBEB;" width="500" height="0.25"/>
	</g>
	<g>
		<g>
			<g>
				<path style="fill:#EBEBEB;" d="M90.88,257.132c-6.263-1.936-10.386-3.21-15.284-4.724c-1.117-0.345-0.82-2.002,0.348-1.94
					c5.711,0.301,10.387,0.549,17.613,0.933c-4.16-7.235-6.616-11.75-9.418-17.414c-0.514-1.038,0.862-1.967,1.632-1.101
					c3.76,4.229,6.906,7.666,11.948,13.076c1.204-7.003,2.597-13.448,4.342-19.928c0.314-1.167,2.055-0.864,1.949,0.34
					c-0.466,5.257-0.636,10.56-0.509,15.684c0.235,0.083,0.245,0.087,0.479,0.17c4.233-4.824,8.676-9.462,13.305-13.907
					c0.891-0.856,2.223,0.372,1.458,1.342c-4.493,5.697-8.652,11.656-12.436,17.85c6.045-2.28,12.125-4.492,18.226-6.634
					c1.139-0.4,1.869,1.207,0.819,1.802c-6.33,3.587-12.589,7.258-18.84,11.059c6.594,2.1,10.895,3.47,16.106,5.129
					c1.114,0.355,0.807,2.008-0.36,1.937c-5.34-0.323-9.775-0.59-16.551-0.998c3.271,3.831,5.545,6.458,8.19,9.431
					c0.773,0.869-0.322,2.13-1.291,1.487c-3.327-2.208-6.254-4.167-10.514-7.027c0.432,3.404,0.808,6.037,1.257,8.621
					c0.206,1.182-1.466,1.648-1.902,0.53c-1.106-2.83-2.118-5.647-3.403-9.381c-4.81,23.016-3.563,45.326,1.088,68.205
					c-2.306-0.417-3.458-0.625-5.764-1.041c-3.369-23.457-2.497-44.461,2.702-67.52c-2.889,2.98-5.012,5.231-7.037,7.496
					c-0.801,0.896-2.211-0.144-1.59-1.174c1.359-2.254,2.837-4.549,4.81-7.513c-5.146,1.128-8.671,1.908-12.556,2.783
					c-1.145,0.258-1.711-1.335-0.661-1.857C82.66,261.047,85.985,259.447,90.88,257.132z"/>
			</g>
			<g>
				<path style="fill:#F0F0F0;" d="M82.749,265.083c4.746-2.516,8.164-4.329,11.736-6.223c1.384-0.734,0.58-2.839-0.942-2.466
					c-4.458,1.093-8.605,2.112-14.494,3.558c2.362-6.805,3.855-11.382,5.31-16.421c0.431-1.493-1.615-2.385-2.418-1.055
					c-2.383,3.949-4.652,7.605-7.996,12.909c-2.027-5.417-4.107-10.448-6.388-15.389c-0.677-1.466-2.885-0.67-2.486,0.895
					c1,3.917,1.828,7.863,2.465,11.739c-0.215,0.125-0.224,0.131-0.439,0.256c-3.794-2.962-7.685-5.799-11.662-8.51
					c-1.368-0.933-2.874,0.956-1.652,2.073c4.189,3.831,8.2,7.856,12.013,12.063c-5.136-0.897-10.286-1.747-15.443-2.548
					c-1.6-0.249-2.16,2.041-0.63,2.57c5.693,1.969,11.357,4.008,17.032,6.135c-5.058,2.738-8.654,4.684-12.486,6.758
					c-1.377,0.745-0.559,2.844,0.959,2.459c4.118-1.043,8.005-2.027,13.451-3.405c-1.949,3.412-3.439,5.992-4.97,8.582
					c-0.791,1.338,0.966,2.713,2.076,1.625c2.167-2.123,4.321-4.246,7.171-7.06c0.124,2.025,0.218,3.782,0.282,5.422
					c0.062,1.598,2.376,1.741,2.64,0.164c0.33-1.972,0.651-4.076,1.011-6.566c9.021,21.714,11.96,43.865,11.661,67.209
					c2.188-0.839,3.281-1.259,5.468-2.098c-1.068-23.674-5.845-44.145-15.257-65.829c2.072,1.458,3.814,2.703,5.404,3.872
					c1.304,0.958,2.869-0.801,1.759-1.979c-1.081-1.148-2.267-2.376-3.637-3.775c4.011,0.113,7.06,0.202,10.044,0.298
					c1.574,0.051,1.914-2.194,0.395-2.611C89.786,266.926,86.758,266.124,82.749,265.083z"/>
			</g>
			<g>
				<path style="fill:#F5F5F5;" d="M103.479,277.696c-3.548-1.881-6.078-3.222-8.754-4.642c-0.98-0.519-0.412-2.01,0.665-1.746
					c3.334,0.818,6.397,1.569,10.786,2.648c-1.754-5.052-2.85-8.419-3.929-12.173c-0.304-1.058,1.143-1.69,1.712-0.747
					c1.778,2.949,3.45,5.645,5.938,9.592c1.514-4.048,3.07-7.8,4.782-11.489c0.481-1.036,2.046-0.471,1.761,0.635
					c-0.767,2.971-1.399,5.967-1.881,8.907c0.137,0.08,0.143,0.083,0.281,0.164c2.881-2.251,5.839-4.404,8.865-6.456
					c0.97-0.658,2.027,0.69,1.159,1.48c-3.151,2.866-6.165,5.882-9.026,9.039c3.845-0.671,7.701-1.307,11.562-1.905
					c1.131-0.175,1.531,1.446,0.45,1.819c-4.249,1.467-8.476,2.987-12.711,4.574c3.774,2.043,6.432,3.481,9.3,5.033
					c0.975,0.528,0.395,2.013-0.679,1.741c-3.083-0.781-5.958-1.509-10.023-2.537c1.466,2.567,2.576,4.488,3.73,6.437
					c0.561,0.948-0.681,1.924-1.468,1.153c-1.631-1.598-3.236-3.178-5.38-5.296c-0.098,1.589-0.169,2.951-0.216,4.224
					c-0.042,1.131-1.679,1.238-1.868,0.122c-0.257-1.517-0.504-3.129-0.783-5.061c-6.576,15.829-8.719,31.977-8.501,48.994
					c-1.594-0.612-2.392-0.918-3.986-1.53c0.779-17.258,4.261-32.181,11.122-47.988c-1.619,1.139-2.961,2.1-4.187,3.004
					c-0.921,0.679-2.029-0.565-1.246-1.4c0.845-0.901,1.774-1.865,2.862-2.976c-3.029,0.085-5.307,0.152-7.558,0.225
					c-1.115,0.036-1.354-1.552-0.279-1.849C98.194,279.08,100.453,278.482,103.479,277.696z"/>
			</g>
			<path style="fill:#F0F0F0;" d="M78.789,382.233h29.822c2.085,0,3.81-1.622,3.938-3.704l3.161-51.435
				c0.139-2.27-44.16-2.27-44.021,0l3.161,51.435C74.979,380.611,76.704,382.233,78.789,382.233z"/>
			<path style="fill:#E6E6E6;" d="M76.978,263.383c-0.788-0.652-1.192-1.659-1.073-2.675l0.671-5.7l-1.529,2.651
				c-0.905,1.569-2.98,1.991-4.426,0.9l-2.991-2.257l2.734,4.413c0.783,1.263,0.528,2.908-0.601,3.875l-3.534,3.029l3.465-0.79
				c1.518-0.346,3.05,0.521,3.534,2l1.193,3.641l0.763-3.873c0.343-1.74,2.106-2.809,3.808-2.309l2.328,0.685L76.978,263.383z"/>
			<path style="fill:#F5F5F5;" d="M96.871,253.562c0.576-0.476,0.871-1.212,0.784-1.954l-0.49-4.164l1.117,1.936
				c0.661,1.146,2.177,1.454,3.233,0.657l2.185-1.649l-1.997,3.223c-0.572,0.923-0.385,2.124,0.439,2.831l2.582,2.213l-2.531-0.577
				c-1.109-0.253-2.228,0.38-2.582,1.461l-0.871,2.659l-0.557-2.829c-0.25-1.271-1.538-2.052-2.781-1.687l-1.7,0.5L96.871,253.562z"
				/>
			<path style="fill:#E6E6E6;" d="M108.659,277.426c0.413-0.342,0.625-0.869,0.562-1.402l-0.351-2.988l0.802,1.39
				c0.475,0.822,1.562,1.043,2.32,0.471l1.568-1.183l-1.433,2.313c-0.41,0.662-0.276,1.525,0.315,2.031l1.852,1.588l-1.816-0.414
				c-0.796-0.181-1.599,0.273-1.853,1.048L110,282.189l-0.4-2.03c-0.18-0.912-1.104-1.473-1.996-1.21l-1.22,0.359L108.659,277.426z"
				/>
		</g>
		<g>
			<path style="fill:#F5F5F5;" d="M384.634,143.387h-26.168c-0.728,0-1.319-0.59-1.319-1.319v-5.092
				c0-0.728,0.591-1.319,1.319-1.319h26.168c0.728,0,1.319,0.591,1.319,1.319v5.092
				C385.953,142.797,385.362,143.387,384.634,143.387z"/>
			<path style="fill:#F5F5F5;" d="M375.838,152.967h-26.169c-0.728,0-1.319-0.59-1.319-1.319v-5.092
				c0-0.729,0.591-1.319,1.319-1.319h26.169c0.728,0,1.319,0.59,1.319,1.319v5.092C377.157,152.376,376.566,152.967,375.838,152.967
				z"/>
			<path style="fill:#F0F0F0;" d="M405.988,152.967H379.82c-0.728,0-1.319-0.59-1.319-1.319v-5.092c0-0.729,0.591-1.319,1.319-1.319
				h26.168c0.728,0,1.319,0.59,1.319,1.319v5.092C407.307,152.376,406.717,152.967,405.988,152.967z"/>
		</g>
		<g>
			<path style="fill:#F5F5F5;" d="M419.975,82.328h-27.92c-0.729,0-1.319-0.591-1.319-1.319v-5.562c0-0.728,0.59-1.319,1.319-1.319
				h27.92c0.728,0,1.319,0.591,1.319,1.319v5.562C421.294,81.737,420.703,82.328,419.975,82.328z"/>
			<path style="fill:#F5F5F5;" d="M419.975,102.672h-27.92c-0.729,0-1.319-0.59-1.319-1.319v-5.562c0-0.729,0.59-1.319,1.319-1.319
				h27.92c0.728,0,1.319,0.59,1.319,1.319v5.562C421.294,102.082,420.703,102.672,419.975,102.672z"/>
			<path style="fill:#F5F5F5;" d="M410.644,92.49h-27.92c-0.728,0-1.319-0.591-1.319-1.319v-5.562c0-0.729,0.591-1.319,1.319-1.319
				h27.92c0.728,0,1.319,0.59,1.319,1.319v5.562C411.963,91.899,411.373,92.49,410.644,92.49z"/>
			<path style="fill:#F0F0F0;" d="M442.628,92.49h-27.92c-0.728,0-1.319-0.591-1.319-1.319v-5.562c0-0.729,0.591-1.319,1.319-1.319
				h27.92c0.729,0,1.319,0.59,1.319,1.319v5.562C443.947,91.899,443.356,92.49,442.628,92.49z"/>
		</g>
		<g>
			<g>
				<g>
					<g>
						
							<rect x="218.935" y="317.68" transform="matrix(-1 -1.224647e-16 1.224647e-16 -1 629.917 640.8805)" style="fill:#F5F5F5;" width="192.046" height="5.52"/>
						
							<rect x="409.545" y="317.68" transform="matrix(-1 -1.224647e-16 1.224647e-16 -1 862.1065 640.8805)" style="fill:#EBEBEB;" width="43.017" height="5.52"/>
					</g>
					<g>
						<polygon style="fill:#E0E0E0;" points="238.893,336.622 238.893,323.2 229.945,323.2 						"/>
						<polygon style="fill:#FAFAFA;" points="234.419,336.622 225.472,323.2 229.945,323.2 238.893,336.622 						"/>
					</g>
					<g>
						<polygon style="fill:#E0E0E0;" points="445.558,336.622 445.558,323.2 436.611,323.2 						"/>
						<polygon style="fill:#FAFAFA;" points="441.084,336.622 432.137,323.2 436.611,323.2 445.558,336.622 						"/>
					</g>
				</g>
				<path style="fill:#F0F0F0;" d="M421.833,318.432h5.056c2.276,0,4.1-1.886,4.023-4.161l-0.643-19.059h-11.816l-0.643,19.059
					C417.734,316.546,419.557,318.432,421.833,318.432z"/>
				<g>
					
						<ellipse transform="matrix(0.7071 -0.7071 0.7071 0.7071 -96.0805 364.9046)" style="fill:#F0F0F0;" cx="392.439" cy="298.432" rx="11.22" ry="11.22"/>
					<g>
						<path style="fill:#EBEBEB;" d="M391.655,318.263h1.567v-7.435h-0.783c-6.835,0-12.396-5.561-12.396-12.396
							c0-6.835,5.561-12.396,12.396-12.396v-1.567c-7.699,0-13.963,6.264-13.963,13.963c0,7.436,5.843,13.534,13.18,13.941V318.263z
							"/>
					</g>
					<path style="fill:#EBEBEB;" d="M385.849,318.432h13.342l0,0c0-1.652-1.339-2.991-2.991-2.991h-7.36
						C387.188,315.441,385.849,316.78,385.849,318.432L385.849,318.432z"/>
				</g>
				<g>
					<polygon style="fill:#F5F5F5;" points="422.586,318.432 412.045,307.892 401.504,318.432 					"/>
					<polygon style="fill:#E6E6E6;" points="412.045,307.892 422.586,318.432 412.045,318.432 					"/>
				</g>
				<path style="fill:#F5F5F5;" d="M338.557,304.64c0.054,0.999,0.084,1.797,0.084,2.327c0,4.601-2.069,8.706-5.319,11.466h-18.527
					c-3.25-2.76-5.319-6.865-5.319-11.466c0-0.53,0.03-1.327,0.084-2.327H338.557z"/>
				<path style="fill:#EBEBEB;" d="M335.97,312.846c0,2.241,1.008,4.241,2.592,5.586h9.026c1.025-0.87,1.802-2.017,2.228-3.324
					c0.175,0.032,0.356,0.054,0.546,0.054c1.809,0,3.833-1.439,3.833-3.364c0-2.012-1.163-3.364-2.895-3.364
					c-0.39,0-0.788,0.07-1.176,0.194c-0.001-0.044-0.001-0.086-0.002-0.13c-0.016-0.966-0.804-1.743-1.77-1.743h-10.556
					c-0.966,0-1.754,0.777-1.77,1.743C335.993,310.512,335.97,312.149,335.97,312.846z M350.075,314.017
					c0.062-0.382,0.105-0.771,0.105-1.17c0-0.536-0.014-1.63-0.035-3.02c0.376-0.168,0.778-0.263,1.156-0.263
					c1.64,0,1.767,1.712,1.767,2.236c0,1.239-1.48,2.237-2.706,2.237C350.26,314.036,350.165,314.029,350.075,314.017z"/>
				<g>
					<g>
						<polygon style="fill:#F0F0F0;" points="252.437,318.432 253.915,301.544 232.498,301.544 231.02,318.432 						"/>
						<polygon style="fill:#E0E0E0;" points="252.437,318.432 253.915,301.544 255.068,301.544 253.591,318.432 						"/>
						<polygon style="fill:#FAFAFA;" points="250.404,316.711 251.581,303.266 234.531,303.266 233.354,316.711 						"/>
						<polygon style="fill:#EBEBEB;" points="249.098,315.604 250.08,304.373 235.837,304.373 234.855,315.604 						"/>
					</g>
					<g>
						<g>
							<polygon style="fill:#F0F0F0;" points="276.583,318.432 255.068,318.432 257.455,291.148 278.97,291.148 							"/>
							<polygon style="fill:#E0E0E0;" points="276.583,318.432 277.61,318.432 279.997,291.148 278.97,291.148 							"/>
							<polygon style="fill:#E0E0E0;" points="274.633,315.651 257.505,315.651 259.405,293.93 276.533,293.93 							"/>
							<polygon style="fill:#FAFAFA;" points="273.379,313.862 259.072,313.862 260.659,295.718 274.967,295.718 							"/>
						</g>
						<path style="fill:#EBEBEB;" d="M263.066,305.558l1.41,1.41c1.241,1.24,3.252,1.24,4.492,0l1.41-1.41
							c1.24-1.24,1.24-3.252,0-4.492l-1.409-1.41c-1.241-1.24-3.252-1.24-4.492,0l-1.41,1.41
							C261.825,302.307,261.825,304.318,263.066,305.558z"/>
						<path style="fill:#E6E6E6;" d="M262.354,310.777l0.697,0.697c1.24,1.241,3.251,1.241,4.492,0l0.697-0.697
							c1.24-1.24,1.24-3.252,0-4.492l-0.697-0.697c-1.24-1.241-3.252-1.24-4.492,0l-0.697,0.697
							C261.114,307.526,261.114,309.537,262.354,310.777z"/>
					</g>
				</g>
			</g>
		</g>
		<g>
			<path style="fill:#F5F5F5;" d="M69.383,114.828h30.562c0.729,0,1.319,0.59,1.319,1.319v6.271c0,0.729-0.59,1.319-1.319,1.319
				H69.383c-0.729,0-1.319-0.59-1.319-1.319v-6.271C68.064,115.419,68.654,114.828,69.383,114.828z"/>
			<path style="fill:#F5F5F5;" d="M84.891,103.788h30.562c0.728,0,1.319,0.59,1.319,1.319v6.271c0,0.728-0.591,1.319-1.319,1.319
				H84.891c-0.729,0-1.319-0.591-1.319-1.319v-6.271C83.572,104.379,84.163,103.788,84.891,103.788z"/>
			<path style="fill:#F0F0F0;" d="M50.143,103.788h30.562c0.729,0,1.319,0.59,1.319,1.319v6.271c0,0.728-0.59,1.319-1.319,1.319
				H50.143c-0.729,0-1.319-0.591-1.319-1.319v-6.271C48.824,104.379,49.414,103.788,50.143,103.788z"/>
		</g>
	</g>
</g>
<g id="Background_Simple" style="display:none;">
	<g style="display:inline;">
		<path style="fill:#407BFF;" d="M64.334,285.744c-10.472-22.777-16.936-47.699-16.172-73.01
			c0.905-30.01,9.776-60.007,26.835-84.016s42.511-41.655,70.53-46.625s58.289,3.37,79.225,23.667
			c20.05,19.438,47.367,32.012,74.444,29.192c20.308-2.115,39.488-11.243,55.724-24.459c19.687-16.025,47.128-17.056,66.915-1.17
			c5.608,4.502,10.579,9.962,14.638,16.241c14.589,22.564,18.067,51.728,13.619,78.649c-4.448,26.921-16.196,51.923-29.971,75.052
			C360.545,385.427,135.404,440.318,64.334,285.744z"/>
		<path style="opacity:0.9;fill:#FFFFFF;" d="M64.334,285.744c-10.472-22.777-16.936-47.699-16.172-73.01
			c0.905-30.01,9.776-60.007,26.835-84.016s42.511-41.655,70.53-46.625s58.289,3.37,79.225,23.667
			c20.05,19.438,47.367,32.012,74.444,29.192c20.308-2.115,39.488-11.243,55.724-24.459c19.687-16.025,47.128-17.056,66.915-1.17
			c5.608,4.502,10.579,9.962,14.638,16.241c14.589,22.564,18.067,51.728,13.619,78.649c-4.448,26.921-16.196,51.923-29.971,75.052
			C360.545,385.427,135.404,440.318,64.334,285.744z"/>
	</g>
</g>
<g id="Shadow">
	<ellipse id="_x3C_Path_x3E__1_" style="fill:#F5F5F5;" cx="250" cy="412.391" rx="193.889" ry="11.323"/>
</g>
<g id="Pricing_Plans_3">
	<g>
		<g>
			<path style="fill:#407BFF;" d="M392.741,277.531h-58.505c-10.288,0-18.629-8.34-18.629-18.629V100.117
				c0-10.288,8.34-18.629,18.629-18.629h58.505c10.288,0,18.629,8.34,18.629,18.629v158.785
				C411.37,269.19,403.029,277.531,392.741,277.531z"/>
			<path style="opacity:0.3;" d="M392.949,81.488h-58.922c-10.173,0-18.42,8.247-18.42,18.42V259.11
				c0,10.173,8.247,18.42,18.42,18.42h58.922c10.173,0,18.42-8.247,18.42-18.42V99.908C411.37,89.735,403.123,81.488,392.949,81.488
				z"/>
			<path style="fill:#407BFF;" d="M411.37,91.106v38.878h-95.763V91.106c0-5.309,4.307-9.616,9.621-9.616h76.521
				C407.063,81.49,411.37,85.797,411.37,91.106z"/>
		</g>
		<g>
			<path style="fill:#FFFFFF;" d="M342.699,102.423c0,1.915-1.418,3.096-3.706,3.096h-1.965v2.512h-1.617v-8.705h3.582
				C341.281,99.326,342.699,100.495,342.699,102.423z M341.07,102.423c0-1.095-0.733-1.729-2.151-1.729h-1.89v3.458h1.89
				C340.337,104.151,341.07,103.517,341.07,102.423z"/>
			<path style="fill:#FFFFFF;" d="M347.948,101.316v1.48c-0.137-0.025-0.249-0.038-0.36-0.038c-1.182,0-1.928,0.697-1.928,2.052
				v3.221h-1.555v-6.641h1.48v0.97C346.033,101.664,346.841,101.316,347.948,101.316z"/>
			<path style="fill:#FFFFFF;" d="M355.423,105.209h-5.211c0.186,0.97,0.995,1.592,2.152,1.592c0.746,0,1.331-0.236,1.803-0.722
				l0.833,0.958c-0.597,0.709-1.53,1.082-2.674,1.082c-2.226,0-3.668-1.43-3.668-3.407c0-1.978,1.455-3.395,3.432-3.395
				c1.94,0,3.358,1.355,3.358,3.432C355.448,104.873,355.435,105.059,355.423,105.209z M350.199,104.176h3.768
				c-0.125-0.957-0.858-1.617-1.878-1.617C351.082,102.56,350.349,103.206,350.199,104.176z"/>
			<path style="fill:#FFFFFF;" d="M368.045,104.226v3.805h-1.555v-3.607c0-1.181-0.547-1.753-1.492-1.753
				c-1.02,0-1.728,0.671-1.728,1.99v3.37h-1.555v-3.607c0-1.181-0.547-1.753-1.492-1.753c-1.032,0-1.729,0.671-1.729,1.99v3.37
				h-1.555v-6.641h1.48v0.846c0.498-0.597,1.269-0.92,2.176-0.92c0.97,0,1.778,0.36,2.239,1.107c0.535-0.684,1.43-1.107,2.487-1.107
				C366.926,101.316,368.045,102.224,368.045,104.226z"/>
			<path style="fill:#FFFFFF;" d="M369.824,99.363c0-0.522,0.423-0.933,0.995-0.933c0.572,0,0.995,0.386,0.995,0.896
				c0,0.547-0.41,0.97-0.995,0.97C370.247,100.296,369.824,99.886,369.824,99.363z M370.036,101.391h1.555v6.641h-1.555V101.391z"/>
			<path style="fill:#FFFFFF;" d="M380.059,101.391v6.641h-1.48v-0.846c-0.498,0.609-1.281,0.933-2.139,0.933
				c-1.704,0-2.86-0.933-2.86-2.935v-3.793h1.554v3.582c0,1.206,0.572,1.778,1.555,1.778c1.082,0,1.815-0.672,1.815-2.003v-3.357
				H380.059z"/>
			<path style="fill:#FFFFFF;" d="M393.205,104.226v3.805h-1.555v-3.607c0-1.181-0.547-1.753-1.492-1.753
				c-1.02,0-1.728,0.671-1.728,1.99v3.37h-1.555v-3.607c0-1.181-0.547-1.753-1.492-1.753c-1.032,0-1.729,0.671-1.729,1.99v3.37
				h-1.555v-6.641h1.48v0.846c0.498-0.597,1.268-0.92,2.176-0.92c0.97,0,1.778,0.36,2.239,1.107c0.535-0.684,1.43-1.107,2.487-1.107
				C392.086,101.316,393.205,102.224,393.205,104.226z"/>
		</g>
		<g>
			<path style="fill:#407BFF;" d="M383.477,267.119h-39.978c-5.436,0-9.843-4.407-9.843-9.843v-0.746
				c0-5.436,4.407-9.844,9.843-9.844h39.978c5.436,0,9.843,4.407,9.843,9.844v0.746C393.32,262.712,388.913,267.119,383.477,267.119
				z"/>
			<g>
				<g>
					<path style="fill:#FFFFFF;" d="M348.014,258.469c0,1.858-1.495,3.101-3.828,3.296l-0.307,1.537h-1.397l0.307-1.537
						c-1.327-0.126-2.501-0.544-3.213-1.075l0.936-1.732c0.741,0.545,1.676,0.894,2.641,0.992l0.475-2.361
						c-1.299-0.391-2.724-0.908-2.724-2.599c0-1.858,1.523-3.115,3.898-3.283l0.307-1.537h1.397l-0.307,1.551
						c0.992,0.097,1.9,0.377,2.57,0.796l-0.852,1.732c-0.601-0.405-1.327-0.643-2.082-0.726l-0.489,2.459
						C346.632,256.359,348.014,256.862,348.014,258.469z M344.019,255.59l0.405-2.012c-0.796,0.154-1.243,0.586-1.257,1.117
						C343.167,255.13,343.516,255.38,344.019,255.59z M345.751,258.831c0-0.405-0.322-0.657-0.81-0.838l-0.377,1.914
						C345.318,259.753,345.751,259.362,345.751,258.831z"/>
				</g>
			</g>
		</g>
		<g>
			<line x1="337.744" y1="205.888" x2="387.178" y2="205.888"/>
			<rect x="337.744" y="204.888" style="fill:#407BFF;" width="49.434" height="2"/>
		</g>
		<g>
			<line x1="337.744" y1="173.048" x2="387.178" y2="173.048"/>
			<rect x="337.744" y="172.048" style="fill:#407BFF;" width="49.434" height="2"/>
		</g>
		<g>
			<line x1="337.744" y1="141.396" x2="387.178" y2="141.396"/>
			<rect x="337.744" y="140.396" style="fill:#407BFF;" width="49.434" height="2"/>
		</g>
		<g>
			
				<ellipse transform="matrix(0.7071 -0.7071 0.7071 0.7071 -5.0694 302.0415)" style="fill:#407BFF;" cx="362.062" cy="157.14" rx="8.597" ry="8.597"/>
			<g>
				<polygon style="fill:#FFFFFF;" points="368.215,155.28 363.269,160.226 360.962,162.536 358.652,160.226 360.959,157.919 
					365.904,152.97 				"/>
				<polygon style="fill:#FFFFFF;" points="363.269,160.226 360.962,162.536 356.063,157.637 358.37,155.33 360.959,157.919 				"/>
			</g>
		</g>
		<g>
			<circle style="fill:#407BFF;" cx="362.062" cy="188.875" r="8.597"/>
			<g>
				<polygon style="fill:#FFFFFF;" points="368.215,187.014 363.269,191.96 360.962,194.27 358.652,191.96 360.959,189.654 
					365.904,184.704 				"/>
				<polygon style="fill:#FFFFFF;" points="363.269,191.96 360.962,194.27 356.063,189.371 358.37,187.065 360.959,189.654 				"/>
			</g>
		</g>
		<g>
			<circle style="fill:#407BFF;" cx="362.062" cy="222.901" r="8.597"/>
			<g>
				<polygon style="fill:#FFFFFF;" points="368.215,221.04 363.269,225.986 360.962,228.296 358.652,225.986 360.959,223.68 
					365.904,218.73 				"/>
				<polygon style="fill:#FFFFFF;" points="363.269,225.986 360.962,228.296 356.063,223.397 358.37,221.091 360.959,223.68 				"/>
			</g>
		</g>
		<g>
			<polygon style="fill:#FFFFFF;" points="350.787,116.215 352.396,118.788 355.34,119.523 353.39,121.848 353.601,124.875 
				350.787,123.739 347.973,124.875 348.184,121.848 346.234,119.523 349.179,118.788 			"/>
			<polygon style="fill:#FFFFFF;" points="362.062,116.215 363.67,118.788 366.615,119.523 364.665,121.848 364.876,124.875 
				362.062,123.739 359.248,124.875 359.459,121.848 357.509,119.523 360.453,118.788 			"/>
			<polygon style="fill:#FFFFFF;" points="373.336,116.215 374.945,118.788 377.889,119.523 375.939,121.848 376.15,124.875 
				373.336,123.739 370.522,124.875 370.733,121.848 368.783,119.523 371.727,118.788 			"/>
		</g>
	</g>
</g>
<g id="Pricing_Plans_2">
	<g>
		<g>
			<g>
				<path style="fill:#407BFF;" d="M280.235,266.372H221.73c-10.288,0-18.629-8.34-18.629-18.629V88.958
					c0-10.288,8.34-18.629,18.629-18.629h58.505c10.288,0,18.629,8.34,18.629,18.629v158.785
					C298.863,258.032,290.523,266.372,280.235,266.372z"/>
				<path style="opacity:0.5;fill:#FFFFFF;" d="M279.613,70.332H222.35c-10.63,0-19.248,8.618-19.248,19.248v157.54
					c0,10.633,8.62,19.253,19.253,19.253h57.258c10.633,0,19.253-8.62,19.253-19.253V89.585
					C298.866,78.951,290.246,70.332,279.613,70.332z"/>
			</g>
			<path style="fill:#407BFF;" d="M298.866,79.948v38.878h-95.763V79.948c0-5.309,4.307-9.616,9.621-9.616h76.521
				C294.559,70.332,298.866,74.639,298.866,79.948z"/>
			<g>
				<path style="fill:#FFFFFF;" d="M222.846,95.953l0.56-1.256c0.696,0.56,1.803,0.957,2.872,0.957c1.355,0,1.927-0.485,1.927-1.132
					c0-1.878-5.173-0.646-5.173-3.88c0-1.405,1.12-2.599,3.507-2.599c1.044,0,2.139,0.274,2.897,0.771l-0.51,1.256
					c-0.784-0.46-1.642-0.684-2.4-0.684c-1.343,0-1.89,0.522-1.89,1.181c0,1.853,5.161,0.647,5.161,3.843
					c0,1.393-1.131,2.587-3.519,2.587C224.923,96.998,223.568,96.575,222.846,95.953z"/>
				<path style="fill:#FFFFFF;" d="M235.245,96.512c-0.373,0.299-0.933,0.448-1.492,0.448c-1.455,0-2.289-0.771-2.289-2.238v-3.196
					h-1.094v-1.243h1.094v-1.518h1.555v1.518h1.778v1.243h-1.778v3.159c0,0.646,0.323,0.995,0.92,0.995
					c0.323,0,0.634-0.087,0.871-0.273L235.245,96.512z"/>
				<path style="fill:#FFFFFF;" d="M242.085,92.98v3.893h-1.467v-0.808c-0.373,0.572-1.095,0.895-2.089,0.895
					c-1.517,0-2.475-0.833-2.475-1.99c0-1.106,0.746-1.977,2.761-1.977h1.716v-0.1c0-0.908-0.547-1.442-1.654-1.442
					c-0.746,0-1.517,0.248-2.015,0.659l-0.609-1.131c0.709-0.547,1.741-0.821,2.811-0.821
					C240.978,90.158,242.085,91.065,242.085,92.98z M240.531,94.796v-0.771h-1.604c-1.057,0-1.343,0.398-1.343,0.883
					c0,0.56,0.473,0.92,1.269,0.92C239.611,95.829,240.27,95.48,240.531,94.796z"/>
				<path style="fill:#FFFFFF;" d="M250.617,93.068v3.805h-1.555v-3.606c0-1.181-0.584-1.753-1.579-1.753
					c-1.107,0-1.853,0.671-1.853,2.002v3.358h-1.555v-6.641h1.48v0.858c0.51-0.609,1.318-0.933,2.288-0.933
					C249.435,90.158,250.617,91.065,250.617,93.068z"/>
				<path style="fill:#FFFFFF;" d="M259.161,87.646v9.228h-1.493v-0.858c-0.522,0.634-1.293,0.945-2.201,0.945
					c-1.927,0-3.357-1.343-3.357-3.407c0-2.064,1.43-3.395,3.357-3.395c0.858,0,1.617,0.286,2.139,0.896v-3.408H259.161z
					 M257.631,93.553c0-1.268-0.858-2.077-1.978-2.077c-1.119,0-1.977,0.808-1.977,2.077c0,1.269,0.858,2.077,1.977,2.077
					C256.773,95.629,257.631,94.821,257.631,93.553z"/>
				<path style="fill:#FFFFFF;" d="M266.76,92.98v3.893h-1.467v-0.808c-0.373,0.572-1.095,0.895-2.089,0.895
					c-1.517,0-2.475-0.833-2.475-1.99c0-1.106,0.746-1.977,2.761-1.977h1.716v-0.1c0-0.908-0.547-1.442-1.654-1.442
					c-0.746,0-1.517,0.248-2.015,0.659l-0.609-1.131c0.709-0.547,1.741-0.821,2.811-0.821
					C265.653,90.158,266.76,91.065,266.76,92.98z M265.205,94.796v-0.771h-1.604c-1.057,0-1.343,0.398-1.343,0.883
					c0,0.56,0.473,0.92,1.269,0.92C264.285,95.829,264.944,95.48,265.205,94.796z"/>
				<path style="fill:#FFFFFF;" d="M272.592,90.158v1.48c-0.137-0.025-0.249-0.038-0.36-0.038c-1.182,0-1.928,0.697-1.928,2.052
					v3.221h-1.555v-6.641h1.48v0.97C270.677,90.506,271.486,90.158,272.592,90.158z"/>
				<path style="fill:#FFFFFF;" d="M280.353,87.646v9.228h-1.493v-0.858c-0.522,0.634-1.293,0.945-2.201,0.945
					c-1.927,0-3.357-1.343-3.357-3.407c0-2.064,1.43-3.395,3.357-3.395c0.858,0,1.617,0.286,2.139,0.896v-3.408H280.353z
					 M278.823,93.553c0-1.268-0.858-2.077-1.978-2.077c-1.119,0-1.977,0.808-1.977,2.077c0,1.269,0.858,2.077,1.977,2.077
					C277.966,95.629,278.823,94.821,278.823,93.553z"/>
			</g>
			<g>
				<path style="fill:#407BFF;" d="M271.78,255.961h-39.978c-5.436,0-9.843-4.407-9.843-9.843v-0.746
					c0-5.436,4.407-9.844,9.843-9.844h39.978c5.436,0,9.844,4.407,9.844,9.844v0.746
					C281.624,251.554,277.217,255.961,271.78,255.961z"/>
			</g>
			<g>
				<line x1="226.047" y1="194.729" x2="275.481" y2="194.729"/>
				<rect x="226.047" y="193.73" style="fill:#407BFF;" width="49.434" height="2"/>
			</g>
			<g>
				<line x1="226.047" y1="161.89" x2="275.481" y2="161.89"/>
				<rect x="226.047" y="160.89" style="fill:#407BFF;" width="49.434" height="2"/>
			</g>
			<g>
				<line x1="226.047" y1="130.238" x2="275.481" y2="130.238"/>
				<rect x="226.047" y="129.237" style="fill:#407BFF;" width="49.434" height="2"/>
			</g>
			<g>
				
					<ellipse transform="matrix(0.2298 -0.9732 0.9732 0.2298 19.6105 380.2115)" style="fill:#407BFF;" cx="250.014" cy="177.716" rx="8.597" ry="8.597"/>
				<g>
					<polygon style="fill:#FFFFFF;" points="256.167,175.856 251.222,180.802 248.915,183.112 246.605,180.802 248.911,178.495 
						253.857,173.546 					"/>
					<polygon style="fill:#FFFFFF;" points="251.222,180.802 248.915,183.112 244.016,178.213 246.322,175.906 248.911,178.495 
											"/>
				</g>
			</g>
			<g>
				
					<ellipse transform="matrix(0.9239 -0.3827 0.3827 0.9239 -61.942 112.0815)" style="fill:#407BFF;" cx="250.764" cy="211.742" rx="8.597" ry="8.597"/>
				<g>
					<polygon style="fill:#FFFFFF;" points="256.917,209.882 251.971,214.828 249.665,217.138 247.355,214.828 249.661,212.521 
						254.607,207.572 					"/>
					<polygon style="fill:#FFFFFF;" points="251.971,214.828 249.665,217.138 244.766,212.239 247.072,209.932 249.661,212.521 
											"/>
				</g>
			</g>
			<g>
				<g>
					<circle style="fill:#263238;" cx="250.014" cy="146.067" r="8.509"/>
					<circle style="opacity:0.5;fill:#FFFFFF;" cx="250.014" cy="146.067" r="8.509"/>
				</g>
				<g>
					
						<rect x="244.829" y="144.451" transform="matrix(0.7071 -0.7071 0.7071 0.7071 -30.057 219.5709)" style="fill:#FFFFFF;" width="10.37" height="3.231"/>
					
						<rect x="244.829" y="144.451" transform="matrix(-0.7071 -0.7071 0.7071 -0.7071 323.5164 426.139)" style="fill:#FFFFFF;" width="10.37" height="3.231"/>
				</g>
			</g>
		</g>
		<g>
			<g>
				<g>
					<polygon style="fill:#407BFF;" points="289.299,81.088 289.299,103.914 294.116,99.097 294.116,81.088 					"/>
					<g>
						<polygon style="fill:#407BFF;" points="298.933,81.088 298.933,103.914 294.116,99.097 294.116,81.088 						"/>
					</g>
				</g>
				<g style="opacity:0.3;">
					<polygon points="298.937,81.085 298.937,103.919 294.121,99.092 289.295,103.919 289.295,81.085 					"/>
				</g>
				<g>
					<path style="fill:#407BFF;" d="M296.468,58.273L296.468,58.273c0.691,1.296,2.284,1.814,3.606,1.172l0,0
						c1.966-0.956,4.203,0.669,3.901,2.834l0,0c-0.203,1.455,0.782,2.81,2.228,3.067l0,0c2.152,0.382,3.007,3.012,1.49,4.586l0,0
						c-1.019,1.058-1.019,2.733,0,3.791l0,0c1.517,1.574,0.662,4.204-1.49,4.586l0,0c-1.447,0.257-2.431,1.612-2.228,3.067l0,0
						c0.302,2.165-1.935,3.79-3.901,2.834l0,0c-1.321-0.643-2.914-0.125-3.606,1.172l0,0c-1.029,1.929-3.793,1.929-4.822,0l0,0
						c-0.691-1.297-2.284-1.814-3.606-1.172l0,0c-1.966,0.956-4.202-0.669-3.901-2.834l0,0c0.203-1.455-0.782-2.81-2.228-3.067l0,0
						c-2.152-0.382-3.007-3.012-1.49-4.586l0,0c1.019-1.058,1.019-2.733,0-3.791l0,0c-1.516-1.574-0.662-4.204,1.49-4.586l0,0
						c1.447-0.257,2.431-1.612,2.228-3.067l0,0c-0.301-2.165,1.935-3.79,3.901-2.834l0,0c1.321,0.643,2.914,0.125,3.606-1.172l0,0
						C292.674,56.345,295.439,56.345,296.468,58.273z"/>
					<path style="fill:#407BFF;" d="M296.468,58.273L296.468,58.273c0.691,1.296,2.284,1.814,3.606,1.172l0,0
						c1.966-0.956,4.203,0.669,3.901,2.834l0,0c-0.203,1.455,0.782,2.81,2.228,3.067l0,0c2.152,0.382,3.007,3.012,1.49,4.586l0,0
						c-1.019,1.058-1.019,2.733,0,3.791l0,0c1.517,1.574,0.662,4.204-1.49,4.586l0,0c-1.447,0.257-2.431,1.612-2.228,3.067l0,0
						c0.302,2.165-1.935,3.79-3.901,2.834l0,0c-1.321-0.643-2.914-0.125-3.606,1.172l0,0c-1.029,1.929-3.793,1.929-4.822,0l0,0
						c-0.691-1.297-2.284-1.814-3.606-1.172l0,0c-1.966,0.956-4.202-0.669-3.901-2.834l0,0c0.203-1.455-0.782-2.81-2.228-3.067l0,0
						c-2.152-0.382-3.007-3.012-1.49-4.586l0,0c1.019-1.058,1.019-2.733,0-3.791l0,0c-1.516-1.574-0.662-4.204,1.49-4.586l0,0
						c1.447-0.257,2.431-1.612,2.228-3.067l0,0c-0.301-2.165,1.935-3.79,3.901-2.834l0,0c1.321,0.643,2.914,0.125,3.606-1.172l0,0
						C292.674,56.345,295.439,56.345,296.468,58.273z"/>
					<g style="opacity:0.5;">
						<path style="fill:#FFFFFF;" d="M296.468,58.273L296.468,58.273c0.691,1.296,2.284,1.814,3.606,1.172l0,0
							c1.966-0.956,4.203,0.669,3.901,2.834l0,0c-0.203,1.455,0.782,2.81,2.228,3.067l0,0c2.152,0.382,3.007,3.012,1.49,4.586l0,0
							c-1.019,1.058-1.019,2.733,0,3.791l0,0c1.517,1.574,0.662,4.204-1.49,4.586l0,0c-1.447,0.257-2.431,1.612-2.228,3.067l0,0
							c0.302,2.165-1.935,3.79-3.901,2.834l0,0c-1.321-0.643-2.914-0.125-3.606,1.172l0,0c-1.029,1.929-3.793,1.929-4.822,0l0,0
							c-0.691-1.297-2.284-1.814-3.606-1.172l0,0c-1.966,0.956-4.202-0.669-3.901-2.834l0,0c0.203-1.455-0.782-2.81-2.228-3.067l0,0
							c-2.152-0.382-3.007-3.012-1.49-4.586l0,0c1.019-1.058,1.019-2.733,0-3.791l0,0c-1.516-1.574-0.662-4.204,1.49-4.586l0,0
							c1.447-0.257,2.431-1.612,2.228-3.067l0,0c-0.301-2.165,1.935-3.79,3.901-2.834l0,0c1.321,0.643,2.914,0.125,3.606-1.172l0,0
							C292.674,56.345,295.439,56.345,296.468,58.273z"/>
					</g>
				</g>
			</g>
			<g>
				<g>
					<path style="fill:#FFFFFF;" d="M289.731,68.965h-1.238c-0.584,0-1.084,0.475-1.115,1.06l-0.299,5.714
						c-0.031,0.585,0.42,1.059,1.004,1.059h1.238c0.584,0,1.084-0.475,1.114-1.059l0.3-5.714
						C290.764,69.44,290.315,68.965,289.731,68.965z"/>
					<path style="fill:#FFFFFF;" d="M299.62,68.965h-2.905l0.809-1.902c0.088-0.207,0.121-0.432,0.096-0.648l-0.171-1.5
						c-0.068-0.601-0.577-1.054-1.181-1.054h-1.447l0,0c-0.079,1.511-0.627,2.96-1.567,4.146l-0.889,1.122
						c-0.233,0.291-0.371,0.653-0.391,1.019l-0.28,5.344c-0.038,0.718,0.52,1.305,1.239,1.305h5.069
						c0.444,0,0.876-0.195,1.184-0.536l0.473-0.526c0.187-0.208,0.317-0.46,0.378-0.732l0.967-4.31c0.09-0.4,0.002-0.819-0.24-1.149
						l0,0C300.495,69.18,300.071,68.965,299.62,68.965z"/>
				</g>
			</g>
		</g>
		<g>
			<polygon style="fill:#FFFFFF;" points="250.014,103.914 251.623,106.487 254.568,107.222 252.617,109.547 252.828,112.574 
				250.014,111.438 247.201,112.574 247.411,109.547 245.461,107.222 248.406,106.487 			"/>
		</g>
	</g>
	<g>
		<g>
			<path style="fill:#FFFFFF;" d="M236.624,247.341c0,1.858-1.495,3.101-3.828,3.296l-0.307,1.537h-1.397l0.307-1.537
				c-1.327-0.125-2.501-0.544-3.213-1.075l0.936-1.732c0.741,0.545,1.676,0.894,2.641,0.992l0.475-2.361
				c-1.299-0.391-2.724-0.908-2.724-2.599c0-1.858,1.523-3.115,3.898-3.283l0.307-1.537h1.397l-0.307,1.551
				c0.992,0.097,1.9,0.377,2.57,0.796l-0.852,1.732c-0.601-0.405-1.327-0.643-2.082-0.726l-0.489,2.459
				C235.241,245.231,236.624,245.734,236.624,247.341z M232.629,244.463l0.405-2.012c-0.796,0.154-1.243,0.586-1.257,1.117
				C231.777,244.002,232.126,244.253,232.629,244.463z M234.361,247.704c0-0.405-0.322-0.657-0.81-0.838l-0.377,1.914
				C233.928,248.625,234.361,248.235,234.361,247.704z"/>
		</g>
	</g>
</g>
<g id="Pricing_Plans_1_1_">
	<g>
		<g>
			<g>
				<g>
					<path style="fill:#263238;" d="M165.764,277.531h-58.505c-10.288,0-18.629-8.34-18.629-18.629V100.117
						c0-10.288,8.34-18.629,18.629-18.629h58.505c10.288,0,18.629,8.34,18.629,18.629v158.785
						C184.393,269.19,176.053,277.531,165.764,277.531z"/>
				</g>
				<path style="opacity:0.7;fill:#FFFFFF;" d="M165.476,81.488h-57.928c-10.448,0-18.917,8.47-18.917,18.918v158.208
					c0,10.448,8.47,18.918,18.917,18.918h57.928c10.448,0,18.917-8.47,18.917-18.918V100.405
					C184.393,89.958,175.923,81.488,165.476,81.488z"/>
				<path style="fill:#407BFF;" d="M184.393,91.106v38.878H88.63V91.106c0-5.309,4.307-9.616,9.621-9.616h76.521
					C180.086,81.49,184.393,85.797,184.393,91.106z"/>
				<path style="fill:#407BFF;" d="M184.393,91.106v38.878H88.63V91.106c0-5.309,4.307-9.616,9.621-9.616h76.521
					C180.086,81.49,184.393,85.797,184.393,91.106z"/>
				<g>
					<path style="fill:#FFFFFF;" d="M128.644,105.669c0,1.492-1.169,2.363-3.408,2.363h-4.328v-8.705h4.079
						c2.089,0,3.209,0.883,3.209,2.263c0,0.896-0.448,1.555-1.119,1.915C128.01,103.803,128.644,104.537,128.644,105.669z
						 M122.526,100.595v2.4h2.288c1.119,0,1.753-0.398,1.753-1.194c0-0.808-0.634-1.206-1.753-1.206H122.526z M127.015,105.507
						c0-0.871-0.659-1.256-1.878-1.256h-2.611v2.512h2.611C126.356,106.763,127.015,106.377,127.015,105.507z"/>
					<path style="fill:#FFFFFF;" d="M135.783,104.139v3.893h-1.467v-0.808c-0.373,0.572-1.095,0.895-2.089,0.895
						c-1.517,0-2.475-0.833-2.475-1.99c0-1.106,0.746-1.977,2.761-1.977h1.716v-0.1c0-0.908-0.547-1.442-1.654-1.442
						c-0.746,0-1.517,0.249-2.015,0.659l-0.609-1.131c0.709-0.547,1.741-0.821,2.811-0.821
						C134.676,101.316,135.783,102.224,135.783,104.139z M134.228,105.955v-0.771h-1.604c-1.057,0-1.343,0.398-1.343,0.883
						c0,0.56,0.473,0.92,1.268,0.92C133.308,106.987,133.967,106.639,134.228,105.955z"/>
					<path style="fill:#FFFFFF;" d="M137.014,107.372l0.597-1.181c0.585,0.385,1.48,0.659,2.314,0.659
						c0.982,0,1.393-0.273,1.393-0.733c0-1.269-4.104-0.075-4.104-2.724c0-1.256,1.132-2.077,2.922-2.077
						c0.883,0,1.891,0.211,2.487,0.572l-0.597,1.182c-0.634-0.373-1.269-0.497-1.903-0.497c-0.945,0-1.393,0.311-1.393,0.746
						c0,1.343,4.104,0.149,4.104,2.748c0,1.244-1.144,2.052-3.009,2.052C138.718,108.118,137.611,107.795,137.014,107.372z"/>
					<path style="fill:#FFFFFF;" d="M143.967,99.363c0-0.522,0.423-0.933,0.995-0.933c0.572,0,0.995,0.386,0.995,0.896
						c0,0.547-0.41,0.97-0.995,0.97C144.389,100.296,143.967,99.886,143.967,99.363z M144.178,101.391h1.555v6.641h-1.555V101.391z"
						/>
					<path style="fill:#FFFFFF;" d="M147.225,104.711c0-1.99,1.492-3.395,3.594-3.395c1.293,0,2.326,0.535,2.835,1.542l-1.194,0.696
						c-0.398-0.634-0.995-0.92-1.654-0.92c-1.144,0-2.015,0.796-2.015,2.077c0,1.294,0.871,2.077,2.015,2.077
						c0.659,0,1.256-0.286,1.654-0.92l1.194,0.697c-0.51,0.995-1.542,1.554-2.835,1.554
						C148.717,108.118,147.225,106.701,147.225,104.711z"/>
				</g>
				<g>
					<g>
						
							<ellipse transform="matrix(0.7071 -0.7071 0.7071 0.7071 -95.2568 151.3649)" style="fill:#263238;" cx="135.085" cy="190.668" rx="8.509" ry="8.509"/>
						
							<ellipse transform="matrix(0.7071 -0.7071 0.7071 0.7071 -95.2568 151.3649)" style="opacity:0.5;fill:#FFFFFF;" cx="135.085" cy="190.668" rx="8.509" ry="8.509"/>
					</g>
					<g>
						
							<rect x="129.9" y="189.052" transform="matrix(0.7071 -0.7071 0.7071 0.7071 -95.2566 151.3633)" style="fill:#FFFFFF;" width="10.37" height="3.231"/>
						
							<rect x="129.9" y="189.052" transform="matrix(-0.7071 -0.7071 0.7071 -0.7071 95.784 421.0099)" style="fill:#FFFFFF;" width="10.37" height="3.231"/>
					</g>
				</g>
				<g>
					<circle style="fill:#407BFF;" cx="135.484" cy="222.113" r="8.597"/>
					<g>
						<polygon style="fill:#FFFFFF;" points="141.637,220.253 136.692,225.199 134.385,227.509 132.075,225.199 134.381,222.892 
							139.327,217.943 						"/>
						<polygon style="fill:#FFFFFF;" points="136.692,225.199 134.385,227.509 129.486,222.61 131.792,220.303 134.381,222.892 
													"/>
					</g>
				</g>
				<g>
					<path style="fill:#407BFF;" d="M156.501,267.119h-39.978c-5.436,0-9.843-4.407-9.843-9.843v-0.746
						c0-5.436,4.407-9.844,9.843-9.844h39.978c5.436,0,9.843,4.407,9.843,9.844v0.746
						C166.344,262.712,161.937,267.119,156.501,267.119z"/>
					<g>
						<g>
							<path style="fill:#FFFFFF;" d="M119.611,258.838c0,1.858-1.494,3.101-3.828,3.296l-0.307,1.537h-1.397l0.307-1.537
								c-1.327-0.126-2.501-0.544-3.213-1.075l0.936-1.732c0.741,0.545,1.676,0.894,2.641,0.992l0.475-2.361
								c-1.299-0.391-2.724-0.908-2.724-2.599c0-1.858,1.523-3.115,3.898-3.283l0.307-1.537h1.397l-0.307,1.551
								c0.992,0.097,1.9,0.377,2.571,0.796l-0.852,1.732c-0.601-0.405-1.327-0.643-2.082-0.726l-0.489,2.459
								C118.229,256.728,119.611,257.231,119.611,258.838z M115.616,255.96l0.405-2.012c-0.796,0.154-1.243,0.586-1.257,1.117
								C114.764,255.499,115.113,255.75,115.616,255.96z M117.348,259.201c0-0.405-0.322-0.657-0.81-0.838l-0.377,1.914
								C116.915,260.122,117.348,259.732,117.348,259.201z"/>
						</g>
					</g>
				</g>
				<g>
					<line x1="110.768" y1="205.888" x2="160.201" y2="205.888"/>
					<rect x="110.767" y="204.888" style="fill:#407BFF;" width="49.434" height="2"/>
				</g>
				<g>
					<line x1="110.768" y1="173.048" x2="160.201" y2="173.048"/>
					<rect x="110.767" y="172.048" style="fill:#407BFF;" width="49.434" height="2"/>
				</g>
				<g>
					<line x1="110.768" y1="141.396" x2="160.201" y2="141.396"/>
					<rect x="110.767" y="140.396" style="fill:#407BFF;" width="49.434" height="2"/>
				</g>
				<g>
					<g>
						
							<ellipse transform="matrix(0.7071 -0.7071 0.7071 0.7071 -71.6096 141.5699)" style="fill:#263238;" cx="135.085" cy="157.225" rx="8.509" ry="8.509"/>
						
							<ellipse transform="matrix(0.7071 -0.7071 0.7071 0.7071 -71.6096 141.5699)" style="opacity:0.5;fill:#FFFFFF;" cx="135.085" cy="157.225" rx="8.509" ry="8.509"/>
					</g>
					<g>
						
							<rect x="129.9" y="155.61" transform="matrix(0.7071 -0.7071 0.7071 0.7071 -71.6095 141.5685)" style="fill:#FFFFFF;" width="10.37" height="3.231"/>
						
							<rect x="129.9" y="155.61" transform="matrix(-0.7071 -0.7071 0.7071 -0.7071 119.431 363.9204)" style="fill:#FFFFFF;" width="10.37" height="3.231"/>
					</g>
				</g>
			</g>
		</g>
	</g>
</g>
<g id="Character_2">
	<g>
		<g>
			<polygon style="fill:#FFC2BC;" points="260.089,409.116 267.758,410.52 273.56,396.367 265.182,393.021 			"/>
			<polygon style="opacity:0.1;" points="262.841,400.143 265.029,393.561 268.894,394.504 273.56,396.367 271.058,402.534 			"/>
			<g>
				<path style="fill:#407BFF;" d="M258.591,406.464c-0.033-0.03-0.298-0.272-0.695-0.585c-0.287-0.222-0.629-0.483-1.004-0.735
					c-0.805-0.543-1.742-1.035-2.455-1.031c-0.285,0.002-0.559,0.105-0.755,0.278c-0.262,0.194-0.359,0.52-0.247,0.813
					c0.234,0.496,1.269,0.936,2.324,1.194c0.242,0.049,0.473,0.099,0.714,0.148c0.648,0.118,1.297,0.206,1.956,0.253l0.011,0
					c0.077,0,0.153-0.042,0.186-0.123C258.669,406.606,258.646,406.525,258.591,406.464z M256.987,406.261
					c-1.44-0.245-2.957-0.693-3.17-1.199c-0.034-0.071-0.056-0.203,0.162-0.397c0.12-0.112,0.284-0.174,0.46-0.165
					c0.143-0.001,0.275,0.019,0.407,0.048c0.935,0.36,1.795,0.862,2.568,1.497c0.143,0.101,0.287,0.221,0.43,0.342
					C257.569,406.359,257.284,406.31,256.987,406.261z"/>
				<path style="fill:#407BFF;" d="M258.196,403.31c-0.244-0.313-0.607-0.524-1.025-0.582c-0.571-0.088-0.811,0.137-0.898,0.34
					c-0.227,0.448,0.119,1.288,0.618,2.077c0.199,0.303,0.421,0.596,0.643,0.859c0.277,0.323,0.553,0.585,0.773,0.757
					c0.022,0.02,0.055,0.03,0.088,0.03c0.011,0,0.022,0.01,0.033,0.01l0.011,0c0.033,0.01,0.066,0.02,0.099,0.01
					c0.066-0.021,0.12-0.082,0.131-0.143c0.011-0.041,0.063-0.396,0.082-0.883C258.79,405.032,258.716,403.967,258.196,403.31z
					 M258.293,406.182c-0.1-0.101-0.21-0.202-0.31-0.323c-0.796-0.868-1.53-2.213-1.346-2.671c0.022-0.041,0.087-0.173,0.46-0.114
					l0.11,0.04c0.253,0.059,0.473,0.2,0.628,0.392c0.389,0.718,0.559,1.509,0.499,2.301
					C258.324,405.928,258.314,406.05,258.293,406.182z"/>
				<path style="fill:#263238;" d="M259.598,405.904l9.269,2.216c0.349,0.083,0.59,0.38,0.578,0.713l-0.275,7.373
					c-0.019,0.654-0.608,1.17-1.316,1.152c-0.091-0.003-0.181-0.014-0.269-0.034c-3.327-0.853-6.25-1.732-10.412-2.721
					c-4.91-1.172-3.816-0.331-9.609-1.635c-3.49-0.789-3.104-4.596-1.579-4.423c6.968,0.828,8.196-0.888,11.424-2.499
					C258.096,405.752,258.875,405.701,259.598,405.904z"/>
			</g>
			<polygon style="fill:#FFC2BC;" points="315.289,410.508 322.631,410.508 324.798,398.345 315.821,396.668 			"/>
			<polygon style="opacity:0.1;" points="315.821,396.668 324.798,398.345 323.338,406.539 315.521,406.219 			"/>
			<g>
				<polygon style="fill:#407BFF;" points="326.384,404.3 313.197,403.549 312.8,398.352 327.55,399.36 				"/>
				<polygon style="opacity:0.5;fill:#FFFFFF;" points="326.384,404.3 313.197,403.549 312.8,398.352 327.55,399.36 				"/>
			</g>
			<g>
				<path style="fill:#407BFF;" d="M314.22,410.701c-0.041-0.021-0.338-0.195-0.779-0.41c-0.297-0.143-0.666-0.307-1.065-0.461
					c-0.871-0.348-1.864-0.615-2.52-0.43c-0.256,0.061-0.471,0.225-0.604,0.451c-0.184,0.256-0.184,0.594-0.01,0.85
					c0.338,0.43,1.393,0.614,2.407,0.604c0.226,0,0.451-0.01,0.676-0.021c0.604-0.041,1.209-0.113,1.803-0.225h0.01
					c0.01,0,0.01,0,0.02,0c0.071-0.02,0.133-0.082,0.154-0.164C314.322,410.824,314.281,410.742,314.22,410.701z M312.714,410.885
					c-1.362,0.102-2.837,0.02-3.154-0.42c-0.062-0.061-0.113-0.174,0.031-0.42c0.082-0.143,0.215-0.246,0.379-0.276
					c0.123-0.031,0.246-0.051,0.369-0.051c0.942,0.133,1.854,0.42,2.704,0.85c0.164,0.062,0.328,0.143,0.481,0.236
					C313.267,410.834,312.99,410.865,312.714,410.885z"/>
				<path style="fill:#407BFF;" d="M314.342,410.875c0-0.041-0.041-0.4-0.143-0.881c-0.174-0.748-0.512-1.762-1.147-2.284
					c-0.297-0.246-0.686-0.369-1.075-0.317c-0.543,0.051-0.707,0.317-0.727,0.543c-0.092,0.502,0.451,1.249,1.127,1.895
					c0.246,0.246,0.512,0.471,0.768,0.655c0.328,0.256,0.645,0.451,0.901,0.563c0.021,0.01,0.051,0.02,0.082,0.01h0.01
					c0.01,0,0.01,0,0.02,0c0.001,0,0.002-0.001,0.003-0.002c0.033,0.005,0.066,0.008,0.099-0.008
					C314.312,411.008,314.353,410.947,314.342,410.875z M311.608,407.966c0.01-0.051,0.041-0.184,0.389-0.225l0.103,0.01
					c0.246,0,0.491,0.082,0.676,0.246c0.533,0.604,0.881,1.342,1.034,2.12c0.031,0.133,0.051,0.256,0.062,0.379
					c-0.113-0.072-0.235-0.154-0.359-0.236C312.57,409.595,311.567,408.458,311.608,407.966z"/>
				<path style="fill:#263238;" d="M314.983,409.91l8.934-0.05c0.337-0.002,0.63,0.23,0.705,0.558l1.656,7.259
					c0.151,0.643-0.247,1.287-0.889,1.439c-0.083,0.019-0.167,0.03-0.251,0.032c-3.221-0.038-6.086-0.198-10.095-0.169
					c-4.732,0.028-3.528,0.587-9.09,0.698c-3.351,0.063-3.987-3.743-2.567-3.939c6.5-0.855,7.164-2.823,9.66-5.166
					C313.589,410.12,314.278,409.885,314.983,409.91z"/>
			</g>
			<path style="fill:#263238;" d="M298.739,230.855l-34.623,162.042l12.763,3.398c9.544-20.887,17.539-42.253,23.505-58.967
				c2.83-7.929,3.967-15.388,6.13-22.376c2.572-8.308,6.041-15.952,7.808-22.931c9.252-36.537,8.504-54.845,8.504-54.845
				l1.971-4.817L298.739,230.855z"/>
			<path style="opacity:0.3;" d="M319.975,265.633c-1.258,7.368-3.064,16.163-5.653,26.387c-0.841,3.321-6.477,19.31-7.808,22.931
				c-1.562-23.404,3.784-62.966,3.784-62.966L319.975,265.633z"/>
			<path style="fill:#263238;" d="M309.374,231.69l2.609,89.017l2.286,77.975l12.033,0.831c3.351-19.089,5.806-36.407,7.573-52.002
				c1.155-10.188-0.808-17.64-0.182-26.37c0.104-1.45,0.221-2.942,0.348-4.456c2.099-24.998,2.285-50.129,0.431-75.147
				c-0.353-4.767-0.589-7.954-0.589-7.954l-24.509-3.134V231.69z"/>
			<g>
				<polygon style="fill:#407BFF;" points="275.192,400.811 262.57,396.919 263.431,391.778 277.509,396.295 				"/>
				<polygon style="opacity:0.5;fill:#FFFFFF;" points="275.192,400.811 262.57,396.919 263.431,391.778 277.509,396.295 				"/>
			</g>
		</g>
		<g>
			<path style="fill:#407BFF;" d="M307.653,175.243c-0.341,0.479-3.194,4.426-5.194,11.388c-0.488,1.682-0.927,3.533-1.256,5.564
				l-0.878,2.394l-7.718-3.067l-1.219-0.479c1.878-8.476,9.157-16.137,14.559-16.02
				C306.666,175.036,307.227,175.088,307.653,175.243z"/>
			<path style="opacity:0.2;fill:#FFFFFF;" d="M307.653,175.243c-0.341,0.479-3.194,4.426-5.194,11.388
				c-0.488,1.682-0.927,3.533-1.256,5.564l-0.878,2.394l-7.718-3.067l-1.219-0.479c1.878-8.476,9.157-16.137,14.559-16.02
				C306.666,175.036,307.227,175.088,307.653,175.243z"/>
		</g>
		<g>
			<g>
				<g>
					<g>
						<g>
							<g>
								<g>
									<path style="fill:#407BFF;" d="M298.038,230.098c0.934-2.074,0.817-6.133,3.886-6.895c4.08-1.013,7.435-1.307,23.497,0.058
										c7.574,0.644,9.257,6.699,9.039,9.805c-0.029,0.417-0.17,0.812-0.407,1.155l-0.319,0.461
										c-0.756,0.289-35.122-3.522-35.462-3.312C298.271,231.371,297.73,230.78,298.038,230.098z"/>
									<path style="opacity:0.2;fill:#FFFFFF;" d="M298.038,230.098c0.934-2.074,0.817-6.133,3.886-6.895
										c4.08-1.013,7.435-1.307,23.497,0.058c7.574,0.644,9.257,6.699,9.039,9.805c-0.029,0.417-0.17,0.812-0.407,1.155
										l-0.319,0.461c-0.756,0.289-35.122-3.522-35.462-3.312C298.271,231.371,297.73,230.78,298.038,230.098z"/>
								</g>
								<g>
									<g>
										<g>
											<g>
												<g>
													<g>
														<g id="_x3C_Group_x3E__2_">
															<path style="fill:#407BFF;" d="M306.359,175.181c-0.22,0.407-7.05,1.118-6.51,31.05
																c0.069,3.845-0.908,12.018-0.908,12.018c0.001,0.008,0,0.016-0.003,0.023l-0.989,2.486
																c-0.814,2.047-0.689,4.347,0.343,6.293l0.493,0.931c0.007,0.013,0.02,0.022,0.035,0.023l34.633,3.523
																c0.009,0.001,0.019-0.001,0.027-0.006l0.996,0.006c0,0,2.233-18.082,5.214-30.165c0.973-3.944,2.03-8.78,2.03-8.78
																c-1.188-8.612-1.049-13.834-1.019-13.777c0.012,0.022-0.006-0.05-0.03-0.057c-4.197-1.241-8.478-2.176-12.81-2.796
																c-4.6-0.708-9.246-1.086-13.9-1.132C309.577,174.933,306.366,175.169,306.359,175.181z"/>
															<path style="fill:#FFC2BC;" d="M327.775,160.203c-1.246,4.41-2.797,12.535,0.096,15.782l-2.192,2.288
																c-3.854,4.023-10.642,2.04-11.725-3.425l0,0c5.063-0.795,3.992-5.883,4.919-10.802L327.775,160.203z"/>
															<path style="opacity:0.2;enable-background:new    ;" d="M316.232,158.969c1.051,3.521,2.476,9.184,1.419,13.09
																c4.552,0.403,7.573-3.731,7.755-5.044c0,0-1.123-3.204-1.311-4.772L316.232,158.969z"/>
															<path style="fill:#FFC2BC;" d="M329.108,153.306c-0.545,7.499-0.612,10.681-4.441,14.487
																c-5.761,5.726-14.846,3.419-16.556-4.081c-1.541-6.758-0.395-17.874,6.981-20.784
																c5.264-2.094,11.229,0.475,13.324,5.739C329.002,150.139,329.239,151.727,329.108,153.306z"/>
															<path style="fill:#263238;" d="M333.442,149.832c-0.802,2.84-1.182,5.434-1.514,8.656
																c-0.921-0.013-1.935-0.014-2.856-0.027c-0.523,0.522-0.74,1.337-0.472,2.025c-0.455-0.229-0.917-0.505-1.176-0.944
																c-0.244-0.414-0.274-0.915-0.307-1.395c-0.123-1.807-0.208-3.716-0.583-5.488c-1.471-0.597-3.171-0.445-4.546-1.238
																c-3.07-1.771-5.783-4.128-7.865-6.997c-2.273,0.975-4.032,3.168-4.755,5.533c-0.649,0.183-1.359-0.18-1.754-0.726
																c-0.395-0.546-0.531-1.237-0.588-1.908c-0.15-1.759,0.203-3.614,1.274-5.018c0.745-0.976,1.875-1.701,3.094-1.898
																c0.53-0.086,1.069,0.043,1.548-0.184c0.518-0.246,0.983-0.869,1.499-1.18c2.274-1.369,5.166-1.548,7.692-0.864
																c3.199,0.867,5.932,2.944,8.348,5.213C331.795,144.629,333.932,148.096,333.442,149.832z"/>
															<path style="fill:#FFC2BC;" d="M331.724,160.516c-0.733,1.258-1.935,2.173-3.342,2.546
																c-1.862,0.473-2.752-1.201-2.199-2.938c0.493-1.57,2.077-3.673,3.92-3.419c1.345,0.239,2.241,1.522,2.002,2.867
																C332.045,159.91,331.915,160.232,331.724,160.516z"/>
															<path style="fill:#263238;" d="M317.497,155.193c-0.008,0.653-0.366,1.172-0.787,1.178
																c-0.42,0.006-0.774-0.539-0.766-1.192c0.008-0.653,0.366-1.172,0.787-1.178
																C317.151,153.994,317.505,154.54,317.497,155.193z"/>
															<path style="fill:#263238;" d="M310.08,155.112c-0.017,0.656-0.367,1.172-0.796,1.182
																c-0.43,0.01-0.774-0.54-0.76-1.205c0.014-0.665,0.358-1.169,0.787-1.178
																C309.74,153.901,310.111,154.44,310.08,155.112z"/>
															<path style="fill:#EC837E;" d="M313.001,156.471c-0.604,1.49-1.407,2.89-2.388,4.164
																c0.671,0.49,1.525,0.658,2.332,0.459L313.001,156.471z"/>
															<path style="fill:#263238;" d="M315.27,163.313c-0.371,0.157-0.757,0.275-1.151,0.353
																c-0.088,0.02-0.176-0.034-0.197-0.123c0-0.001,0-0.001,0-0.001c-0.01-0.087,0.045-0.168,0.13-0.189
																c1.642-0.3,3.04-1.369,3.76-2.875c0.021-0.082,0.101-0.135,0.185-0.122c0.079,0.009,0.136,0.081,0.127,0.16
																c-0.001,0.008-0.003,0.017-0.005,0.025C317.566,161.801,316.544,162.795,315.27,163.313z"/>
															<path style="fill:#263238;" d="M320.104,151.485c-0.085,0.027-0.183,0.002-0.258-0.067
																c-0.665-0.637-1.533-0.924-2.325-0.77c-0.137,0.033-0.288-0.061-0.343-0.214c-0.054-0.152,0.012-0.307,0.146-0.344
																c0.002-0.001,0.004-0.001,0.005-0.001c0.956-0.2,2.009,0.139,2.818,0.908c0.117,0.109,0.147,0.287,0.067,0.405
																C320.186,151.439,320.148,151.468,320.104,151.485z"/>
															<path style="fill:#263238;" d="M308.119,151.83c-0.106,0.04-0.225,0.018-0.31-0.056
																c-0.135-0.113-0.152-0.313-0.04-0.448c0.001-0.001,0.001-0.001,0.001-0.002c0.767-0.949,1.949-1.464,3.166-1.377
																c0.17,0.013,0.297,0.161,0.284,0.331c-0.001,0.009-0.002,0.017-0.003,0.026c-0.023,0.174-0.184,0.296-0.358,0.272
																c-0.001,0-0.002,0-0.002,0c-1.003-0.054-1.97,0.378-2.599,1.16C308.221,151.779,308.173,151.812,308.119,151.83z"/>
														</g>
													</g>
												</g>
											</g>
											<g>
												<path style="fill:#407BFF;" d="M326.649,173.592l2.768,2.604c0,0-10.006,7.002-10.167,6.553
													c-0.16-0.448-2.235-2.787-2.235-2.787L326.649,173.592z"/>
												<path style="fill:#407BFF;" d="M316.541,173.348l-3.531,1.405c0,0,0.596,7.557,0.91,7.199
													c0.314-0.358,3.103-1.771,3.103-1.771L316.541,173.348z"/>
												<g>
													<path style="opacity:0.2;fill:#FFFFFF;" d="M326.649,173.592l2.768,2.604c0,0-10.006,7.002-10.167,6.553
														c-0.16-0.448-2.235-2.787-2.235-2.787L326.649,173.592z"/>
													<path style="opacity:0.2;fill:#FFFFFF;" d="M316.541,173.348l-3.531,1.405c0,0,0.596,7.557,0.91,7.199
														c0.314-0.358,3.103-1.771,3.103-1.771L316.541,173.348z"/>
												</g>
											</g>
										</g>
									</g>
								</g>
							</g>
						</g>
					</g>
					<g>
						<g>
							<g>
								<path style="fill:#FFC2BC;" d="M314.657,204.563c0.642,0.946,5.853,0,5.853,0l4.465,0.304
									c0.488,0.008,0.911-0.361,0.981-0.85l1.246-5.644c0.034-0.281-0.151-0.523-0.419-0.57l-3.534-0.637
									c-1.422-0.256-2.887,0.054-4.082,0.866l-3.737,2.536L314.657,204.563z"/>
							</g>
							<path style="fill:#FFC2BC;" d="M315.64,200.291l-0.232,4.353c0,0-20.094,7.547-25.861,4.243
								c-3.78-2.158,0-11.315,3.06-17.387l7.718,2.89l-2.548,6.645L315.64,200.291z"/>
						</g>
					</g>
					<g style="opacity:0.1;enable-background:new    ;">
						<g>
							<path d="M314.657,204.563c0.642,0.946,5.853,0,5.853,0l4.465,0.304c0.488,0.008,0.911-0.361,0.981-0.85l1.246-5.644
								c0.034-0.281-0.151-0.523-0.419-0.57l-3.534-0.637c-1.422-0.256-2.887,0.054-4.082,0.866l-3.737,2.536L314.657,204.563z"/>
						</g>
						<path d="M315.64,200.291l-0.232,4.353c0,0-20.094,7.547-25.861,4.243c-3.78-2.158,0-11.315,3.06-17.387l7.718,2.89
							l-2.548,6.645L315.64,200.291z"/>
					</g>
					<g>
						<path style="fill:#FFC2BC;" d="M339.429,181.93l-14.824,20.395l-21.704-4.001l-0.978,4.277c0,0,21.028,11.441,26.769,8.089
							c5.741-3.351,15.4-23.636,15.4-23.636L339.429,181.93z"/>
						<g>
							<path style="fill:#FFC2BC;" d="M301.924,202.601c-0.654,0.938-5.852-0.074-5.852-0.074l-4.469,0.248
								c-0.488,0.002-0.907-0.373-0.97-0.862l-1.175-5.659c-0.03-0.281,0.157-0.521,0.427-0.564l3.542-0.593
								c1.425-0.239,2.886,0.09,4.071,0.917l5.417,2.45L301.924,202.601z"/>
						</g>
						<path style="fill:#407BFF;" d="M342.242,180.016c3.491,4.124,2.464,14.321-2.563,20.809l-12.253-7.2
							c0,0,7.19-12.142,11.159-14.531C340.279,178.074,340.965,178.507,342.242,180.016z"/>
						<path style="opacity:0.2;fill:#FFFFFF;" d="M342.242,180.016c3.491,4.124,2.464,14.321-2.563,20.809l-12.253-7.2
							c0,0,7.19-12.142,11.159-14.531C340.279,178.074,340.965,178.507,342.242,180.016z"/>
					</g>
				</g>
			</g>
		</g>
	</g>
</g>
<g id="Character_1_1_">
	<g>
		<g>
			<g>
				<g>
					<polygon style="fill:#FFC2BC;" points="231.946,411.829 239.719,412.898 247.658,397.401 239.065,395.973 					"/>
					<polygon style="opacity:0.2;enable-background:new    ;" points="239.065,395.973 247.658,397.401 243.33,405.835 
						235.185,404.608 					"/>
				</g>
				<g>
					<path style="fill:#263238;" d="M241.979,409.953l-9.611-0.525c-0.326-0.024-0.623,0.19-0.702,0.508l-1.944,6.963
						c-0.171,0.615,0.189,1.251,0.804,1.422c0.006,0.002,0.012,0.003,0.018,0.005l0.256,0.014c3.11,0.116,5.353,0.046,9.293,0.261
						c2.403,0.131,9.65,0.784,12.971,0.965c3.321,0.181,3.928-3.084,2.588-3.457c-6.025-1.657-10.504-3.786-12.375-5.613
						C242.93,410.155,242.465,409.962,241.979,409.953z"/>
					<path style="fill:#407BFF;" d="M242.467,411.03c-0.075-0.022-0.127-0.09-0.13-0.168c-0.014-0.074,0.026-0.148,0.095-0.177
						c0.288-0.166,2.936-1.596,3.787-1.1c0.195,0.107,0.309,0.319,0.292,0.541c0.063,0.407-0.113,0.814-0.453,1.046
						c-0.463,0.274-1.005,0.384-1.538,0.312C243.821,411.408,243.133,411.256,242.467,411.03z M245.784,409.915
						c-0.967,0.12-1.903,0.421-2.758,0.888c0.902,0.369,1.911,0.374,2.816,0.015c0.201-0.157,0.31-0.404,0.293-0.659
						c-0.003-0.15-0.105-0.231-0.105-0.231C245.95,409.902,245.865,409.898,245.784,409.915L245.784,409.915z"/>
					<path style="fill:#407BFF;" d="M242.451,411.125c-0.055-0.041-0.084-0.108-0.076-0.176c0.006-0.117,0.28-2.384,1.239-3.07
						c0.229-0.183,0.526-0.257,0.814-0.202c0.291,0.016,0.531,0.235,0.571,0.524c0.115,0.842-1.561,2.496-2.397,2.9l-0.096-0.005
						C242.49,411.109,242.471,411.119,242.451,411.125z M244.273,407.969c-0.155-0.001-0.305,0.051-0.426,0.148
						c-0.594,0.682-0.969,1.528-1.075,2.426c0.845-0.564,1.932-1.833,1.853-2.352c-0.008-0.054-0.022-0.194-0.257-0.207
						l-0.096-0.005L244.273,407.969z"/>
				</g>
				<path style="fill:#263238;" d="M190.498,366.808l5.697,0.215c9.475-0.442,18.881-1.841,28.075-4.176
					c8.227-1.993,21.867-8.301,21.867-8.301c-4.387,18.782-12.292,47.404-12.292,47.404l12.22,1.413
					c0,0,31.816-60.621,17.774-67.564c-12.547-6.696-61.103-2.3-61.103-2.3l-5.007-5.249l-33.913,2.728
					C163.814,330.978,157.32,366.763,190.498,366.808z"/>
				<g>
					<polygon style="fill:#407BFF;" points="246.844,405.831 232.863,401.592 234.542,395.765 249.693,401.527 					"/>
					<polygon style="opacity:0.5;fill:#FFFFFF;" points="246.844,405.831 232.863,401.592 234.542,395.765 249.693,401.527 					"/>
				</g>
				<path style="opacity:0.4;" d="M194.714,353.553c3.402,9.97,29.321,9.004,32.928,8.52c-21.33,4.11-25.356,4.665-31.448,4.949
					l-5.697-0.215c-1.9-0.002-3.655-0.147-5.303-0.39C187.83,349.227,190.594,341.481,194.714,353.553z"/>
			</g>
			<polygon style="fill:#FFC2BC;" points="124.865,394.564 123.862,402.418 141.987,405.38 142.992,397.506 			"/>
			<g>
				<path style="fill:#263238;" d="M125.47,403.509l5.635-7.854c0.188-0.26,0.169-0.616-0.044-0.856l-4.812-5.392
					c-0.437-0.474-1.175-0.508-1.653-0.075c-0.052,0.068-0.095,0.143-0.13,0.221c-1.778,2.553-2.931,4.48-5.226,7.685
					c-1.404,1.954-5.857,7.725-7.788,10.411c-1.931,2.686,0.474,4.973,1.512,4.044c4.642-4.186,8.818-6.835,11.381-7.404
					C124.805,404.18,125.207,403.902,125.47,403.509z"/>
				<path style="fill:#407BFF;" d="M124.261,403.31c0.06-0.045,0.141-0.051,0.207-0.015c0.073,0.026,0.113,0.104,0.094,0.179
					c-0.013,0.34-0.229,3.335-1.106,3.776c-0.198,0.106-0.438,0.09-0.621-0.041c-0.344-0.176-0.567-0.524-0.582-0.911
					c0.009-0.54,0.208-1.06,0.561-1.468C123.24,404.272,123.725,403.762,124.261,403.31z M124.16,403.907
					c-0.798,0.564-1.349,1.413-1.536,2.372c0.022,0.257,0.173,0.485,0.401,0.606c0.129,0.076,0.221,0.067,0.248,0.021
					c0.079-0.032,0.144-0.09,0.183-0.165C123.866,405.849,124.105,404.888,124.16,403.907z"/>
				<path style="fill:#407BFF;" d="M124.27,403.253c0.062-0.021,0.13-0.013,0.186,0.022c0.091,0.078,1.824,1.563,1.89,2.741
					c0.03,0.288-0.066,0.576-0.263,0.788c-0.171,0.237-0.484,0.322-0.752,0.205c-0.782-0.358-1.268-2.662-1.155-3.575l0.049-0.083
					C124.225,403.313,124.241,403.277,124.27,403.253z M126.029,406.091c-0.256-0.868-0.768-1.639-1.47-2.21
					c0.019,1.027,0.531,2.566,0.983,2.83c0.051,0.018,0.195,0.09,0.314-0.113l0.049-0.083
					C125.994,406.391,126.037,406.242,126.029,406.091z"/>
			</g>
			<polygon style="opacity:0.2;enable-background:new    ;" points="142.981,397.505 141.977,405.38 132.632,403.847 
				133.636,395.983 			"/>
			<path style="fill:#263238;" d="M195.428,346.114c2.758,4.37,12.306,57.085-5.506,68.866c-13.12,8.648-54.426-7.724-54.426-7.724
				l1.323-13.086c0,0,33.555,6.277,37.698,2.902c4.143-3.375-9.696-39.971-10.38-48.575
				C163.453,339.894,195.428,346.114,195.428,346.114z"/>
			<g>
				<polygon style="fill:#407BFF;" points="134.576,408.206 135.029,393.603 141.092,393.707 139.472,409.836 				"/>
				<polygon style="opacity:0.5;fill:#FFFFFF;" points="134.576,408.206 135.029,393.603 141.092,393.707 139.472,409.836 				"/>
			</g>
		</g>
		<g>
			<g>
				<g>
					<g>
						<path style="fill:#407BFF;" d="M199.173,329.631c-1.074-2.006-4.332-5.931-7.472-6.481c-4.174-0.731-5.06-0.889-21.15,1.578
							c-7.588,1.164-8.137,7.125-7.719,10.211c0.056,0.414,0.223,0.799,0.484,1.125l0.351,0.439
							c0.78,0.237,34.996-5.773,35.352-5.586C199.019,330.918,199.526,330.291,199.173,329.631z"/>
						<path style="opacity:0.2;fill:#FFFFFF;" d="M199.173,329.631c-1.074-2.006-4.332-5.931-7.472-6.481
							c-4.174-0.731-5.06-0.889-21.15,1.578c-7.588,1.164-8.137,7.125-7.719,10.211c0.056,0.414,0.223,0.799,0.484,1.125
							l0.351,0.439c0.78,0.237,34.996-5.773,35.352-5.586C199.019,330.918,199.526,330.291,199.173,329.631z"/>
					</g>
					<g>
						<g>
							<g>
								<g>
									<g>
										<g>
											<g id="_x3C_Group_x3E__1_">
												<g>
													<g>
														<path style="fill:#FFC2BC;" d="M236.308,271.998c2.211-0.164,4.38-0.861,6.273-2.015
															c1.311-0.799,2.5-2.281,3.292-3.44c0.277-0.406,0.387-0.899,0.323-1.387c-0.151-1.141-0.589-2.209-1.297-3.102
															c-0.389-0.491-1.113-0.563-1.621-0.196c-1.155,0.835-2.477,1.698-3.518,2.514c-2.934,0.551-5.711,3.247-5.954,6.222
															C234.601,271.01,235.512,271.582,236.308,271.998z"/>
														<path style="fill:#FFC2BC;" d="M237.592,268.067l0.799,3.877c0,0-19.248,13.627-22.918,13.831
															c-2.52,0.132-5.44,0.266-8.46,0.363c-3.466,0.12-7.074,0.193-10.352,0.173c-5.928-0.053-10.776-0.436-11.768-1.479
															c-2.997-3.174,0.207-8.168,4.901-8.125c6.11,0.064,16.783,1.513,26.93,1.128
															C220.192,277.703,237.592,268.067,237.592,268.067z"/>
													</g>
													<path style="opacity:0.2;" d="M207.013,286.137c-3.466,0.12-7.074,0.193-10.352,0.173l-3.63-5.216
														C198.347,282.309,203.63,284.544,207.013,286.137z"/>
												</g>
												<g>
													<path style="fill:#407BFF;" d="M195.016,275.587c0,0-8.484-1.603-9.922,2.492c-1.438,4.095,2.337,11.404,14.134,10.122
														l1.203-12.48L195.016,275.587z"/>
													<path style="opacity:0.2;fill:#FFFFFF;" d="M195.016,275.587c0,0-8.484-1.603-9.922,2.492
														c-1.438,4.095,2.337,11.404,14.134,10.122l1.203-12.48L195.016,275.587z"/>
												</g>
												<path style="fill:#407BFF;" d="M188.512,275.691c0.233,0.399,6.686,8.894,7.587,15.511
													c0.65,4.774-0.002,9.97-0.092,15.316c-0.065,3.845,1.29,11.983,1.29,11.983c-0.001,0.008,0,0.016,0.003,0.023
													l1.067,2.454c0.879,2.02,0.827,4.323-0.143,6.301l-0.464,0.946c-0.007,0.013-0.019,0.023-0.034,0.025l-34.504,4.624
													c-0.009,0.001-0.019-0.001-0.027-0.005l-0.204-0.11c0,0-3.076-2.566-2.057-5.833l0.017-2.534
													c1.374-4.511,0.946-10.323-2.418-22.306c-1.098-3.911-2.309-8.711-2.309-8.711c0.914-8.645-1.897-13.023-1.925-12.965
													c-0.011,0.023,0.004-0.051,0.028-0.058c4.155-1.374,8.405-2.444,12.715-3.203c4.576-0.854,9.206-1.38,13.857-1.574
													C185.288,275.545,188.505,275.679,188.512,275.691z"/>
												<path style="fill:#263238;" d="M185.104,245.284c2.168,2.511,2.639,6.038,3.558,9.226
													c0.749,2.597,2.375,7.875,1.363,10.382c-1.15,2.846-6.807,0.435-8.686,2.862c-7.482,9.666-11.958,5.503-14.868,3.118
													c-1.438-1.179-6.91-2.353-8.323-3.562c-1.425-1.219-3.819-1.822-2.78-6.523c4.164-18.827,11.074-19.933,20.288-19.429
													C179.193,241.552,182.717,242.519,185.104,245.284z"/>
												<path style="fill:#FFC2BC;" d="M166.631,261.402c1.386,4.368,3.195,12.439,0.406,15.777l2.264,2.217
													c3.981,3.898,10.702,1.7,11.61-3.797l0,0c-5.086-0.633-4.177-5.754-5.26-10.64L166.631,261.402z"/>
												<path style="opacity:0.2;enable-background:new    ;" d="M178.128,259.801c-0.938,3.553-2.182,9.258-1.002,13.128
													c-4.537,0.548-7.688-3.488-7.912-4.795c0,0,1.021-3.238,1.159-4.811L178.128,259.801z"/>
												<path style="fill:#FFC2BC;" d="M165.078,254.551c0.783,7.478,0.952,10.656,4.9,14.339
													c5.94,5.539,14.947,2.944,16.418-4.606c1.325-6.804-0.174-17.877-7.639-20.551c-5.328-1.926-11.208,0.832-13.134,6.16
													C165.083,251.383,164.897,252.977,165.078,254.551z"/>
												<path style="fill:#263238;" d="M166.879,258.48c0.582,0.995,0.898,2.145,0.906,3.298
													c0.731-0.381,0.803-1.417,0.566-2.207C168.113,258.782,167.699,258.395,166.879,258.48z"/>
												<path style="fill:#FFC2BC;" d="M162.693,261.841c0.773,1.234,2.004,2.11,3.422,2.438
													c1.877,0.414,2.713-1.288,2.104-3.006c-0.542-1.554-2.192-3.605-4.026-3.292c-1.336,0.282-2.191,1.593-1.91,2.929
													C162.353,261.245,162.493,261.563,162.693,261.841z"/>
												<path style="fill:#263238;" d="M175.777,256.305c0.029,0.652,0.404,1.16,0.824,1.152
													c0.42-0.007,0.756-0.564,0.727-1.216c-0.029-0.652-0.404-1.16-0.824-1.153
													C176.084,255.096,175.748,255.652,175.777,256.305z"/>
												<path style="fill:#263238;" d="M183.187,255.988c0.038,0.655,0.404,1.16,0.833,1.156
													c0.43-0.004,0.757-0.564,0.722-1.228c-0.035-0.665-0.395-1.157-0.824-1.152
													C183.489,254.767,183.135,255.317,183.187,255.988z"/>
												<path style="fill:#263238;" d="M183.729,254.809l1.544-0.484C185.273,254.325,184.543,255.52,183.729,254.809z"/>
												<path style="fill:#EC837E;" d="M181.278,257.202c0.651,1.47,1.499,2.844,2.52,4.086
													c-0.655,0.511-1.503,0.706-2.316,0.533L181.278,257.202z"/>
												<path style="fill:#263238;" d="M179.228,264.113c0.375,0.145,0.765,0.251,1.162,0.316
													c0.089,0.018,0.175-0.04,0.193-0.129c0-0.001,0-0.001,0-0.002c0.008-0.087-0.05-0.166-0.135-0.185
													c-1.65-0.247-3.082-1.272-3.849-2.754c-0.023-0.082-0.105-0.132-0.189-0.116c-0.079,0.012-0.133,0.085-0.122,0.164
													c0.001,0.009,0.003,0.017,0.006,0.025C176.885,262.674,177.938,263.636,179.228,264.113z"/>
												<path style="fill:#263238;" d="M173.988,251.445c0.085,0.025,0.183-0.004,0.256-0.075
													c0.645-0.658,1.502-0.973,2.3-0.844c0.138,0.029,0.286-0.071,0.336-0.225c0.049-0.154-0.021-0.306-0.157-0.339
													c-0.002,0-0.004-0.001-0.006-0.001c-0.962-0.169-2.004,0.203-2.788,0.997c-0.114,0.112-0.138,0.292-0.054,0.406
													C173.905,251.402,173.943,251.43,173.988,251.445z"/>
												<path style="fill:#263238;" d="M185.978,251.408c0.107,0.036,0.226,0.011,0.309-0.066
													c0.131-0.117,0.142-0.318,0.025-0.449c-0.001-0.001-0.001-0.001-0.001-0.002c-0.796-0.924-1.995-1.401-3.208-1.276
													c-0.169,0.018-0.292,0.171-0.273,0.34c0.001,0.009,0.002,0.017,0.004,0.026c0.029,0.173,0.193,0.29,0.366,0.261
													c0.001,0,0.002,0,0.002,0c1-0.086,1.981,0.315,2.635,1.076C185.875,251.36,185.924,251.392,185.978,251.408z"/>
												<path style="fill:#263238;" d="M176.318,255.126l1.544-0.484C177.862,254.641,177.119,255.873,176.318,255.126z"/>
												<path style="fill:#263238;" d="M172.233,247.244c2.205,2.699-5.78,9.761-5.354,11.236
													c-2.169,0.139-3.776-4.408-3.893-6.766s0.643-4.751,2.101-6.609c0.935-1.191,2.659-1.418,4.16-1.614
													c0.443-0.058,0.913-0.092,1.317,0.096c0.516,0.24,0.82,0.805,0.898,1.368
													C171.541,245.52,171.873,246.803,172.233,247.244z"/>
												<path style="fill:#263238;" d="M169.246,243.491c3.522,2.849,3.849,6.647,3.053,9.843
													c0.957-0.88,1.802-1.706,2.362-2.878c0.56-1.173,0.611-2.686-0.223-3.684c2.121,1.453,3.543,4.005,3.934,6.546
													c0.933-0.608,1.438-1.745,1.549-2.854c0.111-1.108-0.304-2.258-1.098-3.039c1.476,1.316,2.369,3.563,1.957,5.497
													c1.019-0.92,1.643-1.998,1.547-3.367c-0.095-1.37-0.849-2.678-1.985-3.449c2.069,1.199,3.584,3.457,3.533,5.847
													c2.285-2.217,1.513-5.385-1.286-7.127C179.792,243.086,173.876,241.909,169.246,243.491z"/>
											</g>
										</g>
									</g>
								</g>
								<g>
									<path style="fill:#407BFF;" d="M168.153,274.749l-2.683,2.691c0,0,10.224,6.68,10.37,6.227
										c0.146-0.453,2.146-2.857,2.146-2.857L168.153,274.749z"/>
									<path style="fill:#407BFF;" d="M178.248,274.183l3.574,1.292c0,0-0.355,7.572-0.68,7.224
										c-0.325-0.347-3.158-1.671-3.158-1.671L178.248,274.183z"/>
									<g>
										<path style="opacity:0.2;fill:#FFFFFF;" d="M168.153,274.749l-2.683,2.691c0,0,10.224,6.68,10.37,6.227
											c0.146-0.453,2.146-2.857,2.146-2.857L168.153,274.749z"/>
										<path style="opacity:0.2;fill:#FFFFFF;" d="M178.248,274.183l3.574,1.292c0,0-0.355,7.572-0.68,7.224
											c-0.325-0.347-3.158-1.671-3.158-1.671L178.248,274.183z"/>
									</g>
								</g>
							</g>
						</g>
						<g>
							<g>
								<path style="fill:#FFC2BC;" d="M113.197,306.289l-8.607,0.817l3.005,6.764c0,0,4.657-2.072,6.674-3.71L113.197,306.289z"/>
								<path style="fill:#FFC2BC;" d="M101.412,312.285l0.142,0.245c0.536,0.929,1.54,1.488,2.613,1.453l3.429-0.112l-3.005-6.764
									l-2.103,1.202C101.09,309.107,100.608,310.89,101.412,312.285z"/>
							</g>
							<path style="fill:#FFC2BC;" d="M115.134,309.906c0,0,15.05,1.388,29.134-5.266c0,0,9.474-7.891,14.588-14.523
								c7.599-9.854,0.531-12.831-5.075-6.466c-4.16,4.723-13.804,13.839-13.804,13.839c-12.111,7.032-27.838,9.182-27.838,9.182
								C109.093,311.066,115.134,309.906,115.134,309.906z"/>
						</g>
						<g>
							<path style="fill:#407BFF;" d="M163.22,279.902c3.578,2.869-1.76,10.369-8.716,19.385l-8.631-11.197
								C145.873,288.09,156.816,274.767,163.22,279.902z"/>
							<path style="opacity:0.2;fill:#FFFFFF;" d="M163.22,279.902c3.578,2.869-1.76,10.369-8.716,19.385l-8.631-11.197
								C145.873,288.09,156.816,274.767,163.22,279.902z"/>
						</g>
					</g>
				</g>
			</g>
		</g>
	</g>
</g>
</svg>
