<?xml version="1.0" encoding="UTF-8"?>
<svg id="Grup_2" data-name="Grup 2" xmlns="http://www.w3.org/2000/svg" viewBox="0 0 460.8 131.95">
  <defs>
    <style>
      @font-face {
        font-family: "Dosis";
        src: url('https://fonts.gstatic.com/s/dosis/v10/HhyaU5sn9vOmLzj5c4NkCw.woff2') format('woff2');
      }

      .cls-1 {
        fill: #07b7a3;
      }

      .cls-2,
      .cls-3 {
        fill: #19ae9d;
      }

      .cls-3 .cls-4 {
        font-family: "Dosis", sans-serif;
      }

      .cls-3 {
        font-size: 107.71px;
      }

    

      .cls-4 {
        font-size: 105.8px;
      }

      .cls-4,
      .cls-5 {
        fill: #ededed;
      }

      .cls-6 {
        fill: none;
        stroke: #ededed;
        stroke-miterlimit: 100;
        stroke-width: 3px;
      }
    </style>
  </defs>
  <g id="Dikdörtgen_1" data-name="Dikdörtgen 1">
    <rect class="cls-2" x="1.95" y="2.56" width="247.05" height="120.74" rx="8.88" ry="8.88" />
  </g>
  <g id="tuana">
    <text class="cls-4" transform="translate(13.26 107.34)">
      <tspan x="0" y="0">tuana</tspan>
    </text>
  </g>
  <g id="lytics">
    <text class="cls-3" transform="translate(249.46 107.29)">
      <tspan x="0" y="0">lytics</tspan>
    </text>
  </g>
  <g id="Grup_1" data-name="Grup 1">
    <g id="Elips_1" data-name="Elips 1">
      <ellipse class="cls-5" cx="24.62" cy="20.76" rx="5.97" ry="6.09" />
    </g>
    <g id="Elips_1-2" data-name="Elips 1">
      <path class="cls-5" d="M88.66,39.04c-3.3,0-5.97,2.73-5.97,6.09s2.67,6.09,5.97,6.09,5.97-2.73,5.97-6.09-2.67-6.09-5.97-6.09Z" />
    </g>
    <g id="Elips_1-3" data-name="Elips 1">
      <ellipse class="cls-5" cx="47.14" cy="36.71" rx="5.97" ry="6.09" />
    </g>
    <g id="Elips_1-4" data-name="Elips 1">
      <ellipse class="cls-5" cx="71.87" cy="26.85" rx="5.97" ry="6.09" />
    </g>
    <g id="_Çizgi_1" data-name="Çizgi 1">
      <polygon class="cls-1" points="24.65 20.4 24.62 20.44 47.12 36.71 47.14 36.68 24.65 20.4" />
      <polygon class="cls-6" points="24.65 20.4 24.62 20.44 47.12 36.71 47.14 36.68 24.65 20.4" />
    </g>
    <g id="_Çizgi_1-2" data-name="Çizgi 1">
      <polygon class="cls-1" points="72.6 25.99 47.05 36.85 47.06 36.89 72.62 26.03 72.6 25.99" />
      <polygon class="cls-6" points="72.6 25.99 47.05 36.85 47.06 36.89 72.62 26.03 72.6 25.99" />
    </g>
    <g id="_Çizgi_1-3" data-name="Çizgi 1">
      <polygon class="cls-1" points="70.83 25.48 70.79 25.51 90.6 47.01 90.63 46.98 70.83 25.48" />
      <polygon class="cls-6" points="70.83 25.48 70.79 25.51 90.6 47.01 90.63 46.98 70.83 25.48" />
    </g>
  </g>
</svg>