<?xml version="1.0" encoding="UTF-8"?>
<svg id="katman_2" data-name="katman 2" xmlns="http://www.w3.org/2000/svg" viewBox="0 0 130.45 227.3">
  <defs>
    <style>
      .cls-1 {
        fill: #37474f;
      }

      .cls-2 {
        fill: #f28f8f;
      }

      .cls-3 {
        opacity: .15;
      }

      .cls-4 {
        opacity: .3;
      }

      .cls-5 {
        fill: #27debf;
      }

      .cls-6 {
        fill: #263238;
      }

      .cls-7 {
        fill: #ffa8a7;
      }
    </style>
  </defs>
  <g id="Character_2" data-name="Character 2">
    <g id="Character">
      <polygon class="cls-7" points="59.57 31.3 58.37 43.8 47.2 43.1 48.1 29.25 59.57 31.3"/>
      <path class="cls-7" d="M45.38,36.83c-6.08-1.29-8.77,2.36-11.43,8.86-2.67,6.51-9.51,20.86-10.62,25.21-.5,1.95,15.79,21.42,15.26,21.17-.16-.08,4.82-8.41,4.82-8.41l-9.06-12.76,6.38-10.27,4.66-23.81Z"/>
      <g>
        <path class="cls-7" d="M16.76,183.22c1.24-3.85,5.94-18.55,7.57-22.74,2.58-6.65,4.24-10.17,9.66-13.57,0,0-.28-33.18,0-44.99,.36-15.12,3.7-20.19,3.7-20.19l34.96,1.97s2.97,25.76,3.56,37.64c.67,13.38,.67,17.57,.34,24.86-.21,4.58-.86,8.76-1.21,15.72-.35,6.95-2.4,41.74-2.4,41.74,0,0-.02-.03-.06-.08-.03,.48-.07,.87-.13,1.08-.32,1.25-1.67,2.67-4.13,2.72-3.51,.07-4.63-1.68-4.82-2.81-.03-.19-.06-.41-.09-.64-.02,0-.04,0-.07-.02,0,0-2.6-14.83-4.32-26.15-1.08-7.12-1.46-12.18-1.45-15.78,.01-2.71,1.03-7.33,1.53-9.66l-5.02-32.51s-4.29,27.68-4.99,30.32c-.48,1.85-11.9,19.51-18.78,30.04h0s0,.01,0,.01c-2.98,4.57-9.75,14.55-10.17,15.11-1.49,1.97-6.48-5.17-6.48-5.17l2.79-6.94Z"/>
        <path class="cls-7" d="M23.05,191.54c-3.61,4.91-5.56,17.95-4.52,19.88s-4.18-.03-4.9-2.93-.86-17.19-.86-17.19l10.27,.24Z"/>
        <path class="cls-7" d="M73.02,203.1c.08,3.81,2.64,13.7,6.37,14.87s-1.67,3.89-4.49,2.83-7.09-9.5-9.28-11.59c-2.19-2.1-2.32-7.4-2.32-7.4l9.72,1.3Z"/>
        <path class="cls-1" d="M73,79.59s1.22,3.85,2.39,17.95c1.17,14.1,3.49,34.18,3.65,42.19,0,0-6.19-1.55-8.8-7.2,0,0-4.36,9.42-14.55,11.5-10.19,2.07-20.42-.69-22.44-6.76,.06-.66-.25-32.59,0-40.04,.25-7.45,3.1-13.67,5.91-19.93l33.84,2.28Z"/>
        <g>
          <path class="cls-5" d="M74.9,224.5s-.84,1.48-5.4-.44c-4.56-1.92-5.84-4.19-5.84-4.19,0,0,1.18-9.15,4-6.85,2.82,2.3,7.23,11.48,7.23,11.48Z"/>
          <path class="cls-4" d="M74.9,224.5s-.84,1.48-5.4-.44c-4.56-1.92-5.84-4.19-5.84-4.19,0,0,1.18-9.15,4-6.85,2.82,2.3,7.23,11.48,7.23,11.48Z"/>
          <path class="cls-6" d="M62.6,201.93c.93-.49,3.41,.53,4.86,1.79,1.91,1.65,2.38,3.88,3.36,6.5,1.05,2.8,2.94,6.64,4.48,7.5,1.53,.86,4.34,.07,6.66,.05,2.32-.01,4.11,1.05,4.24,2.74,.06,1.33-5.95,4.39-9.76,4.54-3.16,.13-4.23,.67-5.98-3.95-1.75-4.62-2.41-7.22-3.8-4.08-1.39,3.14-1.92,9.69-1.92,9.69,0,0-1.09,1.3-2.79,.06,0,0,0-4.04-.4-6.88-.4-2.84-1.91-7.31-1.71-10.73,.2-3.42,1.83-6.76,2.75-7.23Z"/>
        </g>
        <g>
          <path class="cls-5" d="M12.01,213.89s-1.45,.71-4.24-3.37c-1.38-2.02-1.45-2.7-1.45-2.7,0,0,.8-3.22,.61-5.62-.23-2.87,4.85-3.86,5.46-1.87,1.06,3.48-.38,13.56-.38,13.56Z"/>
          <path class="cls-4" d="M12.01,213.89s-1.45,.71-4.24-3.37c-1.38-2.02-1.45-2.7-1.45-2.7,0,0,.8-3.22,.61-5.62-.23-2.87,4.85-3.86,5.46-1.87,1.06,3.48-.38,13.56-.38,13.56Z"/>
          <path class="cls-6" d="M14.36,188.3c1.05,.11,2.53,2.34,3.04,4.19,.67,2.44-.18,4.55-.83,7.27-.69,2.9-1.25,7.16-.46,8.72,.8,1.57,3.57,2.47,5.5,3.75,1.93,1.28,2.83,3.16,2,4.63-.69,1.14-7.39,.33-10.63-1.66-2.69-1.65-3.89-1.8-2.77-6.61,1.12-4.81,2.02-7.34-.88-5.5s-6.99,6.98-6.99,6.98c0,0-1.63,.47-2.36-1.5,0,0,2.25-3.36,3.5-5.94,1.25-2.58,2.48-7.13,4.55-9.87,2.07-2.73,5.29-4.6,6.31-4.47Z"/>
        </g>
      </g>
      <g>
        <path class="cls-5" d="M38.46,42.27c1.14-3.37,3.73-5.69,7.63-5.91,0,0,6.72-.22,11.14,.17s6.52,.91,9.39,1.84l3.83,3.7c1.78,2.22,4.93,12.19,4.86,29.33-.01,3.29,.41,7.32-2.31,8.19-6.41,3.56-22.26,5.14-34.22-1.65-1.74-1.3-1.47-11.41-1.41-16,.09-6.14,.3-17.32,1.09-19.67Z"/>
        <path class="cls-3" d="M69.44,55.64l-.3-3.74,.54-.04,.3,3.74c1.03,12.86,1.66,21.59,.87,24.96-.2,.08-.38,.16-.59,.23,.96-3.08,.1-13.83-.81-25.15Z"/>
        <path class="cls-7" d="M66.62,38.37s2.6,0,10.69,4.41c5.35,2.92,16.12,8.45,20.58,10.54,3.36-2.81,16.69-13.97,17.22-15.06,.6-1.25-.41-3.23-.93-4.32-.53-1.09-1.56-3.56-1.99-4.22-.76-1.14,1.18-1.27,2.57-.37,1.42,.92,2.45,3.08,3.09,3.33,.64,.26,3.61-5.56,5.05-8.37,1.44-2.81,1.98-4.66,3.57-4.05,1.15,.44,.86,1.97-.09,4.31-.95,2.34-1.11,2.6-1.21,3.08-.09,.4,.52,.55,.78,.68,.48,.25,1.32,.65,1.5,1.19,.1,.29,.12,.61,.28,.88,.35,.61,1.24,.72,1.63,1.3,.28,.42,.23,.99,.44,1.46,.14,.3,.38,.54,.52,.84,.26,.59,.06,1.28-.22,1.86-1,2.04-2.77,3.17-4.37,4.66-1.33,1.24-2.83,2.01-4.41,3.25-1.58,1.23-18.4,21.55-22.18,22.28-1.25,.24-2.11,.09-3.52-.33-3.37-1.02-17.45-6.7-24.42-9.15-5.35-2.75-6.99-3.79-8.13-11.73-.55-3.84,3.55-6.48,3.55-6.48Z"/>
      </g>
      <g>
        <path class="cls-6" d="M69.41,7.98c0-.48-.09-.96-.32-1.37-.37-.64-1.2-1.05-1.88-.75,.37-.67,.74-1.35,.83-2.11,.09-.76-.17-1.6-.83-1.99-.52-.31-1.17-.27-1.77-.25-3.73,.12-7.4-.86-11.11-1.31-3.71-.45-7.72-.3-10.81,1.8-1.51,1.03-2.93,2.6-3.47,4.36-.26,.83-.5,1.66-.35,2.54,.15,.86,.55,1.65,.39,2.54-.27,1.47-.36,2.97-.42,4.46-.24,6.17,14.08,10.18,13.8,14.41,2.54-3.1,5.09-6.19,7.63-9.29,0-.39,1.08-1.35,1.32-1.67,.46-.61,.86-1.27,1.28-1.91,1.89-2.87,5.1-5.11,5.64-8.68,.04-.26,.06-.52,.06-.79Z"/>
        <path class="cls-2" d="M67.86,17.59s2.47,3.68,2.15,4.06c-.32,.39-1.89,.8-1.89,.8l-.26-4.87Z"/>
        <path class="cls-7" d="M60.3,5.95c2.4,1.22,6.56,3.48,7.63,12.18,1.1,8.94-.93,12.04-2.17,13.21-.84,.79-5.15,1.08-7.41,.39-2.82-.86-8.92-3.82-11.78-8.44-3.37-5.43-4.06-12.66-.18-15.49,5.47-3.99,11.87-2.89,13.9-1.85Z"/>
        <path class="cls-2" d="M65.53,31.5c-1.01,.56-3.88,.79-6.02,.48l.06-1.6s1.2,.55,2.85,.93c1.64,.37,3.09,.2,3.11,.2Z"/>
        <path class="cls-6" d="M32.04,4.06c1.69-3.32,5.75-4.63,9.07-2.94,2.04,1.04,2.2,2.41,1.64,4.07,.61-.4,1.27-.77,2.03-1.07,.34-.13,.69-.21,1.03-.31,3.17-.84,6.54-.89,9.74-.21,1.6,.34,3.17,.86,4.65,1.57,.38,.18,.76,.34,1.14,.5,.99,.42,1.94,.84,2.8,1.61,.4,.36,.78,.77,.99,1.27,.19,.45,.25,.95,.2,1.44-.12,1.34-1.02,2.57-2.25,3.11,.65,.88,.88,2.05,.61,3.11-.33,1.26-1.28,2.25-2.2,3.17-.05,.05-.11,.11-.18,.13-.14,.04-.28-.04-.4-.12-1.51-1.01-2.44-2.75-4.58-2.05-2.8,.92-2.77,5.51-.34,7.15,1.24,.83,2.37,.08,2.37,.08,0,0-.74,6.93,1,8.82,1.9,2.06,5.26,1.34,5.26,1.34,0,0-1.56,7.63-13.03,6.47-9.66-.97-10.17-7.01-10.17-7.01,0,0-.71,3.16,2.32,6.04,0,0-7.22,.68-9.42-4.8-1.65-4.12,2.05-6.88,2.98-12.08,.38-2.13-.51-6.32-.35-9.74-.57,.04-1.21-.1-1.98-.49-3.32-1.69-4.63-5.75-2.94-9.07Z"/>
        <path class="cls-6" d="M61.67,22.54c1.1-.39,1.67-1.58,1.27-2.66-.4-1.08-1.61-1.64-2.71-1.25l1.44,3.91Z"/>
      </g>
    </g>
  </g>
</svg>