<?xml version="1.0" encoding="UTF-8"?>
<svg id="katman_2" data-name="katman 2" xmlns="http://www.w3.org/2000/svg" viewBox="0 0 272.87 302.11">
  <defs>
    <style>
      .cls-1, .cls-2 {
        fill: #fff;
      }

      .cls-3 {
        fill: #fafafa;
      }

      .cls-2, .cls-4 {
        opacity: .4;
      }

      .cls-5 {
        fill: #455a64;
      }

      .cls-4, .cls-6 {
        fill: #27debf;
      }

      .cls-7 {
        opacity: .2;
      }

      .cls-8 {
        fill: #e0e0e0;
      }

      .cls-9 {
        opacity: .15;
      }

      .cls-10 {
        opacity: .3;
      }
    </style>
  </defs>
  <g id="Screen_1" data-name="Screen 1">
    <g id="Screen_2" data-name="Screen 2">
      <g id="Screen_2-2" data-name="Screen 2">
        <g>
          <path class="cls-4" d="M0,4.72C0,3.41,.48,2.51,1.23,2.1h0S4.38,.29,4.38,.29h0c.73-.44,1.75-.4,2.88,.25L191.78,107.07c2.22,1.28,4.02,4.4,4.02,6.96v183.36c0,1.29-.46,2.19-1.2,2.61h0s-3.22,1.84-3.22,1.84h0c-.73,.42-1.73,.36-2.84-.28L4.02,195.04c-2.22-1.28-4.02-4.4-4.02-6.96V4.72Z"/>
          <path class="cls-4" d="M0,4.72V188.08c0,2.56,1.79,5.68,4.02,6.96l184.52,106.52c1.97,1.14,3.61,.44,3.95-1.53-.23-.07-.46-.19-.71-.32L7.26,193.19c-2.21-1.28-4.02-4.39-4.02-6.96V2.87c0-.3,.02-.56,.07-.81C1.43,1.37,0,2.44,0,4.72Z"/>
          <path class="cls-1" d="M4.02,2.4L47.63,28.05l43.7,25.51,43.78,25.37,21.89,12.68,21.93,12.61,5.48,3.15,2.74,1.58c.43,.26,.96,.54,1.32,.78,.38,.26,.75,.57,1.08,.92,1.31,1.4,2.24,3.33,2.3,5.19v6.32s.04,25.3,.04,25.3l.15,50.6c.08,33.73,.31,67.46,.52,101.19,.21-33.73,.44-67.46,.52-101.19l.15-50.6,.03-25.3v-6.33c-.08-2.37-1.13-4.48-2.67-6.15-.39-.41-.83-.79-1.32-1.13-.52-.34-.93-.55-1.4-.83l-2.74-1.59-5.47-3.17-21.89-12.68-21.93-12.62-43.86-25.23L48.05,27.34,4.02,2.4Z"/>
        </g>
      </g>
      <g id="Chart">
        <path class="cls-9" d="M173.99,212.91l-70.84-40.9c-1.41-.82-2.56-.15-2.56,1.48v50.32c0,1.63,1.14,3.61,2.56,4.43l70.84,40.9c1.41,.82,2.56,.15,2.56-1.48v-50.32c0-1.63-1.14-3.61-2.56-4.43Z"/>
        <g>
          <path class="cls-3" d="M172.5,222.89c.09,0,.17-.05,.22-.13,.07-.12,.03-.28-.09-.35l-67.67-39.07c-.12-.07-.28-.03-.35,.09-.07,.12-.03,.28,.09,.35l67.67,39.07s.08,.03,.13,.03Z"/>
          <path class="cls-3" d="M172.5,231.94c.09,0,.17-.05,.22-.13,.07-.12,.03-.28-.09-.35l-67.67-39.07c-.12-.07-.28-.03-.35,.09-.07,.12-.03,.28,.09,.35l67.67,39.07s.08,.03,.13,.03Z"/>
          <path class="cls-3" d="M172.5,241.01c.09,0,.17-.05,.22-.13,.07-.12,.03-.28-.09-.35l-67.67-39.07c-.12-.07-.28-.03-.35,.09-.07,.12-.03,.28,.09,.35l67.67,39.07s.08,.03,.13,.03Z"/>
          <path class="cls-3" d="M172.5,250.06c.09,0,.17-.05,.22-.13,.07-.12,.03-.28-.09-.35l-67.67-39.07c-.12-.07-.28-.03-.35,.09-.07,.12-.03,.28,.09,.35l67.67,39.07s.08,.03,.13,.03Z"/>
          <path class="cls-3" d="M172.5,259.14c.09,0,.18-.05,.23-.14,.07-.13,.03-.29-.1-.37l-67.67-39.07c-.13-.07-.29-.03-.37,.1-.07,.13-.03,.29,.1,.37l67.67,39.07s.09,.04,.13,.04Z"/>
          <path class="cls-10" d="M104.83,205.37l3.94-3.8c1.45-1.4,3.66-.69,5.5,1.75l.12,.16c1.96,2.6,4.32,3.22,5.74,1.49l1.68-2.04c1.72-2.09,4.74-.71,6.75,3.09l1.45,2.74c1.46,2.76,3.52,4.34,5.24,4.02h0c2-.37,4.42,1.83,5.83,5.3l2.26,5.55c1.27,3.12,3.38,5.26,5.28,5.34l2.02,.09c1.13,.05,2.37,.83,3.47,2.2l2.16,2.68c2.11,2.61,4.56,2.94,5.85,.77l.1-.16c1.9-3.16,5.97-.84,7.89,4.5l2.39,6.66v13.08l-67.67-39.07v-14.35Z"/>
          <path class="cls-5" d="M172.5,245.97s.06,0,.09-.02c.13-.05,.2-.19,.15-.33l-2.39-6.66c-1.24-3.44-3.48-5.89-5.59-6.09-1.11-.12-2.1,.44-2.76,1.54l-.1,.16c-.48,.8-1.13,1.24-1.89,1.3-1.14,.07-2.4-.69-3.54-2.1l-2.16-2.68c-1.15-1.42-2.45-2.24-3.65-2.29l-2.02-.09c-1.79-.08-3.82-2.16-5.05-5.18l-2.26-5.55c-1.47-3.61-3.97-5.86-6.12-5.46-1.6,.3-3.56-1.23-4.96-3.89l-1.45-2.74c-1.3-2.45-3.07-4.01-4.73-4.18-.95-.1-1.79,.27-2.44,1.05l-1.68,2.04c-.48,.58-1.07,.88-1.75,.88-.02,0-.03,0-.05,0-1.13-.02-2.42-.89-3.53-2.36l-.12-.16c-1.17-1.55-2.5-2.46-3.77-2.56-.79-.06-1.53,.21-2.12,.77l-3.94,3.8c-.1,.1-.1,.26,0,.36,.1,.1,.26,.1,.36,0l3.94-3.8c.49-.47,1.06-.68,1.72-.63,1.11,.09,2.32,.92,3.4,2.36l.12,.16c1.22,1.63,2.62,2.54,3.93,2.57,.89,0,1.62-.35,2.21-1.07l1.68-2.04c.53-.65,1.21-.95,1.99-.87,1.49,.15,3.11,1.61,4.33,3.91l1.45,2.74c1.51,2.86,3.67,4.5,5.51,4.15,1.85-.34,4.2,1.82,5.55,5.15l2.26,5.55c1.32,3.25,3.48,5.41,5.5,5.5l2.02,.09c1.06,.05,2.22,.79,3.28,2.1l2.16,2.68c1.26,1.57,2.69,2.38,3.97,2.29,.94-.06,1.73-.6,2.3-1.54l.1-.16c.56-.94,1.35-1.39,2.27-1.3,1.91,.19,3.99,2.5,5.16,5.75l2.39,6.66c.04,.1,.14,.17,.24,.17Z"/>
          <path class="cls-6" d="M111.19,223.73c.14,0,.26-.12,.26-.26v-1.54c0-.14-.12-.26-.26-.26s-.26,.12-.26,.26v1.54c0,.14,.12,.26,.26,.26Zm0-3.08c.14,0,.26-.12,.26-.26v-1.54c0-.14-.12-.26-.26-.26s-.26,.12-.26,.26v1.54c0,.14,.12,.26,.26,.26Zm0-3.08c.14,0,.26-.12,.26-.26v-1.54c0-.14-.12-.26-.26-.26s-.26,.12-.26,.26v1.54c0,.14,.12,.26,.26,.26Zm0-3.08c.14,0,.26-.12,.26-.26v-1.54c0-.14-.12-.26-.26-.26s-.26,.12-.26,.26v1.54c0,.14,.12,.26,.26,.26Zm0-3.08c.14,0,.26-.12,.26-.26v-1.54c0-.14-.12-.26-.26-.26s-.26,.12-.26,.26v1.54c0,.14,.12,.26,.26,.26Zm0-3.08c.14,0,.26-.12,.26-.26v-1.54c0-.14-.12-.26-.26-.26s-.26,.12-.26,.26v1.54c0,.14,.12,.26,.26,.26Zm0-3.08c.14,0,.26-.12,.26-.26v-1.54c0-.14-.12-.26-.26-.26s-.26,.12-.26,.26v1.54c0,.14,.12,.26,.26,.26Zm0-3.08c.14,0,.26-.12,.26-.26v-.95c0-.14-.12-.26-.26-.26s-.26,.12-.26,.26v.95c0,.14,.12,.26,.26,.26Z"/>
          <path class="cls-6" d="M138.67,239.59c.14,0,.26-.12,.26-.26v-1.54c0-.14-.12-.26-.26-.26s-.26,.12-.26,.26v1.54c0,.14,.12,.26,.26,.26Zm0-3.08c.14,0,.26-.12,.26-.26v-1.54c0-.14-.12-.26-.26-.26s-.26,.12-.26,.26v1.54c0,.14,.12,.26,.26,.26Zm0-3.08c.14,0,.26-.12,.26-.26v-1.54c0-.14-.12-.26-.26-.26s-.26,.12-.26,.26v1.54c0,.14,.12,.26,.26,.26Zm0-3.08c.14,0,.26-.12,.26-.26v-1.54c0-.14-.12-.26-.26-.26s-.26,.12-.26,.26v1.54c0,.14,.12,.26,.26,.26Zm0-3.08c.14,0,.26-.12,.26-.26v-1.54c0-.14-.12-.26-.26-.26s-.26,.12-.26,.26v1.54c0,.14,.12,.26,.26,.26Zm0-3.08c.14,0,.26-.12,.26-.26v-1.54c0-.14-.12-.26-.26-.26s-.26,.12-.26,.26v1.54c0,.14,.12,.26,.26,.26Zm0-3.08c.14,0,.26-.12,.26-.26v-1.54c0-.14-.12-.26-.26-.26s-.26,.12-.26,.26v1.54c0,.14,.12,.26,.26,.26Zm0-3.08c.14,0,.26-.12,.26-.26v-1.54c0-.14-.12-.26-.26-.26s-.26,.12-.26,.26v1.54c0,.14,.12,.26,.26,.26Zm0-3.08c.14,0,.26-.12,.26-.26v-.43c0-.14-.12-.26-.26-.26s-.26,.12-.26,.26v.43c0,.14,.12,.26,.26,.26Z"/>
          <path class="cls-6" d="M152.4,247.52c.14,0,.26-.12,.26-.26v-1.54c0-.14-.12-.26-.26-.26s-.26,.12-.26,.26v1.54c0,.14,.12,.26,.26,.26Zm0-3.08c.14,0,.26-.12,.26-.26v-1.54c0-.14-.12-.26-.26-.26s-.26,.12-.26,.26v1.54c0,.14,.12,.26,.26,.26Zm0-3.08c.14,0,.26-.12,.26-.26v-1.54c0-.14-.12-.26-.26-.26s-.26,.12-.26,.26v1.54c0,.14,.12,.26,.26,.26Zm0-3.08c.14,0,.26-.12,.26-.26v-1.54c0-.14-.12-.26-.26-.26s-.26,.12-.26,.26v1.54c0,.14,.12,.26,.26,.26Zm0-3.08c.14,0,.26-.12,.26-.26v-1.54c0-.14-.12-.26-.26-.26s-.26,.12-.26,.26v1.54c0,.14,.12,.26,.26,.26Zm0-3.08c.14,0,.26-.12,.26-.26v-1.54c0-.14-.12-.26-.26-.26s-.26,.12-.26,.26v1.54c0,.14,.12,.26,.26,.26Z"/>
          <path class="cls-6" d="M166.14,255.45c.14,0,.26-.12,.26-.26v-1.54c0-.14-.12-.26-.26-.26s-.26,.12-.26,.26v1.54c0,.14,.12,.26,.26,.26Zm0-3.08c.14,0,.26-.12,.26-.26v-1.54c0-.14-.12-.26-.26-.26s-.26,.12-.26,.26v1.54c0,.14,.12,.26,.26,.26Zm0-3.08c.14,0,.26-.12,.26-.26v-1.54c0-.14-.12-.26-.26-.26s-.26,.12-.26,.26v1.54c0,.14,.12,.26,.26,.26Zm0-3.08c.14,0,.26-.12,.26-.26v-1.54c0-.14-.12-.26-.26-.26s-.26,.12-.26,.26v1.54c0,.14,.12,.26,.26,.26Zm0-3.08c.14,0,.26-.12,.26-.26v-1.54c0-.14-.12-.26-.26-.26s-.26,.12-.26,.26v1.54c0,.14,.12,.26,.26,.26Zm0-3.08c.14,0,.26-.12,.26-.26v-1.54c0-.14-.12-.26-.26-.26s-.26,.12-.26,.26v1.54c0,.14,.12,.26,.26,.26Zm0-3.08c.14,0,.26-.12,.26-.26v-1.54c0-.14-.12-.26-.26-.26s-.26,.12-.26,.26v1.54c0,.14,.12,.26,.26,.26Zm0-3.09c.14,0,.26-.1,.26-.24v-.02c0-.14-.12-.26-.26-.26s-.26,.12-.26,.26,.12,.27,.26,.27Z"/>
          <path class="cls-6" d="M124.93,231.66c.14,0,.26-.12,.26-.26v-1.54c0-.14-.12-.26-.26-.26s-.26,.12-.26,.26v1.54c0,.14,.12,.26,.26,.26Zm0-3.08c.14,0,.26-.12,.26-.26v-1.54c0-.14-.12-.26-.26-.26s-.26,.12-.26,.26v1.54c0,.14,.12,.26,.26,.26Zm0-3.08c.14,0,.26-.12,.26-.26v-1.54c0-.14-.12-.26-.26-.26s-.26,.12-.26,.26v1.54c0,.14,.12,.26,.26,.26Zm0-3.08c.14,0,.26-.12,.26-.26v-1.54c0-.14-.12-.26-.26-.26s-.26,.12-.26,.26v1.54c0,.14,.12,.26,.26,.26Zm0-3.08c.14,0,.26-.12,.26-.26v-1.54c0-.14-.12-.26-.26-.26s-.26,.12-.26,.26v1.54c0,.14,.12,.26,.26,.26Zm0-3.08c.14,0,.26-.12,.26-.26v-1.54c0-.14-.12-.26-.26-.26s-.26,.12-.26,.26v1.54c0,.14,.12,.26,.26,.26Zm0-3.08c.14,0,.26-.12,.26-.26v-1.54c0-.14-.12-.26-.26-.26s-.26,.12-.26,.26v1.54c0,.14,.12,.26,.26,.26Zm0-3.08c.14,0,.26-.12,.26-.26v-1.54c0-.14-.12-.26-.26-.26s-.26,.12-.26,.26v1.54c0,.14,.12,.26,.26,.26Zm0-3.08c.14,0,.26-.12,.26-.26v-1.54c0-.14-.12-.26-.26-.26s-.26,.12-.26,.26v1.54c0,.14,.12,.26,.26,.26Zm0-3.08c.14,0,.26-.12,.26-.26v-1.51c0-.14-.12-.26-.26-.26s-.26,.12-.26,.26v1.51c0,.14,.12,.26,.26,.26Z"/>
          <path class="cls-8" d="M110.57,200.6c0-.53,.28-.8,.62-.6s.62,.79,.62,1.32-.28,.8-.62,.6-.62-.79-.62-1.32Z"/>
          <path class="cls-8" d="M124.31,201.81c0-.53,.28-.8,.62-.6s.62,.79,.62,1.32-.28,.8-.62,.6-.62-.79-.62-1.32Z"/>
          <path class="cls-8" d="M138.04,213.91c0-.53,.28-.8,.62-.6,.34,.2,.62,.79,.62,1.32s-.28,.8-.62,.6-.62-.79-.62-1.32Z"/>
          <path class="cls-8" d="M151.78,229.32c0-.53,.28-.8,.62-.6s.62,.79,.62,1.32-.28,.8-.62,.6-.62-.79-.62-1.32Z"/>
          <path class="cls-8" d="M165.52,233.25c0-.53,.28-.8,.62-.6,.34,.2,.62,.79,.62,1.32s-.28,.8-.62,.6c-.34-.2-.62-.79-.62-1.32Z"/>
        </g>
      </g>
      <g id="Check_List" data-name="Check List">
        <g>
          <g>
            <path class="cls-6" d="M27.67,55.45c.09,0,.18-.02,.26-.07,.16-.09,.26-.27,.26-.46v-9.23c0-.19-.1-.36-.26-.46l-8-4.62c-.16-.09-.37-.09-.53,0-.16,.09-.26,.27-.26,.46v9.23c0,.19,.1,.36,.26,.46l8,4.62c.08,.05,.17,.07,.26,.07Zm-.53-9.46v8.01l-6.94-4.01v-8.01l6.94,4.01Z"/>
            <path id="Check" class="cls-5" d="M28.58,44.3c-.38-.37-.71-.33-.92-.08l-3.67,4.49-1.47-3.05c-.23-.53-.53-.66-.88-.52-.43,.17-.34,.54-.21,.83l1.89,4.02c.18,.39,.26,.52,.52,.57,.38,.07,.61-.25,.73-.4l4.03-4.93c.21-.25,.34-.57-.04-.94Z"/>
          </g>
          <path class="cls-5" d="M34.46,52.84l37.98,21.94c.71,.41,1.28,1.36,1.28,2.13s-.57,1.06-1.28,.65l-37.98-21.94c-.71-.41-1.28-1.36-1.28-2.13s.57-1.06,1.28-.65Z"/>
        </g>
        <g>
          <g>
            <path class="cls-6" d="M27.66,69.3c.09,0,.18-.02,.26-.07,.16-.09,.26-.27,.26-.46v-9.23c0-.19-.1-.36-.26-.46l-8-4.62c-.16-.09-.37-.09-.53,0-.16,.09-.26,.27-.26,.46v9.23c0,.19,.1,.36,.26,.46l8,4.62c.08,.05,.17,.07,.26,.07Zm-.53-9.46v8.01l-6.94-4.01v-8.01l6.94,4.01Z"/>
            <path id="Check-2" data-name="Check" class="cls-5" d="M28.58,58.2c-.38-.37-.71-.33-.92-.08l-3.67,4.49-1.47-3.05c-.23-.53-.53-.66-.88-.52-.43,.17-.34,.54-.21,.83l1.89,4.02c.18,.39,.26,.52,.52,.57,.38,.07,.61-.25,.73-.4l4.03-4.93c.21-.25,.34-.57-.04-.94Z"/>
          </g>
          <path class="cls-5" d="M34.46,66.65l37.98,21.94c.71,.41,1.28,1.36,1.28,2.13s-.57,1.06-1.28,.65l-37.98-21.94c-.71-.41-1.28-1.36-1.28-2.13s.57-1.06,1.28-.65Z"/>
        </g>
      </g>
      <g id="Chart-2" data-name="Chart">
        <g class="cls-9">
          <path d="M99.34,73.72l51.89,29.96c2.03,1.17,3.68,4.03,3.68,6.37v47.29c0,2.35-1.65,3.3-3.68,2.12l-51.89-29.96c-2.03-1.17-3.68-4.03-3.68-6.37v-47.29c0-2.35,1.65-3.3,3.68-2.12Z"/>
        </g>
        <g>
          <g>
            <path class="cls-5" d="M118.67,110.18s-.09-.03-.13,0c-.04,.03-.05,.08-.05,.15v.66c0,.07,.02,.14,.05,.21,.04,.07,.08,.12,.13,.15l2.18,1.26-1.62,4.04s-.02,.07-.02,.1c0,.07,.02,.14,.06,.21,.04,.07,.08,.12,.13,.15l.58,.33c.06,.03,.1,.04,.13,0,.03-.03,.05-.07,.07-.11l1.61-4.03c.04-.09,.06-.15,.08-.21,.02-.06,.03-.11,.03-.17v-.61c0-.07-.02-.14-.05-.21-.04-.07-.08-.12-.13-.15l-3.05-1.76Z"/>
            <path class="cls-5" d="M126.11,115.9c-.07-.34-.17-.67-.32-.98-.14-.31-.33-.6-.57-.86-.23-.26-.52-.49-.86-.68-.34-.2-.63-.3-.86-.3-.23,0-.42,.07-.57,.21-.15,.14-.25,.35-.32,.63-.07,.27-.11,.59-.12,.94,0,.23-.01,.49-.01,.79s0,.57,.01,.81c.02,.37,.05,.72,.12,1.07,.06,.34,.17,.67,.32,.98,.15,.31,.34,.59,.57,.85,.23,.26,.52,.49,.86,.69,.34,.19,.62,.3,.86,.3,.24,.01,.43-.06,.57-.2,.15-.14,.25-.34,.32-.61,.07-.27,.11-.58,.12-.93,0-.11,0-.24,0-.39v-.87c0-.14,0-.27,0-.39-.01-.37-.05-.72-.12-1.07Zm-2.69,.27c0-.28,0-.54,.01-.77,.02-.43,.1-.73,.24-.9,.14-.17,.37-.16,.69,.03,.32,.19,.56,.44,.69,.77,.14,.32,.22,.72,.24,1.17,.01,.24,.01,.5,.01,.79s0,.54-.01,.77c-.02,.43-.1,.73-.24,.89-.14,.17-.37,.15-.69-.03-.33-.19-.56-.44-.69-.77-.14-.33-.22-.72-.24-1.17-.01-.24-.01-.5-.01-.79Z"/>
            <path class="cls-5" d="M127.51,115.35c-.13,0-.23,.02-.32,.08-.09,.06-.15,.15-.2,.26-.04,.11-.07,.24-.08,.38,0,.16-.01,.32-.01,.51s0,.36,.01,.52c.01,.15,.03,.3,.08,.47,.04,.16,.11,.33,.2,.48,.08,.16,.19,.3,.32,.44,.12,.14,.27,.25,.44,.35,.17,.1,.32,.15,.45,.16,.12,0,.23-.02,.32-.08s.15-.14,.19-.26c.04-.11,.07-.24,.08-.37,.01-.15,.01-.32,.01-.51s0-.36-.01-.52c0-.15-.04-.3-.08-.47-.04-.17-.11-.33-.19-.48-.09-.16-.19-.31-.32-.45-.13-.14-.28-.26-.45-.36-.17-.1-.32-.15-.44-.16Zm-.2,6.03s-.02,.03-.02,.04c0,.02,0,.03,0,.04,0,.06,.02,.11,.05,.16,.03,.05,.07,.09,.12,.12l.42,.24c.06,.04,.11,.05,.15,.04,.03-.01,.07-.04,.1-.07l3.44-4.04s.01-.03,.02-.05c0-.01,0-.03,0-.04,0-.05-.01-.11-.04-.16-.03-.05-.07-.09-.12-.12l-.42-.24c-.07-.04-.12-.05-.15-.04-.03,0-.07,.03-.1,.07l-3.44,4.05Zm.92-3.31c-.05,.06-.14,.05-.28-.03s-.23-.17-.28-.29c-.05-.11-.08-.24-.09-.37,0-.04-.01-.1-.01-.18,0-.08,0-.16,0-.25s0-.17,0-.25c0-.08,0-.14,.01-.17,0-.12,.04-.21,.09-.26,.05-.06,.14-.05,.28,.03,.13,.08,.23,.17,.28,.29,.05,.12,.08,.24,.09,.37,0,.04,0,.1,0,.18v.5c0,.08,0,.14,0,.17,0,.12-.04,.2-.09,.26Zm2.29,2.27c-.13,0-.23,.02-.32,.08-.09,.06-.15,.14-.19,.26-.04,.11-.07,.24-.08,.38-.01,.15-.02,.32-.02,.5s0,.36,.02,.52c0,.15,.04,.3,.08,.47,.04,.16,.11,.32,.19,.48,.09,.16,.19,.31,.32,.44,.12,.14,.27,.25,.44,.35,.17,.1,.32,.15,.45,.16,.12,0,.23-.02,.32-.08,.09-.06,.15-.14,.2-.26,.04-.11,.07-.24,.08-.38,0-.16,.01-.33,.01-.51s0-.36-.01-.52c-.01-.15-.04-.3-.08-.47-.04-.16-.11-.33-.2-.48-.08-.16-.19-.31-.32-.45-.13-.14-.27-.26-.45-.36-.17-.1-.32-.15-.44-.16Zm.72,2.73c-.05,.06-.14,.05-.28-.03-.13-.08-.23-.17-.28-.29-.05-.12-.08-.24-.09-.37,0-.04,0-.1-.01-.18,0-.08,0-.17,0-.25s0-.17,0-.25c0-.08,0-.14,.01-.17,0-.12,.04-.21,.09-.26,.05-.06,.14-.05,.28,.03,.14,.08,.23,.17,.28,.29,.05,.12,.08,.24,.09,.37,0,.04,0,.1,0,.18v.5c0,.08,0,.14,0,.17,0,.12-.04,.21-.09,.26Z"/>
          </g>
          <g>
            <path class="cls-5" d="M118.8,100.95l-2.3-5.54c-2.52,.99-4.45,3.35-5.43,6.82l3.71,3.75c.73-2.56,2.15-4.3,4.01-5.03Z"/>
            <path class="cls-5" d="M125.29,101.87v-5.2c-3.28-1.89-6.31-2.23-8.78-1.26l2.3,5.54c1.82-.72,4.06-.48,6.48,.92Z"/>
            <path class="cls-5" d="M114.25,110.21c0-1.59,.19-3,.54-4.23l-3.71-3.75c-.47,1.67-.73,3.59-.73,5.73s.26,4.37,.73,6.58l3.71,.53c-.35-1.63-.54-3.27-.54-4.86Z"/>
            <g class="cls-10">
              <path d="M139.49,118.63c-.98-4.61-2.91-9.19-5.43-13.09-2.46-3.82-5.5-6.98-8.78-8.88v5.2c2.43,1.4,4.66,3.75,6.48,6.57,1.86,2.88,3.29,6.26,4.01,9.67,.35,1.63,.54,3.27,.54,4.86s-.19,3-.54,4.23c-.73,2.56-2.15,4.3-4.01,5.03-1.82,.72-4.06,.48-6.48-.92-2.43-1.4-4.66-3.75-6.48-6.57-1.86-2.88-3.29-6.26-4.01-9.67l-3.71-.53c.98,4.61,2.91,9.19,5.43,13.09,2.47,3.82,5.5,6.98,8.78,8.88,3.28,1.9,6.31,2.23,8.78,1.26,2.52-.99,4.45-3.35,5.43-6.82,.47-1.67,.73-3.58,.73-5.73s-.26-4.37-.73-6.58Z"/>
            </g>
          </g>
        </g>
      </g>
      <g id="Chart-3" data-name="Chart">
        <path class="cls-9" d="M169.86,114.48l25.94,14.97v7.97c-3.28-1.89-6.31-2.23-8.77-1.26-2.52,.99-4.45,3.35-5.43,6.82-.47,1.67-.73,3.59-.73,5.73s.26,4.37,.73,6.58c.98,4.61,2.91,9.19,5.43,13.09,2.46,3.81,5.49,6.97,8.77,8.87v7.97l-25.94-14.97c-2.03-1.17-3.68-4.03-3.68-6.37v-47.29c0-2.35,1.65-3.3,3.68-2.12Z"/>
        <path class="cls-9" d="M195.18,159.83c-.32-.19-.55-.44-.69-.77-.14-.32-.22-.71-.24-1.17-.01-.24-.01-.5-.01-.79s0-.54,.01-.77c.02-.43,.1-.73,.24-.9,.14-.17,.37-.15,.69,.03,.28,.16,.48,.38,.62,.65v3.81c-.14,.09-.34,.07-.62-.09Z"/>
        <path class="cls-9" d="M195.18,154.32c-.34-.2-.63-.3-.86-.3-.23,0-.42,.07-.57,.21-.15,.15-.25,.35-.32,.63-.07,.28-.11,.59-.12,.94,0,.23-.02,.49-.02,.79s0,.57,.02,.81c.01,.37,.05,.72,.12,1.07,.07,.34,.17,.67,.32,.98,.15,.31,.34,.59,.57,.86,.23,.26,.52,.49,.86,.69,.23,.14,.43,.21,.62,.25v10.82c-2.42-1.4-4.65-3.74-6.47-6.56-1.86-2.88-3.29-6.26-4.01-9.67-.35-1.63-.54-3.27-.54-4.86s.19-3,.54-4.23c.73-2.56,2.15-4.3,4.01-5.03,1.82-.72,4.05-.48,6.47,.91v12.15c-.18-.17-.38-.32-.62-.46Zm-2.68,2.38c-.06-.25-.16-.49-.28-.72-.12-.23-.27-.44-.43-.64-.17-.2-.36-.37-.57-.53l1.02-.84s.06-.06,.1-.1c.04-.04,.05-.09,.05-.16v-.66c0-.07-.02-.14-.05-.21-.04-.07-.08-.12-.13-.15l-3.05-1.76c-.05-.03-.09-.03-.13,0-.04,.03-.05,.08-.05,.14v.66c0,.07,.02,.14,.05,.21,.04,.07,.08,.12,.13,.15l1.92,1.11-.97,.8s-.07,.06-.1,.09c-.03,.04-.05,.09-.05,.16v.66c0,.07,.02,.14,.06,.21,.03,.07,.08,.12,.13,.15l.58,.33c.28,.16,.51,.35,.69,.58,.17,.22,.26,.47,.26,.75s-.09,.44-.26,.49c-.17,.05-.4,0-.69-.17-.17-.1-.31-.19-.42-.29-.12-.1-.21-.2-.29-.29-.08-.1-.14-.19-.18-.28-.04-.09-.08-.18-.11-.27-.03-.09-.06-.17-.09-.23-.03-.06-.07-.1-.12-.13l-.55-.32c-.05-.03-.1-.03-.14,0-.04,.02-.06,.07-.05,.15,.01,.21,.06,.43,.15,.69,.08,.25,.2,.5,.36,.76,.16,.25,.36,.5,.6,.74,.24,.24,.52,.45,.84,.64,.27,.16,.52,.25,.75,.29,.23,.04,.43,.02,.6-.05,.17-.08,.3-.21,.4-.41,.09-.2,.14-.45,.14-.77,0-.27-.03-.53-.1-.78Z"/>
        <path class="cls-5" d="M192.06,158.65c-.17,.08-.37,.09-.6,.05-.23-.04-.48-.14-.75-.29-.32-.19-.61-.4-.84-.64-.24-.24-.44-.49-.6-.74-.16-.25-.28-.5-.36-.76-.08-.25-.13-.48-.15-.69,0-.08,.01-.13,.05-.15,.04-.02,.08-.02,.14,0l.55,.32s.08,.07,.12,.13c.03,.06,.06,.13,.09,.23,.03,.09,.07,.18,.11,.27,.05,.09,.11,.19,.18,.28,.08,.09,.17,.19,.29,.29,.12,.1,.26,.2,.42,.29,.28,.16,.51,.22,.69,.17,.17-.05,.26-.22,.26-.49s-.09-.53-.26-.75c-.17-.22-.4-.41-.69-.58l-.58-.33c-.05-.03-.1-.08-.13-.15-.04-.07-.06-.14-.06-.21v-.66c0-.07,.02-.12,.05-.16,.03-.04,.07-.07,.1-.09l.97-.8-1.92-1.11c-.05-.03-.09-.08-.13-.15-.04-.07-.05-.14-.05-.21v-.66c0-.07,.02-.11,.05-.14,.04-.03,.08-.03,.13,0l3.05,1.76s.09,.08,.13,.15c.03,.07,.05,.14,.05,.21v.66c0,.07-.02,.12-.05,.16-.03,.04-.07,.07-.1,.1l-1.02,.84c.21,.16,.4,.34,.57,.53,.17,.2,.31,.41,.43,.64,.12,.23,.21,.47,.28,.72,.06,.26,.1,.51,.1,.78,0,.32-.05,.58-.14,.77-.09,.2-.23,.33-.4,.41Z"/>
        <path class="cls-5" d="M194.32,160.31c-.23-.26-.42-.55-.57-.86-.15-.31-.25-.64-.32-.98-.07-.34-.11-.7-.12-1.07,0-.24-.02-.51-.02-.81s0-.56,.02-.79c.01-.35,.05-.66,.12-.94,.07-.27,.17-.48,.32-.63,.15-.14,.34-.22,.57-.21,.23,0,.52,.1,.86,.3,.23,.14,.43,.29,.62,.46v1.35c-.14-.26-.34-.49-.62-.65-.32-.19-.55-.2-.69-.03-.14,.17-.22,.46-.24,.9-.01,.23-.01,.49-.01,.77s0,.54,.01,.79c.02,.46,.1,.85,.24,1.17,.14,.32,.37,.58,.69,.77,.27,.16,.48,.18,.62,.09v1.32c-.18-.05-.38-.12-.62-.25-.34-.2-.63-.43-.86-.69Z"/>
        <path class="cls-5" d="M185.31,146.74l-3.71-3.75c.98-3.47,2.91-5.83,5.43-6.82l2.3,5.54c-1.86,.73-3.29,2.47-4.01,5.03Z"/>
        <path class="cls-5" d="M189.33,141.71l-2.3-5.54c2.46-.97,5.49-.63,8.77,1.26v5.2c-2.42-1.4-4.65-1.63-6.47-.91Z"/>
        <path class="cls-5" d="M184.77,150.98c0,1.59,.19,3.23,.54,4.86l-3.71-.54c-.47-2.21-.73-4.43-.73-6.58s.26-4.07,.73-5.73l3.71,3.75c-.35,1.23-.54,2.65-.54,4.23Z"/>
        <path class="cls-5" d="M195.8,172.06v5.2c-3.28-1.9-6.31-5.06-8.77-8.87l2.3-2.89c1.82,2.82,4.05,5.16,6.47,6.56Z"/>
        <path class="cls-5" d="M189.33,165.5l-2.3,2.89c-2.52-3.9-4.45-8.48-5.43-13.09l3.71,.54c.73,3.4,2.15,6.78,4.01,9.67Z"/>
        <path class="cls-3" d="M195.81,177.27c3.28,1.9,6.31,2.23,8.78,1.26,2.52-.99,4.45-3.35,5.43-6.82,.47-1.67,.73-3.59,.73-5.73s-.26-4.37-.73-6.58c-.98-4.61-2.91-9.19-5.43-13.09-2.47-3.82-5.5-6.98-8.78-8.88,0,0,0,0,0,0v-7.97l25.95,14.99c2.03,1.17,3.68,4.03,3.68,6.37v47.29c0,2.35-1.65,3.3-3.68,2.12l-25.95-14.99v-7.97s0,0,0,0Z"/>
        <path class="cls-8" d="M223.4,201.23c.44,0,.84-.1,1.21-.31,.86-.49,1.33-1.49,1.33-2.81v-47.29c0-2.54-1.73-5.53-3.93-6.8l-26.2-15.14v1.17l25.7,14.84c1.89,1.09,3.43,3.75,3.43,5.94v47.29c0,.95-.29,1.64-.83,1.95-.53,.31-1.28,.21-2.1-.26l-26.2-15.15v1.18s25.7,14.84,25.7,14.84c.66,.38,1.3,.57,1.89,.57Z"/>
        <path class="cls-3" d="M196.12,157.41c.01,.24,.01,.5,.01,.79s0,.54-.01,.77c-.02,.43-.1,.73-.24,.9-.02,.03-.05,.04-.08,.06v-3.81s.06,.08,.08,.12c.14,.32,.22,.71,.24,1.17Z"/>
        <path class="cls-3" d="M201.43,162.46c.01-.12,.04-.21,.09-.26,.05-.06,.14-.05,.28,.03,.14,.08,.23,.17,.28,.29,.05,.11,.08,.24,.09,.37,0,.04,0,.1,0,.18v.5c0,.08,0,.14,0,.17,0,.12-.04,.2-.09,.26-.05,.06-.14,.05-.28-.03-.13-.08-.23-.17-.28-.29-.05-.12-.08-.24-.09-.37,0-.04,0-.1-.01-.18,0-.08,0-.16,0-.25s0-.17,0-.25c0-.08,0-.14,.01-.17Z"/>
        <path class="cls-3" d="M202.29,149.2c1.86,2.88,3.29,6.26,4.01,9.67,.35,1.63,.54,3.27,.54,4.86s-.19,3-.54,4.23c-.73,2.56-2.15,4.3-4.01,5.03-1.82,.72-4.06,.48-6.48-.92,0,0,0,0,0,0v-10.82c.08,.02,.17,.05,.24,.05,.23,0,.43-.06,.57-.2,.15-.14,.25-.35,.32-.61,.07-.27,.11-.58,.12-.93,0-.12,0-.24,0-.39v-.87c0-.14,0-.27,0-.39-.01-.37-.05-.72-.12-1.07-.07-.35-.17-.67-.32-.98-.14-.31-.34-.6-.57-.86-.07-.08-.16-.15-.24-.23v-12.15s0,0,0,0c2.43,1.4,4.66,3.75,6.48,6.57Zm-1.53,13.83c0,.15,.03,.3,.08,.47,.04,.16,.11,.33,.2,.48,.09,.16,.19,.31,.32,.44,.12,.14,.27,.25,.44,.35,.17,.1,.32,.15,.45,.16,.12,0,.23-.02,.32-.08,.09-.06,.15-.14,.2-.26,.04-.11,.07-.24,.08-.38,.01-.15,.01-.32,.01-.51s0-.35-.01-.52c0-.15-.03-.3-.08-.47-.04-.16-.11-.33-.2-.48-.08-.16-.19-.31-.32-.45-.13-.14-.27-.26-.45-.36-.17-.1-.32-.15-.44-.15-.13,0-.23,.02-.32,.08-.09,.06-.15,.14-.2,.26-.04,.11-.07,.24-.08,.38,0,.16-.01,.32-.01,.51s0,.36,.01,.52Zm-2.6-.46c.03,.05,.07,.09,.12,.12l.42,.24c.06,.04,.12,.05,.15,.04,.03-.01,.07-.03,.1-.07l3.44-4.04s.01-.03,.02-.05c0-.02,0-.03,0-.04,0-.05-.01-.11-.04-.16-.03-.05-.07-.09-.12-.12l-.42-.24c-.06-.04-.11-.05-.15-.04-.04,.01-.07,.04-.1,.07l-3.44,4.04s-.01,.03-.02,.04c0,.02,0,.03,0,.04,0,.06,.01,.11,.05,.16Zm.63-6.12c-.17-.1-.32-.15-.45-.16-.12,0-.23,.02-.32,.08-.09,.06-.15,.14-.2,.26-.04,.11-.07,.24-.08,.38-.01,.15-.01,.32-.01,.51s0,.36,.01,.52c0,.15,.03,.3,.08,.47,.04,.16,.11,.33,.2,.48,.08,.16,.19,.3,.32,.44,.13,.14,.27,.25,.45,.35,.17,.1,.32,.15,.44,.16,.13,0,.23-.02,.32-.08,.09-.06,.15-.15,.19-.26,.04-.11,.07-.24,.08-.38,0-.15,.01-.32,.01-.51s0-.36-.01-.52c0-.15-.03-.3-.08-.47-.04-.16-.11-.32-.19-.48-.09-.16-.19-.31-.32-.45-.13-.14-.27-.26-.44-.36Z"/>
        <path class="cls-3" d="M199.06,159.01c-.05,.06-.14,.05-.28-.03-.13-.08-.23-.17-.28-.29-.05-.12-.08-.24-.09-.37,0-.04,0-.1,0-.18,0-.08,0-.17,0-.25s0-.17,0-.25c0-.08,0-.14,0-.17,.01-.12,.04-.2,.09-.26,.05-.06,.14-.05,.28,.03,.13,.08,.23,.17,.28,.29,.05,.12,.08,.24,.09,.37,0,.04,0,.1,0,.18v.5c0,.08,0,.14,0,.17-.01,.12-.04,.2-.09,.26Z"/>
        <path class="cls-8" d="M195.88,159.87c.14-.17,.22-.46,.24-.9,.01-.23,.01-.49,.01-.77s0-.54-.01-.79c-.02-.46-.1-.85-.24-1.17-.02-.04-.05-.08-.08-.12v-1.35c.08,.07,.17,.15,.24,.23,.23,.26,.43,.55,.57,.86,.15,.31,.25,.64,.32,.98,.07,.34,.11,.7,.12,1.07,0,.12,0,.25,0,.39v.87c0,.14,0,.27,0,.39-.01,.35-.05,.66-.12,.93-.07,.27-.17,.47-.32,.61-.14,.14-.34,.21-.57,.2-.07,0-.16-.03-.24-.05v-1.32s.05-.03,.08-.06Z"/>
        <path class="cls-8" d="M199.74,157.73c.04,.17,.07,.32,.08,.47,0,.17,.01,.34,.01,.52s0,.35-.01,.51c0,.14-.03,.26-.08,.38-.04,.11-.11,.2-.19,.26-.09,.06-.19,.08-.32,.08-.13,0-.27-.06-.44-.16-.17-.1-.32-.22-.45-.35-.12-.14-.23-.29-.32-.44-.09-.16-.15-.32-.2-.48-.04-.17-.07-.32-.08-.47-.01-.17-.01-.34-.01-.52s0-.35,.01-.51c0-.14,.03-.26,.08-.38,.04-.11,.11-.2,.2-.26,.08-.06,.19-.09,.32-.08,.13,0,.27,.06,.45,.16,.17,.1,.32,.22,.44,.36,.13,.14,.23,.29,.32,.45,.09,.16,.15,.32,.19,.48Zm-.58,.6v-.25c0-.08,0-.14,0-.18-.01-.13-.04-.25-.09-.37-.05-.12-.14-.21-.28-.29-.13-.08-.23-.09-.28-.03-.05,.06-.08,.14-.09,.26,0,.04,0,.09,0,.17,0,.08,0,.16,0,.25s0,.17,0,.25c0,.08,0,.14,0,.18,.01,.13,.04,.25,.09,.37,.05,.12,.14,.21,.28,.29,.13,.08,.23,.09,.28,.03,.05-.06,.08-.14,.09-.26,0-.03,0-.09,0-.17v-.25Z"/>
        <path class="cls-8" d="M200.84,161.62c.04-.11,.11-.2,.2-.26,.09-.06,.19-.09,.32-.08,.12,0,.27,.06,.44,.15,.17,.1,.32,.22,.45,.36,.12,.14,.23,.29,.32,.45,.09,.16,.15,.32,.2,.48,.04,.16,.07,.32,.08,.47,.01,.17,.01,.34,.01,.52s0,.35-.01,.51c0,.14-.03,.26-.08,.38-.04,.11-.11,.2-.2,.26-.08,.06-.19,.09-.32,.08-.13,0-.27-.06-.45-.16-.17-.1-.32-.22-.44-.35-.13-.14-.23-.28-.32-.44-.09-.16-.15-.32-.2-.48-.04-.16-.07-.32-.08-.47,0-.17-.01-.34-.01-.52s0-.35,.01-.51c0-.14,.03-.26,.08-.38Zm.58,1.52c0,.08,0,.14,.01,.18,.01,.13,.04,.25,.09,.37,.05,.12,.14,.21,.28,.29,.14,.08,.23,.09,.28,.03,.05-.06,.08-.14,.09-.26,0-.03,0-.09,0-.17v-.5c0-.08,0-.14,0-.18,0-.13-.04-.25-.09-.37-.05-.12-.14-.21-.28-.29-.13-.08-.23-.09-.28-.03-.05,.06-.08,.15-.09,.26,0,.03,0,.09-.01,.17,0,.08,0,.16,0,.25s0,.17,0,.25Z"/>
        <path class="cls-8" d="M198.13,162.32l3.44-4.04s.07-.06,.1-.07c.03,0,.08,0,.15,.04l.42,.24c.05,.03,.09,.07,.12,.12,.03,.05,.04,.11,.04,.16,0,.01,0,.03,0,.04,0,.02-.01,.03-.02,.05l-3.44,4.04s-.07,.06-.1,.07c-.03,.01-.08,0-.15-.04l-.42-.24s-.09-.07-.12-.12c-.03-.05-.05-.11-.05-.16,0-.01,0-.03,0-.04,0-.01,.01-.03,.02-.04Z"/>
        <polygon class="cls-6" points="195.81 142.63 195.8 142.63 195.8 137.43 195.81 137.43 195.81 142.63"/>
        <path class="cls-6" d="M206.85,163.72c0-1.59-.19-3.23-.54-4.86-.73-3.4-2.15-6.78-4.01-9.67-1.82-2.82-4.06-5.17-6.48-6.57v-5.2c3.28,1.9,6.31,5.06,8.78,8.88,2.52,3.9,4.45,8.48,5.43,13.09,.47,2.21,.73,4.43,.73,6.58s-.26,4.07-.73,5.73l-3.71-3.75c.35-1.23,.54-2.65,.54-4.23Z"/>
        <path class="cls-8" d="M206.31,167.96l3.71,3.75c-.98,3.47-2.91,5.83-5.43,6.82l-2.3-5.54c1.86-.73,3.29-2.47,4.01-5.03Z"/>
        <polygon class="cls-6" points="195.81 172.07 195.81 177.27 195.8 177.26 195.8 172.06 195.81 172.07"/>
        <path class="cls-8" d="M202.29,172.99l2.3,5.54c-2.47,.97-5.5,.63-8.78-1.26v-5.2c2.43,1.4,4.66,1.64,6.48,.92Z"/>
      </g>
      <g id="Text_Box" data-name="Text Box">
        <g class="cls-10">
          <path d="M131.87,180.4c.21,0,.4-.05,.58-.15,.39-.23,.62-.68,.62-1.25v-20.13c0-.99-.67-2.15-1.52-2.64l-29.42-16.99c-.49-.28-1-.32-1.4-.09-.39,.23-.62,.68-.62,1.25v20.13c0,.99,.67,2.15,1.52,2.64l29.42,16.99c.28,.16,.56,.24,.82,.24Zm-30.57-40.42c.08,0,.19,.03,.32,.11l29.42,16.99c.55,.32,1.03,1.15,1.03,1.79v20.13c0,.24-.07,.37-.13,.4-.06,.04-.2,.03-.41-.09l-29.42-16.99c-.55-.32-1.03-1.15-1.03-1.79v-20.13c0-.24,.07-.37,.13-.4,.02-.01,.05-.02,.09-.02Z"/>
        </g>
        <g class="cls-10">
          <path d="M128.58,162.47c.17,0,.33-.09,.43-.25,.14-.24,.06-.54-.18-.67l-23.99-13.85c-.23-.13-.54-.06-.67,.18-.14,.24-.06,.54,.18,.67l23.99,13.85c.08,.04,.16,.07,.25,.07Z"/>
          <path d="M128.58,167.11c.17,0,.33-.09,.43-.25,.14-.24,.06-.54-.18-.67l-23.99-13.85c-.23-.13-.54-.06-.67,.18-.14,.24-.06,.54,.18,.67l23.99,13.85c.08,.04,.16,.07,.25,.07Z"/>
          <path d="M128.58,171.76c.17,0,.33-.09,.43-.25,.14-.24,.06-.54-.18-.67l-23.99-13.85c-.23-.13-.54-.06-.67,.18-.14,.24-.06,.54,.18,.67l23.99,13.85c.08,.04,.16,.07,.25,.07Z"/>
        </g>
      </g>
      <g id="Text_Box-2" data-name="Text Box">
        <g class="cls-10">
          <path d="M175.84,205.78c.21,0,.4-.05,.58-.15,.39-.23,.62-.69,.62-1.25v-20.13c0-.99-.67-2.15-1.52-2.64l-29.42-16.99c-.49-.28-1-.32-1.4-.09-.39,.23-.62,.68-.62,1.25v20.13c0,.99,.67,2.15,1.52,2.64l29.42,16.99c.28,.16,.56,.24,.82,.24Zm-30.57-40.42c.08,0,.19,.03,.32,.11l29.42,16.99c.55,.32,1.03,1.15,1.03,1.79v20.13c0,.24-.07,.37-.13,.4-.06,.03-.2,.03-.41-.09l-29.42-16.99c-.55-.32-1.03-1.15-1.03-1.79v-20.13c0-.24,.07-.37,.13-.4,.02-.01,.05-.02,.09-.02Z"/>
        </g>
        <g class="cls-10">
          <path d="M172.55,187.86c.17,0,.34-.09,.43-.25,.14-.24,.06-.54-.18-.67l-23.99-13.85c-.23-.13-.54-.06-.67,.18-.14,.24-.06,.54,.18,.67l23.99,13.85c.08,.04,.16,.07,.25,.07Z"/>
          <path d="M172.55,192.5c.17,0,.34-.09,.43-.25,.14-.24,.06-.54-.18-.67l-23.99-13.85c-.23-.13-.54-.06-.67,.18-.14,.24-.06,.54,.18,.67l23.99,13.85c.08,.04,.16,.07,.25,.07Z"/>
          <path d="M172.55,197.14c.17,0,.34-.09,.43-.25,.14-.24,.06-.54-.18-.67l-23.99-13.85c-.23-.13-.54-.06-.67,.18-.14,.24-.06,.54,.18,.67l23.99,13.85c.08,.05,.16,.07,.25,.07Z"/>
        </g>
      </g>
    </g>
  </g>
  <g id="Speech_Bubbles" data-name="Speech Bubbles">
    <g id="Speech_Bubbles-2" data-name="Speech Bubbles">
      <g>
        <path class="cls-6" d="M137.92,54.08c.33,0,.64-.08,.91-.24,.64-.37,1-1.11,1-2.08V29.97c0-1.81-1.23-3.95-2.8-4.85L102.16,4.99c-.84-.49-1.66-.55-2.3-.18-.64,.37-1,1.11-1,2.08V28.68c0,1.81,1.23,3.95,2.8,4.85l5.18,2.99,3.49,11.86c.14,.49,.56,.82,1.07,.85,.49,.03,.96-.25,1.16-.71l3.01-6.96,20.95,12.1c.48,.28,.95,.42,1.39,.42ZM101.67,5.84l34.86,20.13c1.25,.72,2.31,2.56,2.31,4v21.79c0,.6-.18,1.04-.5,1.23-.32,.19-.8,.12-1.32-.18l-21.91-12.65-3.45,7.97c-.05,.12-.15,.12-.2,.12-.05,0-.15-.03-.18-.15l-3.6-12.24-5.52-3.19c-1.25-.72-2.31-2.56-2.31-4V6.89c0-.6,.18-1.04,.5-1.23,.32-.18,.8-.12,1.32,.18h0Z"/>
        <path class="cls-6" d="M131.34,32.1c.17,0,.33-.09,.43-.25,.14-.24,.06-.54-.18-.67l-23.99-13.85c-.23-.13-.54-.06-.67,.18-.14,.24-.06,.54,.18,.67l23.99,13.85c.08,.04,.16,.07,.25,.07Z"/>
        <path class="cls-6" d="M131.34,36.74c.17,0,.33-.09,.43-.25,.14-.24,.06-.54-.18-.67l-23.99-13.85c-.23-.13-.54-.06-.67,.18-.14,.24-.06,.54,.18,.67l23.99,13.85c.08,.04,.16,.07,.25,.07Z"/>
        <path class="cls-6" d="M131.34,41.39c.17,0,.33-.09,.43-.25,.14-.24,.06-.54-.18-.67l-23.99-13.85c-.23-.13-.54-.06-.67,.18-.14,.24-.06,.54,.18,.67l23.99,13.85c.08,.04,.16,.07,.25,.07Z"/>
      </g>
      <g>
        <path class="cls-6" d="M171.34,52.91c.33,0,.64-.08,.91-.24,.64-.37,1-1.11,1-2.08V28.8c0-1.82-1.23-3.95-2.8-4.85L135.58,3.82c-.84-.49-1.66-.55-2.3-.18-.64,.37-1,1.11-1,2.08v13.85c0,.27,.22,.49,.49,.49h0c.27,0,.49-.22,.49-.49V5.72c0-.6,.18-1.04,.5-1.23,.32-.19,.8-.12,1.32,.18l34.86,20.13c1.25,.72,2.31,2.56,2.31,4v21.79c0,.6-.18,1.04-.5,1.23-.32,.18-.8,.12-1.32-.18l-27.39-15.82c-.23-.13-.54-.06-.67,.18-.14,.24-.06,.54,.18,.67l27.39,15.82c.48,.28,.95,.42,1.39,.42Z"/>
        <path class="cls-6" d="M164.76,30.93c.17,0,.33-.09,.43-.25,.14-.24,.06-.54-.18-.67l-23.99-13.85c-.23-.13-.54-.06-.67,.18-.14,.24-.06,.54,.18,.67l23.99,13.85c.08,.04,.16,.07,.25,.07Z"/>
        <path class="cls-6" d="M164.76,35.57c.17,0,.33-.09,.43-.25,.14-.24,.06-.54-.18-.67l-23.99-13.85c-.23-.13-.54-.06-.67,.18-.14,.24-.06,.54,.18,.67l23.99,13.85c.08,.04,.16,.07,.25,.07Z"/>
        <path class="cls-6" d="M164.76,40.22c.17,0,.33-.09,.43-.25,.14-.24,.06-.54-.18-.67l-21.43-12.4c-.23-.14-.54-.06-.67,.18-.14,.24-.06,.54,.18,.67l21.43,12.4c.08,.05,.16,.07,.25,.07Z"/>
      </g>
    </g>
    <g id="Speech_Bubble" data-name="Speech Bubble">
      <g id="Speech_Bubble-2" data-name="Speech Bubble">
        <path class="cls-6" d="M251.18,78.61l2.43-4.57-1.95-5.64v-3.45l5.98,3.45v3.45l-2.57,4.45c-.04,.08-.11,.12-.17,.16h0s-3.71,2.15-3.71,2.15Z"/>
        <path class="cls-7" d="M251.18,78.61l2.43-4.57-1.95-5.64v-3.45l5.98,3.45v3.45l-2.57,4.45c-.04,.08-.11,.12-.17,.16h0s-3.71,2.15-3.71,2.15Z"/>
        <path class="cls-6" d="M235.7,44.03c0-1.14,.8-2.53,1.79-3.11l1.46-.84c.99-.57,2.6-.57,3.59,0l28.53,16.47c.99,.57,1.79,1.96,1.79,3.11v17.49c0,1.14-.8,2.53-1.79,3.11l-1.46,.84c-.99,.57-2.6,.57-3.59,0l-12.15-7.07-2.57,4.45c-.16,.28-.59,.24-.69-.07l-2.71-7.83-10.41-5.95c-.99-.57-1.79-1.96-1.79-3.11v-17.49Z"/>
        <path class="cls-7" d="M272.87,77.15c0,1.14-.8,2.53-1.79,3.11l-1.46,.84c-.9,.52-2.29,.56-3.28,.14,.84,.32,1.49-.16,1.49-1.18v-17.49c0-.57-.2-1.21-.52-1.77l5.05-2.91c.32,.56,.53,1.2,.53,1.77v17.49Z"/>
        <path class="cls-2" d="M235.76,43.52c.21-.76,.9-1,1.73-.53l28.54,16.48c.49,.28,.95,.77,1.26,1.34l5.05-2.91c-.33-.57-.77-1.05-1.26-1.34l-28.53-16.48c-1-.57-2.6-.57-3.59,0l-1.46,.84c-.85,.49-1.56,1.57-1.73,2.59Z"/>
      </g>
      <g>
        <path class="cls-1" d="M260.53,64.35c1.32,.76,2.39,2.62,2.39,4.15,0,1.53-1.07,2.14-2.39,1.38-1.32-.76-2.39-2.62-2.39-4.15s1.07-2.14,2.39-1.38Z"/>
        <path class="cls-1" d="M251.71,59.25c1.32,.76,2.39,2.62,2.39,4.15,0,1.53-1.07,2.15-2.39,1.38-1.32-.76-2.39-2.62-2.39-4.15,0-1.53,1.07-2.15,2.39-1.38Z"/>
        <path class="cls-1" d="M242.89,54.14c1.32,.76,2.39,2.62,2.39,4.15,0,1.53-1.07,2.14-2.39,1.38-1.32-.76-2.39-2.62-2.39-4.15,0-1.53,1.07-2.14,2.39-1.38Z"/>
      </g>
    </g>
  </g>
</svg>