<?xml version="1.0" encoding="UTF-8"?>
<svg id="katman_2" data-name="katman 2" xmlns="http://www.w3.org/2000/svg" viewBox="0 0 82.16 228.4">
  <defs>
    <style>
      .cls-1 {
        fill: #37474f;
      }

      .cls-2 {
        fill: #455a64;
      }

      .cls-3 {
        opacity: .2;
      }

      .cls-4 {
        fill: #f28f8f;
      }

      .cls-5 {
        fill: #fff;
        opacity: .5;
      }

      .cls-6 {
        fill: #9a4a4d;
      }

      .cls-7 {
        opacity: .35;
      }

      .cls-8 {
        fill: #27debf;
      }

      .cls-9 {
        fill: #b16668;
      }

      .cls-10 {
        fill: #263238;
      }
    </style>
  </defs>
  <g id="Character_2" data-name="Character 2">
    <g id="Character">
      <g>
        <g>
          <path class="cls-10" d="M1.08,212.5c-.19,0-.47,1.87,.54,2.66,1.17,.92,4.59,2.42,9.11,1.89,4.52-.53,6.97-1.81,8.78-3.19s4.34-3.33,6.39-3.74c1.9-.38,3.96-1.17,4.57-1.7,.61-.54,.52-2.91,.52-2.91l-29.91,6.99Z"/>
          <path class="cls-1" d="M29.19,196.35s.57,0,.68,.56c.14,.66,.29,2.56,.59,3.64,.42,1.5,.69,4.56,.44,5.78-.25,1.22-3.35,2.07-5.32,2.75-2.02,.7-4.36,2.15-6.41,3.69-2.12,1.6-6.59,3.26-9.54,3.24-3.49-.02-7.41-1.05-8.31-2.52-1.11-1.82-.24-2.88,4.93-5.06,.98-.41,4.42-2.27,5.59-2.94,3.17-1.82,6.31-4.35,7.77-7.57,.17-.38,.35-.79,.74-.98,.3-.15,.67-.13,1-.08,.86,.11,1.7,.34,2.49,.68,.69,.3,1.68,.65,1.66,1.46,0,.28-.09,.56-.19,.82-.06,.17-.11,.39,.05,.48,.15,.09,.35-.01,.48-.12,.54-.44,.94-1.01,1.39-1.52,.24-.28,.51-.54,.82-.76,.28-.2,.64-.3,.89-.52,.31-.29,.24-.64,.25-1.02Z"/>
          <path class="cls-2" d="M19.17,212.77c.9-.68,1.86-1.33,2.82-1.92h0s-6.08,3.36-8.53,1.84c-1.58-.98-.83-2.18-.79-2.56,.04-.38-3.21-2.36-4.75-2.52,0,0-1.74,.71-1.97,.8-5.17,2.18-5.74,3.26-4.63,5.08,.9,1.47,3.74,2.62,8.25,2.62,2.95,0,7.48-1.74,9.6-3.34Z"/>
        </g>
        <g>
          <path class="cls-10" d="M46.76,219.77c-.13,2.8,.14,4.69,1.05,6.43,.91,1.73,2.9,2.43,5.04,2.15,2.13-.29,4.94-1.32,5.8-3.67,.86-2.35,.92-4.01,.74-6.63l-12.63,1.73Z"/>
          <path class="cls-1" d="M57.27,200.35c.85,.14,.69,3.9,.77,7.69,.08,4.06,1.22,5.84,1.33,9.18,.12,3.81-.28,5.47-1.98,7.61-1.7,2.14-7.09,3.9-9.26,.41-1.77-2.84-1.53-5.79-.93-9.53,.62-3.86,1.1-6.58,1.25-9.54,.14-2.83,.23-5.58,1.01-5.82,.01,.42,0,.95,.02,1.36,.01,.32-.07,1.85,.41,1.91,.08-.36,.11-.69,.13-1.06,.01-.32,.08-.67,.34-.89,.26-.22,.64-.27,.99-.3,.86-.07,1.72-.13,2.59-.12,.43,0,.86,.02,1.29,.07,.35,.04,.75,.1,1.07,.24,.19,.09,.37,.23,.42,.42,.04,.14,.01,.29,0,.43-.03,.26-.02,.52,.02,.78,.02,.11,.09,.26,.21,.24,.1-.01,.15-.12,.16-.21,.05-.45,.03-.79,.06-1.32,.02-.24,0-.58,.03-.83,.02-.24,.05-.48,.06-.72Z"/>
          <path class="cls-2" d="M59.29,216.13c.02,.55,.13,4.19-1.02,4.74-1.24,.59-2.05-2.26-2.05-2.26,0,0-2.55-1.22-6.06-.15-.14,.84-.95,2.79-2,2.29-1.04-.5-1.01-4.66-1.01-4.71-.56,3.58-.74,6.45,.98,9.21,2.17,3.49,7.56,1.73,9.26-.41,1.7-2.14,2.11-3.8,1.98-7.61-.01-.38-.04-.74-.08-1.09Z"/>
        </g>
        <path class="cls-8" d="M52.09,84.62c1.73,3.66,3.74,10.71,4.11,15.41,1.49,19.33,2.24,47.4,2.24,47.4,.17,2.02,1.45,6.61,2.31,15.5,1.02,10.51-1.81,45.79-1.81,45.79,0,0-6.29,3.75-11.17-.52,0,0-5.68-48.94-7-59.38-1.15-9.12-4.37-28.84-4.37-28.84l-2.47,30.16s.35,8.2,.11,13.5c-.28,6.17-3.3,36.58-3.3,36.58,0,0-8.63,2.92-12.49-1.23,0,0-.92-43.57-1.05-50.99-.26-14.56,.5-41.69,1.02-56.48l33.88-6.91Z"/>
        <path class="cls-7" d="M52.09,84.62c1.73,3.66,3.74,10.71,4.11,15.41,1.49,19.33,2.24,47.4,2.24,47.4,.17,2.02,1.45,6.61,2.31,15.5,1.02,10.51-1.81,45.79-1.81,45.79,0,0-6.29,3.75-11.17-.52,0,0-5.68-48.94-7-59.38-1.15-9.12-4.37-28.84-4.37-28.84l-2.47,30.16s.35,8.2,.11,13.5c-.28,6.17-3.3,36.58-3.3,36.58,0,0-8.63,2.92-12.49-1.23,0,0-.92-43.57-1.05-50.99-.26-14.56,.5-41.69,1.02-56.48l33.88-6.91Z"/>
        <path class="cls-3" d="M36.39,119.98l-1.35-9.28s-7.84-1.05-11.39-4.39c0,0,2.67,4.89,9.23,5.84l1.39,8.39,.1,26.11,2.02-26.67Z"/>
      </g>
      <g>
        <g>
          <path class="cls-9" d="M12.38,87.31l5.72,6.36s4.67-5.84,4.5-5.84-5.39-8.56-5.39-8.56l-4.82,8.04Z"/>
          <path class="cls-2" d="M26.49,41.43c-7.64,2.17-7.73,1.66-12.57,8.1-3.36,4.47-10.06,12.75-12.02,16.16-2.21,3.84-2.52,5.4-.79,8.28,1.65,2.74,11.26,13.79,11.26,13.79,2.3-1.8,4.84-3.47,6.13-6.71l-6.13-10.24,12.68-13.06,1.43-16.32Z"/>
        </g>
        <g>
          <g>
            <g>
              <path class="cls-10" d="M47.43,9.16s.18,.03,.46,.1c-.19-.99,.24-1.98,1.13-2.39,1.07-.49,2.39,.05,2.94,1.21l-3.21,1.47c.85,.34,1.9,.97,2.44,2.08,.88,1.81-.28,5.66-1.45,10.41-1.17,4.76-1.81,6.81-2.59,8.81-.54,1.38-1.51,1.43-1.51,1.43v-4.74s.2-3.93,.2-3.93c0,0-2.52-3.45-2.8-6.27-.36-3.64,.41-5.12,.41-5.12l3.96-3.04Z"/>
              <path class="cls-10" d="M29.99,5.08c4.42,.01,7.99,3.61,7.97,8.03-.01,4.42-3.61,7.99-8.03,7.97-4.42-.01-7.99-3.61-7.97-8.03,.01-4.42,3.61-7.99,8.03-7.97Z"/>
            </g>
            <path class="cls-9" d="M45.71,22.97c.95,.82,1.72-1.31,2.52-2.14,.8-.83,3.4-1.96,4.68,.77,1.31,2.79-1.19,6.57-3.13,7.47-2.85,1.32-4.12-1.55-4.12-1.55v11.87c-3,5.4-8.77,4.34-11.83,5.1-.56-2.19-1.05-3.22-.74-4.43l.02-3.87s-2.36,.46-3.92,.21c-2.59-.41-3.98-2.54-4.75-5.35-1.25-4.51-1.51-12.08,.23-20.83,2.9-2.24,12.71-1.88,18.8,1.98-.45,7.76,1.3,9.94,2.24,10.77Z"/>
            <path class="cls-10" d="M34.89,21.11c0,.67,.54,1.22,1.22,1.22s1.22-.54,1.22-1.22-.54-1.22-1.22-1.22-1.22,.54-1.22,1.22Z"/>
            <path class="cls-10" d="M25.69,20.65c0,.67,.54,1.22,1.22,1.22s1.22-.54,1.22-1.22-.54-1.22-1.22-1.22-1.22,.54-1.22,1.22Z"/>
            <path class="cls-6" d="M33.11,36.19s5.79-1.15,7.81-2.21c1.36-.71,2.47-1.96,2.8-2.76,0,0-.38,1.71-1.6,3.26-1.48,1.89-9.02,3.25-9.02,3.25v-1.54Z"/>
            <path class="cls-10" d="M22.7,4.04c.01-.1,.02-.2,.04-.29,.03-.18,.06-.37,.19-.5,.39-.41,1.17,.61,1.45,.85,.27,.23,.54,.45,.83,.65,.09,.06,.77,.4,.78,.46-.1-.96-.25-1.95,0-2.92,.11-.64,.3-2.12,1.09-2.27,.47-.09,.88,.3,1.23,.63,3.17,2.96,7.3,1.59,11.11,1.71,3.19,.1,7.04,1.4,8.48,4.5,.66,1.42,.77,2.91-.53,3.9-.84,.63-1.66,.6-2.13,1.62-.12,.25-.84,3.27-.41,3.24-1.63,.11-3.18-.84-3.55-2.43-.08-.33-.26-.93-.33-1.27-.11-.5-.52-.64-.91-.55-.97,.21-1.6,.6-2.51,.86-2.48,.68-5.51,.98-8.03,.47-1.89-.38-3.72-1.29-5.05-2.71-1.45-1.55-1.95-3.86-1.72-5.94Z"/>
          </g>
          <g>
            <path class="cls-10" d="M36.56,17.67l2.37,1.54c.42-.68,.22-1.58-.43-2.01-.66-.43-1.52-.22-1.94,.47Z"/>
            <path class="cls-6" d="M34.82,28.63l-3.91,1.02c.26,1.12,1.34,1.8,2.43,1.52,1.08-.28,1.75-1.41,1.49-2.53Z"/>
            <path class="cls-4" d="M32.61,31.2c.12-1.05,1-1.86,2.08-1.86,.06,0,.11,.01,.17,.02-.1,.84-.68,1.58-1.52,1.8-.25,.06-.49,.07-.73,.04Z"/>
            <path class="cls-10" d="M24.7,18.47l2.59-1.2c-.31-.73-1.13-1.06-1.85-.73-.72,.33-1.05,1.19-.74,1.93Z"/>
            <polygon class="cls-6" points="32.02 19.43 31.33 27.23 27.29 25.79 32.02 19.43"/>
          </g>
        </g>
        <g>
          <path class="cls-1" d="M50.78,39.39c4.59,2.01,8.65,3.83,10.65,5.1,0,0-1.29,13.26-3.47,21.78-1.59,6.21-2.47,27.7-2.47,27.7,0,0-9.19,4.39-22.38,3.58-8.95-.55-15.13-3.47-15.13-3.47,0,0-.5-13.51,.46-30.41,.71-12.44,1.18-18.98,4.2-20.81,1.8-1.09,9.51-2.92,9.51-2.92,0,0,.53,3.01,1.67,4.56,2.71-1.36,16.96-5.1,16.96-5.1Z"/>
          <path class="cls-10" d="M31.44,97.41c-.64-.06-1.26-.14-1.86-.22-.79-8.94-1.8-30.18,4.25-52.69,0,0-5.09,26.55-2.39,52.91Z"/>
          <path class="cls-2" d="M33.83,44.49c-2.29-1.51-4.16,2.31-4.55,1.72s2.05-8.98,3.83-9.46l-.02,3.31s.26,3.03,.74,4.43Z"/>
          <path class="cls-2" d="M45.66,34.38v.93c-.18,.89-1.92,2.94-6.32,4.91-4.48,2.01-5.51,4.27-5.51,4.27,0,0,1.05-.59,2.77,.44,1.82,1.09,3.69,3.91,4.65,3.89,.92-.02,3.89-3.3,6.39-5.92,2.09-2.2,3.16-3.51,3.16-3.51,0,0-3.42-5-5.13-5.02Z"/>
        </g>
        <g>
          <g>
            <path class="cls-8" d="M45.23,99.38v29.88c0,.27,.08,.46,.24,.56l1.35,.78c.07,.03,.14,.04,.21,.04,.12,0,.25-.03,.39-.11l33.87-19.56c.48-.28,.87-.95,.87-1.52v-29.84c0-.27-.1-.46-.25-.56,0,0-.02-.02-.06-.03h0l-1.27-.74c-.07-.03-.14-.06-.23-.06-.12,0-.24,.04-.39,.12l-17.76,10.23-2.1,1.22s-2.58,1.49-3.14,1.8c-.04,.03-.07,.04-.08,.05l-10.78,6.22c-.06,.03-.12,.08-.18,.13-.17,.14-.32,.32-.44,.53-.16,.27-.25,.58-.25,.86Z"/>
            <path class="cls-5" d="M45.48,98.52l1.31,.76h0c.04-.07,.08-.14,.13-.19,.09-.13,.2-.24,.31-.34,.06-.05,.12-.09,.18-.13l10.78-6.21c.27-.16,2.7-1.55,3.19-1.83l1.29-.74,18.6-10.72c.21-.13,.41-.15,.57-.08l-1.27-.74c-.07-.03-.14-.06-.23-.06-.12,0-.25,.03-.39,.12l-17.76,10.23-2.1,1.22s-2.58,1.49-3.14,1.8c-.04,.03-.07,.04-.08,.05l-10.78,6.22c-.06,.03-.12,.08-.18,.13-.17,.14-.32,.32-.44,.53Z"/>
            <path class="cls-8" d="M82.14,79.62l.02,29.85c0,.56-.39,1.24-.88,1.52l-33.97,19.61c-.34,.2-.77-.05-.77-.45v-30c0-.28,.1-.59,.26-.86,.16-.28,.38-.51,.62-.65l10.78-6.22c.28-.16,2.71-1.55,3.19-1.83l19.89-11.47c.22-.13,.42-.15,.57-.08l.04,.02s.01,0,.02,0h0c.15,.1,.24,.29,.24,.56Z"/>
            <path class="cls-8" d="M46.79,99.28h0c.04-.07,.08-.14,.13-.19-.05,.06-.09,.13-.14,.19Z"/>
            <path class="cls-3" d="M46.85,130.62s-.03,0-.04-.01l-1.36-.79c-.15-.1-.24-.29-.24-.56v-29.89c0-.28,.1-.59,.26-.86l1.31,.76h0c-.16,.28-.26,.59-.26,.86v30c0,.22,.14,.4,.32,.48Z"/>
          </g>
          <g>
            <path class="cls-9" d="M73.6,81.8c-7.26-29.67-10.99-38.77-19.81-38.65-2.57,3.08,.14,12.65,1.84,17.3,0,0,7.8,19.05,9.25,25.85,1.27,5.98,2.71,13.49,2.62,18.63-.02,.91-.39,1.77-1.01,2.44-1.66,1.79-1.66,3.24-2.74,5.23-.84,1.55-1.76,2.14-1.5,2.48,.34,.45,1.4,1.04,2.72,.2,.67-.42,1.1-.91,2.06-1.98,0,0-.24,3.72-1.61,6.82l-1.84,1.06s.56,1.92,5.02,.64c5.03-1.44,6.83-2.07,7.37-10.6,.15-2.46,.39-6.34,.09-9.44-.76-8.09-1.3-15.21-2.47-19.98Z"/>
            <path class="cls-2" d="M53.57,40.62s8.9,2.07,11.03,5.33c2.46,3.77,3.4,8.63,7.53,23.35,4.14,14.72,4.51,25.62,4.72,33.9,0,0-5.18,2.42-9.97-.34,0,0-2.12-12.8-4-19.62-1.88-6.81-7.9-21.57-7.9-21.57,0,0-4.76-10.8-1.41-21.05Z"/>
          </g>
          <path class="cls-1" d="M44.6,124c-.41,.25-.58-.51-.68-1.64l-.04-2.07s-1.58,1.42-1.97-3.38c-.43-5.28,1.94-6.25,1.94-6.25,0,0,.01-.88,.01-2.61s.37-2.16,.77-2.45l.59-.3v18.33s-.21,.12-.62,.37Z"/>
          <path class="cls-1" d="M46.54,121.39c0-1.57,.15-2.5,1.16-3.12,1.15-.71,1.65-.95,1.65-.95l.3-9.73s-1.67,1.12-2.24,1.45c-.57,.33-.9-1.65-.87-2.23l-1.36,.62-.16,15.02,1.52-1.06Z"/>
          <path class="cls-1" d="M49.82,120.45s-.53,.32-1.19,.72c-.66,.4-.95-1.62-.65-4.51l-.28-6.42c.3-2.89,.35-5.53,1-5.93l1.19-.72-.07,16.86Z"/>
        </g>
      </g>
    </g>
  </g>
</svg>