<?xml version="1.0" encoding="UTF-8"?>
<svg id="katman_2" data-name="katman 2" xmlns="http://www.w3.org/2000/svg" viewBox="0 0 184.66 316.99">
  <defs>
    <style>
      .cls-1 {
        fill: #fff;
      }

      .cls-2, .cls-3 {
        fill: #fafafa;
      }

      .cls-4 {
        fill: #455a64;
      }

      .cls-3 {
        stroke: #e0e0e0;
        stroke-miterlimit: 10;
      }

      .cls-5 {
        isolation: isolate;
      }

      .cls-6 {
        opacity: .2;
      }

      .cls-7 {
        fill: #e0e0e0;
      }

      .cls-8, .cls-9 {
        opacity: .15;
      }

      .cls-10, .cls-9, .cls-11 {
        fill: #27debf;
      }

      .cls-12, .cls-11 {
        opacity: .1;
      }
    </style>
  </defs>
  <g id="Gears">
    <g id="Gears-2" data-name="Gears">
      <path class="cls-10" d="M86.11,41.13c.07,0,.15,0,.22-.02l2.22-.34c.37-.06,.68-.26,.87-.56,.19-.3,.24-.67,.13-1.03l-1.21-4.1c-.07-.25,.06-.64,.29-.86,.24-.22,.46-.46,.66-.71,.12-.14,.32-.24,.5-.1l2.77,2.1c.32,.24,.69,.31,1.01,.19,.32-.12,.56-.4,.66-.79l.75-3.13c.15-.63-.07-1.45-.51-1.92l-2.73-2.86c-.24-.25-.46-.79-.48-1.17-.03-.71-.11-1.44-.23-2.19-.04-.24,.12-.52,.34-.59l1.75-.61c.34-.12,.62-.37,.77-.69s.17-.69,.04-1.04l-1.69-4.57c-.24-.64-.93-1.13-1.61-1.14l-2.11-.04c-.3,0-.71-.25-.87-.52-.44-.75-.92-1.48-1.41-2.15-.21-.29-.36-.85-.32-1.19l.4-3.1c.08-.63-.21-1.43-.69-1.86l-3.1-2.79c-.29-.26-.65-.36-.99-.28-.34,.08-.61,.34-.75,.71l-.9,2.4c-.03,.08-.08,.13-.14,.16-.07,.03-.16,.02-.25-.02-.46-.22-.92-.41-1.38-.56-.34-.11-.76-.46-.88-.75l-1.8-4.05c-.28-.64-1.04-1.05-1.73-.94l-2.22,.34c-.37,.06-.68,.26-.87,.56-.19,.3-.24,.67-.13,1.03l1.21,4.1c.07,.25-.06,.64-.29,.86-.23,.21-.46,.45-.66,.71-.12,.14-.32,.24-.5,.1l-2.77-2.1c-.32-.24-.68-.31-1.01-.19-.32,.12-.56,.4-.66,.79l-.75,3.13c-.15,.63,.07,1.45,.52,1.92l2.72,2.86c.24,.25,.46,.79,.48,1.17,.03,.72,.11,1.45,.23,2.19,.04,.24-.12,.52-.34,.59l-1.75,.61c-.34,.12-.62,.37-.77,.69-.15,.33-.17,.69-.04,1.04l1.69,4.57c.24,.64,.93,1.13,1.61,1.14l2.11,.04c.3,0,.71,.25,.87,.52,.44,.75,.92,1.47,1.41,2.15,.21,.29,.36,.85,.32,1.19l-.4,3.1c-.08,.63,.21,1.43,.69,1.86l3.1,2.79c.29,.26,.65,.37,.99,.28,.34-.08,.61-.34,.75-.71l.9-2.4c.03-.08,.08-.13,.14-.16,.07-.03,.16-.02,.25,.02,.46,.22,.92,.41,1.38,.56,.34,.11,.76,.46,.88,.75l1.79,4.05c.25,.57,.88,.96,1.51,.96Zm3.49-8.76c-.4,0-.79,.18-1.08,.54-.18,.22-.36,.42-.56,.6-.51,.47-.75,1.25-.57,1.86l1.21,4.1c.03,.08,.02,.16-.02,.22-.04,.06-.1,.1-.19,.11l-2.22,.34c-.25,.04-.57-.14-.68-.37l-1.8-4.05c-.27-.62-.95-1.11-1.48-1.28-.41-.13-.83-.31-1.25-.51-.34-.16-.71-.18-1.04-.05-.32,.13-.57,.39-.7,.73l-.9,2.4c-.02,.07-.05,.09-.06,.1,0,0-.04-.01-.09-.06l-3.1-2.79c-.23-.21-.41-.69-.37-1l.4-3.1c.08-.58-.14-1.4-.5-1.89-.48-.65-.94-1.35-1.36-2.07-.33-.56-1.07-1-1.7-1.01l-2.11-.04c-.28,0-.61-.24-.71-.5l-1.69-4.57c-.03-.09-.03-.19,.01-.27,.04-.09,.11-.15,.2-.18l1.75-.61c.67-.23,1.1-.97,.98-1.68-.11-.71-.19-1.41-.22-2.09-.03-.61-.35-1.38-.75-1.8l-2.72-2.86c-.21-.23-.34-.7-.27-1.01h0s.75-3.13,.75-3.13c.01-.05,.03-.08,.04-.09,0,0,.04,.02,.08,.05l2.77,2.1c.58,.44,1.38,.32,1.86-.27,.17-.22,.36-.42,.56-.6,.51-.47,.75-1.25,.57-1.86l-1.21-4.1c-.02-.08-.02-.16,.02-.22,.04-.06,.1-.1,.19-.11l2.22-.34c.25-.04,.57,.14,.68,.37l1.8,4.05c.27,.62,.95,1.11,1.48,1.28,.41,.13,.84,.31,1.25,.51,.34,.17,.71,.18,1.04,.05,.32-.13,.57-.39,.7-.73l.9-2.4c.02-.07,.05-.09,.06-.1,0,0,.04,.01,.09,.06l3.1,2.79c.24,.21,.41,.69,.37,1l-.4,3.1c-.08,.59,.14,1.4,.5,1.89,.48,.65,.93,1.35,1.36,2.07,.33,.56,1.06,.99,1.7,1.01l2.11,.04c.28,0,.61,.24,.71,.5l1.69,4.57c.03,.09,.03,.19-.01,.27-.04,.09-.11,.15-.2,.18l-1.75,.61c-.66,.23-1.1,.97-.99,1.67,.11,.71,.19,1.42,.22,2.09,.03,.61,.35,1.38,.75,1.8l2.73,2.86c.21,.23,.34,.71,.27,1.01l-.75,3.13c-.01,.05-.03,.08-.04,.09,0,0-.04-.02-.08-.05l-2.77-2.1c-.24-.18-.51-.27-.79-.27Zm-6.95-2.68c.4,0,.79-.06,1.16-.17,1.38-.43,2.37-1.62,2.79-3.36,.92-3.84-1.15-9.5-4.63-12.63-1.94-1.74-4.02-2.44-5.72-1.92-1.38,.43-2.37,1.62-2.79,3.36-.92,3.84,1.15,9.5,4.63,12.63h0c1.52,1.36,3.12,2.09,4.56,2.09Zm-5.24-17.27c1.19,0,2.56,.64,3.89,1.84,3.24,2.91,5.18,8.15,4.33,11.67-.34,1.41-1.07,2.33-2.12,2.65-1.36,.42-3.1-.2-4.77-1.71-3.24-2.91-5.18-8.15-4.33-11.67,.34-1.41,1.07-2.33,2.12-2.65,.28-.09,.57-.13,.88-.13Z"/>
      <path class="cls-10" d="M53.81,29.56c.05,0,.1,0,.15-.01l1.46-.23c.26-.04,.49-.19,.63-.4,.14-.21,.17-.48,.1-.74l-.8-2.69c-.04-.14,.04-.36,.17-.48,.16-.14,.3-.3,.44-.47,.04-.05,.14-.12,.22-.05l1.82,1.38c.23,.17,.5,.22,.73,.14,.24-.08,.41-.29,.48-.57l.5-2.06c.1-.43-.05-1.01-.36-1.33l-1.79-1.88c-.14-.15-.28-.49-.29-.72-.02-.47-.07-.96-.15-1.45-.02-.12,.06-.27,.17-.3l1.15-.4c.24-.09,.44-.26,.55-.49,.11-.23,.12-.5,.03-.74l-1.11-3c-.17-.45-.65-.79-1.13-.8l-1.39-.02c-.17,0-.42-.15-.51-.31-.29-.49-.6-.97-.93-1.42-.13-.18-.22-.52-.2-.73l.26-2.04c.06-.44-.15-.99-.48-1.29l-2.04-1.83c-.21-.19-.47-.26-.72-.2-.25,.06-.44,.25-.54,.51l-.59,1.58c-.08,.07-.11,.06-.15,.05-.31-.15-.62-.27-.92-.37-.2-.07-.46-.28-.53-.45l-1.18-2.66c-.2-.45-.72-.74-1.22-.66l-1.46,.23c-.26,.04-.49,.19-.62,.4-.14,.21-.17,.48-.1,.74l.8,2.69c.04,.14-.04,.36-.17,.48-.16,.14-.3,.3-.44,.47-.04,.05-.13,.12-.22,.05l-1.82-1.38c-.23-.17-.5-.22-.73-.14-.24,.08-.41,.29-.48,.57l-.5,2.06c-.11,.43,.05,1.01,.36,1.33l1.79,1.88c.14,.15,.28,.49,.29,.72,.02,.47,.07,.96,.15,1.45,.02,.12-.06,.27-.17,.3l-1.15,.4c-.25,.09-.44,.26-.55,.5-.11,.23-.12,.5-.03,.74l1.11,3c.16,.45,.65,.79,1.13,.8l1.39,.02c.17,0,.42,.15,.51,.31,.29,.49,.6,.97,.93,1.42,.13,.18,.22,.52,.2,.73l-.26,2.04c-.06,.44,.15,.99,.48,1.29l2.04,1.83c.21,.19,.48,.26,.72,.2,.25-.06,.44-.25,.54-.51l.59-1.58c.08-.07,.11-.06,.15-.05,.3,.15,.61,.27,.92,.37,.2,.07,.46,.28,.53,.45l1.18,2.66c.18,.4,.62,.68,1.06,.68Zm2.29-5.91c-.28,0-.57,.13-.77,.38-.11,.14-.23,.27-.36,.39-.36,.33-.52,.87-.4,1.3l.8,2.69-.08,.12-1.46,.23c-.14,.02-.31-.08-.36-.2l-1.18-2.66c-.19-.42-.65-.77-1.02-.89-.27-.09-.54-.2-.81-.33-.24-.12-.51-.13-.75-.04-.23,.09-.41,.28-.5,.52l-.59,1.58-2.02-1.84c-.13-.12-.24-.41-.22-.59l.26-2.04c.05-.4-.1-.96-.34-1.3-.31-.43-.61-.89-.89-1.36-.23-.39-.74-.69-1.19-.7l-1.39-.02c-.15,0-.34-.14-.39-.28l-1.11-3c-.02-.05,0-.09,0-.12,0-.02,.04-.06,.09-.08l1.15-.4c.47-.17,.78-.69,.7-1.19-.07-.46-.12-.92-.14-1.36-.02-.42-.24-.95-.51-1.23l-1.79-1.88c-.12-.13-.2-.42-.16-.59h0s.5-2.06,.5-2.06l1.78,1.4c.42,.32,.99,.23,1.33-.19,.11-.14,.23-.27,.36-.39,.36-.33,.52-.87,.4-1.3l-.8-2.69v-.52s.08,.4,.08,.4l1.46-.23c.14-.02,.31,.08,.36,.2l1.18,2.66c.19,.42,.65,.77,1.02,.89,.27,.09,.54,.2,.82,.33,.24,.12,.51,.13,.75,.03,.23-.09,.41-.28,.5-.52l.59-1.58,2.02,1.84c.13,.12,.24,.41,.22,.59l-.26,2.04c-.05,.4,.1,.96,.34,1.3,.31,.43,.61,.89,.89,1.36,.23,.39,.74,.69,1.18,.7l1.39,.02c.15,0,.34,.14,.39,.28l1.11,3c.02,.05,0,.1,0,.12-.01,.03-.04,.06-.09,.08l-1.15,.4c-.47,.17-.78,.69-.7,1.19,.08,.46,.12,.92,.14,1.36,.02,.42,.24,.94,.51,1.23l1.79,1.88c.12,.13,.2,.42,.16,.59l-.5,2.06-1.78-1.4c-.17-.13-.37-.19-.56-.19Zm-4.57-1.61c.27,0,.54-.04,.79-.12,.93-.29,1.6-1.09,1.88-2.26,.61-2.55-.76-6.3-3.07-8.38-1.29-1.16-2.69-1.63-3.83-1.27-.93,.29-1.6,1.09-1.88,2.26-.61,2.55,.76,6.3,3.07,8.38h0c1.01,.91,2.08,1.39,3.05,1.39Zm-3.44-11.35c.76,0,1.64,.41,2.5,1.19,2.11,1.9,3.38,5.3,2.83,7.59-.22,.9-.68,1.48-1.34,1.69-.87,.27-1.98-.13-3.06-1.11h0c-2.11-1.9-3.38-5.3-2.82-7.59,.22-.9,.68-1.48,1.34-1.69,.18-.05,.36-.08,.56-.08Z"/>
    </g>
  </g>
  <g id="Screen_2" data-name="Screen 2">
    <g id="Screen_1" data-name="Screen 1">
      <g id="Screen_1-2" data-name="Screen 1">
        <g>
          <path class="cls-11" d="M9.49,22.88c0-1.31,.47-2.21,1.23-2.62h0s3.15-1.81,3.15-1.81h0c.73-.44,1.75-.4,2.88,.25L180.65,113.34c2.22,1.28,4.02,4.4,4.02,6.96v191.97c0,1.29-.46,2.19-1.2,2.61h0s-3.22,1.84-3.22,1.84h0c-.73,.42-1.73,.36-2.85-.28L13.5,221.82c-2.22-1.28-4.02-4.4-4.02-6.96V22.88Z"/>
          <path class="cls-11" d="M13.51,20.56L177.4,115.19c2.22,1.28,4.02,4.4,4.02,6.96v191.97c0,2.56-1.8,3.6-4.02,2.32L13.5,221.82c-2.22-1.28-4.02-4.4-4.02-6.96V22.88c0-2.56,1.8-3.6,4.02-2.32Z"/>
          <path class="cls-9" d="M9.49,22.88V214.85c0,2.57,1.79,5.68,4.02,6.97l163.9,94.62c1.98,1.13,3.61,.45,3.96-1.52-.23-.08-.46-.2-.71-.33L16.74,219.97c-2.21-1.29-4.02-4.4-4.02-6.97V21.03c0-.3,.02-.56,.07-.81-1.88-.7-3.31,.37-3.31,2.66Z"/>
          <path class="cls-1" d="M13.5,20.56l41.97,24.7,42.05,24.56,42.13,24.42,21.07,12.21,10.55,6.07,5.28,3.03c1.7,.85,2.87,2.39,3.6,4.13,.36,.88,.55,1.75,.54,2.69v3.04s.01,6.09,.01,6.09l.02,12.17,.03,24.35,.14,48.7,.21,48.7,.33,48.7,.33-48.7,.21-48.7,.14-48.7,.03-24.35,.02-12.17v-6.09s.01-3.04,.01-3.04c.03-1.1-.22-2.24-.63-3.24-.4-1.02-.98-1.96-1.67-2.8-.35-.42-.75-.81-1.18-1.17-.43-.35-.95-.66-1.37-.9l-5.27-3.05-10.53-6.1-21.11-12.14-42.21-24.28-42.29-24.14L13.5,20.56Z"/>
        </g>
      </g>
      <g id="Chart">
        <path class="cls-2" d="M163.28,128.26l-75.69-43.7c-1.18-.68-2.13-.13-2.13,1.23v64.32c0,1.36,.95,3.01,2.13,3.69l75.69,43.7c1.18,.68,2.13,.13,2.13-1.23v-64.32c0-1.36-.95-3.01-2.13-3.69Z"/>
        <g>
          <path class="cls-4" d="M156.3,181.95c0,.07,0,.15,0,.24v.53c0,.09,0,.17,0,.24,0,.22,.03,.44,.06,.64,.03,.21,.09,.4,.17,.58,.08,.18,.18,.35,.3,.49,.12,.15,.27,.27,.45,.38,.18,.1,.33,.15,.45,.15,.12,0,.22-.06,.3-.15,.08-.09,.13-.22,.17-.39,.04-.16,.06-.35,.06-.57,0-.14,0-.3,0-.48s0-.35,0-.49c0-.22-.03-.44-.06-.65-.04-.21-.09-.41-.17-.59-.08-.18-.18-.35-.3-.5-.12-.15-.27-.28-.45-.38-.18-.1-.33-.15-.45-.14-.12,0-.22,.05-.3,.15-.08,.09-.13,.22-.17,.39-.04,.16-.06,.36-.06,.57Zm1.48,1.83c-.01,.26-.05,.45-.13,.56-.07,.11-.19,.11-.36,.01-.17-.1-.29-.24-.36-.43-.07-.19-.11-.42-.13-.7,0-.15,0-.31,0-.48s0-.33,0-.47c.01-.26,.05-.45,.13-.56,.07-.11,.19-.11,.36-.01,.17,.1,.29,.24,.36,.43,.07,.19,.11,.42,.13,.7,0,.15,0,.31,0,.48s0,.33,0,.47Z"/>
          <path class="cls-7" d="M150.79,180.24c.17,0,.33-.09,.43-.25,.14-.24,.06-.54-.18-.67l-57.21-33.03c-.23-.13-.54-.06-.67,.18-.14,.24-.06,.54,.18,.67l57.21,33.03c.08,.04,.16,.07,.25,.07Z"/>
          <g>
            <path class="cls-4" d="M159.23,167.63s.02-.06,.02-.1c0-.04-.02-.09-.04-.12l-.79-1.42s-.04-.07-.06-.1c-.02-.03-.04-.06-.07-.07l-.29-.16s-.05-.01-.07,0c-.02,.02-.03,.05-.03,.09v3.64s.01,.08,.03,.12c.02,.04,.04,.07,.07,.09l.3,.17s.05,.01,.07,0c.02-.02,.03-.05,.03-.09v-2.79l.52,.93s.05,.06,.07,.07c.02,0,.05,0,.07-.02l.17-.23Z"/>
            <path class="cls-4" d="M155.47,165.65c0,.07,0,.15,0,.23v.53c0,.09,0,.17,0,.24,0,.22,.03,.44,.06,.64,.04,.21,.09,.4,.17,.58,.08,.18,.18,.35,.3,.49,.12,.15,.27,.27,.45,.38,.18,.1,.33,.15,.45,.15,.12,0,.22-.06,.3-.15,.08-.09,.13-.22,.17-.39,.04-.16,.06-.35,.06-.57,0-.14,0-.3,0-.48s0-.35,0-.49c0-.22-.03-.44-.06-.65-.03-.21-.09-.41-.17-.59-.08-.18-.18-.35-.3-.5-.12-.15-.27-.28-.45-.38-.18-.1-.33-.15-.45-.14-.12,0-.22,.05-.3,.15-.08,.09-.13,.22-.17,.39-.04,.16-.06,.36-.06,.57Zm1.48,1.83c-.01,.26-.05,.45-.13,.56-.07,.11-.19,.11-.37,.01-.17-.1-.29-.24-.36-.43-.07-.19-.11-.42-.13-.7,0-.15,0-.31,0-.48s0-.33,0-.47c.01-.26,.05-.45,.13-.56,.07-.11,.19-.11,.36-.01,.17,.1,.29,.24,.37,.43,.07,.19,.11,.42,.13,.7,0,.15,0,.31,0,.48s0,.33,0,.47Z"/>
          </g>
          <path class="cls-7" d="M150.79,164.43c.17,0,.33-.09,.43-.25,.14-.24,.06-.54-.18-.67l-57.21-33.03c-.23-.13-.54-.06-.67,.18-.14,.24-.06,.54,.18,.67l57.21,33.03c.08,.04,.16,.07,.25,.07Z"/>
          <g>
            <path class="cls-4" d="M158.25,151.71c-.07-.13-.12-.25-.14-.36-.02-.11-.03-.2-.03-.28,0-.15,.03-.27,.09-.34,.06-.07,.16-.07,.3,.02,.13,.08,.23,.19,.29,.32,.06,.14,.11,.29,.13,.47,0,.05,.02,.1,.04,.13,.02,.04,.04,.06,.07,.08l.29,.17s.05,.01,.07,0c.02-.02,.03-.05,.03-.09,0-.17-.04-.35-.08-.53-.05-.18-.11-.35-.2-.51-.08-.16-.18-.31-.29-.43-.11-.13-.23-.23-.36-.3-.15-.09-.29-.13-.4-.11-.11,.01-.21,.06-.28,.14-.07,.08-.13,.18-.16,.31-.04,.13-.05,.27-.05,.41,0,.09,0,.19,.01,.27,0,.09,.02,.18,.05,.28,.03,.1,.07,.21,.12,.33,.05,.12,.12,.26,.2,.41l.68,1.34-1.02-.59s-.05-.01-.07,0c-.02,.02-.03,.05-.03,.09v.4s0,.08,.03,.12c.02,.04,.04,.07,.07,.09l1.71,.99s.05,.01,.07,0c.02-.02,.03-.05,.03-.09v-.34c0-.06-.01-.13-.04-.19s-.05-.11-.06-.14l-1.09-2.08Z"/>
            <path class="cls-4" d="M155.18,149.68c0,.07,0,.15,0,.23v.53c0,.09,0,.17,0,.24,0,.22,.03,.44,.06,.64,.04,.21,.09,.4,.17,.58,.08,.18,.18,.35,.3,.49,.12,.15,.27,.27,.45,.38,.18,.1,.33,.15,.45,.15,.12,0,.22-.06,.3-.15,.08-.09,.13-.22,.17-.39,.04-.16,.06-.35,.06-.57,0-.14,0-.3,0-.48s0-.35,0-.49c0-.22-.03-.44-.06-.65-.03-.21-.09-.41-.17-.59-.08-.18-.18-.35-.3-.5-.12-.15-.27-.28-.45-.38-.18-.1-.33-.15-.45-.14-.12,0-.22,.05-.3,.15-.08,.09-.13,.22-.17,.39-.04,.16-.06,.36-.06,.57Zm1.48,1.83c-.01,.26-.05,.45-.13,.56-.07,.11-.19,.11-.37,.01-.17-.1-.29-.24-.36-.43-.07-.19-.11-.42-.13-.7,0-.15,0-.31,0-.48s0-.33,0-.47c.01-.26,.05-.45,.13-.56,.07-.11,.19-.11,.36-.01,.17,.1,.29,.24,.37,.43,.07,.19,.11,.42,.13,.7,0,.15,0,.31,0,.48s0,.33,0,.47Z"/>
          </g>
          <path class="cls-7" d="M150.79,148.61c.17,0,.33-.09,.43-.25,.14-.24,.06-.54-.18-.67l-57.21-33.03c-.23-.13-.54-.06-.67,.18-.14,.24-.06,.54,.18,.67l57.21,33.03c.08,.04,.16,.07,.25,.07Z"/>
          <g>
            <path class="cls-4" d="M157.69,133.84s-.05-.01-.07,0c-.02,.02-.03,.05-.03,.09v.4s0,.09,.03,.13c.02,.05,.04,.09,.05,.12l.53,1.18c-.11-.04-.21-.06-.3-.05-.09,0-.17,.04-.23,.1-.06,.06-.11,.15-.15,.26-.03,.11-.05,.25-.05,.41,0,.2,.03,.38,.08,.56,.05,.18,.12,.35,.21,.51,.09,.16,.19,.3,.31,.42,.12,.13,.25,.23,.39,.31,.17,.1,.32,.15,.45,.16,.13,.01,.23,0,.31-.06,.09-.05,.15-.12,.19-.22,.04-.1,.07-.21,.08-.32,0-.04,0-.09-.03-.13-.02-.04-.05-.07-.07-.08l-.29-.17s-.04-.01-.06,0c-.02,.01-.03,.04-.05,.07-.01,.04-.03,.07-.06,.09-.02,.03-.06,.04-.1,.05-.04,0-.09,0-.15-.01-.06-.02-.14-.05-.22-.1-.15-.09-.27-.2-.36-.35-.09-.15-.14-.3-.14-.47s.05-.26,.14-.28c.09-.02,.21,.01,.36,.1l.3,.18s.05,.01,.07,0c.02-.02,.03-.05,.03-.09v-.4s0-.09-.03-.13c-.02-.05-.04-.09-.05-.12l-.51-1.13,1.01,.58s.05,.01,.07,0c.02-.02,.03-.05,.03-.09v-.4s0-.08-.03-.12c-.02-.04-.04-.07-.07-.09l-1.6-.93Z"/>
            <path class="cls-4" d="M155.14,133.84c0,.07,0,.15,0,.24v.53c0,.09,0,.17,0,.24,0,.22,.03,.44,.06,.64,.04,.21,.09,.4,.17,.58,.08,.18,.18,.35,.3,.49,.12,.15,.27,.27,.45,.38,.18,.1,.33,.15,.45,.15,.12,0,.22-.06,.3-.15,.08-.09,.13-.22,.17-.39,.04-.16,.06-.35,.06-.57,0-.14,0-.3,0-.48s0-.35,0-.49c0-.22-.03-.44-.06-.65-.04-.21-.09-.41-.17-.59-.08-.18-.18-.35-.3-.5-.12-.15-.27-.28-.45-.38-.18-.1-.33-.15-.45-.14-.12,0-.22,.05-.3,.15-.08,.09-.13,.22-.17,.39-.04,.16-.06,.36-.06,.57Zm1.48,1.83c-.01,.26-.05,.45-.13,.56-.07,.11-.19,.11-.36,.01-.17-.1-.29-.24-.36-.43-.07-.19-.11-.42-.13-.7,0-.15,0-.31,0-.48s0-.33,0-.47c.01-.26,.05-.45,.13-.56,.07-.11,.19-.11,.36-.01,.17,.1,.29,.24,.36,.43,.07,.19,.11,.42,.13,.7,0,.15,0,.31,0,.48s0,.33,0,.47Z"/>
          </g>
          <path class="cls-7" d="M150.79,132.8c.17,0,.33-.09,.43-.25,.14-.24,.06-.54-.18-.67l-57.21-33.03c-.23-.13-.54-.06-.67,.18-.14,.24-.06,.54,.18,.67l57.21,33.03c.08,.04,.16,.07,.25,.07Z"/>
          <g class="cls-5">
            <path class="cls-10" d="M150.79,179.75v-45.04s-5.7-3.98-9.85,9.22c-4.15,13.2-12.7,7.92-18.37-1.63-5.72-9.64-8.22-19.19-14.32-22.72-6.1-3.52-10.52,8.84-14.67,6.45v20.69l57.21,33.03Z"/>
            <path class="cls-6" d="M150.79,179.75v-45.04s-5.7-3.98-9.85,9.22c-4.15,13.2-12.7,7.92-18.37-1.63-5.72-9.64-8.22-19.19-14.32-22.72-6.1-3.52-10.52,8.84-14.67,6.45v20.69l57.21,33.03Z"/>
            <path class="cls-10" d="M150.79,172.92s-3.02-14.65-5.87-16.29c-3.66-2.11-4.15,11.13-10.49,7.47-6.35-3.66-7.97-36.3-14.48-40.05-6.51-3.76-7.53,14.6-12.33,11.83-4.8-2.77-5.91-13.09-14.04-17.79v28.63l57.21,33.03v-6.83Z"/>
            <path class="cls-12" d="M99.19,123.36c3.48,4.85,5.04,10.56,8.43,12.52,3.03,1.75,4.55-4.91,6.9-9.13,2.49,4.38,4.73,9.94,8.05,15.54,1.76,2.97,3.8,5.53,5.9,7.24,1.64,7.01,3.42,13.1,5.95,14.56,6.35,3.66,6.83-9.58,10.49-7.47,2.85,1.64,5.87,16.29,5.87,16.29v6.83l-57.21-33.03v-20.69c1.78,1.03,3.62-.67,5.61-2.67Z"/>
          </g>
        </g>
      </g>
      <g id="Chart-2" data-name="Chart">
        <path class="cls-2" d="M163.28,220.61l-75.69-43.7c-1.18-.68-2.13-.13-2.13,1.23v64.32c0,1.36,.95,3.01,2.13,3.69l75.69,43.7c1.18,.68,2.13,.13,2.13-1.23v-64.32c0-1.36-.95-3.01-2.13-3.69Z"/>
        <g>
          <polygon class="cls-7" points="152.98 272.76 157.18 275.18 157.18 228.23 152.98 225.81 152.98 272.76"/>
          <polygon class="cls-7" points="145.57 268.48 149.77 270.9 149.77 223.96 145.57 221.53 145.57 268.48"/>
          <polygon class="cls-7" points="138.16 264.2 142.36 266.62 142.36 219.68 138.16 217.25 138.16 264.2"/>
          <polygon class="cls-7" points="130.75 259.92 134.94 262.35 134.94 215.4 130.75 212.97 130.75 259.92"/>
          <polygon class="cls-7" points="123.33 255.64 127.53 258.07 127.53 211.12 123.33 208.69 123.33 255.64"/>
          <polygon class="cls-7" points="115.92 251.36 120.12 253.79 120.12 206.84 115.92 204.42 115.92 251.36"/>
          <polygon class="cls-10" points="120.12 206.84 115.92 204.42 115.92 225.84 120.12 228.27 120.12 206.84"/>
          <polygon class="cls-7" points="108.51 247.09 112.71 249.51 112.71 202.56 108.51 200.14 108.51 247.09"/>
          <polygon class="cls-7" points="101.1 242.81 105.3 245.23 105.3 198.28 101.1 195.86 101.1 242.81"/>
          <polygon class="cls-7" points="93.69 238.53 97.89 240.95 97.89 194 93.69 191.58 93.69 238.53"/>
          <g>
            <polygon class="cls-10" points="157.18 238.48 152.98 236.06 152.98 262.27 157.18 264.7 157.18 238.48"/>
            <polygon class="cls-8" points="157.18 264.7 152.98 262.27 152.98 272.76 157.18 275.18 157.18 264.7"/>
          </g>
          <g>
            <polygon class="cls-10" points="149.77 240.16 145.57 237.74 145.57 247.18 149.77 249.6 149.77 240.16"/>
            <polygon class="cls-8" points="149.77 249.6 145.57 247.18 145.57 268.48 149.77 270.9 149.77 249.6"/>
          </g>
          <g>
            <polygon class="cls-10" points="142.36 223.61 138.16 221.18 138.16 229.42 142.36 231.84 142.36 223.61"/>
            <polygon class="cls-8" points="142.36 231.84 138.16 229.42 138.16 264.2 142.36 266.62 142.36 231.84"/>
          </g>
          <g>
            <polygon class="cls-10" points="134.94 225.65 130.75 223.22 130.75 243.97 134.94 246.4 134.94 225.65"/>
            <polygon class="cls-8" points="134.94 246.4 130.75 243.97 130.75 259.92 134.94 262.35 134.94 246.4"/>
          </g>
          <g>
            <polygon class="cls-10" points="127.53 229.8 123.33 227.37 123.33 236.15 127.53 238.57 127.53 229.8"/>
            <polygon class="cls-8" points="127.53 238.57 123.33 236.15 123.33 255.64 127.53 258.07 127.53 238.57"/>
          </g>
          <polygon class="cls-8" points="120.12 228.27 115.92 225.84 115.92 251.36 120.12 253.79 120.12 228.27"/>
          <g>
            <polygon class="cls-10" points="112.71 227.39 108.51 224.97 108.51 235.29 112.71 237.71 112.71 227.39"/>
            <polygon class="cls-8" points="112.71 237.71 108.51 235.29 108.51 247.09 112.71 249.51 112.71 237.71"/>
          </g>
          <g>
            <polygon class="cls-10" points="105.3 206.33 101.1 203.91 101.1 227.25 105.3 229.67 105.3 206.33"/>
            <polygon class="cls-8" points="105.3 229.67 101.1 227.25 101.1 242.81 105.3 245.23 105.3 229.67"/>
          </g>
          <g>
            <polygon class="cls-10" points="97.89 214.77 93.69 212.35 93.69 220.47 97.89 222.9 97.89 214.77"/>
            <polygon class="cls-10" points="97.89 222.9 93.69 220.47 93.69 238.53 97.89 240.95 97.89 222.9"/>
            <polygon class="cls-10" points="157.18 264.7 152.98 262.27 152.98 272.76 157.18 275.18 157.18 264.7"/>
            <polygon class="cls-6" points="157.18 264.7 152.98 262.27 152.98 272.76 157.18 275.18 157.18 264.7"/>
            <polygon class="cls-10" points="149.77 249.6 145.57 247.18 145.57 268.48 149.77 270.9 149.77 249.6"/>
            <polygon class="cls-6" points="149.77 249.6 145.57 247.18 145.57 268.48 149.77 270.9 149.77 249.6"/>
            <polygon class="cls-10" points="142.36 231.84 138.16 229.42 138.16 264.2 142.36 266.62 142.36 231.84"/>
            <polygon class="cls-6" points="142.36 231.84 138.16 229.42 138.16 264.2 142.36 266.62 142.36 231.84"/>
            <polygon class="cls-10" points="134.94 246.4 130.75 243.97 130.75 259.92 134.94 262.35 134.94 246.4"/>
            <polygon class="cls-6" points="134.94 246.4 130.75 243.97 130.75 259.92 134.94 262.35 134.94 246.4"/>
            <polygon class="cls-10" points="127.53 238.57 123.33 236.15 123.33 255.64 127.53 258.07 127.53 238.57"/>
            <polygon class="cls-6" points="127.53 238.57 123.33 236.15 123.33 255.64 127.53 258.07 127.53 238.57"/>
            <polygon class="cls-10" points="120.12 228.27 115.92 225.84 115.92 251.36 120.12 253.79 120.12 228.27"/>
            <polygon class="cls-6" points="120.12 228.27 115.92 225.84 115.92 251.36 120.12 253.79 120.12 228.27"/>
            <polygon class="cls-10" points="112.71 237.71 108.51 235.29 108.51 247.09 112.71 249.51 112.71 237.71"/>
            <polygon class="cls-6" points="112.71 237.71 108.51 235.29 108.51 247.09 112.71 249.51 112.71 237.71"/>
            <polygon class="cls-10" points="105.3 229.67 101.1 227.25 101.1 242.81 105.3 245.23 105.3 229.67"/>
            <polygon class="cls-6" points="105.3 229.67 101.1 227.25 101.1 242.81 105.3 245.23 105.3 229.67"/>
            <polygon class="cls-6" points="97.89 222.9 93.69 220.47 93.69 238.53 97.89 240.95 97.89 222.9"/>
          </g>
        </g>
      </g>
      <g id="Chart-3" data-name="Chart">
        <path class="cls-3" d="M62.6,106.6L2.63,71.98c-1.18-.68-2.13-.13-2.13,1.23v64.32c0,1.36,.95,3.01,2.13,3.69l59.96,34.62c1.18,.68,2.13,.13,2.13-1.23V110.29c0-1.36-.95-3.01-2.13-3.69Z"/>
        <g>
          <g>
            <path class="cls-4" d="M32.61,102.8c-3.48-2.01-6.69-2.35-9.3-1.32l9.3,22.43v-21.11Z"/>
            <path class="cls-10" d="M41.91,112.21c-2.61-4.04-5.82-7.41-9.3-9.42v21.11l9.3-11.7Z"/>
            <path class="cls-10" d="M47.67,126.08c-1.04-4.88-3.09-9.73-5.76-13.87l-9.3,11.7,15.06,2.17Z"/>
            <path class="cls-4" d="M23.31,101.48c-2.67,1.05-4.72,3.54-5.76,7.22l15.06,15.22-9.3-22.43Z"/>
            <path class="cls-10" d="M47.67,139.13c.5-1.77,.78-3.8,.78-6.07s-.28-4.63-.78-6.97l-15.06-2.17,15.06,15.22Z"/>
            <path class="cls-10" d="M17.56,121.74c1.04,4.88,3.09,9.73,5.76,13.87l9.3-11.7-15.06-2.17Z"/>
            <path class="cls-10" d="M32.61,145.02c3.48,2.01,6.69,2.35,9.3,1.32l-9.3-22.43v21.11Z"/>
            <path class="cls-10" d="M47.67,139.13l-15.06-15.22,9.3,22.43c2.67-1.05,4.72-3.54,5.76-7.22Z"/>
            <path class="cls-12" d="M41.91,112.21c2.67,4.14,4.72,8.98,5.76,13.87,.5,2.34,.78,4.69,.78,6.97s-.28,4.31-.78,6.07c-1.04,3.68-3.09,6.17-5.76,7.22l-9.3-22.43,9.3-11.7Z"/>
            <path class="cls-10" d="M17.56,108.69c-.5,1.77-.78,3.8-.78,6.07s.28,4.63,.78,6.97l15.06,2.17-15.06-15.22Z"/>
            <path class="cls-10" d="M23.31,135.61c2.61,4.04,5.82,7.41,9.3,9.42v-21.11l-9.3,11.7Z"/>
            <path class="cls-6" d="M17.56,108.69l15.06,15.22,9.3,22.43c-2.61,1.03-5.82,.69-9.3-1.32-3.48-2.01-6.69-5.37-9.3-9.42-2.67-4.14-4.72-8.98-5.76-13.87-.5-2.34-.78-4.69-.78-6.97s.28-4.31,.78-6.07Z"/>
          </g>
          <path class="cls-7" d="M40.15,151.96c1.84,0,3.57-.44,5.12-1.34,4.32-2.5,6.8-8.24,6.8-15.76,0-14.1-8.62-30.55-19.21-36.66-4.72-2.72-9.3-3.08-12.9-1-4.32,2.5-6.8,8.24-6.8,15.76,0,14.1,8.62,30.55,19.21,36.66,2.69,1.55,5.34,2.34,7.79,2.34Zm-15.08-55.12c2.28,0,4.76,.74,7.29,2.2,10.32,5.96,18.72,22.02,18.72,35.81,0,7.16-2.3,12.6-6.31,14.91-3.29,1.9-7.52,1.54-11.92-1-10.32-5.96-18.72-22.02-18.72-35.81,0-7.16,2.3-12.6,6.31-14.91,1.39-.8,2.95-1.2,4.63-1.2Z"/>
        </g>
      </g>
      <g id="Speech_Bubble" data-name="Speech Bubble">
        <path class="cls-10" d="M66.83,91.16c.31,0,.6-.08,.87-.23,.61-.35,.95-1.05,.95-1.97v-20.35c0-1.71-1.16-3.71-2.63-4.56l-32.56-18.8c-.8-.46-1.57-.52-2.18-.17-.61,.35-.95,1.05-.95,1.97v20.35c0,1.7,1.16,3.71,2.63,4.56l4.82,2.78,3.25,11.07c.14,.47,.54,.79,1.02,.82,.46,.04,.93-.24,1.12-.69l2.8-6.47,19.53,11.28c.45,.26,.9,.39,1.31,.39ZM32.96,46.1l32.56,18.8c1.16,.67,2.14,2.37,2.14,3.71v20.35c0,.55-.17,.95-.45,1.12-.29,.17-.73,.11-1.2-.17l-20.49-11.83-3.24,7.48c-.04,.08-.09,.1-.16,.1-.05,0-.12-.03-.14-.11l-3.37-11.45-5.17-2.98c-1.16-.67-2.14-2.37-2.14-3.71v-20.35c0-.54,.16-.95,.45-1.12,.29-.17,.72-.11,1.2,.17h0Z"/>
        <path class="cls-10" d="M60.68,70.63c.17,0,.34-.09,.43-.25,.14-.24,.06-.54-.18-.67l-22.4-12.93c-.23-.13-.54-.06-.67,.18-.14,.24-.06,.54,.18,.67l22.4,12.93c.08,.04,.16,.07,.25,.07Z"/>
        <path class="cls-10" d="M60.68,74.97c.17,0,.34-.09,.43-.25,.14-.24,.06-.54-.18-.67l-22.4-12.93c-.23-.13-.54-.06-.67,.18-.14,.24-.06,.54,.18,.67l22.4,12.93c.08,.04,.16,.07,.25,.07Z"/>
        <path class="cls-10" d="M60.68,79.3c.17,0,.34-.09,.43-.25,.14-.24,.06-.54-.18-.67l-22.4-12.93c-.23-.13-.54-.06-.67,.18-.14,.24-.06,.54,.18,.67l22.4,12.93c.08,.04,.16,.07,.25,.07Z"/>
      </g>
      <g id="Check_List" data-name="Check List">
        <g>
          <g>
            <path class="cls-10" d="M73.47,206.16c.08,0,.17-.02,.25-.07,.15-.09,.25-.25,.25-.43v-9.23c0-.18-.09-.34-.25-.43l-8-4.62c-.15-.09-.34-.09-.49,0-.15,.09-.25,.25-.25,.43v9.23c0,.18,.09,.34,.25,.43l8,4.62c.08,.04,.16,.07,.25,.07Zm-.49-9.44v8.1l-7.01-4.05v-8.09s7.01,4.05,7.01,4.05Z"/>
            <path id="Check" class="cls-4" d="M64.53,189.5c.49-.21,1.06,.03,1.27,.52l3.67,8.72,.87-.85c.38-.37,1-.36,1.37,.02,.37,.38,.36,1-.02,1.37l-1.89,1.84c-.18,.18-.42,.27-.68,.27-.06,0-.13,0-.19-.02-.31-.06-.58-.28-.7-.57l-4.22-10.03c-.21-.49,.03-1.06,.52-1.27Z"/>
          </g>
          <path class="cls-4" d="M58.68,191.12l-29.42-16.99c-.71-.41-1.28-.11-1.28,.65s.57,1.72,1.28,2.13l29.42,16.99c.71,.41,1.28,.12,1.28-.65,0-.77-.57-1.72-1.28-2.13Z"/>
        </g>
        <g>
          <g>
            <path class="cls-10" d="M73.47,220c.08,0,.17-.02,.25-.07,.15-.09,.25-.25,.25-.43v-9.23c0-.18-.09-.34-.25-.43l-8-4.62c-.15-.09-.34-.09-.49,0-.15,.09-.25,.25-.25,.43v9.23c0,.18,.09,.34,.25,.43l8,4.62c.08,.04,.16,.07,.25,.07Zm-.49-9.44v8.09l-7.01-4.05v-8.1l7.01,4.05Z"/>
            <path id="Check-2" data-name="Check" class="cls-4" d="M64.53,203.35c.49-.21,1.06,.03,1.27,.52l3.67,8.72,.87-.85c.38-.37,1-.36,1.37,.02,.37,.38,.36,1-.02,1.37l-1.89,1.84c-.18,.18-.42,.27-.68,.27-.06,0-.13,0-.19-.02-.31-.06-.58-.28-.7-.57l-4.22-10.03c-.21-.49,.03-1.06,.52-1.27Z"/>
          </g>
          <path class="cls-4" d="M58.68,204.92l-29.42-16.99c-.71-.41-1.28-.11-1.28,.65s.57,1.72,1.28,2.13l29.42,16.99c.71,.41,1.28,.12,1.28-.65,0-.77-.57-1.72-1.28-2.13Z"/>
        </g>
        <g>
          <g>
            <path class="cls-10" d="M73.47,233.85c.08,0,.17-.02,.25-.07,.15-.09,.25-.25,.25-.43v-9.23c0-.18-.09-.34-.25-.43l-8-4.62c-.15-.09-.34-.09-.49,0-.15,.09-.25,.25-.25,.43v9.23c0,.18,.09,.34,.25,.43l8,4.62c.08,.04,.16,.07,.25,.07Zm-.49-9.44v8.1l-7.01-4.05v-8.09l7.01,4.05Z"/>
            <path id="Check-3" data-name="Check" class="cls-4" d="M64.53,217.2c.49-.21,1.06,.03,1.27,.52l3.67,8.72,.87-.85c.38-.37,1-.36,1.37,.02,.37,.38,.36,1-.02,1.37l-1.89,1.84c-.18,.18-.42,.27-.68,.27-.06,0-.13,0-.19-.02-.31-.06-.58-.28-.7-.57l-4.22-10.03c-.21-.49,.03-1.06,.52-1.27Z"/>
          </g>
          <path class="cls-4" d="M58.68,218.73l-29.42-16.99c-.71-.41-1.28-.11-1.28,.65s.57,1.72,1.28,2.13l29.42,16.99c.71,.41,1.28,.11,1.28-.65,0-.77-.57-1.72-1.28-2.13Z"/>
        </g>
      </g>
    </g>
  </g>
</svg>